<svg version="1.1" id="Layer_1" xmlns="http://www.w3.org/2000/svg" xmlns:xlink="http://www.w3.org/1999/xlink" x="0px" y="0px"
	 width="100%" viewBox="0 0 1000 1000" enable-background="new 0 0 1000 1000" xml:space="preserve">
<path fill="transparent" opacity="1.000000" stroke="none" 
	d="
M580.000000,1001.000000 
	C386.666656,1001.000000 193.833328,1001.000000 1.000000,1001.000000 
	C1.000000,667.666687 1.000000,334.333344 1.000000,1.000000 
	C334.333344,1.000000 667.666687,1.000000 1001.000000,1.000000 
	C1001.000000,334.333344 1001.000000,667.666687 1001.000000,1001.000000 
	C860.833313,1001.000000 720.666687,1001.000000 580.000000,1001.000000 
M103.500000,388.939240 
	C96.003288,388.936096 88.501053,389.102417 81.012192,388.858398 
	C77.265358,388.736328 75.805443,389.609009 75.813309,393.766876 
	C75.937576,459.404572 75.893425,525.042603 75.888054,590.680542 
	C75.887512,597.238647 75.887978,603.796814 75.887978,610.354919 
	C76.323929,610.433716 76.759872,610.512451 77.195824,610.591248 
	C107.946800,537.032654 138.697784,463.474030 169.856873,388.939209 
	C147.347748,388.939209 125.923874,388.939209 103.500000,388.939240 
M543.233948,479.780762 
	C531.691223,488.444397 526.031006,500.280029 524.972839,514.404907 
	C522.939270,541.550720 536.818542,560.693176 562.081421,565.338501 
	C577.759033,568.221375 592.928101,565.325378 607.623779,559.799622 
	C609.011658,559.277771 610.324951,556.556213 610.368347,554.823242 
	C610.518066,548.843567 609.920105,542.849670 609.909546,536.860657 
	C609.850769,503.546570 609.882507,470.232300 609.877197,436.918091 
	C609.876892,435.086243 610.089722,433.192566 609.686096,431.447266 
	C609.466492,430.497559 608.177063,429.120972 607.335999,429.096222 
	C600.735962,428.902069 594.127686,428.988617 586.936523,428.988617 
	C586.936523,442.528412 586.936523,455.426575 586.936523,468.991882 
	C571.143433,468.074249 556.452942,469.783020 543.233948,479.780762 
M451.505066,531.417175 
	C460.169281,531.417480 468.835327,531.519531 477.496704,531.362610 
	C480.500916,531.308228 482.079163,532.438538 482.986237,535.237549 
	C484.884644,541.095459 486.886414,546.924194 489.014465,552.702698 
	C494.278931,566.997803 490.033783,564.238708 505.672333,564.551636 
	C509.513550,564.628540 513.357605,564.563171 517.718567,564.563171 
	C517.091187,562.229858 516.903687,561.264893 516.575195,560.350525 
	C510.670593,543.913696 504.741425,527.485596 498.832947,511.050079 
	C490.670868,488.345642 482.495453,465.645935 474.403320,442.916565 
	C473.498444,440.374908 472.238953,439.206207 469.361511,439.291504 
	C462.536804,439.493774 455.697296,439.489594 448.872772,439.278320 
	C445.543640,439.175262 443.965698,440.186676 443.839050,443.673859 
	C443.749512,446.140289 443.358032,448.695160 442.552124,451.020172 
	C437.160309,466.574768 431.604584,482.072418 426.133636,497.599670 
	C418.891602,518.153564 411.735779,538.738159 404.403046,559.259521 
	C402.990143,563.213745 403.732483,564.842224 408.122955,564.636841 
	C412.610992,564.427063 417.121887,564.420593 421.610748,564.610168 
	C424.864380,564.747681 426.351929,563.387329 427.244690,560.322571 
	C428.825653,554.895569 430.839569,549.595032 432.656738,544.236267 
	C436.984039,531.475098 436.980377,531.473877 451.505066,531.417175 
M240.811829,561.589966 
	C228.243790,531.842285 215.675766,502.094635 202.557159,471.043793 
	C188.541290,504.089417 175.147644,535.668030 161.525818,567.784668 
	C163.842056,568.025024 165.287598,568.302063 166.733688,568.304810 
	C177.554993,568.325195 188.382690,568.498840 199.194672,568.171570 
	C203.475204,568.041931 205.752411,569.175659 207.314301,573.387878 
	C211.821609,585.543640 216.751343,597.545227 221.691513,609.534729 
	C222.267944,610.933655 223.928055,612.857361 225.119598,612.881714 
	C237.239990,613.129272 249.367386,613.032959 262.441528,613.032959 
	C255.084366,595.612061 248.055054,578.967468 240.811829,561.589966 
M657.043091,472.615814 
	C653.276978,475.022552 649.060852,476.940521 645.823059,479.921234 
	C632.290100,492.379822 628.965149,508.340057 630.893982,525.932922 
	C634.623596,559.951294 672.425781,578.092041 701.110229,559.341431 
	C718.966064,547.669250 723.325867,529.873413 721.375854,509.972473 
	C719.660767,492.468872 711.454895,478.897736 694.742615,472.022064 
	C682.581482,467.018860 670.017944,467.552643 657.043091,472.615814 
M896.058899,469.348846 
	C876.781982,466.824615 860.455017,471.736725 849.977112,489.124512 
	C841.466736,503.247314 840.506104,518.750244 844.464417,534.515076 
	C847.062927,544.864136 852.426636,553.764221 861.848877,559.178284 
	C879.832886,569.511902 898.497131,568.284668 917.209534,561.135132 
	C918.027527,560.822693 918.908264,559.419189 918.935669,558.499390 
	C919.097595,553.069031 919.015503,547.631348 919.015503,541.666443 
	C916.933716,542.302368 915.517761,542.690247 914.131775,543.165283 
	C903.976746,546.645752 893.664062,547.506409 883.164062,544.997253 
	C872.949280,542.556274 865.079956,532.182983 866.750061,523.076599 
	C868.140625,522.984802 869.610474,522.805664 871.080627,522.803528 
	C884.912476,522.783203 898.744446,522.748291 912.576050,522.807068 
	C926.346375,522.865540 926.346130,522.910583 926.178528,509.054840 
	C925.928223,488.363953 915.842041,474.744293 896.058899,469.348846 
M324.686279,602.960754 
	C325.654816,605.035706 326.623352,607.110596 327.591919,609.185547 
	C327.970795,609.045532 328.349701,608.905457 328.728577,608.765442 
	C328.728577,535.620361 328.728577,462.475250 328.728577,389.271851 
	C297.674622,389.271851 266.961609,389.271851 235.391312,389.271851 
	C265.211060,460.688507 294.770996,531.482971 324.686279,602.960754 
M810.561707,553.042542 
	C825.896851,539.149109 829.575500,521.575928 826.161621,502.052368 
	C824.736145,493.900177 820.705261,486.829285 814.766663,480.879395 
	C802.596741,468.686584 787.590698,467.275818 771.658630,469.336639 
	C765.335693,470.154510 765.239685,470.194336 765.216858,463.669495 
	C765.181885,453.669678 765.042847,443.665344 765.296387,433.671783 
	C765.398315,429.653381 764.076477,428.345459 760.130127,428.643250 
	C755.987793,428.955841 751.764771,429.043365 747.645142,428.598267 
	C742.455139,428.037537 741.235535,430.026428 741.261475,435.012604 
	C741.458740,473.011475 741.370117,511.011780 741.370422,549.011658 
	C741.370483,563.027466 741.358398,563.103271 755.191162,565.295837 
	C774.966309,568.430237 793.748047,566.756409 810.561707,553.042542 
z"/>
<path fill="#fff" opacity="1.000000" stroke="none" 
	d="
M104.000000,388.939209 
	C125.923874,388.939209 147.347748,388.939209 169.856873,388.939209 
	C138.697784,463.474030 107.946800,537.032654 77.195824,610.591248 
	C76.759872,610.512451 76.323929,610.433716 75.887978,610.354919 
	C75.887978,603.796814 75.887512,597.238647 75.888054,590.680542 
	C75.893425,525.042603 75.937576,459.404572 75.813309,393.766876 
	C75.805443,389.609009 77.265358,388.736328 81.012192,388.858398 
	C88.501053,389.102417 96.003288,388.936096 104.000000,388.939209 
z"/>
<path fill="#fff" opacity="1.000000" stroke="none" 
	d="
M543.514648,479.557648 
	C556.452942,469.783020 571.143433,468.074249 586.936523,468.991882 
	C586.936523,455.426575 586.936523,442.528412 586.936523,428.988617 
	C594.127686,428.988617 600.735962,428.902069 607.335999,429.096222 
	C608.177063,429.120972 609.466492,430.497559 609.686096,431.447266 
	C610.089722,433.192566 609.876892,435.086243 609.877197,436.918091 
	C609.882507,470.232300 609.850769,503.546570 609.909546,536.860657 
	C609.920105,542.849670 610.518066,548.843567 610.368347,554.823242 
	C610.324951,556.556213 609.011658,559.277771 607.623779,559.799622 
	C592.928101,565.325378 577.759033,568.221375 562.081421,565.338501 
	C536.818542,560.693176 522.939270,541.550720 524.972839,514.404907 
	C526.031006,500.280029 531.691223,488.444397 543.514648,479.557648 
M550.464966,506.264618 
	C550.097473,507.545380 549.575134,508.803802 549.386902,510.110382 
	C547.780823,521.256165 548.417786,532.007996 557.550110,540.018250 
	C566.111816,547.528015 576.273315,547.339905 586.963684,544.794556 
	C586.963684,527.025757 587.034973,509.547729 586.809021,492.073517 
	C586.793396,490.862885 584.707153,488.846100 583.344849,488.615326 
	C570.447083,486.430573 556.021179,491.420074 550.464966,506.264618 
z"/>
<path fill="#fff" opacity="1.000000" stroke="none" 
	d="
M451.007050,531.416992 
	C436.980377,531.473877 436.984039,531.475098 432.656738,544.236267 
	C430.839569,549.595032 428.825653,554.895569 427.244690,560.322571 
	C426.351929,563.387329 424.864380,564.747681 421.610748,564.610168 
	C417.121887,564.420593 412.610992,564.427063 408.122955,564.636841 
	C403.732483,564.842224 402.990143,563.213745 404.403046,559.259521 
	C411.735779,538.738159 418.891602,518.153564 426.133636,497.599670 
	C431.604584,482.072418 437.160309,466.574768 442.552124,451.020172 
	C443.358032,448.695160 443.749512,446.140289 443.839050,443.673859 
	C443.965698,440.186676 445.543640,439.175262 448.872772,439.278320 
	C455.697296,439.489594 462.536804,439.493774 469.361511,439.291504 
	C472.238953,439.206207 473.498444,440.374908 474.403320,442.916565 
	C482.495453,465.645935 490.670868,488.345642 498.832947,511.050079 
	C504.741425,527.485596 510.670593,543.913696 516.575195,560.350525 
	C516.903687,561.264893 517.091187,562.229858 517.718567,564.563171 
	C513.357605,564.563171 509.513550,564.628540 505.672333,564.551636 
	C490.033783,564.238708 494.278931,566.997803 489.014465,552.702698 
	C486.886414,546.924194 484.884644,541.095459 482.986237,535.237549 
	C482.079163,532.438538 480.500916,531.308228 477.496704,531.362610 
	C468.835327,531.519531 460.169281,531.417480 451.007050,531.416992 
M456.768097,467.169678 
	C452.252441,481.369965 447.736816,495.570251 443.052429,510.301239 
	C453.934814,510.301239 464.258759,510.301239 475.482758,510.301239 
	C470.002686,493.446716 464.711273,477.172424 459.006531,459.626892 
	C458.057983,462.741974 457.499603,464.575745 456.768097,467.169678 
z"/>
<path fill="#fff" opacity="1.000000" stroke="none" 
	d="
M240.918777,561.956421 
	C248.055054,578.967468 255.084366,595.612061 262.441528,613.032959 
	C249.367386,613.032959 237.239990,613.129272 225.119598,612.881714 
	C223.928055,612.857361 222.267944,610.933655 221.691513,609.534729 
	C216.751343,597.545227 211.821609,585.543640 207.314301,573.387878 
	C205.752411,569.175659 203.475204,568.041931 199.194672,568.171570 
	C188.382690,568.498840 177.554993,568.325195 166.733688,568.304810 
	C165.287598,568.302063 163.842056,568.025024 161.525818,567.784668 
	C175.147644,535.668030 188.541290,504.089417 202.557159,471.043793 
	C215.675766,502.094635 228.243790,531.842285 240.918777,561.956421 
z"/>
<path fill="#fff" opacity="1.000000" stroke="none" 
	d="
M657.365479,472.413422 
	C670.017944,467.552643 682.581482,467.018860 694.742615,472.022064 
	C711.454895,478.897736 719.660767,492.468872 721.375854,509.972473 
	C723.325867,529.873413 718.966064,547.669250 701.110229,559.341431 
	C672.425781,578.092041 634.623596,559.951294 630.893982,525.932922 
	C628.965149,508.340057 632.290100,492.379822 645.823059,479.921234 
	C649.060852,476.940521 653.276978,475.022552 657.365479,472.413422 
M656.306763,532.029419 
	C659.597412,540.840271 665.923157,546.088806 675.272278,546.685486 
	C683.180359,547.190186 689.339478,543.556519 693.579224,536.691895 
	C700.130615,526.084595 699.663635,506.718323 692.473633,496.637390 
	C684.730896,485.781555 668.941406,484.857300 660.629639,495.226074 
	C651.877747,506.143921 652.456238,518.606995 656.306763,532.029419 
z"/>
<path fill="#fff" opacity="1.000000" stroke="none" 
	d="
M896.477356,469.431213 
	C915.842041,474.744293 925.928223,488.363953 926.178528,509.054840 
	C926.346130,522.910583 926.346375,522.865540 912.576050,522.807068 
	C898.744446,522.748291 884.912476,522.783203 871.080627,522.803528 
	C869.610474,522.805664 868.140625,522.984802 866.750061,523.076599 
	C865.079956,532.182983 872.949280,542.556274 883.164062,544.997253 
	C893.664062,547.506409 903.976746,546.645752 914.131775,543.165283 
	C915.517761,542.690247 916.933716,542.302368 919.015503,541.666443 
	C919.015503,547.631348 919.097595,553.069031 918.935669,558.499390 
	C918.908264,559.419189 918.027527,560.822693 917.209534,561.135132 
	C898.497131,568.284668 879.832886,569.511902 861.848877,559.178284 
	C852.426636,553.764221 847.062927,544.864136 844.464417,534.515076 
	C840.506104,518.750244 841.466736,503.247314 849.977112,489.124512 
	C860.455017,471.736725 876.781982,466.824615 896.477356,469.431213 
M867.182251,505.967896 
	C879.397339,505.967896 891.612427,505.967896 903.787476,505.967896 
	C904.250732,495.367828 897.398499,487.718201 887.501648,487.100983 
	C876.354797,486.405792 867.329895,494.316376 867.182251,505.967896 
z"/>
<path fill="#fff" opacity="1.000000" stroke="none" 
	d="
M324.508606,602.619080 
	C294.770996,531.482971 265.211060,460.688507 235.391312,389.271851 
	C266.961609,389.271851 297.674622,389.271851 328.728577,389.271851 
	C328.728577,462.475250 328.728577,535.620361 328.728577,608.765442 
	C328.349701,608.905457 327.970795,609.045532 327.591919,609.185547 
	C326.623352,607.110596 325.654816,605.035706 324.508606,602.619080 
M317.000000,577.000000 
	C317.000000,577.000000 317.001221,577.002441 317.013367,577.767700 
	C319.379028,583.964417 321.744690,590.161072 324.110321,596.357788 
	C324.747864,596.270508 325.385406,596.183289 326.022919,596.096008 
	C325.747162,528.156433 326.547089,460.218231 325.540680,393.285095 
	C320.926117,393.893707 316.753693,394.890991 312.574432,394.920563 
	C290.242615,395.078705 267.909119,394.988800 245.576202,395.007629 
	C243.865952,395.009064 242.155853,395.188385 240.718582,395.269592 
	C247.388641,411.510986 253.841263,427.222900 260.621033,443.731415 
	C262.270081,441.651642 263.174011,440.511597 264.139069,439.294464 
	C264.549347,439.918854 264.841339,440.168854 264.873474,440.448700 
	C264.968140,441.273193 265.223846,442.210236 264.951050,442.925720 
	C262.162048,450.240112 266.357880,456.438263 268.232452,462.954437 
	C268.653717,464.418671 270.588654,465.447449 271.918640,466.767883 
	C274.429077,474.064087 277.088287,481.792694 279.879425,489.904694 
	C280.879364,488.275604 281.576263,487.140167 282.273193,486.004761 
	C282.688049,486.097198 283.102905,486.189606 283.517761,486.282043 
	C283.399628,487.471954 283.325409,488.668243 283.153625,489.850372 
	C282.855835,491.899170 281.696350,494.227203 282.308868,495.931061 
	C284.512329,502.060791 287.271790,507.993195 289.883392,513.973022 
	C293.862762,523.084839 298.006409,532.126587 301.869476,541.287048 
	C305.272247,549.355957 308.386108,557.546814 311.621277,565.667969 
	C313.370361,565.070862 314.817474,564.576843 316.264618,564.082825 
	C316.644562,564.421204 317.024506,564.759583 317.404449,565.097961 
	C316.389191,566.980835 315.373932,568.863770 314.246521,570.954651 
	C314.641113,571.804993 315.193817,572.981628 315.733887,574.164124 
	C316.163544,575.104919 316.577728,576.052795 317.000000,577.000000 
z"/>
<path fill="#fff" opacity="1.000000" stroke="none" 
	d="
M810.279480,553.252319 
	C793.748047,566.756409 774.966309,568.430237 755.191162,565.295837 
	C741.358398,563.103271 741.370483,563.027466 741.370422,549.011658 
	C741.370117,511.011780 741.458740,473.011475 741.261475,435.012604 
	C741.235535,430.026428 742.455139,428.037537 747.645142,428.598267 
	C751.764771,429.043365 755.987793,428.955841 760.130127,428.643250 
	C764.076477,428.345459 765.398315,429.653381 765.296387,433.671783 
	C765.042847,443.665344 765.181885,453.669678 765.216858,463.669495 
	C765.239685,470.194336 765.335693,470.154510 771.658630,469.336639 
	C787.590698,467.275818 802.596741,468.686584 814.766663,480.879395 
	C820.705261,486.829285 824.736145,493.900177 826.161621,502.052368 
	C829.575500,521.575928 825.896851,539.149109 810.279480,553.252319 
M813.077271,547.558533 
	C826.203552,533.027222 828.756042,515.821167 823.162842,497.994812 
	C819.340393,485.812317 810.453674,476.920105 797.639282,472.619598 
	C788.003357,469.385742 778.434204,469.542877 768.728271,471.612915 
	C765.443604,472.313416 763.309753,471.333038 763.334351,467.867249 
	C763.393311,459.565857 763.760437,451.267181 763.936279,442.965942 
	C764.240906,428.579346 763.295166,429.969238 751.270752,430.032501 
	C743.908997,430.071228 743.017273,430.902985 743.016052,438.413300 
	C743.010071,474.724670 742.904541,511.036530 743.065063,547.347168 
	C743.132629,562.625305 740.056641,560.670715 756.137634,563.553040 
	C777.319214,567.349548 796.659912,563.760315 813.077271,547.558533 
z"/>
<path fill="#fff" opacity="1.000000" stroke="none" 
	d="
M550.581787,505.883972 
	C556.021179,491.420074 570.447083,486.430573 583.344849,488.615326 
	C584.707153,488.846100 586.793396,490.862885 586.809021,492.073517 
	C587.034973,509.547729 586.963684,527.025757 586.963684,544.794556 
	C576.273315,547.339905 566.111816,547.528015 557.550110,540.018250 
	C548.417786,532.007996 547.780823,521.256165 549.386902,510.110382 
	C549.575134,508.803802 550.097473,507.545380 550.581787,505.883972 
z"/>
<path fill="#fff" opacity="1.000000" stroke="none" 
	d="
M456.854675,466.789612 
	C457.499603,464.575745 458.057983,462.741974 459.006531,459.626892 
	C464.711273,477.172424 470.002686,493.446716 475.482758,510.301239 
	C464.258759,510.301239 453.934814,510.301239 443.052429,510.301239 
	C447.736816,495.570251 452.252441,481.369965 456.854675,466.789612 
z"/>
<path fill="#fff" opacity="1.000000" stroke="none" 
	d="
M656.187256,531.654175 
	C652.456238,518.606995 651.877747,506.143921 660.629639,495.226074 
	C668.941406,484.857300 684.730896,485.781555 692.473633,496.637390 
	C699.663635,506.718323 700.130615,526.084595 693.579224,536.691895 
	C689.339478,543.556519 683.180359,547.190186 675.272278,546.685486 
	C665.923157,546.088806 659.597412,540.840271 656.187256,531.654175 
z"/>
<path fill="#fff" opacity="1.000000" stroke="none" 
	d="
M866.801025,505.773926 
	C867.329895,494.316376 876.354797,486.405792 887.501648,487.100983 
	C897.398499,487.718201 904.250732,495.367828 903.787476,505.967896 
	C891.612427,505.967896 879.397339,505.967896 866.801025,505.773926 
z"/>
<path fill="#fff" opacity="1.000000" stroke="none" 
	d="
M316.998779,576.997559 
	C316.577728,576.052795 316.163544,575.104919 315.733887,574.164124 
	C315.193817,572.981628 314.641113,571.804993 314.246521,570.954651 
	C315.373932,568.863770 316.389191,566.980835 317.404449,565.097961 
	C317.024506,564.759583 316.644562,564.421204 316.264618,564.082825 
	C314.817474,564.576843 313.370361,565.070862 311.621277,565.667969 
	C308.386108,557.546814 305.272247,549.355957 301.869476,541.287048 
	C298.006409,532.126587 293.862762,523.084839 289.883392,513.973022 
	C287.271790,507.993195 284.512329,502.060791 282.308868,495.931061 
	C281.696350,494.227203 282.855835,491.899170 283.153625,489.850372 
	C283.325409,488.668243 283.399628,487.471954 283.517761,486.282043 
	C283.102905,486.189606 282.688049,486.097198 282.273193,486.004761 
	C281.576263,487.140167 280.879364,488.275604 279.879425,489.904694 
	C277.088287,481.792694 274.429077,474.064087 271.918640,466.767883 
	C270.588654,465.447449 268.653717,464.418671 268.232452,462.954437 
	C266.357880,456.438263 262.162048,450.240112 264.951050,442.925720 
	C265.223846,442.210236 264.968140,441.273193 264.873474,440.448700 
	C264.841339,440.168854 264.549347,439.918854 264.139069,439.294464 
	C263.174011,440.511597 262.270081,441.651642 260.621033,443.731415 
	C253.841263,427.222900 247.388641,411.510986 240.718582,395.269592 
	C242.155853,395.188385 243.865952,395.009064 245.576202,395.007629 
	C267.909119,394.988800 290.242615,395.078705 312.574432,394.920563 
	C316.753693,394.890991 320.926117,393.893707 325.540680,393.285095 
	C326.547089,460.218231 325.747162,528.156433 326.022919,596.096008 
	C325.385406,596.183289 324.747864,596.270508 324.110321,596.357788 
	C321.744690,590.161072 319.379028,583.964417 317.326721,577.409973 
	C318.499542,577.247742 319.359009,577.443298 320.865173,577.785950 
	C319.361633,575.409912 318.469604,573.159119 316.998779,576.997559 
M291.516418,513.414429 
	C291.516418,513.414429 291.580902,513.523071 291.516418,513.414429 
z"/>
<path fill="#fff" opacity="1.000000" stroke="none" 
	d="
M812.834351,547.818237 
	C796.659912,563.760315 777.319214,567.349548 756.137634,563.553040 
	C740.056641,560.670715 743.132629,562.625305 743.065063,547.347168 
	C742.904541,511.036530 743.010071,474.724670 743.016052,438.413300 
	C743.017273,430.902985 743.908997,430.071228 751.270752,430.032501 
	C763.295166,429.969238 764.240906,428.579346 763.936279,442.965942 
	C763.760437,451.267181 763.393311,459.565857 763.334351,467.867249 
	C763.309753,471.333038 765.443604,472.313416 768.728271,471.612915 
	C778.434204,469.542877 788.003357,469.385742 797.639282,472.619598 
	C810.453674,476.920105 819.340393,485.812317 823.162842,497.994812 
	C828.756042,515.821167 826.203552,533.027222 812.834351,547.818237 
M782.779907,545.438354 
	C798.636536,540.895996 807.069824,524.575256 802.599609,507.081665 
	C798.874084,492.502380 785.784058,485.499268 769.167480,489.163666 
	C766.663696,489.715851 765.051941,490.614258 765.075989,493.727600 
	C765.200867,509.880707 765.212158,526.036377 765.037537,542.188721 
	C765.002808,545.394653 766.618164,546.554688 769.125732,546.539429 
	C773.418945,546.513123 777.709106,545.999146 782.779907,545.438354 
z"/>
<path fill="#fff" opacity="1.000000" stroke="none" 
	d="
M316.999390,576.998779 
	C318.469604,573.159119 319.361633,575.409912 320.865173,577.785950 
	C319.359009,577.443298 318.499542,577.247742 317.320618,577.027344 
	C317.001221,577.002441 317.000000,577.000000 316.999390,576.998779 
z"/>
<path fill="#fff" opacity="1.000000" stroke="none" 
	d="
M291.548645,513.468750 
	C291.580902,513.523071 291.516418,513.414429 291.548645,513.468750 
z"/>
<path fill="#fff" opacity="1.000000" stroke="none" 
	d="
M782.390259,545.564148 
	C777.709106,545.999146 773.418945,546.513123 769.125732,546.539429 
	C766.618164,546.554688 765.002808,545.394653 765.037537,542.188721 
	C765.212158,526.036377 765.200867,509.880707 765.075989,493.727600 
	C765.051941,490.614258 766.663696,489.715851 769.167480,489.163666 
	C785.784058,485.499268 798.874084,492.502380 802.599609,507.081665 
	C807.069824,524.575256 798.636536,540.895996 782.390259,545.564148 
z"/>
</svg>