<svg version="1.1" id="Layer_1" xmlns="http://www.w3.org/2000/svg" xmlns:xlink="http://www.w3.org/1999/xlink" x="0px" y="0px"
	 width="100%" viewBox="0 0 500 500" enable-background="new 0 0 500 500" xml:space="preserve">
<path fill="transparent" opacity="1.000000" stroke="none" 
	d="
M469.000000,501.000000 
	C312.666718,501.000000 156.833405,501.000000 1.000084,501.000000 
	C1.000056,334.333405 1.000056,167.666824 1.000028,1.000173 
	C167.666550,1.000115 334.333099,1.000115 500.999756,1.000058 
	C500.999817,167.666519 500.999817,334.333038 500.999908,500.999756 
	C490.500000,501.000000 480.000000,501.000000 469.000000,501.000000 
M291.958618,291.876251 
	C291.856781,294.472534 291.754974,297.068817 291.068909,300.052429 
	C290.022797,303.407135 288.976685,306.761841 287.930573,310.116547 
	C295.252960,307.087189 301.555878,292.953766 299.799103,286.556885 
	C299.508453,285.498596 297.953125,284.787628 296.498352,283.797699 
	C296.498352,283.797699 296.016632,283.925140 295.402161,283.722870 
	C294.977570,283.649292 294.552979,283.575714 293.497345,283.106110 
	C285.926941,282.337463 278.525543,282.189148 271.785126,288.321869 
	C279.245575,289.042297 285.520752,289.648285 291.874847,290.642029 
	C291.874847,290.642029 292.048187,290.997681 291.958618,291.876251 
M179.533249,276.928894 
	C180.413361,280.974213 184.362823,281.877502 191.761917,279.345306 
	C191.761917,269.764771 191.630447,259.948090 191.813217,250.137253 
	C191.916214,244.608627 194.137894,241.926971 198.017349,242.171677 
	C203.119141,242.493500 203.309265,246.336594 203.324005,250.160141 
	C203.358032,258.989899 203.479492,267.821289 203.343658,276.648651 
	C203.296326,279.725891 204.398682,280.911316 207.403976,280.650482 
	C209.057404,280.506958 210.851715,280.986664 212.361145,280.499542 
	C213.573502,280.108307 215.337479,278.692413 215.345535,277.718689 
	C215.446030,265.572296 215.606567,253.407608 215.029083,241.282059 
	C214.722733,234.849808 210.064499,231.479767 203.625366,231.040634 
	C197.517242,230.624069 193.716858,233.960770 190.499527,239.024292 
	C187.797882,234.163605 184.558563,230.095322 179.046524,231.279709 
	C174.751251,232.202637 170.796219,234.708954 167.031128,236.361847 
	C166.666763,231.261002 164.911636,230.482498 155.389221,232.761276 
	C155.389221,234.425461 155.389267,236.222015 155.389206,238.018585 
	C155.388733,250.337708 155.485474,262.658112 155.324066,274.975128 
	C155.279922,278.342590 155.173355,280.777893 159.743622,280.742706 
	C167.153839,280.685669 167.497269,280.686737 167.568741,275.264313 
	C167.687241,266.271210 167.688232,257.274811 167.957550,248.286316 
	C168.062988,244.767670 169.821136,242.072922 173.765671,242.152878 
	C177.747421,242.233597 179.097626,244.930588 179.145844,248.549774 
	C179.267914,257.710114 179.405670,266.870239 179.533249,276.928894 
M123.291145,240.253464 
	C130.808609,239.106064 133.887360,242.487381 131.839996,249.897430 
	C130.125763,250.123810 128.327927,250.365051 126.529015,250.598099 
	C120.734482,251.348816 114.967216,252.143204 110.556381,256.603851 
	C106.462440,260.744049 104.999046,268.706543 107.560875,274.297455 
	C110.044411,279.717499 114.737808,281.863586 120.267250,280.943481 
	C125.129105,280.134460 129.798111,278.166504 135.016907,276.568054 
	C136.088867,277.475250 138.400909,280.677399 139.742508,280.312408 
	C142.691635,279.510132 145.330414,277.097168 147.680176,274.897614 
	C148.255432,274.359161 147.286102,272.096252 146.927399,270.650879 
	C146.301834,268.130219 145.143707,265.651398 145.017609,263.114807 
	C144.695602,256.637238 144.874893,250.136429 144.747299,243.647003 
	C144.641708,238.276245 141.965073,234.329132 137.105087,232.348618 
	C129.454605,229.230957 121.773384,229.617828 114.537277,233.747498 
	C110.246506,236.196274 107.964340,240.030487 107.871750,245.523941 
	C111.447906,245.992706 114.803551,246.432571 117.423820,246.776031 
	C119.456337,244.342529 121.011536,242.480515 123.291145,240.253464 
M223.799149,265.915222 
	C223.461975,271.518799 224.187225,277.078827 229.835251,279.564667 
	C237.672485,283.014099 245.091049,281.404083 251.177017,275.269318 
	C258.156952,281.986176 258.886169,281.891174 264.614166,275.103973 
	C263.663208,268.635040 262.642609,263.415131 262.197601,258.146667 
	C261.806732,253.519211 262.390717,248.802750 261.908020,244.192200 
	C261.611420,241.359009 260.776855,238.119919 259.048828,235.979446 
	C251.863235,227.078873 232.068069,229.122620 226.860657,239.229752 
	C225.926910,241.042084 225.470169,244.545471 226.505554,245.623642 
	C228.606888,247.811813 235.594498,246.411026 236.672165,244.161621 
	C238.480881,240.386276 241.519211,239.232010 245.313354,240.053162 
	C248.877823,240.824631 249.618805,243.656891 249.788132,246.911301 
	C249.981293,250.623520 247.413925,250.144165 245.142197,250.363251 
	C243.326309,250.538376 241.520660,250.839645 239.718613,251.134674 
	C230.209900,252.691376 225.315353,257.021301 223.799149,265.915222 
M370.741852,252.809143 
	C370.831055,251.481552 370.758484,250.118500 371.040283,248.833145 
	C371.833313,245.216232 373.291504,241.812439 377.711884,242.161285 
	C381.962250,242.496704 382.671234,246.098083 382.874023,249.521240 
	C383.080627,253.008545 382.945068,256.516510 382.947571,260.015442 
	C382.952423,266.765381 382.949005,273.515289 382.949005,280.264404 
	C387.380219,280.264404 390.937897,280.264404 394.645142,280.264404 
	C394.645142,267.313019 395.088409,254.822617 394.490265,242.382294 
	C394.087280,234.001129 387.532135,229.306091 379.537720,231.354279 
	C376.101318,232.234695 373.246490,235.385147 370.347961,237.354477 
	C369.326813,231.197403 368.316406,230.707581 358.669220,232.567780 
	C358.554474,234.278030 358.332733,236.078873 358.329193,237.880142 
	C358.306213,249.543365 358.344299,261.206665 358.335052,272.869965 
	C358.328461,281.163849 358.305145,281.011536 366.595612,280.781677 
	C369.954193,280.688568 370.857574,279.366333 370.791534,276.239227 
	C370.633240,268.744690 370.741638,261.244507 370.741852,252.809143 
M311.182007,255.553635 
	C311.988983,260.104919 312.238770,264.847961 313.724731,269.165527 
	C316.405060,276.953308 322.254913,281.500214 330.592255,281.718872 
	C338.588593,281.928589 344.697083,278.210236 348.253021,270.920105 
	C353.185028,260.808838 352.873108,250.605408 347.728424,240.732010 
	C344.193756,233.948410 338.248657,230.777145 330.511078,231.028717 
	C323.149414,231.268051 317.628265,234.657761 314.742554,241.283493 
	C312.924866,245.456924 312.341339,250.167862 311.182007,255.553635 
M273.615570,240.672882 
	C278.790649,241.024063 283.965698,241.375244 289.690582,241.763748 
	C288.970428,243.087494 288.591583,243.958984 288.063232,244.727676 
	C283.358978,251.571548 278.712891,258.457886 273.875824,265.207062 
	C270.624969,269.742950 271.865417,274.409180 272.224457,279.944061 
	C283.913818,273.357880 294.962921,274.899048 305.891724,279.388763 
	C308.192413,270.252716 306.534241,267.506500 298.183624,265.989929 
	C295.187439,265.445801 292.162628,265.059296 288.550842,264.509491 
	C293.770203,257.115234 298.828308,250.520447 303.196960,243.496796 
	C305.112488,240.417084 305.621033,236.462265 306.988495,232.222473 
	C294.830933,232.222473 284.292877,232.222473 273.281158,232.222473 
	C273.281158,234.976227 273.281158,237.423996 273.615570,240.672882 
M161.475616,292.161591 
	C157.050644,290.407959 152.625656,288.654297 148.200668,286.900665 
	C147.762970,287.771149 147.325272,288.641632 146.887573,289.512115 
	C156.713165,295.550049 166.111984,302.478210 176.455017,307.436829 
	C196.698700,317.141968 218.470230,318.395844 240.424728,315.645599 
	C255.428223,313.766052 269.643768,309.113861 282.111298,300.183990 
	C283.644379,299.085938 284.509125,297.054810 285.683594,295.456085 
	C283.537659,295.337311 281.392365,295.204041 279.245148,295.115845 
	C278.933258,295.103027 278.615601,295.316772 278.295410,295.407471 
	C269.357758,297.939362 260.547577,301.140076 251.457794,302.876556 
	C220.680984,308.756012 190.868027,305.082733 161.475616,292.161591 
z"/>
<path fill="#fff" opacity="1.000000" stroke="none" 
	d="
M179.535202,276.479675 
	C179.405670,266.870239 179.267914,257.710114 179.145844,248.549774 
	C179.097626,244.930588 177.747421,242.233597 173.765671,242.152878 
	C169.821136,242.072922 168.062988,244.767670 167.957550,248.286316 
	C167.688232,257.274811 167.687241,266.271210 167.568741,275.264313 
	C167.497269,280.686737 167.153839,280.685669 159.743622,280.742706 
	C155.173355,280.777893 155.279922,278.342590 155.324066,274.975128 
	C155.485474,262.658112 155.388733,250.337708 155.389206,238.018585 
	C155.389267,236.222015 155.389221,234.425461 155.389221,232.761276 
	C164.911636,230.482498 166.666763,231.261002 167.031128,236.361847 
	C170.796219,234.708954 174.751251,232.202637 179.046524,231.279709 
	C184.558563,230.095322 187.797882,234.163605 190.499527,239.024292 
	C193.716858,233.960770 197.517242,230.624069 203.625366,231.040634 
	C210.064499,231.479767 214.722733,234.849808 215.029083,241.282059 
	C215.606567,253.407608 215.446030,265.572296 215.345535,277.718689 
	C215.337479,278.692413 213.573502,280.108307 212.361145,280.499542 
	C210.851715,280.986664 209.057404,280.506958 207.403976,280.650482 
	C204.398682,280.911316 203.296326,279.725891 203.343658,276.648651 
	C203.479492,267.821289 203.358032,258.989899 203.324005,250.160141 
	C203.309265,246.336594 203.119141,242.493500 198.017349,242.171677 
	C194.137894,241.926971 191.916214,244.608627 191.813217,250.137253 
	C191.630447,259.948090 191.761917,269.764771 191.761917,279.345306 
	C184.362823,281.877502 180.413361,280.974213 179.535202,276.479675 
z"/>
<path fill="#fff" opacity="1.000000" stroke="none" 
	d="
M122.928940,240.435974 
	C121.011536,242.480515 119.456337,244.342529 117.423820,246.776031 
	C114.803551,246.432571 111.447906,245.992706 107.871750,245.523941 
	C107.964340,240.030487 110.246506,236.196274 114.537277,233.747498 
	C121.773384,229.617828 129.454605,229.230957 137.105087,232.348618 
	C141.965073,234.329132 144.641708,238.276245 144.747299,243.647003 
	C144.874893,250.136429 144.695602,256.637238 145.017609,263.114807 
	C145.143707,265.651398 146.301834,268.130219 146.927399,270.650879 
	C147.286102,272.096252 148.255432,274.359161 147.680176,274.897614 
	C145.330414,277.097168 142.691635,279.510132 139.742508,280.312408 
	C138.400909,280.677399 136.088867,277.475250 135.016907,276.568054 
	C129.798111,278.166504 125.129105,280.134460 120.267250,280.943481 
	C114.737808,281.863586 110.044411,279.717499 107.560875,274.297455 
	C104.999046,268.706543 106.462440,260.744049 110.556381,256.603851 
	C114.967216,252.143204 120.734482,251.348816 126.529015,250.598099 
	C128.327927,250.365051 130.125763,250.123810 131.839996,249.897430 
	C133.887360,242.487381 130.808609,239.106064 122.928940,240.435974 
M119.371658,268.721771 
	C122.963501,274.014709 128.061279,274.083618 130.732864,268.434662 
	C132.268555,265.187500 132.481262,261.314667 133.299225,257.680298 
	C123.347710,256.127411 119.008850,259.590393 119.371658,268.721771 
z"/>
<path fill="#fff" opacity="1.000000" stroke="none" 
	d="
M223.835785,265.521149 
	C225.315353,257.021301 230.209900,252.691376 239.718613,251.134674 
	C241.520660,250.839645 243.326309,250.538376 245.142197,250.363251 
	C247.413925,250.144165 249.981293,250.623520 249.788132,246.911301 
	C249.618805,243.656891 248.877823,240.824631 245.313354,240.053162 
	C241.519211,239.232010 238.480881,240.386276 236.672165,244.161621 
	C235.594498,246.411026 228.606888,247.811813 226.505554,245.623642 
	C225.470169,244.545471 225.926910,241.042084 226.860657,239.229752 
	C232.068069,229.122620 251.863235,227.078873 259.048828,235.979446 
	C260.776855,238.119919 261.611420,241.359009 261.908020,244.192200 
	C262.390717,248.802750 261.806732,253.519211 262.197601,258.146667 
	C262.642609,263.415131 263.663208,268.635040 264.614166,275.103973 
	C258.886169,281.891174 258.156952,281.986176 251.177017,275.269318 
	C245.091049,281.404083 237.672485,283.014099 229.835251,279.564667 
	C224.187225,277.078827 223.461975,271.518799 223.835785,265.521149 
M237.998276,260.578461 
	C235.771118,264.127747 235.034042,268.020355 238.246719,270.997894 
	C239.594620,272.247101 242.999115,272.420624 244.921646,271.674255 
	C249.244797,269.995880 250.720398,264.011627 248.884613,256.077637 
	C245.323105,257.415009 241.903290,258.699158 237.998276,260.578461 
z"/>
<path fill="#fff" opacity="1.000000" stroke="none" 
	d="
M370.742126,253.277863 
	C370.741638,261.244507 370.633240,268.744690 370.791534,276.239227 
	C370.857574,279.366333 369.954193,280.688568 366.595612,280.781677 
	C358.305145,281.011536 358.328461,281.163849 358.335052,272.869965 
	C358.344299,261.206665 358.306213,249.543365 358.329193,237.880142 
	C358.332733,236.078873 358.554474,234.278030 358.669220,232.567780 
	C368.316406,230.707581 369.326813,231.197403 370.347961,237.354477 
	C373.246490,235.385147 376.101318,232.234695 379.537720,231.354279 
	C387.532135,229.306091 394.087280,234.001129 394.490265,242.382294 
	C395.088409,254.822617 394.645142,267.313019 394.645142,280.264404 
	C390.937897,280.264404 387.380219,280.264404 382.949005,280.264404 
	C382.949005,273.515289 382.952423,266.765381 382.947571,260.015442 
	C382.945068,256.516510 383.080627,253.008545 382.874023,249.521240 
	C382.671234,246.098083 381.962250,242.496704 377.711884,242.161285 
	C373.291504,241.812439 371.833313,245.216232 371.040283,248.833145 
	C370.758484,250.118500 370.831055,251.481552 370.742126,253.277863 
z"/>
<path fill="#fff" opacity="1.000000" stroke="none" 
	d="
M311.193115,255.095642 
	C312.341339,250.167862 312.924866,245.456924 314.742554,241.283493 
	C317.628265,234.657761 323.149414,231.268051 330.511078,231.028717 
	C338.248657,230.777145 344.193756,233.948410 347.728424,240.732010 
	C352.873108,250.605408 353.185028,260.808838 348.253021,270.920105 
	C344.697083,278.210236 338.588593,281.928589 330.592255,281.718872 
	C322.254913,281.500214 316.405060,276.953308 313.724731,269.165527 
	C312.238770,264.847961 311.988983,260.104919 311.193115,255.095642 
M338.643005,259.161285 
	C338.219727,254.392761 338.286835,249.501694 337.140259,244.913940 
	C336.657837,242.983658 333.734192,240.665070 331.693726,240.421570 
	C329.886658,240.205917 326.557495,242.222946 325.987854,243.944901 
	C323.225891,252.294342 323.153564,260.904755 326.443115,269.166107 
	C327.070221,270.740936 329.824280,272.522064 331.434174,272.378754 
	C333.334778,272.209534 335.822449,270.425262 336.677917,268.669800 
	C337.930145,266.100250 337.957611,262.933868 338.643005,259.161285 
z"/>
<path fill="#fff" opacity="1.000000" stroke="none" 
	d="
M273.448364,240.272324 
	C273.281158,237.423996 273.281158,234.976227 273.281158,232.222473 
	C284.292877,232.222473 294.830933,232.222473 306.988495,232.222473 
	C305.621033,236.462265 305.112488,240.417084 303.196960,243.496796 
	C298.828308,250.520447 293.770203,257.115234 288.550842,264.509491 
	C292.162628,265.059296 295.187439,265.445801 298.183624,265.989929 
	C306.534241,267.506500 308.192413,270.252716 305.891724,279.388763 
	C294.962921,274.899048 283.913818,273.357880 272.224457,279.944061 
	C271.865417,274.409180 270.624969,269.742950 273.875824,265.207062 
	C278.712891,258.457886 283.358978,251.571548 288.063232,244.727676 
	C288.591583,243.958984 288.970428,243.087494 289.690582,241.763748 
	C283.965698,241.375244 278.790649,241.024063 273.448364,240.272324 
z"/>
<path fill="#fff" opacity="1.000000" stroke="none" 
	d="
M161.820663,292.325806 
	C190.868027,305.082733 220.680984,308.756012 251.457794,302.876556 
	C260.547577,301.140076 269.357758,297.939362 278.295410,295.407471 
	C278.615601,295.316772 278.933258,295.103027 279.245148,295.115845 
	C281.392365,295.204041 283.537659,295.337311 285.683594,295.456085 
	C284.509125,297.054810 283.644379,299.085938 282.111298,300.183990 
	C269.643768,309.113861 255.428223,313.766052 240.424728,315.645599 
	C218.470230,318.395844 196.698700,317.141968 176.455017,307.436829 
	C166.111984,302.478210 156.713165,295.550049 146.887573,289.512115 
	C147.325272,288.641632 147.762970,287.771149 148.200668,286.900665 
	C152.625656,288.654297 157.050644,290.407959 161.820663,292.325806 
M256.396820,304.048737 
	C255.919647,304.357056 255.442474,304.665375 254.136612,305.032532 
	C250.439041,305.417114 246.741486,305.801727 242.373230,306.090485 
	C241.574875,306.372406 240.776535,306.654327 239.104614,306.946655 
	C237.066437,307.001831 235.028259,307.057007 232.121826,307.039612 
	C230.094009,307.088776 228.066193,307.137939 225.099075,307.127472 
	C204.395706,307.665924 184.377792,303.824860 164.630966,297.773193 
	C181.978668,309.468842 201.354462,314.178345 222.832626,314.917511 
	C225.566101,314.647217 228.299576,314.376892 231.900024,314.090607 
	C233.921829,314.023621 235.943619,313.956635 238.643906,313.964050 
	C239.434402,313.656647 240.224915,313.349243 241.811890,313.013397 
	C248.879486,311.021179 255.947083,309.028931 263.755096,306.983063 
	C280.245911,299.767273 280.245911,299.767273 281.224854,296.289978 
	C278.207123,297.337708 275.247589,298.277893 272.355957,299.393982 
	C269.534210,300.483154 266.781830,301.752045 263.200623,303.003601 
	C261.131866,303.375458 259.063141,303.747314 256.396820,304.048737 
z"/>
<path fill="#fff" opacity="1.000000" stroke="none" 
	d="
M291.795929,290.254272 
	C285.520752,289.648285 279.245575,289.042297 271.785126,288.321869 
	C278.525543,282.189148 285.926941,282.337463 293.613464,283.662903 
	C290.936859,284.368103 288.144104,284.516479 285.351349,284.664856 
	C285.303955,285.092773 285.256561,285.520721 285.209198,285.948639 
	C286.480347,286.313599 287.926788,286.415649 288.975220,287.114685 
	C290.109161,287.870697 290.871521,289.184021 291.795929,290.254272 
z"/>
<path fill="#fff" opacity="1.000000" stroke="none" 
	d="
M296.982269,283.916168 
	C297.953125,284.787628 299.508453,285.498596 299.799103,286.556885 
	C301.555878,292.953766 295.252960,307.087189 287.930573,310.116547 
	C288.976685,306.761841 290.022797,303.407135 291.445435,300.231323 
	C291.670746,301.769287 291.519562,303.128418 291.368347,304.487518 
	C291.762238,304.548492 292.156158,304.609436 292.550049,304.670380 
	C293.415924,302.509918 294.281799,300.349426 295.391266,297.906067 
	C296.444183,294.744843 297.253510,291.866577 298.279816,288.819489 
	C298.047333,288.082458 297.597839,287.514221 297.116943,286.699585 
	C297.085541,286.453186 297.018738,285.960938 297.016418,285.620361 
	C297.003479,284.825256 296.992859,284.370728 296.982269,283.916168 
z"/>
<path fill="#fff" opacity="1.000000" stroke="none" 
	d="
M298.062836,288.988281 
	C297.253510,291.866577 296.444183,294.744843 295.088379,297.629608 
	C293.710693,295.423279 292.879456,293.210480 292.048187,290.997681 
	C292.048187,290.997681 291.874847,290.642029 291.835388,290.448151 
	C290.871521,289.184021 290.109161,287.870697 288.975220,287.114685 
	C287.926788,286.415649 286.480347,286.313599 285.209198,285.948639 
	C285.256561,285.520721 285.303955,285.092773 285.351349,284.664856 
	C288.144104,284.516479 290.936859,284.368103 293.929016,283.860931 
	C294.552979,283.575714 294.977570,283.649292 295.709229,284.133240 
	C296.350464,285.016022 296.684601,285.488495 297.018738,285.960938 
	C297.018738,285.960938 297.085541,286.453186 297.088013,287.007812 
	C297.414612,288.037689 297.738708,288.513000 298.062836,288.988281 
z"/>
<path fill="#fff" opacity="1.000000" stroke="none" 
	d="
M292.003418,291.436951 
	C292.879456,293.210480 293.710693,295.423279 294.844788,297.912537 
	C294.281799,300.349426 293.415924,302.509918 292.550049,304.670380 
	C292.156158,304.609436 291.762238,304.548492 291.368347,304.487518 
	C291.519562,303.128418 291.670746,301.769287 291.737549,300.037659 
	C291.754974,297.068817 291.856781,294.472534 292.003418,291.436951 
z"/>
<path fill="#fff" opacity="1.000000" stroke="none" 
	d="
M297.016418,285.620361 
	C296.684601,285.488495 296.350464,285.016022 296.016479,284.234375 
	C296.016632,283.925140 296.498352,283.797699 296.740295,283.856934 
	C296.992859,284.370728 297.003479,284.825256 297.016418,285.620361 
z"/>
<path fill="#fff" opacity="1.000000" stroke="none" 
	d="
M119.258316,268.340332 
	C119.008850,259.590393 123.347710,256.127411 133.299225,257.680298 
	C132.481262,261.314667 132.268555,265.187500 130.732864,268.434662 
	C128.061279,274.083618 122.963501,274.014709 119.258316,268.340332 
z"/>
<path fill="#fff" opacity="1.000000" stroke="none" 
	d="
M238.240875,260.280884 
	C241.903290,258.699158 245.323105,257.415009 248.884613,256.077637 
	C250.720398,264.011627 249.244797,269.995880 244.921646,271.674255 
	C242.999115,272.420624 239.594620,272.247101 238.246719,270.997894 
	C235.034042,268.020355 235.771118,264.127747 238.240875,260.280884 
z"/>
<path fill="#fff" opacity="1.000000" stroke="none" 
	d="
M338.575012,259.591553 
	C337.957611,262.933868 337.930145,266.100250 336.677917,268.669800 
	C335.822449,270.425262 333.334778,272.209534 331.434174,272.378754 
	C329.824280,272.522064 327.070221,270.740936 326.443115,269.166107 
	C323.153564,260.904755 323.225891,252.294342 325.987854,243.944901 
	C326.557495,242.222946 329.886658,240.205917 331.693726,240.421570 
	C333.734192,240.665070 336.657837,242.983658 337.140259,244.913940 
	C338.286835,249.501694 338.219727,254.392761 338.575012,259.591553 
z"/>
<path fill="#fff" opacity="1.000000" stroke="none" 
	d="
M237.965424,313.889648 
	C235.943619,313.956635 233.921829,314.023621 231.200974,313.789673 
	C227.652771,313.923981 224.803619,314.359192 221.954483,314.794434 
	C201.354462,314.178345 181.978668,309.468842 164.630966,297.773193 
	C184.377792,303.824860 204.395706,307.665924 225.844055,307.396088 
	C228.722717,307.480530 230.856400,307.296356 232.990082,307.112183 
	C235.028259,307.057007 237.066437,307.001831 239.728394,307.204529 
	C241.249420,307.037048 242.146667,306.611664 243.043915,306.186310 
	C246.741486,305.801727 250.439041,305.417114 254.843933,304.995728 
	C256.032288,304.679016 256.513336,304.399078 256.994385,304.119171 
	C259.063141,303.747314 261.131866,303.375458 263.571716,303.327362 
	C263.633453,304.779663 263.324066,305.908173 263.014679,307.036713 
	C255.947083,309.028931 248.879486,311.021179 241.222000,312.766663 
	C239.743210,312.976501 238.854309,313.433075 237.965424,313.889648 
z"/>
<path fill="#fff" opacity="1.000000" stroke="none" 
	d="
M263.384888,307.009888 
	C263.324066,305.908173 263.633453,304.779663 263.970947,303.296570 
	C266.781830,301.752045 269.534210,300.483154 272.355957,299.393982 
	C275.247589,298.277893 278.207123,297.337708 281.224854,296.289978 
	C280.245911,299.767273 280.245911,299.767273 263.384888,307.009888 
z"/>
<path fill="#fff" opacity="1.000000" stroke="none" 
	d="
M222.393555,314.855957 
	C224.803619,314.359192 227.652771,313.923981 230.767487,313.797668 
	C228.299576,314.376892 225.566101,314.647217 222.393555,314.855957 
z"/>
<path fill="#fff" opacity="1.000000" stroke="none" 
	d="
M232.555954,307.075897 
	C230.856400,307.296356 228.722717,307.480530 226.313705,307.425903 
	C228.066193,307.137939 230.094009,307.088776 232.555954,307.075897 
z"/>
<path fill="#fff" opacity="1.000000" stroke="none" 
	d="
M242.708572,306.138397 
	C242.146667,306.611664 241.249420,307.037048 240.165192,307.199341 
	C240.776535,306.654327 241.574875,306.372406 242.708572,306.138397 
z"/>
<path fill="#fff" opacity="1.000000" stroke="none" 
	d="
M238.304657,313.926880 
	C238.854309,313.433075 239.743210,312.976501 240.823761,312.780884 
	C240.224915,313.349243 239.434402,313.656647 238.304657,313.926880 
z"/>
<path fill="#fff" opacity="1.000000" stroke="none" 
	d="
M256.695618,304.083954 
	C256.513336,304.399078 256.032288,304.679016 255.258270,304.966309 
	C255.442474,304.665375 255.919647,304.357056 256.695618,304.083954 
z"/>
<path fill="#fff" opacity="1.000000" stroke="none" 
	d="
M298.279816,288.819489 
	C297.738708,288.513000 297.414612,288.037689 297.119446,287.254211 
	C297.597839,287.514221 298.047333,288.082458 298.279816,288.819489 
z"/>
</svg>