<svg version="1.1" id="Layer_1" xmlns="http://www.w3.org/2000/svg" xmlns:xlink="http://www.w3.org/1999/xlink" x="0px" y="0px"
	 width="100%" viewBox="0 0 1200 630" enable-background="new 0 0 1200 630" xml:space="preserve">
<path fill="transparent" opacity="1.000000" stroke="none" 
	d="
M796.000000,631.000000 
	C530.666687,631.000000 265.833374,631.000000 1.000036,631.000000 
	C1.000024,421.000031 1.000024,211.000061 1.000012,1.000064 
	C400.999969,1.000042 800.999939,1.000042 1201.000000,1.000021 
	C1201.000000,210.999939 1201.000000,420.999878 1201.000000,630.999878 
	C1066.166626,631.000000 931.333313,631.000000 796.000000,631.000000 
M561.500610,247.872437 
	C558.648804,236.600586 555.837952,225.318176 552.934998,214.059509 
	C549.200012,199.573944 550.292480,200.087067 535.088562,200.145584 
	C526.223328,200.179718 525.591125,201.003601 528.079895,209.726440 
	C528.216370,210.204727 528.413757,210.665390 528.557739,211.141830 
	C537.917664,242.119370 547.263062,273.101318 556.637634,304.074402 
	C561.403015,319.818909 559.440125,317.916016 575.553284,317.987854 
	C583.776245,318.024536 584.821289,317.232910 586.732422,309.199341 
	C592.189331,286.260376 597.584717,263.306732 603.021545,240.362930 
	C603.926819,236.542419 604.918457,232.742371 606.148438,227.818939 
	C606.979980,230.153229 607.511536,231.302612 607.801514,232.509995 
	C613.540039,256.404205 619.290039,280.295746 624.952942,304.207916 
	C628.720520,320.116577 628.218079,317.894226 642.105225,317.983643 
	C651.790161,318.045990 652.105103,317.747009 654.966492,308.542725 
	C661.910461,286.205933 668.902893,263.884216 675.841187,241.545624 
	C679.382324,230.144501 682.924377,218.742569 686.317261,207.296890 
	C687.976685,201.698990 686.831665,200.265640 681.178528,200.171875 
	C678.346558,200.124908 675.507080,200.277588 672.681824,200.131271 
	C667.343994,199.854858 664.427917,202.329163 663.136353,207.476257 
	C657.482117,230.010834 651.710571,252.516113 645.933472,275.019653 
	C644.386475,281.045471 642.670044,287.027771 641.031433,293.030060 
	C634.119629,266.878540 627.953003,240.870163 621.971130,214.819382 
	C618.499451,199.700500 618.632935,199.669846 602.881226,200.143280 
	C596.382751,200.338593 594.594543,201.656158 593.154541,207.784378 
	C590.037048,221.051804 587.042419,234.348068 583.942261,247.619598 
	C580.536804,262.197723 577.069092,276.761292 573.628479,291.331207 
	C573.231323,291.347778 572.834106,291.364319 572.436951,291.380859 
	C568.881592,277.138428 565.326233,262.895966 561.500610,247.872437 
M560.857849,432.529907 
	C564.326050,432.963379 567.784607,433.505066 571.263855,433.814148 
	C624.405273,438.535645 675.434998,430.284973 723.813843,407.730560 
	C736.697937,401.723907 748.538818,393.470306 760.812439,386.170563 
	C763.816589,384.383881 765.434509,381.652740 763.880005,378.191986 
	C762.174011,374.394043 758.741394,374.441864 755.312134,375.234222 
	C754.035889,375.529144 752.861511,376.252319 751.629211,376.751953 
	C689.031982,402.134033 624.283630,411.517456 557.087463,403.137573 
	C510.295685,397.302246 465.871704,383.908356 424.036194,362.081940 
	C419.027344,359.468750 414.205627,356.470398 409.081909,354.119812 
	C407.505920,353.396820 405.213837,354.234894 403.249603,354.358154 
	C403.710876,356.306610 403.883331,358.393982 404.731232,360.156433 
	C405.333893,361.409180 406.824493,362.249939 407.956970,363.230499 
	C451.835785,401.222687 502.431702,424.445129 560.857849,432.529907 
M458.818237,215.901566 
	C463.791962,215.944687 468.808868,215.591370 473.728821,216.127747 
	C480.411499,216.856308 486.495667,219.380112 489.500305,225.960220 
	C493.254517,234.181763 493.050201,242.951996 492.659088,251.588867 
	C484.055359,250.451874 476.027130,249.000290 467.936218,248.413071 
	C455.746490,247.528397 444.046326,249.434586 433.744110,256.698090 
	C413.410461,271.034149 414.130219,304.391113 435.508636,316.262909 
	C449.072296,323.795013 463.526703,322.811340 477.189575,316.045624 
	C483.421326,312.959778 488.807434,308.166229 494.641968,304.102020 
	C495.349121,305.446472 496.191254,307.055267 497.040314,308.660431 
	C503.007660,319.942017 505.565399,320.603210 516.036072,313.573669 
	C516.588867,313.202576 517.121887,312.797699 517.696350,312.463989 
	C521.428955,310.296112 522.151489,307.440155 519.916931,303.702759 
	C515.498352,296.312439 514.486633,288.183685 514.497986,279.721222 
	C514.519653,263.572876 514.846313,247.388458 513.897583,231.286713 
	C513.111084,217.938293 507.196228,206.663101 494.056061,201.419220 
	C474.641479,193.671432 455.233521,195.957199 436.243378,203.470245 
	C427.017914,207.120102 427.100525,207.328842 427.144318,217.468475 
	C427.172699,224.038452 428.395569,224.698807 434.530304,222.712418 
	C442.238373,220.216629 450.100708,218.197372 458.818237,215.901566 
M713.427673,300.323395 
	C709.387573,298.817535 705.414734,297.064270 701.271545,295.937378 
	C699.781982,295.532257 696.944275,296.087494 696.328369,297.142395 
	C693.282593,302.358978 696.500916,312.128876 702.041931,314.622345 
	C714.414673,320.189972 727.489197,322.069733 740.980164,321.318817 
	C750.611084,320.782745 759.703979,318.464203 767.769348,312.949280 
	C787.420471,299.512177 788.026245,270.911133 768.579651,258.678650 
	C763.057617,255.205093 756.433594,253.461472 750.273315,251.029938 
	C741.958252,247.747910 733.435791,244.931839 725.326904,241.208878 
	C720.377747,238.936630 718.472961,234.075562 719.085632,228.614868 
	C719.693604,223.196335 722.553711,219.163040 727.792175,217.480896 
	C731.549133,216.274521 735.518982,215.356689 739.442993,215.118332 
	C749.541687,214.504868 759.305664,216.123489 768.628662,220.346893 
	C770.877991,221.365860 774.067688,223.697220 775.873047,219.712524 
	C778.823975,213.199249 775.592163,204.791092 768.920959,202.292221 
	C754.106445,196.743042 738.900513,194.814575 723.426514,199.285934 
	C701.711548,205.560669 691.141541,226.869354 700.293762,245.647003 
	C705.517700,256.365021 715.027527,261.421722 725.791992,264.921875 
	C734.775574,267.842926 743.944214,270.442810 752.510986,274.330597 
	C761.787476,278.540466 763.820618,289.381958 756.985413,296.267548 
	C754.329224,298.943298 750.415466,300.939056 746.723511,301.911102 
	C735.842896,304.775940 724.945740,303.302368 713.427673,300.323395 
M780.316833,368.927216 
	C780.283569,370.746918 780.644043,372.681030 780.153809,374.367920 
	C776.691284,386.283234 772.966797,398.122711 769.538330,410.047516 
	C768.755310,412.771118 765.024658,416.103760 768.710876,418.216461 
	C770.171875,419.053802 774.680725,416.339111 776.676697,414.194489 
	C791.061646,398.738098 798.315552,380.184479 799.156250,359.177002 
	C799.510864,350.313843 798.166016,348.842865 789.526367,347.041840 
	C773.564270,343.714294 757.757385,344.592194 742.373047,349.907898 
	C737.101501,351.729279 732.171387,354.658600 727.315186,357.477783 
	C726.100098,358.183197 725.775330,360.422119 725.041382,361.956268 
	C726.495544,362.419739 727.955078,363.282623 729.402832,363.263275 
	C732.382812,363.223419 735.351868,362.498413 738.333740,362.432831 
	C749.599426,362.185120 760.870972,361.896881 772.134766,362.045105 
	C775.808472,362.093445 779.420959,363.485168 780.316833,368.927216 
z"/>
<path fill="#FAFBFB" opacity="1.000000" stroke="none" 
	d="
M561.635742,248.262985 
	C565.326233,262.895966 568.881592,277.138428 572.436951,291.380859 
	C572.834106,291.364319 573.231323,291.347778 573.628479,291.331207 
	C577.069092,276.761292 580.536804,262.197723 583.942261,247.619598 
	C587.042419,234.348068 590.037048,221.051804 593.154541,207.784378 
	C594.594543,201.656158 596.382751,200.338593 602.881226,200.143280 
	C618.632935,199.669846 618.499451,199.700500 621.971130,214.819382 
	C627.953003,240.870163 634.119629,266.878540 641.031433,293.030060 
	C642.670044,287.027771 644.386475,281.045471 645.933472,275.019653 
	C651.710571,252.516113 657.482117,230.010834 663.136353,207.476257 
	C664.427917,202.329163 667.343994,199.854858 672.681824,200.131271 
	C675.507080,200.277588 678.346558,200.124908 681.178528,200.171875 
	C686.831665,200.265640 687.976685,201.698990 686.317261,207.296890 
	C682.924377,218.742569 679.382324,230.144501 675.841187,241.545624 
	C668.902893,263.884216 661.910461,286.205933 654.966492,308.542725 
	C652.105103,317.747009 651.790161,318.045990 642.105225,317.983643 
	C628.218079,317.894226 628.720520,320.116577 624.952942,304.207916 
	C619.290039,280.295746 613.540039,256.404205 607.801514,232.509995 
	C607.511536,231.302612 606.979980,230.153229 606.148438,227.818939 
	C604.918457,232.742371 603.926819,236.542419 603.021545,240.362930 
	C597.584717,263.306732 592.189331,286.260376 586.732422,309.199341 
	C584.821289,317.232910 583.776245,318.024536 575.553284,317.987854 
	C559.440125,317.916016 561.403015,319.818909 556.637634,304.074402 
	C547.263062,273.101318 537.917664,242.119370 528.557739,211.141830 
	C528.413757,210.665390 528.216370,210.204727 528.079895,209.726440 
	C525.591125,201.003601 526.223328,200.179718 535.088562,200.145584 
	C550.292480,200.087067 549.200012,199.573944 552.934998,214.059509 
	C555.837952,225.318176 558.648804,236.600586 561.635742,248.262985 
z"/>
<path fill="#FBFCFB" opacity="1.000000" stroke="none" 
	d="
M560.423218,432.443054 
	C502.431702,424.445129 451.835785,401.222687 407.956970,363.230499 
	C406.824493,362.249939 405.333893,361.409180 404.731232,360.156433 
	C403.883331,358.393982 403.710876,356.306610 403.249634,354.358154 
	C405.213837,354.234894 407.505920,353.396820 409.081909,354.119812 
	C414.205627,356.470398 419.027344,359.468750 424.036194,362.081940 
	C465.871704,383.908356 510.295685,397.302246 557.087463,403.137573 
	C624.283630,411.517456 689.031982,402.134033 751.629211,376.751953 
	C752.861511,376.252319 754.035889,375.529144 755.312134,375.234222 
	C758.741394,374.441864 762.174011,374.394043 763.880005,378.191986 
	C765.434509,381.652740 763.816589,384.383881 760.812439,386.170563 
	C748.538818,393.470306 736.697937,401.723907 723.813843,407.730560 
	C675.434998,430.284973 624.405273,438.535645 571.263855,433.814148 
	C567.784607,433.505066 564.326050,432.963379 560.423218,432.443054 
z"/>
<path fill="#F9FAFA" opacity="1.000000" stroke="none" 
	d="
M458.357361,215.937012 
	C450.100708,218.197372 442.238373,220.216629 434.530304,222.712418 
	C428.395569,224.698807 427.172699,224.038452 427.144318,217.468475 
	C427.100525,207.328842 427.017914,207.120102 436.243378,203.470245 
	C455.233521,195.957199 474.641479,193.671432 494.056061,201.419220 
	C507.196228,206.663101 513.111084,217.938293 513.897583,231.286713 
	C514.846313,247.388458 514.519653,263.572876 514.497986,279.721222 
	C514.486633,288.183685 515.498352,296.312439 519.916931,303.702759 
	C522.151489,307.440155 521.428955,310.296112 517.696350,312.463989 
	C517.121887,312.797699 516.588867,313.202576 516.036072,313.573669 
	C505.565399,320.603210 503.007660,319.942017 497.040314,308.660431 
	C496.191254,307.055267 495.349121,305.446472 494.641968,304.102020 
	C488.807434,308.166229 483.421326,312.959778 477.189575,316.045624 
	C463.526703,322.811340 449.072296,323.795013 435.508636,316.262909 
	C414.130219,304.391113 413.410461,271.034149 433.744110,256.698090 
	C444.046326,249.434586 455.746490,247.528397 467.936218,248.413071 
	C476.027130,249.000290 484.055359,250.451874 492.659088,251.588867 
	C493.050201,242.951996 493.254517,234.181763 489.500305,225.960220 
	C486.495667,219.380112 480.411499,216.856308 473.728821,216.127747 
	C468.808868,215.591370 463.791962,215.944687 458.357361,215.937012 
M480.460327,298.078430 
	C490.699738,290.576996 495.035309,279.142365 492.019653,266.731873 
	C485.135498,265.904083 478.064270,264.405914 470.992096,264.401703 
	C464.979156,264.398102 458.673248,265.284485 453.019928,267.267853 
	C444.477905,270.264679 440.982880,279.357178 442.953522,290.228180 
	C444.382172,298.109100 449.742981,302.577698 458.813385,303.206177 
	C466.266388,303.722504 473.303375,302.153595 480.460327,298.078430 
z"/>
<path fill="#FAFBFA" opacity="1.000000" stroke="none" 
	d="
M713.803833,300.483917 
	C724.945740,303.302368 735.842896,304.775940 746.723511,301.911102 
	C750.415466,300.939056 754.329224,298.943298 756.985413,296.267548 
	C763.820618,289.381958 761.787476,278.540466 752.510986,274.330597 
	C743.944214,270.442810 734.775574,267.842926 725.791992,264.921875 
	C715.027527,261.421722 705.517700,256.365021 700.293762,245.647003 
	C691.141541,226.869354 701.711548,205.560669 723.426514,199.285934 
	C738.900513,194.814575 754.106445,196.743042 768.920959,202.292221 
	C775.592163,204.791092 778.823975,213.199249 775.873047,219.712524 
	C774.067688,223.697220 770.877991,221.365860 768.628662,220.346893 
	C759.305664,216.123489 749.541687,214.504868 739.442993,215.118332 
	C735.518982,215.356689 731.549133,216.274521 727.792175,217.480896 
	C722.553711,219.163040 719.693604,223.196335 719.085632,228.614868 
	C718.472961,234.075562 720.377747,238.936630 725.326904,241.208878 
	C733.435791,244.931839 741.958252,247.747910 750.273315,251.029938 
	C756.433594,253.461472 763.057617,255.205093 768.579651,258.678650 
	C788.026245,270.911133 787.420471,299.512177 767.769348,312.949280 
	C759.703979,318.464203 750.611084,320.782745 740.980164,321.318817 
	C727.489197,322.069733 714.414673,320.189972 702.041931,314.622345 
	C696.500916,312.128876 693.282593,302.358978 696.328369,297.142395 
	C696.944275,296.087494 699.781982,295.532257 701.271545,295.937378 
	C705.414734,297.064270 709.387573,298.817535 713.803833,300.483917 
z"/>
<path fill="#F8F9F9" opacity="1.000000" stroke="none" 
	d="
M780.235962,368.496002 
	C779.420959,363.485168 775.808472,362.093445 772.134766,362.045105 
	C760.870972,361.896881 749.599426,362.185120 738.333740,362.432831 
	C735.351868,362.498413 732.382812,363.223419 729.402832,363.263275 
	C727.955078,363.282623 726.495544,362.419739 725.041382,361.956238 
	C725.775330,360.422119 726.100098,358.183197 727.315186,357.477783 
	C732.171387,354.658600 737.101501,351.729279 742.373047,349.907898 
	C757.757385,344.592194 773.564270,343.714294 789.526367,347.041840 
	C798.166016,348.842865 799.510864,350.313843 799.156250,359.177002 
	C798.315552,380.184479 791.061646,398.738098 776.676697,414.194489 
	C774.680725,416.339111 770.171875,419.053802 768.710876,418.216461 
	C765.024658,416.103760 768.755310,412.771118 769.538330,410.047516 
	C772.966797,398.122711 776.691284,386.283234 780.153809,374.367920 
	C780.644043,372.681030 780.283569,370.746918 780.235962,368.496002 
z"/>
<path fill="#273141" opacity="1.000000" stroke="none" 
	d="
M480.146545,298.268677 
	C473.303375,302.153595 466.266388,303.722504 458.813385,303.206177 
	C449.742981,302.577698 444.382172,298.109100 442.953522,290.228180 
	C440.982880,279.357178 444.477905,270.264679 453.019928,267.267853 
	C458.673248,265.284485 464.979156,264.398102 470.992096,264.401703 
	C478.064270,264.405914 485.135498,265.904083 492.019653,266.731873 
	C495.035309,279.142365 490.699738,290.576996 480.146545,298.268677 
z"/>
</svg>