<svg version="1.1" id="Layer_1" xmlns="http://www.w3.org/2000/svg" xmlns:xlink="http://www.w3.org/1999/xlink" x="0px" y="0px"
	 width="100%" viewBox="0 0 640 480" enable-background="new 0 0 640 480" xml:space="preserve">
<path fill="transparent" opacity="1.000000" stroke="none" 
	d="
M384.000000,481.000000 
	C256.028442,481.000000 128.556900,481.000000 1.042679,481.000000 
	C1.042679,321.064178 1.042679,161.128326 1.042679,1.096238 
	C214.221512,1.096238 427.443085,1.096238 640.832336,1.096238 
	C640.832336,160.999863 640.832336,320.999908 640.832336,481.000000 
	C555.461670,481.000000 469.980835,481.000000 384.000000,481.000000 
M496.852844,32.637665 
	C482.936127,24.490427 467.839111,20.221071 451.790070,20.198868 
	C366.298920,20.080595 280.807495,20.148252 195.316238,20.224821 
	C189.343506,20.230169 183.306595,20.376320 177.409180,21.221876 
	C133.555862,27.509451 100.116203,66.559395 100.139168,111.046265 
	C100.182785,195.537613 100.141319,280.029022 100.195686,364.520355 
	C100.199097,369.823761 100.527763,375.145844 101.038338,380.427032 
	C105.471031,426.277374 144.556931,461.871429 190.367096,461.862610 
	C276.025085,461.846100 361.683044,461.847748 447.341003,461.778015 
	C452.814331,461.773560 458.350220,461.650238 463.750366,460.856781 
	C507.717621,454.396606 541.369629,418.405182 541.689941,371.312836 
	C542.273804,285.492310 541.981873,199.664581 541.772217,113.840546 
	C541.687195,79.053093 527.206665,51.758053 496.852844,32.637665 
z"/>
<path fill="transparent" opacity="1.000000" stroke="none" 
	d="
M497.172607,32.821083 
	C527.206665,51.758053 541.687195,79.053093 541.772217,113.840546 
	C541.981873,199.664581 542.273804,285.492310 541.689941,371.312836 
	C541.369629,418.405182 507.717621,454.396606 463.750366,460.856781 
	C458.350220,461.650238 452.814331,461.773560 447.341003,461.778015 
	C361.683044,461.847748 276.025085,461.846100 190.367096,461.862610 
	C144.556931,461.871429 105.471031,426.277374 101.038338,380.427032 
	C100.527763,375.145844 100.199097,369.823761 100.195686,364.520355 
	C100.141319,280.029022 100.182785,195.537613 100.139168,111.046265 
	C100.116203,66.559395 133.555862,27.509451 177.409180,21.221876 
	C183.306595,20.376320 189.343506,20.230169 195.316238,20.224821 
	C280.807495,20.148252 366.298920,20.080595 451.790070,20.198868 
	C467.839111,20.221071 482.936127,24.490427 497.172607,32.821083 
M341.529480,81.989891 
	C324.439819,73.560272 306.442841,70.753326 287.794067,74.566101 
	C256.803650,80.902122 235.446182,99.003975 223.682953,128.456146 
	C223.051956,130.035980 221.034286,131.658936 219.346970,132.127930 
	C201.727142,137.025482 186.639084,145.956451 175.107452,160.225204 
	C148.605087,193.018051 148.617508,235.922211 174.743683,269.036774 
	C175.807266,270.384857 176.388214,272.870728 175.967285,274.511841 
	C172.912018,286.423859 172.199936,298.360382 173.880295,310.576324 
	C180.160706,356.233826 225.781586,389.756927 271.129700,381.604431 
	C274.707397,380.961273 276.447906,382.044861 278.746460,384.262146 
	C300.080566,404.841766 325.537445,412.926880 354.598633,407.244995 
	C385.460114,401.211090 406.558960,382.873871 418.272522,353.640350 
	C418.950958,351.947266 421.128174,350.193665 422.938507,349.712646 
	C460.549469,339.719208 486.659088,306.133514 486.663116,267.378113 
	C486.665253,247.000626 480.026733,228.946823 467.196930,213.179367 
	C465.607513,211.226059 465.065460,209.706360 465.867065,207.074997 
	C469.303802,195.793091 469.908142,184.256302 468.197723,172.564453 
	C461.181976,124.607292 416.695801,92.156517 369.552277,100.520416 
	C368.002777,100.795319 365.906677,99.832848 364.511719,98.827744 
	C357.002991,93.417625 349.635559,87.811401 341.529480,81.989891 
z"/>
<path fill="#F8F8F8" opacity="1.000000" stroke="none" 
	d="
M341.874420,82.131378 
	C349.635559,87.811401 357.002991,93.417625 364.511719,98.827744 
	C365.906677,99.832848 368.002777,100.795319 369.552277,100.520416 
	C416.695801,92.156517 461.181976,124.607292 468.197723,172.564453 
	C469.908142,184.256302 469.303802,195.793091 465.867065,207.074997 
	C465.065460,209.706360 465.607513,211.226059 467.196930,213.179367 
	C480.026733,228.946823 486.665253,247.000626 486.663116,267.378113 
	C486.659088,306.133514 460.549469,339.719208 422.938507,349.712646 
	C421.128174,350.193665 418.950958,351.947266 418.272522,353.640350 
	C406.558960,382.873871 385.460114,401.211090 354.598633,407.244995 
	C325.537445,412.926880 300.080566,404.841766 278.746460,384.262146 
	C276.447906,382.044861 274.707397,380.961273 271.129700,381.604431 
	C225.781586,389.756927 180.160706,356.233826 173.880295,310.576324 
	C172.199936,298.360382 172.912018,286.423859 175.967285,274.511841 
	C176.388214,272.870728 175.807266,270.384857 174.743683,269.036774 
	C148.617508,235.922211 148.605087,193.018051 175.107452,160.225204 
	C186.639084,145.956451 201.727142,137.025482 219.346970,132.127930 
	C221.034286,131.658936 223.051956,130.035980 223.682953,128.456146 
	C235.446182,99.003975 256.803650,80.902122 287.794067,74.566101 
	C306.442841,70.753326 324.439819,73.560272 341.874420,82.131378 
M285.335480,353.937408 
	C309.221313,340.232300 333.107117,326.527191 356.656372,313.015198 
	C356.656372,302.053772 356.656372,291.511169 356.656372,280.473816 
	C355.172363,281.253998 354.157684,281.743378 353.184814,282.305267 
	C328.024902,296.837128 302.842712,311.330811 277.735046,325.952393 
	C272.606598,328.938995 267.876709,328.962158 262.773804,325.934113 
	C250.920837,318.900604 238.960129,312.048096 227.021423,305.159760 
	C216.874023,299.304993 206.696304,293.502716 196.095367,287.426941 
	C193.290100,312.747894 200.980042,333.257568 221.035797,347.920807 
	C240.687790,362.288879 262.238739,364.128662 285.335480,353.937408 
M446.866516,184.428574 
	C446.628174,182.449875 446.334717,180.476028 446.159607,178.491745 
	C442.286377,134.605911 394.437714,108.018173 355.659027,128.758774 
	C332.698364,141.039169 310.409607,154.577881 287.878265,167.653351 
	C286.642639,168.370407 285.165588,170.014160 285.137451,171.256805 
	C284.913391,181.156845 285.012512,191.064194 285.012512,201.664490 
	C286.721741,200.783875 287.729797,200.317200 288.687531,199.763397 
	C313.549744,185.386658 338.474518,171.115967 363.215729,156.533798 
	C369.225067,152.991989 374.349884,153.067749 380.299896,156.613113 
	C398.104675,167.222198 416.123871,177.471695 434.074280,187.835831 
	C437.860596,190.021973 441.710236,192.098404 445.735809,194.339554 
	C446.157104,190.906311 446.500885,188.104828 446.866516,184.428574 
M242.918671,142.508682 
	C242.269775,146.430313 241.085815,150.348236 241.058517,154.274185 
	C240.876587,180.438797 240.916016,206.605209 240.995499,232.770691 
	C240.999939,234.225677 241.567459,236.380905 242.605652,237.020096 
	C251.140854,242.275238 259.849701,247.248352 269.070404,252.636948 
	C269.070404,249.555389 269.070587,247.404678 269.070374,245.253967 
	C269.067444,217.254745 269.133667,189.255203 269.005920,161.256561 
	C268.978821,155.316803 271.173676,151.213074 276.387634,148.270813 
	C290.553925,140.276733 304.595612,132.061615 318.677490,123.918190 
	C326.758392,119.245087 334.821320,114.540932 343.154541,109.698418 
	C327.645325,97.548096 310.584076,93.025932 292.056519,96.705414 
	C266.894592,101.702454 250.622101,117.162704 242.918671,142.508682 
M218.331696,166.526001 
	C218.331696,163.310303 218.331696,160.094589 218.331696,156.569672 
	C216.916748,156.902802 216.237091,156.948044 215.660187,157.215225 
	C193.870667,167.306610 180.899216,184.336990 178.299576,208.073135 
	C175.785126,231.031555 183.555405,251.305252 202.770401,264.169556 
	C226.012299,279.729858 250.910904,292.817078 275.132080,306.906616 
	C275.966705,307.392151 277.482697,307.603424 278.248505,307.172913 
	C287.027100,302.238525 295.721710,297.154755 304.944275,291.818268 
	C302.740234,290.455658 301.131012,289.400696 299.466888,288.441040 
	C275.459412,274.596527 251.523468,260.624603 227.378387,247.024139 
	C220.985641,243.423233 218.143265,238.811127 218.236847,231.451599 
	C218.507828,210.143051 218.332108,188.828842 218.331696,166.526001 
M389.130768,360.585693 
	C396.882080,349.740784 401.066437,337.726013 401.063904,324.325287 
	C401.059937,303.174072 400.224396,281.975037 401.411377,260.890320 
	C402.076019,249.084152 398.772980,241.967194 387.776520,237.785995 
	C382.711609,235.860153 378.194580,232.493256 372.926453,229.493546 
	C372.926453,260.725525 372.895416,291.030823 372.954895,321.335907 
	C372.965698,326.829132 370.881165,330.735596 365.993835,333.502899 
	C351.851135,341.510620 337.835663,349.743042 323.766602,357.880951 
	C315.547485,362.635193 307.321411,367.377411 298.886902,372.247162 
	C328.066528,394.906769 365.895905,390.050751 389.130768,360.585693 
M423.668549,313.486206 
	C423.668549,317.292419 423.668549,321.098602 423.668549,325.516205 
	C425.554413,324.855011 426.981293,324.525085 428.251160,323.884094 
	C449.296814,313.261017 461.787170,296.213501 463.804871,272.795593 
	C465.971649,247.647415 455.902374,227.428680 434.389069,214.137131 
	C412.529175,200.631409 389.961487,188.269897 367.657501,175.488083 
	C366.555817,174.856766 364.660889,174.362076 363.728363,174.877258 
	C354.924866,179.740814 346.250275,184.837769 337.070709,190.137482 
	C338.404053,190.996231 339.170776,191.537430 339.980255,192.004517 
	C364.843445,206.350403 389.615967,220.857849 414.642242,234.913544 
	C421.135742,238.560516 423.829712,243.232178 423.748230,250.525146 
	C423.517487,271.178375 423.668091,291.835846 423.668549,313.486206 
M333.151276,206.348526 
	C330.717133,204.926559 328.171967,203.662186 325.875610,202.044617 
	C322.664093,199.782379 319.878815,199.750595 316.400208,201.892395 
	C307.086853,207.626724 297.577728,213.051910 288.024658,218.381775 
	C285.652771,219.705078 284.907288,221.150681 284.944763,223.813995 
	C285.106201,235.291702 285.133789,246.775421 284.916626,258.251404 
	C284.863739,261.045258 285.867249,262.408081 288.115570,263.677612 
	C298.063171,269.294647 307.866211,275.172150 317.897369,280.632477 
	C319.530945,281.521698 322.472443,281.561523 324.088257,280.676819 
	C334.250488,275.112701 344.259125,269.259399 354.175537,263.265106 
	C355.527039,262.448151 356.853333,260.326477 356.881897,258.784698 
	C357.100555,246.976059 357.111633,235.158936 356.856995,223.351562 
	C356.821106,221.686371 355.387482,219.432251 353.931274,218.523056 
	C347.332001,214.402771 340.492523,210.667191 333.151276,206.348526 
z"/>
<path fill="transparent" opacity="1.000000" stroke="none" 
	d="
M284.977600,354.060425 
	C262.238739,364.128662 240.687790,362.288879 221.035797,347.920807 
	C200.980042,333.257568 193.290100,312.747894 196.095367,287.426941 
	C206.696304,293.502716 216.874023,299.304993 227.021423,305.159760 
	C238.960129,312.048096 250.920837,318.900604 262.773804,325.934113 
	C267.876709,328.962158 272.606598,328.938995 277.735046,325.952393 
	C302.842712,311.330811 328.024902,296.837128 353.184814,282.305267 
	C354.157684,281.743378 355.172363,281.253998 356.656372,280.473816 
	C356.656372,291.511169 356.656372,302.053772 356.656372,313.015198 
	C333.107117,326.527191 309.221313,340.232300 284.977600,354.060425 
z"/>
<path fill="transparent" opacity="1.000000" stroke="none" 
	d="
M446.855591,184.865967 
	C446.500885,188.104828 446.157104,190.906311 445.735809,194.339554 
	C441.710236,192.098404 437.860596,190.021973 434.074280,187.835831 
	C416.123871,177.471695 398.104675,167.222198 380.299896,156.613113 
	C374.349884,153.067749 369.225067,152.991989 363.215729,156.533798 
	C338.474518,171.115967 313.549744,185.386658 288.687531,199.763397 
	C287.729797,200.317200 286.721741,200.783875 285.012512,201.664490 
	C285.012512,191.064194 284.913391,181.156845 285.137451,171.256805 
	C285.165588,170.014160 286.642639,168.370407 287.878265,167.653351 
	C310.409607,154.577881 332.698364,141.039169 355.659027,128.758774 
	C394.437714,108.018173 442.286377,134.605911 446.159607,178.491745 
	C446.334717,180.476028 446.628174,182.449875 446.855591,184.865967 
z"/>
<path fill="transparent" opacity="1.000000" stroke="none" 
	d="
M242.967209,142.098190 
	C250.622101,117.162704 266.894592,101.702454 292.056519,96.705414 
	C310.584076,93.025932 327.645325,97.548096 343.154541,109.698418 
	C334.821320,114.540932 326.758392,119.245087 318.677490,123.918190 
	C304.595612,132.061615 290.553925,140.276733 276.387634,148.270813 
	C271.173676,151.213074 268.978821,155.316803 269.005920,161.256561 
	C269.133667,189.255203 269.067444,217.254745 269.070374,245.253967 
	C269.070587,247.404678 269.070404,249.555389 269.070404,252.636948 
	C259.849701,247.248352 251.140854,242.275238 242.605652,237.020096 
	C241.567459,236.380905 240.999939,234.225677 240.995499,232.770691 
	C240.916016,206.605209 240.876587,180.438797 241.058517,154.274185 
	C241.085815,150.348236 242.269775,146.430313 242.967209,142.098190 
z"/>
<path fill="transparent" opacity="1.000000" stroke="none" 
	d="
M218.331696,167.021423 
	C218.332108,188.828842 218.507828,210.143051 218.236847,231.451599 
	C218.143265,238.811127 220.985641,243.423233 227.378387,247.024139 
	C251.523468,260.624603 275.459412,274.596527 299.466888,288.441040 
	C301.131012,289.400696 302.740234,290.455658 304.944275,291.818268 
	C295.721710,297.154755 287.027100,302.238525 278.248505,307.172913 
	C277.482697,307.603424 275.966705,307.392151 275.132080,306.906616 
	C250.910904,292.817078 226.012299,279.729858 202.770401,264.169556 
	C183.555405,251.305252 175.785126,231.031555 178.299576,208.073135 
	C180.899216,184.336990 193.870667,167.306610 215.660187,157.215225 
	C216.237091,156.948044 216.916748,156.902802 218.331696,156.569672 
	C218.331696,160.094589 218.331696,163.310303 218.331696,167.021423 
z"/>
<path fill="transparent" opacity="1.000000" stroke="none" 
	d="
M388.939758,360.889923 
	C365.895905,390.050751 328.066528,394.906769 298.886902,372.247162 
	C307.321411,367.377411 315.547485,362.635193 323.766602,357.880951 
	C337.835663,349.743042 351.851135,341.510620 365.993835,333.502899 
	C370.881165,330.735596 372.965698,326.829132 372.954895,321.335907 
	C372.895416,291.030823 372.926453,260.725525 372.926453,229.493546 
	C378.194580,232.493256 382.711609,235.860153 387.776520,237.785995 
	C398.772980,241.967194 402.076019,249.084152 401.411377,260.890320 
	C400.224396,281.975037 401.059937,303.174072 401.063904,324.325287 
	C401.066437,337.726013 396.882080,349.740784 388.939758,360.889923 
z"/>
<path fill="transparent" opacity="1.000000" stroke="none" 
	d="
M423.668518,312.988922 
	C423.668091,291.835846 423.517487,271.178375 423.748230,250.525146 
	C423.829712,243.232178 421.135742,238.560516 414.642242,234.913544 
	C389.615967,220.857849 364.843445,206.350403 339.980255,192.004517 
	C339.170776,191.537430 338.404053,190.996231 337.070709,190.137482 
	C346.250275,184.837769 354.924866,179.740814 363.728363,174.877258 
	C364.660889,174.362076 366.555817,174.856766 367.657501,175.488083 
	C389.961487,188.269897 412.529175,200.631409 434.389069,214.137131 
	C455.902374,227.428680 465.971649,247.647415 463.804871,272.795593 
	C461.787170,296.213501 449.296814,313.261017 428.251160,323.884094 
	C426.981293,324.525085 425.554413,324.855011 423.668549,325.516205 
	C423.668549,321.098602 423.668549,317.292419 423.668518,312.988922 
z"/>
<path fill="transparent" opacity="1.000000" stroke="none" 
	d="
M333.445404,206.570831 
	C340.492523,210.667191 347.332001,214.402771 353.931274,218.523056 
	C355.387482,219.432251 356.821106,221.686371 356.856995,223.351562 
	C357.111633,235.158936 357.100555,246.976059 356.881897,258.784698 
	C356.853333,260.326477 355.527039,262.448151 354.175537,263.265106 
	C344.259125,269.259399 334.250488,275.112701 324.088257,280.676819 
	C322.472443,281.561523 319.530945,281.521698 317.897369,280.632477 
	C307.866211,275.172150 298.063171,269.294647 288.115570,263.677612 
	C285.867249,262.408081 284.863739,261.045258 284.916626,258.251404 
	C285.133789,246.775421 285.106201,235.291702 284.944763,223.813995 
	C284.907288,221.150681 285.652771,219.705078 288.024658,218.381775 
	C297.577728,213.051910 307.086853,207.626724 316.400208,201.892395 
	C319.878815,199.750595 322.664093,199.782379 325.875610,202.044617 
	C328.171967,203.662186 330.717133,204.926559 333.445404,206.570831 
z"/>
</svg>