<svg version="1.1" id="Layer_1" xmlns="http://www.w3.org/2000/svg" xmlns:xlink="http://www.w3.org/1999/xlink" x="0px" y="0px"
	 width="100%" viewBox="0 0 1024 576" enable-background="new 0 0 1024 576" xml:space="preserve">
<path fill="#fff" opacity="1.000000" stroke="none" 
	d="
M266.340698,350.717346 
	C248.124649,335.516663 238.689713,316.486053 238.776810,292.975159 
	C238.786514,290.355469 238.266937,288.195862 236.491913,286.127350 
	C233.405167,282.530273 232.997925,278.280518 234.657120,273.912170 
	C236.228775,269.774292 237.986328,269.351868 241.102127,272.521820 
	C251.264099,282.860321 261.315430,293.307495 271.436890,303.685974 
	C285.165710,317.763428 298.921448,331.814636 312.660309,345.882324 
	C313.590851,346.835144 314.910461,347.680939 315.310638,348.833008 
	C317.377411,354.783112 321.524445,353.864014 326.170715,352.685486 
	C352.952911,345.892334 372.923401,319.429657 371.597229,292.302307 
	C370.133911,262.369598 348.609222,238.278305 319.955658,234.114136 
	C303.604980,231.737915 288.916718,235.565079 275.478699,244.853348 
	C270.493774,248.298874 270.979156,248.478165 274.435547,253.127441 
	C280.681793,261.529388 287.410187,263.511261 297.261688,258.836334 
	C306.657776,254.377518 317.154358,253.512589 327.611725,254.728104 
	C333.556885,255.419098 338.845093,257.185516 339.918060,264.217590 
	C340.264130,266.485657 342.076691,266.938385 343.677277,267.773865 
	C348.315613,270.194977 351.977753,273.393860 352.273560,279.104614 
	C352.454590,282.599274 351.805725,284.567322 347.440979,282.906830 
	C341.101593,280.495056 334.663605,280.619049 328.719818,284.381805 
	C321.912262,288.691345 319.638702,295.129669 320.406799,302.881714 
	C320.790436,306.753601 320.845337,310.510101 316.836090,313.788391 
	C311.944153,309.246429 306.926178,304.934021 302.302124,300.234009 
	C282.667816,280.277222 263.150116,260.205719 243.590546,240.175415 
	C241.262558,237.791397 239.235031,234.392334 235.112778,238.721695 
	C231.605453,229.794785 228.760086,221.597397 225.960754,211.778763 
	C235.284531,215.369080 243.359360,218.478455 252.079468,221.836319 
	C248.032593,226.010300 250.265732,228.513260 253.054077,231.326782 
	C261.593903,239.943710 261.512665,240.024200 271.337921,233.573059 
	C315.876617,204.329498 375.759277,232.401352 382.491760,285.197693 
	C387.681519,325.895905 355.720367,366.969482 309.167267,366.166473 
	C293.374146,365.894104 279.151184,360.633759 266.340698,350.717346 
M257.975922,308.527039 
	C255.750809,306.360931 253.525711,304.194794 251.096558,301.830017 
	C253.140656,327.342926 278.244904,353.061340 301.247162,352.910889 
	C286.781891,338.073669 272.624817,323.552582 257.975922,308.527039 
M324.217682,270.140991 
	C326.379486,271.282166 328.535187,272.227600 330.602661,269.753571 
	C328.325134,270.127014 326.107300,267.747040 324.217682,270.140991 
z"/>
<path fill="#fff" opacity="1.000000" stroke="none" 
	d="
M272.017334,295.980347 
	C260.642426,284.271271 249.460648,272.867584 238.411728,261.336609 
	C232.760086,255.438385 232.734604,249.158676 238.064255,243.806213 
	C240.158936,243.847336 241.095566,245.645218 242.312195,246.889557 
	C266.269714,271.392548 290.172211,295.949341 314.132233,320.449921 
	C318.240204,324.650574 319.885773,329.357239 317.682220,334.968597 
	C316.061707,339.095154 314.427185,339.418610 311.310730,336.239197 
	C298.266937,322.932007 285.275879,309.573059 272.017334,295.980347 
z"/>
<path fill="#fff" opacity="1.000000" stroke="none" 
	d="
M726.107300,246.421143 
	C732.880615,246.987244 737.714661,252.757065 738.604309,260.832092 
	C739.821716,271.882385 729.459106,281.992737 718.586060,280.116302 
	C716.691956,279.789459 713.059143,280.064575 714.426697,275.528290 
	C712.935242,278.874512 710.947205,278.391907 708.605896,276.889893 
	C702.458008,272.945953 699.408203,263.767883 701.965149,256.563324 
	C704.674561,248.928772 712.812317,243.593353 720.169495,244.556519 
	C721.613159,244.745514 722.419067,245.090363 722.911072,246.756470 
	C723.675354,249.344467 724.951843,248.921570 726.107300,246.421143 
M723.295410,267.658508 
	C722.619995,269.113037 721.100342,270.119415 720.945312,272.376709 
	C726.033813,271.183685 728.854065,268.180542 729.540771,263.328674 
	C730.193420,258.717133 728.234558,255.460144 723.890869,253.641724 
	C722.197876,255.321594 721.560059,257.052277 721.952148,259.034637 
	C723.473877,260.494385 725.752808,258.918030 727.131714,260.712646 
	C726.962036,263.331665 724.800903,264.938751 723.295410,267.658508 
M713.926880,266.819733 
	C710.352966,266.897736 711.019958,265.200836 712.333557,263.124786 
	C714.374634,259.899017 717.158142,257.063507 718.301025,252.884064 
	C713.234863,253.506866 711.202393,256.417145 710.378723,260.486481 
	C709.381348,265.414062 710.518250,269.317871 716.205383,271.435883 
	C715.375916,269.703125 720.103821,266.948029 713.926880,266.819733 
z"/>
<path fill="#fff" opacity="1.000000" stroke="none" 
	d="
M638.976318,245.671143 
	C641.631470,245.680069 643.802063,245.601700 645.962646,245.713959 
	C655.532043,246.211075 658.849548,252.750671 654.019531,261.878448 
	C654.806152,262.825714 655.717102,263.778107 656.463257,264.845703 
	C660.235474,270.242706 658.133789,276.982056 651.835632,278.938293 
	C644.526489,281.208496 636.957336,280.057098 629.488892,280.035187 
	C627.390198,280.029022 626.714661,278.553253 626.716980,276.635529 
	C626.728149,267.471924 626.742126,258.308258 626.707703,249.144791 
	C626.697815,246.516541 628.113037,245.664673 630.489868,245.695496 
	C633.155029,245.730087 635.821350,245.683075 638.976318,245.671143 
M646.596436,272.493439 
	C648.394226,271.736328 649.181152,270.410767 648.612976,268.513123 
	C648.106995,266.823212 646.693665,266.315765 645.097351,266.271515 
	C642.935547,266.211548 640.771790,266.227753 638.609192,266.193390 
	C636.270325,266.156281 635.388855,267.366608 635.387756,269.617676 
	C635.386597,272.006897 636.613220,272.901276 638.804688,272.856049 
	C641.131897,272.808014 643.458557,272.733856 646.596436,272.493439 
M635.547791,257.175873 
	C638.778870,260.467651 642.484375,258.998016 646.002563,258.011414 
	C647.278503,257.653595 648.063843,256.087799 647.146790,254.742569 
	C645.142212,251.801804 641.941467,252.504120 639.031738,252.409103 
	C636.242798,252.318024 635.154785,253.751694 635.547791,257.175873 
z"/>
<path fill="#fff" opacity="1.000000" stroke="none" 
	d="
M498.642639,245.234421 
	C504.207672,244.235031 508.963776,245.425735 513.327698,248.134247 
	C514.942993,249.136826 517.198059,250.397171 515.290527,252.786102 
	C513.675537,254.808655 512.104797,256.716217 508.674500,254.759262 
	C501.829163,250.854034 495.367554,252.996902 492.961578,259.369293 
	C490.700897,265.356750 494.704254,271.929077 501.056488,272.658783 
	C506.144379,273.243286 507.622284,272.054352 507.746094,266.847656 
	C507.816406,263.892273 508.082794,261.668579 511.965698,261.655182 
	C515.781189,261.642029 516.421570,263.720184 516.233765,266.751282 
	C515.951294,271.311615 517.826904,276.474030 511.375885,278.884857 
	C503.335632,281.889587 493.836761,280.695312 488.475433,275.352356 
	C483.317749,270.212372 482.516754,263.880035 484.303101,257.332367 
	C486.180969,250.449249 491.287079,246.670181 498.642639,245.234421 
z"/>
<path fill="#fff" opacity="1.000000" stroke="none" 
	d="
M750.459839,265.803406 
	C743.068481,262.870514 741.362976,260.711670 741.677917,255.017944 
	C741.956909,249.974777 745.102173,246.967621 751.458313,245.275787 
	C755.877686,244.099487 760.066650,245.108353 764.220032,246.295471 
	C766.222534,246.867844 768.595398,247.557480 767.295410,250.753113 
	C766.244812,253.335693 765.210022,255.289566 761.855835,253.653061 
	C759.604675,252.554642 757.100098,252.036667 754.553894,252.471451 
	C752.902100,252.753555 751.022949,253.168579 750.752502,255.133575 
	C750.460144,257.257935 752.414490,257.887939 753.936035,258.379791 
	C756.621216,259.247742 759.451599,259.673157 762.123535,260.573761 
	C766.589478,262.079071 769.584534,264.763458 769.368591,270.045258 
	C769.161255,275.118622 766.433411,278.157532 761.875061,279.472900 
	C755.788208,281.229279 749.701843,280.834961 743.799011,278.388885 
	C741.388245,277.389832 740.515381,275.944733 741.700195,273.306946 
	C742.900513,270.634613 744.335999,269.723267 747.079285,271.289490 
	C749.923584,272.913361 753.100647,273.108093 756.305969,272.848572 
	C758.027405,272.709198 759.895813,272.384644 760.137939,270.371948 
	C760.368835,268.452484 758.447266,268.091583 757.087280,267.637390 
	C755.039917,266.953583 752.917908,266.493134 750.459839,265.803406 
z"/>
<path fill="#fff" opacity="1.000000" stroke="none" 
	d="
M475.021667,261.079010 
	C477.669373,267.167419 480.165070,272.908844 482.648743,278.622589 
	C476.673981,281.439484 474.473969,280.683960 472.167145,275.357880 
	C469.547333,269.309296 466.980011,263.238007 464.152832,256.621765 
	C461.768097,259.361755 460.774872,261.814056 460.472321,264.914612 
	C463.891388,265.972290 467.575562,266.795227 466.905853,271.682556 
	C466.042755,273.068237 464.428406,273.046997 462.994141,272.944977 
	C458.812561,272.647614 455.866699,273.619049 453.997253,278.037628 
	C452.551361,281.455109 448.936127,280.059967 446.181885,279.786407 
	C444.805023,277.607239 446.034576,276.016479 446.741516,274.413177 
	C450.296112,266.351410 453.975250,258.343597 457.441132,250.244263 
	C458.655487,247.406494 460.011261,245.618866 463.555695,245.560928 
	C467.245728,245.500580 468.973572,247.180374 470.218201,250.251434 
	C471.653076,253.791824 473.309479,257.242432 475.021667,261.079010 
z"/>
<path fill="#fff" opacity="1.000000" stroke="none" 
	d="
M580.862915,255.187164 
	C582.046326,244.507477 597.199219,242.549881 605.664490,247.243317 
	C607.628967,248.332489 607.110779,249.937088 606.443726,251.573959 
	C605.664001,253.487259 604.616699,254.713837 602.290771,253.847244 
	C599.954224,252.976730 597.589539,252.156830 595.020874,252.381195 
	C592.952820,252.561829 590.728699,252.914124 590.490417,255.368103 
	C590.261047,257.729340 592.523499,258.085052 594.245789,258.599335 
	C597.106750,259.453583 600.057373,260.047455 602.852661,261.071838 
	C606.611389,262.449280 608.843079,265.280121 609.054077,269.330505 
	C609.264587,273.370331 607.337524,276.517090 603.817749,278.279053 
	C596.790344,281.796936 589.668579,281.035217 582.670105,277.988800 
	C580.561035,277.070740 580.284790,275.480011 581.240112,273.469940 
	C582.170166,271.513031 583.171204,269.834625 585.734070,271.078186 
	C588.641968,272.489105 591.708313,273.128113 594.918213,272.913300 
	C596.682678,272.795227 598.995178,273.085175 599.403198,270.733093 
	C599.817261,268.345978 597.613770,267.856903 595.888611,267.319641 
	C593.512939,266.579773 591.080139,266.023071 588.706665,265.277039 
	C583.972412,263.788971 581.012512,260.805511 580.862915,255.187164 
z"/>
<path fill="#fff" opacity="1.000000" stroke="none" 
	d="
M675.870605,278.099396 
	C673.542053,278.369202 675.047180,276.479797 674.129333,275.200989 
	C672.741272,280.808136 670.093506,278.668365 667.468201,276.552856 
	C660.940308,271.292603 658.973633,262.484711 662.630676,254.939728 
	C666.063110,247.858002 674.252808,243.818634 682.123169,245.369385 
	C683.172485,246.570938 680.502991,249.341797 683.912170,249.821228 
	C683.998962,249.996185 684.015137,249.958298 683.824585,250.267975 
	C683.169434,253.709946 680.998047,256.540436 681.623108,259.701019 
	C683.446106,260.887512 685.692871,259.044952 686.953491,261.497803 
	C685.532104,265.586792 682.059021,268.636353 680.036804,272.917938 
	C678.492432,274.821686 677.181519,276.460541 675.870605,278.099396 
M675.722534,258.350769 
	C676.377747,256.789246 678.261353,255.685577 677.593262,253.573730 
	C671.597534,254.834564 670.638489,256.593567 670.118713,267.665405 
	C671.420044,264.479309 673.357910,261.696289 675.722534,258.350769 
M673.568665,270.589844 
	C675.554565,271.881744 676.255432,270.639374 676.472412,268.969208 
	C676.632812,267.733826 675.659058,267.240997 674.580505,267.300262 
	C672.554077,267.411560 671.909058,268.337158 673.568665,270.589844 
z"/>
<path fill="#fff" opacity="1.000000" stroke="none" 
	d="
M780.624146,274.437683 
	C780.632446,268.998810 780.438599,263.994537 780.697815,259.013794 
	C780.918823,254.767960 779.508789,252.758026 775.032776,253.175903 
	C773.317139,253.336075 771.279968,253.657333 770.111877,251.661270 
	C768.528259,248.955109 770.127319,245.813705 773.362915,245.755112 
	C781.017822,245.616470 788.677063,245.732529 796.334045,245.676941 
	C799.046082,245.657257 800.280273,246.799362 800.217468,249.568939 
	C800.159729,252.115112 798.903809,252.962601 796.503723,253.195160 
	C789.328735,253.890427 789.337280,253.966248 789.337158,261.377075 
	C789.337097,265.871735 789.233887,270.369232 789.362976,274.860107 
	C789.456482,278.109467 788.939819,280.212524 784.863464,280.275635 
	C780.590393,280.341736 780.277771,278.053741 780.624146,274.437683 
z"/>
<path fill="#fff" opacity="1.000000" stroke="none" 
	d="
M525.143311,245.734467 
	C530.142151,245.025879 531.387085,247.301682 531.211975,251.464233 
	C530.981995,256.931244 531.318298,262.421783 531.098511,267.889648 
	C530.947754,271.640350 532.459167,272.974396 536.075989,272.705383 
	C538.715454,272.509064 541.383484,272.722595 544.038330,272.701172 
	C546.324341,272.682739 547.301331,273.762299 547.317627,276.045135 
	C547.333801,278.319611 546.834351,280.075256 544.161743,280.094788 
	C537.856689,280.140900 531.551086,280.140656 525.245911,280.109161 
	C522.633667,280.096130 521.889038,278.351715 521.886658,276.115845 
	C521.877258,267.320160 521.879822,258.524445 521.916687,249.728867 
	C521.924683,247.821198 522.219116,246.002960 525.143311,245.734467 
z"/>
<path fill="#fff" opacity="1.000000" stroke="none" 
	d="
M675.992676,278.438721 
	C677.181519,276.460541 678.492432,274.821686 680.378418,272.919312 
	C689.735901,270.207367 692.270752,261.784546 686.092773,255.173325 
	C684.626465,253.604172 683.543762,252.166245 684.015137,249.958298 
	C684.015137,249.958298 683.998962,249.996185 683.991333,250.015625 
	C685.455994,245.681915 688.027039,246.045746 691.191101,248.247498 
	C697.468384,252.615524 700.237000,261.751434 697.437317,269.160461 
	C694.608093,276.647217 686.623291,281.496918 678.846863,280.463409 
	C677.673218,280.307373 676.498901,280.194519 675.992676,278.438721 
z"/>
<path fill="#fff" opacity="1.000000" stroke="none" 
	d="
M612.256836,310.435425 
	C612.833313,307.433777 612.113647,304.686157 613.525635,301.733002 
	C619.016724,303.328857 618.911987,309.543884 622.901917,312.394318 
	C626.135498,310.667786 626.570740,306.788025 628.748047,304.235413 
	C629.706665,303.111542 630.360168,301.437805 632.200928,301.985809 
	C633.895325,302.490265 633.403381,304.140839 633.449768,305.402832 
	C633.602112,309.550690 633.787048,313.700684 633.776672,317.849365 
	C633.773132,319.266632 633.637451,321.143433 631.496033,321.002960 
	C629.687195,320.884338 629.773193,319.233368 629.729248,317.935394 
	C629.658325,315.842194 629.710144,313.744843 629.710144,311.106903 
	C626.599976,313.475464 626.361816,317.211212 623.263367,318.848663 
	C619.837280,317.684998 619.432556,313.752350 616.252441,311.046448 
	C616.252441,313.915039 616.298584,316.159698 616.233704,318.401154 
	C616.199341,319.588165 615.951599,320.878815 614.469971,321.001526 
	C612.671326,321.150452 612.252747,319.718231 612.198669,318.361237 
	C612.099487,315.873657 612.197144,313.378235 612.256836,310.435425 
z"/>
<path fill="#fff" opacity="1.000000" stroke="none" 
	d="
M417.809814,310.050018 
	C418.287354,306.978882 416.318359,303.059662 419.793549,302.134155 
	C423.643829,301.108765 428.058319,300.720520 431.854889,303.024567 
	C434.447357,304.597900 435.885651,316.506683 433.973083,318.945648 
	C432.242462,321.152588 420.976562,322.477173 418.912415,320.681488 
	C417.958679,319.851776 417.866852,318.651184 417.848999,317.484497 
	C417.813507,315.168060 417.821381,312.850952 417.809814,310.050018 
M429.402527,317.344025 
	C430.663666,316.385986 431.169312,315.100067 429.765656,314.110199 
	C427.753418,312.691223 425.375671,312.938385 423.185577,313.770294 
	C422.159851,314.159912 422.016693,315.366669 422.409210,316.334473 
	C423.126526,318.103027 424.800751,317.754669 426.232391,317.798676 
	C427.045746,317.823700 427.864441,317.673920 429.402527,317.344025 
M423.931122,305.311981 
	C422.080078,306.017944 421.657043,307.518005 422.796844,308.832306 
	C424.128723,310.368073 426.215363,309.746979 427.981506,309.484650 
	C429.213135,309.301697 430.217957,308.441101 429.831604,307.042603 
	C429.332886,305.237488 427.651306,305.260529 426.164093,305.138794 
	C425.671448,305.098450 425.170013,305.164948 423.931122,305.311981 
z"/>
<path fill="#fff" opacity="1.000000" stroke="none" 
	d="
M693.684814,316.258209 
	C691.547791,316.134857 690.467712,316.837128 690.264343,318.712372 
	C690.105530,320.176544 689.461731,321.458893 687.747742,321.001892 
	C686.132019,320.571014 686.301453,319.019745 686.289368,317.674042 
	C686.267029,315.186066 686.181274,312.698792 686.138245,310.210938 
	C685.995239,301.948822 691.484009,298.676270 698.930115,302.655914 
	C702.594788,304.614532 703.990417,308.066589 702.003540,311.469849 
	C700.066711,314.787018 699.933777,317.380249 702.741028,320.608398 
	C697.564453,322.610840 697.245728,316.605469 693.684814,316.258209 
M698.074158,309.930817 
	C699.091858,306.033173 696.698730,305.405945 693.691711,305.344482 
	C690.671082,305.282715 689.934021,307.186462 690.424683,309.592621 
	C691.134216,313.071899 693.884949,311.766052 696.029358,311.559998 
	C696.602539,311.504913 697.122375,310.894379 698.074158,309.930817 
z"/>
<path fill="#fff" opacity="1.000000" stroke="none" 
	d="
M558.090942,272.659149 
	C563.388367,272.656769 568.197266,272.687988 573.005371,272.641785 
	C575.699219,272.615906 578.110352,272.792450 578.000366,276.440155 
	C577.893066,279.998047 575.446350,280.189941 572.794739,280.184326 
	C567.157104,280.172394 561.519531,280.190887 555.881897,280.183044 
	C553.314148,280.179504 550.804443,280.256256 550.710144,276.522095 
	C550.617188,272.838715 552.918457,272.603058 555.612305,272.667297 
	C556.275146,272.683136 556.938721,272.663635 558.090942,272.659149 
z"/>
<path fill="#fff" opacity="1.000000" stroke="none" 
	d="
M496.384644,321.309875 
	C489.849731,319.056824 487.074646,315.103607 487.986908,309.908539 
	C488.837433,305.065002 492.612122,301.859375 497.717987,301.644531 
	C503.463989,301.402740 507.523834,304.324005 508.702209,309.548187 
	C510.266510,316.483521 505.407532,321.304504 496.384644,321.309875 
M503.721436,315.139221 
	C505.422729,311.749420 505.227203,308.590668 502.002411,306.306183 
	C499.660980,304.647430 496.959564,304.615997 494.559631,306.399994 
	C492.153015,308.188995 491.515106,310.706238 492.323517,313.520386 
	C493.626068,318.054749 498.240570,318.972198 503.721436,315.139221 
z"/>
<path fill="#fff" opacity="1.000000" stroke="none" 
	d="
M450.971313,311.109253 
	C451.626434,306.154022 454.021606,302.926147 458.557465,301.927094 
	C462.784241,300.996063 466.953003,301.525299 469.846375,305.217651 
	C472.381683,308.453156 472.892792,312.154297 470.986572,315.940643 
	C469.082642,319.722443 465.898529,321.349426 461.705414,321.416718 
	C457.291382,321.487549 453.960083,319.787262 452.025482,315.805359 
	C451.394043,314.505737 451.293640,312.948120 450.971313,311.109253 
M457.830109,306.191742 
	C454.519470,308.815582 454.274475,312.107605 456.408142,315.381104 
	C458.328247,318.326965 461.485138,318.332123 464.398804,317.120117 
	C467.657196,315.764740 468.555817,312.825623 467.616638,309.696686 
	C466.207642,305.002777 462.615692,304.564972 457.830109,306.191742 
z"/>
<path fill="#fff" opacity="1.000000" stroke="none" 
	d="
M434.892334,280.176056 
	C429.593445,280.165161 424.780945,280.126587 419.968750,280.150909 
	C417.253479,280.164612 415.574036,279.368713 415.604156,276.179291 
	C415.637207,272.678650 417.880493,272.687775 420.318390,272.689301 
	C425.960571,272.692841 431.602753,272.672455 437.244934,272.678986 
	C439.775360,272.681915 442.313629,272.441406 442.329987,276.303223 
	C442.345764,280.022003 440.016998,280.160278 437.370087,280.159668 
	C436.706329,280.159515 436.042572,280.169434 434.892334,280.176056 
z"/>
<path fill="#fff" opacity="1.000000" stroke="none" 
	d="
M575.292725,252.606247 
	C568.249207,252.870499 561.621521,252.985031 554.993469,253.076309 
	C552.538147,253.110123 550.849670,252.354401 550.777100,249.438431 
	C550.695618,246.160950 552.595215,245.639313 555.248840,245.667053 
	C560.887207,245.726028 566.527405,245.618011 572.165283,245.696503 
	C577.515076,245.770981 578.338379,247.411957 575.292725,252.606247 
z"/>
<path fill="#fff" opacity="1.000000" stroke="none" 
	d="
M420.404724,253.060089 
	C416.869202,253.210983 415.338013,252.006516 415.554718,248.658340 
	C415.771790,245.304565 418.092590,245.717789 420.203583,245.703293 
	C425.860718,245.664444 431.518463,245.711960 437.175690,245.681641 
	C439.638580,245.668457 441.335388,246.239182 441.370056,249.251709 
	C441.403992,252.199753 439.836273,253.006592 437.326202,253.013229 
	C431.835388,253.027756 426.344604,253.047226 420.404724,253.060089 
z"/>
<path fill="#fff" opacity="1.000000" stroke="none" 
	d="
M726.134521,314.660461 
	C724.323364,315.927155 724.335815,317.664429 724.020996,319.278809 
	C723.808472,320.368652 723.197693,321.088928 722.005920,321.048584 
	C720.767212,321.006622 720.179077,320.064606 720.160889,319.072479 
	C720.069519,314.097656 720.051025,309.119507 720.140076,304.144897 
	C720.161804,302.931580 720.902588,301.844818 722.369019,302.024872 
	C723.509399,302.164856 723.875977,303.137268 724.093262,304.179718 
	C724.419434,305.744507 723.714417,307.512512 725.002625,308.965210 
	C729.479004,308.042694 730.311951,301.140472 736.106934,302.007812 
	C734.900085,304.889984 735.245483,316.847382 736.529419,320.736938 
	C733.903870,322.180847 732.642883,320.199219 731.146912,318.665985 
	C729.690857,317.173584 728.971558,314.821686 726.134521,314.660461 
z"/>
<path fill="#fff" opacity="1.000000" stroke="none" 
	d="
M534.605835,315.468750 
	C531.073242,313.380219 530.766113,315.931671 530.270630,318.051605 
	C529.931213,319.503387 529.963257,321.329651 527.789307,320.967682 
	C526.132568,320.691803 526.084351,319.084503 526.067566,317.778076 
	C526.014099,313.625366 525.993652,309.469727 526.099731,305.318817 
	C526.136414,303.884125 526.192627,301.963013 528.277283,302.054871 
	C530.351746,302.146271 530.093140,304.053955 530.208984,305.500519 
	C530.313232,306.802551 530.352966,308.109741 530.435852,309.695831 
	C535.218018,308.313141 536.259888,301.719025 542.098633,301.770721 
	C542.236816,304.730560 540.095276,305.852325 538.703308,307.219513 
	C536.354248,309.526642 536.144653,311.431061 538.382263,314.016937 
	C540.053223,315.947906 542.359863,317.605347 542.802490,320.712921 
	C537.968201,322.319519 537.328552,317.517029 534.605835,315.468750 
z"/>
<path fill="#fff" opacity="1.000000" stroke="none" 
	d="
M573.407288,259.263184 
	C576.239990,264.287201 575.460144,266.061310 570.640564,266.175140 
	C565.341858,266.300293 560.037781,266.182281 554.736206,266.207001 
	C552.111938,266.219238 550.741577,265.135742 550.787842,262.347839 
	C550.831604,259.712616 552.323914,258.875397 554.616455,258.893494 
	C560.742065,258.941895 566.867432,259.026459 573.407288,259.263184 
z"/>
<path fill="#fff" opacity="1.000000" stroke="none" 
	d="
M761.437744,317.698761 
	C764.060486,318.277557 768.100098,316.365051 768.120850,319.537720 
	C768.142456,322.826660 764.126648,321.212280 761.956360,321.268799 
	C753.845520,321.480072 753.842163,321.351685 753.812622,313.203674 
	C753.810791,312.705048 753.808899,312.206421 753.806030,311.707794 
	C753.744446,301.182587 755.034729,300.072449 765.508423,301.595886 
	C766.665344,301.764160 767.990540,301.727020 767.948364,303.381744 
	C767.908875,304.932648 766.618103,304.951904 765.484009,305.282532 
	C763.086914,305.981445 758.677856,303.550385 758.644897,307.616089 
	C758.614868,311.321655 762.998169,308.905548 765.213684,309.859436 
	C765.774414,310.100830 766.279602,310.471222 767.032471,310.912567 
	C765.828064,314.180756 763.150269,312.982941 761.130127,313.292969 
	C759.953491,313.473572 758.690430,313.495331 758.421021,314.953217 
	C758.049744,316.963013 759.287476,317.597595 761.437744,317.698761 
z"/>
<path fill="#fff" opacity="1.000000" stroke="none" 
	d="
M415.574402,262.286957 
	C415.654510,259.410339 417.309631,258.915344 419.313171,258.908539 
	C424.781921,258.889984 430.250824,258.909515 435.719513,258.881165 
	C438.058014,258.869019 439.443451,259.602142 439.447174,262.308044 
	C439.450958,265.085876 438.261902,266.205139 435.577332,266.182526 
	C430.109039,266.136475 424.639893,266.154388 419.171387,266.190552 
	C416.773926,266.206421 415.333099,265.338623 415.574402,262.286957 
z"/>
<path fill="#fff" opacity="1.000000" stroke="none" 
	d="
M658.511353,302.195435 
	C660.261108,301.565979 661.568420,301.738342 662.257812,303.156342 
	C664.990906,308.778046 668.034607,314.275116 670.019653,320.613220 
	C665.281250,322.352936 664.414307,316.321472 659.943665,316.737335 
	C655.958252,317.108093 654.390747,320.945312 649.919067,321.504486 
	C651.718506,314.039154 655.143860,308.298920 658.511353,302.195435 
M661.693420,310.682526 
	C661.107605,309.780273 661.170837,308.350708 659.613037,308.143341 
	C658.621277,309.658569 657.544128,311.115967 658.129578,313.526825 
	C659.604309,312.952820 662.382446,315.468658 661.693420,310.682526 
z"/>
<path fill="#fff" opacity="1.000000" stroke="none" 
	d="
M567.160095,309.881378 
	C570.752686,311.026306 574.238770,312.018005 573.553223,316.495544 
	C573.013000,320.023895 570.365112,321.432098 567.049072,321.454529 
	C563.824646,321.476379 560.243469,321.945312 558.355042,317.635040 
	C562.314697,316.097900 566.155762,319.784668 569.373962,316.403534 
	C568.493042,313.254456 565.574341,313.603485 563.413452,312.812073 
	C560.481934,311.738403 558.405823,310.016693 558.798157,306.608154 
	C559.159058,303.472076 561.363220,301.918610 564.259949,301.778900 
	C567.241882,301.635132 570.864563,300.506744 572.512207,304.497314 
	C570.751404,306.730408 569.103088,305.074158 567.576904,305.195221 
	C565.964905,305.323059 563.736389,304.695038 563.245850,306.666107 
	C562.601135,309.256439 565.210876,309.168549 567.160095,309.881378 
z"/>
<path fill="#fff" opacity="1.000000" stroke="none" 
	d="
M786.390137,301.722412 
	C791.166870,301.942505 795.615967,300.778625 799.944702,302.540161 
	C799.792419,303.338287 799.745422,304.191071 799.610474,304.205200 
	C792.637939,304.936096 794.278381,310.193085 794.006409,314.560394 
	C793.865967,316.815033 795.192810,320.718689 792.042358,320.770874 
	C788.040039,320.837189 790.290344,316.709503 789.765259,314.443359 
	C789.510864,313.345062 789.722900,312.137329 789.733887,310.979218 
	C789.760681,308.139954 790.127258,305.482697 785.842590,304.974609 
	C783.286926,304.671539 783.055664,302.795135 786.390137,301.722412 
z"/>
</svg>