<svg version="1.1" id="Layer_1" xmlns="http://www.w3.org/2000/svg" xmlns:xlink="http://www.w3.org/1999/xlink" x="0px" y="0px"
	 width="100%" viewBox="0 0 1024 576" enable-background="new 0 0 1024 576" xml:space="preserve">
<path fill="#fff" opacity="1.000000" stroke="none" 
	d="
M237.699036,216.216278 
	C242.496735,218.133545 246.948761,219.883804 251.997894,221.868805 
	C247.731262,226.287277 250.617783,228.827454 253.385788,231.634109 
	C261.602356,239.965439 261.553467,240.013702 271.293030,233.604813 
	C315.748199,204.352234 375.822327,232.470917 382.499329,285.127563 
	C387.631622,325.602264 356.007599,366.895050 309.242798,366.192627 
	C270.577301,365.611908 238.690002,332.978149 238.770554,294.282776 
	C238.777328,291.027283 238.435806,288.217865 236.113495,285.548279 
	C233.290314,282.302917 233.113800,278.226929 234.548233,274.205200 
	C236.121017,269.795502 237.948685,269.332458 241.234879,272.659058 
	C248.141998,279.651154 254.917953,286.772583 261.781921,293.807587 
	C278.652893,311.099060 295.543854,328.371002 312.424133,345.653381 
	C313.355042,346.606476 314.727448,347.430267 315.103027,348.574097 
	C317.295990,355.252350 321.982178,353.805328 326.812408,352.517578 
	C353.580872,345.380890 373.331879,318.562714 371.570221,291.668884 
	C369.605194,261.670349 348.499084,238.309341 319.844635,234.107300 
	C303.310699,231.682693 288.539062,235.759460 274.953522,245.146866 
	C271.454376,247.564728 271.301849,249.158386 274.067535,252.899094 
	C280.659210,261.814667 287.763031,263.301270 297.806793,258.639404 
	C306.925537,254.406906 317.071442,253.581253 327.193146,254.695358 
	C333.324280,255.370239 338.799194,257.014526 339.938599,264.293732 
	C340.293762,266.562927 342.157349,266.972473 343.745544,267.807007 
	C348.209717,270.152740 351.784485,273.244019 352.257080,278.682495 
	C352.643494,283.128876 351.601410,283.953766 347.273499,282.687622 
	C341.137024,280.892334 335.078552,280.626740 329.378540,283.969849 
	C322.277496,288.134735 319.717834,294.577301 320.361908,302.601166 
	C320.873810,308.978607 320.664062,309.416077 317.489014,313.202179 
	C314.911987,313.030121 313.601440,310.886383 311.968842,309.350891 
	C288.290466,287.080872 266.424805,263.017578 243.477676,240.022873 
	C241.202591,237.743088 239.198807,234.865005 235.186661,238.537659 
	C231.447067,230.056641 229.054169,221.692886 226.147507,212.960037 
	C230.654816,212.700775 233.826187,215.065536 237.699036,216.216278 
M251.994843,308.671692 
	C258.957336,333.086182 282.089996,354.062073 301.084808,352.732574 
	C284.424103,335.646210 267.973083,318.774872 250.736237,301.097626 
	C251.183167,304.133759 251.463593,306.038849 251.994843,308.671692 
M330.694550,270.223511 
	C328.493927,268.490570 325.880585,269.460632 323.464874,269.063171 
	C325.463104,271.048706 327.607971,272.307037 330.694550,270.223511 
z"/>
<path fill="#fff" opacity="1.000000" stroke="none" 
	d="
M318.604523,329.302185 
	C318.571564,330.674622 318.588715,331.690247 318.373260,332.653870 
	C317.861206,334.944031 317.328064,337.578033 314.854736,338.289215 
	C312.591309,338.940063 311.521210,336.445312 310.203400,335.095764 
	C286.452942,310.773529 262.769348,286.385956 239.031357,262.051514 
	C234.995392,257.914154 232.893875,253.362061 235.095688,247.604248 
	C236.802963,243.139664 238.310059,242.787582 241.687241,246.244476 
	C263.695221,268.771942 285.667755,291.333984 307.654236,313.882446 
	C309.864685,316.149414 312.061615,318.430725 314.317505,320.651855 
	C316.652527,322.950928 318.230896,325.605896 318.604523,329.302185 
z"/>
<path fill="#fff" opacity="1.000000" stroke="none" 
	d="
M627.544434,246.531921 
	C634.331055,245.125641 640.852661,245.370865 647.272278,245.900879 
	C655.929749,246.615677 658.682312,253.405060 653.913147,261.809753 
	C654.570862,262.582581 655.345947,263.407745 656.025330,264.305328 
	C660.498535,270.215302 658.235046,277.160736 651.003662,279.148285 
	C643.991211,281.075592 636.782288,280.054291 629.651855,280.028809 
	C627.644775,280.021606 626.706726,278.720703 626.741760,276.742859 
	C626.918152,266.783936 626.081970,256.809326 627.544434,246.531921 
M637.226624,266.326752 
	C634.857239,267.211945 635.213928,269.221069 635.571350,270.958374 
	C636.023743,273.157135 638.026428,272.859772 639.645081,272.864777 
	C641.805237,272.871429 643.974976,272.816681 646.123169,272.608154 
	C647.779480,272.447418 648.956055,271.426575 649.043152,269.706116 
	C649.143738,267.720428 647.886353,266.542053 646.033813,266.389038 
	C643.386414,266.170349 640.714355,266.250458 637.226624,266.326752 
M640.504333,258.937622 
	C643.146729,258.660736 647.204529,259.711578 647.230225,255.888611 
	C647.257080,251.886017 643.122986,252.647095 640.289490,252.389145 
	C640.125977,252.374268 639.959839,252.389664 639.794922,252.389114 
	C637.526978,252.381531 635.421021,252.494125 635.364868,255.626602 
	C635.308594,258.764679 637.336792,258.994019 640.504333,258.937622 
z"/>
<path fill="#fff" opacity="1.000000" stroke="none" 
	d="
M492.710632,259.933899 
	C492.067932,267.630890 495.026825,271.975861 501.002441,272.669373 
	C506.251465,273.278564 507.466553,272.165924 507.803864,266.441376 
	C508.050446,262.257355 510.129120,260.694580 513.894287,261.880829 
	C514.357849,262.026886 514.872192,262.179718 515.222961,262.488495 
	C517.354004,264.364532 516.531677,275.862457 513.956909,277.332367 
	C507.003021,281.302277 499.654083,281.840729 492.501556,278.168823 
	C485.958069,274.809570 483.263580,269.058197 483.615997,261.656219 
	C483.964447,254.337051 487.615723,249.400757 494.066101,246.602875 
	C501.150665,243.529907 508.040894,244.378876 514.364929,248.891388 
	C515.856934,249.955948 516.736084,251.401611 515.088684,253.048157 
	C513.362244,254.773651 511.999908,256.608795 508.798065,254.806290 
	C501.467377,250.679459 496.622498,252.334778 492.710632,259.933899 
z"/>
<path fill="#fff" opacity="1.000000" stroke="none" 
	d="
M469.311340,248.529816 
	C473.909210,258.847260 478.336243,268.805542 482.783051,278.808258 
	C476.109467,281.202057 474.516357,280.640533 472.265991,275.479858 
	C469.620605,269.413239 467.050140,263.313995 464.220581,256.699158 
	C461.635529,259.207794 461.135223,261.878296 460.171997,264.709656 
	C463.626312,266.087280 467.628418,266.638916 466.939026,271.553986 
	C466.074707,273.040527 464.448578,273.009186 463.018951,272.916534 
	C458.844330,272.646088 455.872986,273.578583 454.001007,278.018066 
	C452.559326,281.437073 448.942688,280.060699 446.209229,279.756653 
	C444.928040,277.765533 445.919434,276.280731 446.572815,274.801208 
	C450.271881,266.424835 453.973602,258.049377 457.729828,249.698532 
	C460.011169,244.626648 465.100800,243.973984 469.311340,248.529816 
z"/>
<path fill="#fff" opacity="1.000000" stroke="none" 
	d="
M603.232422,278.646210 
	C596.522888,281.324310 590.203003,280.926392 583.921448,278.525909 
	C581.376892,277.553589 580.116943,276.121338 581.437927,273.179749 
	C582.625549,270.535309 584.188171,270.272766 586.584839,271.449310 
	C589.657837,272.957886 592.977478,273.190399 596.342285,272.825104 
	C597.693237,272.678467 599.116760,272.430847 599.441895,270.824493 
	C599.832092,268.896240 598.340271,268.119568 596.927856,267.645660 
	C594.252869,266.748077 591.484070,266.133698 588.792175,265.281860 
	C584.080444,263.790833 580.773071,260.856171 580.931519,255.623322 
	C581.085327,250.543396 584.289124,247.528763 588.953613,245.908295 
	C594.268494,244.061905 599.437317,244.778259 604.553284,246.682693 
	C606.848816,247.537231 607.592529,248.979050 606.542480,251.361679 
	C605.622192,253.449768 604.574341,254.777496 602.017273,253.742203 
	C599.698059,252.803192 597.287476,252.163712 594.722778,252.360046 
	C592.788330,252.508133 590.864319,252.918304 590.493225,255.084518 
	C590.072266,257.541687 592.234802,258.009827 593.958862,258.529449 
	C596.344116,259.248383 598.796204,259.744171 601.187378,260.445465 
	C605.323120,261.658447 608.392578,264.063599 608.955444,268.588898 
	C609.511108,273.056305 607.375183,276.251373 603.232422,278.646210 
z"/>
<path fill="#fff" opacity="1.000000" stroke="none" 
	d="
M760.054504,252.997162 
	C756.396118,252.300797 751.811462,251.095276 751.032166,254.965485 
	C750.187195,259.161743 755.357422,258.291901 758.049500,259.350555 
	C759.746094,260.017792 761.586548,260.328522 763.263489,261.034363 
	C766.890686,262.561035 769.277283,265.000732 769.360718,269.297577 
	C769.449463,273.873047 767.351562,277.074646 763.353638,278.775330 
	C756.896301,281.522308 750.348267,280.893066 743.921814,278.396545 
	C741.547241,277.474121 740.516418,276.044891 741.700439,273.359955 
	C742.890137,270.662384 744.342529,269.810303 747.082397,271.364960 
	C749.603271,272.795319 752.457703,273.073486 755.322144,272.922577 
	C757.309631,272.817810 759.830688,272.898438 760.123779,270.395325 
	C760.394165,268.086365 757.935791,267.847137 756.244812,267.302856 
	C753.401062,266.387543 750.462402,265.722870 747.697632,264.617645 
	C744.064880,263.165405 741.657654,260.714722 741.632141,256.368835 
	C741.605713,251.868866 743.500488,248.726334 747.425720,246.706558 
	C753.602051,243.528412 762.135925,244.342331 767.662659,248.659164 
	C767.097900,253.107590 765.226074,255.433182 760.054504,252.997162 
z"/>
<path fill="#fff" opacity="1.000000" stroke="none" 
	d="
M677.002441,276.996704 
	C675.635071,277.486847 674.698364,277.178833 674.714111,275.232574 
	C671.726685,279.383789 671.257019,279.461304 667.714172,276.723999 
	C661.301147,271.769104 659.103333,263.214386 662.309448,255.686310 
	C665.422791,248.375763 673.382935,244.103897 681.808594,245.222031 
	C683.119568,250.054916 682.979065,254.873856 681.231384,259.209656 
	C682.999329,261.248169 685.378540,259.099579 686.816040,261.444244 
	C685.590210,265.355896 682.159790,268.272522 680.086060,272.709717 
	C678.865967,274.534821 677.934204,275.765778 677.002441,276.996704 
M673.490356,270.663544 
	C677.297119,272.114960 676.445435,269.472107 676.654114,267.685913 
	C674.882080,266.539581 672.944153,267.835297 671.453430,266.188080 
	C672.429810,261.140717 677.366333,258.051880 678.642883,253.005585 
	C672.060913,254.459274 671.584961,255.232910 669.575867,267.626099 
	C670.740723,268.504120 671.905579,269.382141 673.490356,270.663544 
z"/>
<path fill="#fff" opacity="1.000000" stroke="none" 
	d="
M718.926270,274.049286 
	C717.600769,275.202545 716.275269,276.355835 714.908447,277.545105 
	C714.032654,276.711853 715.087830,275.619934 715.134338,273.993958 
	C715.813843,271.197205 717.473267,269.258087 716.922119,266.942505 
	C715.208374,265.531891 713.111816,267.723175 711.380005,265.707672 
	C712.689758,261.159058 717.138184,257.975983 718.331177,252.816238 
	C713.848511,253.188980 711.325317,255.690338 710.719299,259.287811 
	C710.148926,262.673096 708.140076,266.732056 712.686401,269.435974 
	C714.212952,270.343872 715.496826,271.867798 715.030090,274.032623 
	C714.122070,275.378510 713.214050,276.724396 712.370422,277.974915 
	C702.931458,276.907043 696.779053,261.230408 704.952576,251.208038 
	C707.666931,247.879639 711.214539,245.822968 715.386292,244.917053 
	C719.422913,244.040482 722.976013,244.250641 723.897339,249.717133 
	C723.996643,249.994171 724.014465,249.952744 723.848206,250.280457 
	C723.433716,253.511398 721.400940,256.045044 721.698914,258.865936 
	C723.246094,260.577606 725.575317,259.034943 727.136780,261.106628 
	C724.876526,264.868530 722.532227,268.770264 719.989624,272.911926 
	C719.503052,273.451050 719.214722,273.750183 718.926270,274.049286 
z"/>
<path fill="#fff" opacity="1.000000" stroke="none" 
	d="
M789.315979,275.779175 
	C789.520630,280.313751 786.750000,280.184479 783.955322,280.104156 
	C780.940125,280.017487 780.611450,278.054962 780.634583,275.669586 
	C780.686157,270.356995 780.381714,265.025513 780.734192,259.735840 
	C781.055298,254.916824 779.733032,252.463104 774.456848,253.121613 
	C772.004456,253.427689 769.736084,252.920944 769.693176,249.581711 
	C769.663025,247.232285 770.369385,245.721802 773.023193,245.727783 
	C780.992188,245.745773 788.961121,245.728363 796.930115,245.729904 
	C799.234131,245.730362 800.133850,246.991455 800.184021,249.191635 
	C800.238159,251.564163 799.416931,253.048950 796.834167,253.102417 
	C795.672302,253.126465 794.506653,253.248444 793.350098,253.187057 
	C790.350586,253.027924 789.234863,254.415604 789.297791,257.375305 
	C789.424805,263.349731 789.327209,269.328918 789.315979,275.779175 
z"/>
<path fill="#fff" opacity="1.000000" stroke="none" 
	d="
M521.893433,254.088348 
	C522.515564,250.474670 519.996094,245.710754 526.369446,245.640366 
	C529.781067,245.602676 531.228882,246.861450 531.164246,250.284546 
	C531.054443,256.105835 531.280273,261.935516 531.086670,267.752411 
	C530.966736,271.355560 532.157959,273.032349 535.941223,272.709290 
	C538.418152,272.497742 540.929321,272.708801 543.424744,272.686371 
	C545.678162,272.666107 547.277161,273.184540 547.330139,275.957916 
	C547.380554,278.596466 546.512573,280.111908 543.698853,280.111053 
	C537.709656,280.109253 531.720337,280.104797 525.731262,280.134552 
	C522.558777,280.150330 521.872498,278.181488 521.880432,275.538086 
	C521.901245,268.550110 521.890259,261.562042 521.893433,254.088348 
z"/>
<path fill="#fff" opacity="1.000000" stroke="none" 
	d="
M676.922241,277.343506 
	C677.934204,275.765778 678.865967,274.534821 679.981018,273.017578 
	C684.476990,272.531952 687.281494,270.249329 688.712952,266.298889 
	C690.180542,262.248413 689.816406,258.487427 686.442688,255.402252 
	C684.956726,254.043411 683.623352,252.828232 684.327271,250.334274 
	C685.349426,246.712662 686.951782,245.649734 690.353149,247.757797 
	C697.047241,251.906662 700.246399,261.087311 697.538757,268.783966 
	C694.859375,276.400085 686.911743,281.381226 679.175781,280.403442 
	C677.418274,280.181305 676.223572,279.802246 676.922241,277.343506 
z"/>
<path fill="#fff" opacity="1.000000" stroke="none" 
	d="
M718.822693,274.364868 
	C719.214722,273.750183 719.503052,273.451050 720.321533,272.868866 
	C730.684387,268.856567 732.465881,261.781525 725.427307,254.001709 
	C724.296814,252.752213 723.908020,251.504166 724.014465,249.952744 
	C724.014465,249.952744 723.996643,249.994171 723.987671,250.015182 
	C724.866577,248.681061 725.754517,247.325943 726.603394,246.030396 
	C735.585327,248.572342 740.453613,257.460358 738.139404,266.776550 
	C735.849670,275.993713 726.686584,281.602570 717.150146,279.590759 
	C716.166931,277.483337 718.300293,276.348206 718.822693,274.364868 
z"/>
<path fill="#fff" opacity="1.000000" stroke="none" 
	d="
M446.298340,306.360504 
	C446.291809,312.474152 446.309418,318.134705 446.247925,323.794342 
	C446.231598,325.297577 446.119476,327.011993 443.998993,326.981140 
	C441.913666,326.950806 441.803131,325.256104 441.776276,323.745453 
	C441.717285,320.425293 441.757996,317.103333 441.757996,312.824677 
	C438.637421,315.821045 437.344666,319.008331 435.556641,321.811890 
	C433.598206,324.882507 431.878937,324.765808 430.082062,321.705658 
	C428.489014,318.992615 426.824005,316.321838 424.041382,313.700104 
	C424.041382,316.369263 424.168457,319.046478 423.999390,321.704865 
	C423.874115,323.674530 424.936920,326.815735 421.850555,326.951416 
	C418.397034,327.103241 419.739929,323.847504 419.649841,321.969666 
	C419.410706,316.985962 419.384186,311.990387 419.356293,306.999084 
	C419.346558,305.254730 418.788574,303.026520 421.229370,302.435760 
	C423.246033,301.947693 424.079163,303.744720 424.976837,305.130859 
	C427.563751,309.125488 429.483978,313.564545 433.159851,317.728455 
	C435.939636,313.100403 438.464966,308.876099 441.013123,304.665619 
	C441.789886,303.382141 442.546967,301.934875 444.423920,302.324097 
	C446.428497,302.739746 446.191376,304.437408 446.298340,306.360504 
z"/>
<path fill="#fff" opacity="1.000000" stroke="none" 
	d="
M586.842957,319.798767 
	C587.650513,322.309662 589.963074,323.668182 590.238098,326.459747 
	C588.294800,327.830841 586.712280,327.427979 585.309326,325.542999 
	C584.316711,324.209259 583.455811,322.736115 582.278992,321.588959 
	C579.434570,318.816223 575.942383,319.893829 575.107666,323.775970 
	C574.743958,325.467773 574.622009,327.270142 572.306641,327.099854 
	C570.009949,326.930908 569.960938,325.040131 569.945435,323.376831 
	C569.892944,317.721100 569.961609,312.064240 569.909119,306.408478 
	C569.879883,303.259186 571.355225,301.799042 574.475830,301.951202 
	C577.292114,302.088562 580.176514,301.884766 582.911743,302.429565 
	C590.879456,304.016602 593.249329,311.102203 588.129822,317.486298 
	C587.625427,318.115356 587.216003,318.820679 586.842957,319.798767 
M575.661011,307.337830 
	C575.439209,310.260284 573.244019,313.902832 577.392761,315.495728 
	C579.766541,316.407166 582.742188,316.240356 584.824707,313.961243 
	C586.083252,312.583832 586.148987,310.837189 585.496643,309.256866 
	C584.335693,306.444641 581.722046,306.301514 579.167114,306.334625 
	C578.189148,306.347290 577.214478,306.622345 575.661011,307.337830 
z"/>
<path fill="#fff" opacity="1.000000" stroke="none" 
	d="
M730.946167,304.107300 
	C728.631165,307.856628 725.202271,305.843079 722.289368,306.278198 
	C720.088806,306.606964 717.361023,305.726532 717.333435,309.456879 
	C717.305176,313.282227 720.182068,312.150940 722.281067,312.624573 
	C724.613708,313.150970 728.850525,310.800110 728.933960,314.403107 
	C729.020325,318.134796 724.714172,315.787018 722.434692,316.433197 
	C720.424988,317.002899 717.428650,315.688141 717.327087,319.505157 
	C717.221008,323.492645 720.074890,322.888916 722.512451,322.982391 
	C724.669067,323.065094 726.836609,323.037140 728.978760,323.257690 
	C730.212646,323.384766 731.175354,324.173859 731.021790,325.606964 
	C730.891541,326.822937 729.893005,327.229797 728.858521,327.239136 
	C724.371948,327.279510 719.883789,327.294952 715.398010,327.218536 
	C713.192810,327.181030 712.750366,325.577972 712.747742,323.754333 
	C712.739136,317.768555 712.725342,311.782776 712.744141,305.797058 
	C712.748352,304.463745 712.767456,302.567078 714.266541,302.479156 
	C719.848206,302.151733 725.614807,300.088989 730.946167,304.107300 
z"/>
<path fill="#fff" opacity="1.000000" stroke="none" 
	d="
M641.777039,304.511963 
	C644.061523,300.802155 645.595581,301.820404 646.097534,305.034760 
	C646.490906,307.553833 646.176453,310.183472 646.176453,313.303925 
	C652.500549,310.316376 654.338196,302.579193 662.138733,302.092834 
	C660.869568,307.610199 655.833557,309.504852 653.761292,313.806305 
	C656.105652,318.340820 660.889160,321.386566 663.085083,326.953003 
	C655.595398,327.821899 654.929749,320.081909 649.823914,317.853485 
	C647.280884,318.609955 646.214417,320.703644 646.194824,323.665985 
	C646.185120,325.136627 646.159424,326.947296 644.083374,327.010010 
	C641.624878,327.084290 641.735168,325.048431 641.721924,323.428680 
	C641.671570,317.270050 641.716431,311.110626 641.777039,304.511963 
z"/>
<path fill="#fff" opacity="1.000000" stroke="none" 
	d="
M515.137390,312.945374 
	C516.899719,317.726837 519.734131,321.705170 520.786621,326.915161 
	C514.892578,327.998077 514.472595,320.475555 508.316956,320.724548 
	C502.389862,320.964355 501.036987,326.740723 496.538544,327.299225 
	C495.029907,325.308685 496.014191,324.003143 496.612885,322.685028 
	C499.285095,316.801971 501.990143,310.933838 504.654846,305.047424 
	C505.375793,303.454895 506.224792,302.074860 508.247162,302.177887 
	C510.008209,302.267548 510.756836,303.534302 511.401306,304.950348 
	C512.567627,307.513184 513.784973,310.052795 515.137390,312.945374 
M506.932861,317.631317 
	C508.484833,317.485321 510.262390,318.142639 511.498901,316.234863 
	C510.748383,313.739624 509.923950,311.190552 507.693237,309.007080 
	C507.994141,312.097565 502.257629,313.828888 506.932861,317.631317 
z"/>
<path fill="#fff" opacity="1.000000" stroke="none" 
	d="
M565.970398,280.178894 
	C561.813477,280.159485 558.150024,280.148834 554.486755,280.117401 
	C552.124512,280.097107 550.781433,279.108307 550.737976,276.526062 
	C550.690613,273.718903 552.026367,272.670898 554.692810,272.690521 
	C561.186829,272.738342 567.681702,272.722687 574.175842,272.681122 
	C576.604431,272.665619 577.949341,273.663055 577.956482,276.196228 
	C577.963257,278.561615 576.970764,280.031860 574.455200,280.088226 
	C571.792114,280.147919 569.127808,280.151001 565.970398,280.178894 
z"/>
<path fill="#fff" opacity="1.000000" stroke="none" 
	d="
M786.851685,312.220642 
	C787.145935,308.317963 786.504272,305.779358 782.123352,306.235168 
	C780.656006,306.387817 778.885254,306.169525 779.072693,303.978943 
	C779.219299,302.265564 780.723511,302.026123 782.059448,302.004303 
	C786.875854,301.925751 791.693909,301.914978 796.511047,301.932770 
	C798.144165,301.938812 799.635132,302.478546 799.513672,304.434448 
	C799.403687,306.205261 797.828186,306.371948 796.501282,306.254700 
	C792.436157,305.895538 791.853638,308.263763 791.963928,311.534485 
	C792.092590,315.351044 792.038147,319.177460 791.939514,322.996399 
	C791.893799,324.767303 792.057129,327.029297 789.460510,327.106537 
	C786.805481,327.185455 786.920593,324.960297 786.885376,323.152435 
	C786.817383,319.664734 786.857300,316.174896 786.851685,312.220642 
z"/>
<path fill="#fff" opacity="1.000000" stroke="none" 
	d="
M421.190491,280.149841 
	C417.789429,280.208740 415.418793,279.807587 415.643066,275.896637 
	C415.849457,272.298004 418.359161,272.730530 420.622253,272.711945 
	C426.422699,272.664307 432.223877,272.706726 438.024689,272.691711 
	C440.375885,272.685608 442.248199,272.982910 442.317047,276.095612 
	C442.386169,279.222321 440.863434,280.175110 438.075073,280.155121 
	C432.606018,280.115906 427.136444,280.150085 421.190491,280.149841 
z"/>
<path fill="#fff" opacity="1.000000" stroke="none" 
	d="
M569.885681,245.675781 
	C571.534363,245.693420 572.699158,245.718307 573.864014,245.728119 
	C576.179871,245.747635 577.094788,247.003067 577.092896,249.215698 
	C577.091064,251.391449 576.179565,252.832779 573.937012,252.868790 
	C567.282410,252.975616 560.625366,253.006577 553.970093,252.959839 
	C551.725891,252.944077 550.824585,251.528702 550.813293,249.333359 
	C550.800476,246.833969 551.903992,245.680984 554.421814,245.699814 
	C559.414795,245.737152 564.408447,245.689011 569.885681,245.675781 
z"/>
<path fill="#fff" opacity="1.000000" stroke="none" 
	d="
M436.737854,253.015259 
	C430.810455,253.026474 425.353485,253.016022 419.896606,253.026932 
	C417.176483,253.032364 415.540894,252.132584 415.620880,248.984497 
	C415.701202,245.820435 417.695282,245.695572 419.978638,245.696823 
	C425.601013,245.699890 431.223419,245.679367 436.845764,245.693268 
	C439.070068,245.698761 441.168091,245.732254 441.343842,248.891708 
	C441.517273,252.009293 439.994476,253.049561 436.737854,253.015259 
z"/>
<path fill="#fff" opacity="1.000000" stroke="none" 
	d="
M567.883911,266.207764 
	C563.404541,266.205231 559.409546,266.178680 555.414978,266.208405 
	C552.805603,266.227844 550.790039,265.711121 550.807678,262.439545 
	C550.826172,259.013550 553.147766,258.895599 555.592834,258.885834 
	C560.253357,258.867249 564.914246,258.853210 569.574585,258.887573 
	C572.246521,258.907257 575.186829,258.579285 575.154358,262.680939 
	C575.124023,266.516998 572.356750,266.127472 569.866394,266.202881 
	C569.367493,266.217987 568.867737,266.206726 567.883911,266.207764 
z"/>
<path fill="#fff" opacity="1.000000" stroke="none" 
	d="
M431.879333,266.198486 
	C427.423859,266.185181 423.450958,266.169647 419.478088,266.159515 
	C417.189056,266.153687 415.721222,265.400177 415.633423,262.745056 
	C415.538574,259.876984 416.984467,258.908661 419.555450,258.908783 
	C424.687164,258.909088 429.819061,258.914642 434.950562,258.875153 
	C437.492554,258.855560 439.506683,259.098358 439.445648,262.541382 
	C439.385651,265.927856 437.363129,266.218262 434.845001,266.187714 
	C434.017487,266.177673 433.189606,266.194183 431.879333,266.198486 
z"/>
</svg>