<svg version="1.1" id="Layer_1" xmlns="http://www.w3.org/2000/svg" xmlns:xlink="http://www.w3.org/1999/xlink" x="0px" y="0px"
	 width="100%" viewBox="0 0 1024 576" enable-background="new 0 0 1024 576" xml:space="preserve">
<path fill="#fff" opacity="1.000000" stroke="none" 
	d="
M383.717407,403.293335 
	C388.579010,408.939362 394.582947,413.273773 396.635925,420.611267 
	C397.284515,422.929230 399.292480,422.701141 401.199463,422.377075 
	C433.898743,416.819519 459.732819,400.391541 477.127258,372.183411 
	C517.675232,306.427887 480.570312,222.066116 404.550629,207.817505 
	C370.226013,201.383926 339.228058,210.292007 312.666534,233.411285 
	C312.975677,236.490234 315.377228,237.763824 317.021881,239.503601 
	C322.514740,245.314209 328.255432,250.895264 333.633087,256.808105 
	C336.303741,259.744476 338.893768,260.086548 342.489075,258.781799 
	C356.094696,253.844360 369.643555,248.652496 384.017395,246.265167 
	C396.419373,244.205338 408.864960,243.412521 421.196564,246.537003 
	C431.955505,249.263016 434.629150,252.512650 435.726196,263.598785 
	C435.956879,265.930206 437.572693,266.132385 439.039673,266.679230 
	C444.580597,268.744659 449.646667,271.533112 453.594269,276.041199 
	C458.814972,282.003113 459.961029,290.386475 456.146118,296.698792 
	C449.211639,292.730072 441.529755,291.990112 433.637665,292.121735 
	C412.432861,292.475342 398.252563,309.697906 401.700806,331.283234 
	C402.500397,336.288635 401.859497,340.894135 399.647278,345.334839 
	C397.322052,350.002411 396.325775,350.176544 392.354523,346.584808 
	C378.386871,333.952057 364.947540,320.777985 351.843201,307.250305 
	C328.425415,283.076019 304.910004,258.996338 281.433289,234.879166 
	C274.692932,227.954926 267.764130,221.201889 261.279572,214.046066 
	C258.171722,210.616501 255.763275,209.664719 252.644333,213.653671 
	C252.178238,214.249771 251.278412,214.506699 249.750595,215.411026 
	C244.437546,200.118469 239.249832,185.186630 234.062103,170.254791 
	C234.392883,169.876144 234.723663,169.497498 235.054443,169.118851 
	C249.744736,174.815323 264.435028,180.511780 279.560608,186.377029 
	C278.651215,187.762680 278.294739,188.490585 277.773773,189.070847 
	C272.957520,194.435623 272.996338,194.381989 277.872040,199.348389 
	C283.357178,204.935593 288.896576,210.482422 294.117645,216.310837 
	C297.019073,219.549774 298.979919,219.908157 302.592194,216.866135 
	C329.353638,194.329422 360.482605,184.357620 395.227112,186.964325 
	C451.724640,191.203033 498.670959,232.847580 510.331299,288.236328 
	C525.254822,359.125824 478.459259,428.355896 407.059082,441.018860 
	C336.582275,453.518066 269.647888,405.351532 258.544434,334.218353 
	C257.333801,326.462494 256.449951,318.699707 256.879028,310.865875 
	C257.093689,306.946686 256.042419,303.993286 253.298447,301.033417 
	C246.940903,294.175720 246.199677,284.502777 250.826248,276.476715 
	C253.753616,271.398346 254.711456,271.217346 258.787994,275.388824 
	C280.447083,297.552612 302.064209,319.757446 323.715637,341.928711 
	C343.621002,362.311981 363.551422,382.670746 383.717407,403.293335 
M331.202698,409.275574 
	C343.412567,416.338013 356.466705,420.830353 371.553741,422.680664 
	C339.675934,389.930450 308.528748,357.930817 277.381531,325.931213 
	C281.533173,362.478088 299.381958,390.015228 331.202698,409.275574 
M417.879974,275.395203 
	C420.777588,274.464478 423.603943,273.417297 426.186554,270.563568 
	C417.719025,270.181244 410.089233,268.827118 402.295380,267.916748 
	C406.489624,271.969543 410.856201,275.572815 417.879974,275.395203 
z"/>
<path fill="#fff" opacity="1.000000" stroke="none" 
	d="
M292.853180,262.147827 
	C325.848541,296.046753 358.602112,329.687683 391.335999,363.347778 
	C399.266937,371.503113 400.599640,382.270599 395.014465,391.166534 
	C392.993286,394.385834 391.287079,395.290466 388.176544,392.085022 
	C355.245361,358.149414 322.195618,324.328857 289.211334,290.444672 
	C277.713501,278.633179 266.207642,266.826630 254.890350,254.843185 
	C246.338699,245.788162 246.742722,232.404739 254.739288,225.739273 
	C267.400848,237.829941 280.002472,249.863403 292.853180,262.147827 
z"/>
<path fill="#fff" opacity="1.000000" stroke="none" 
	d="
M549.675537,346.999939 
	C549.674744,289.544922 549.657166,232.589890 549.738037,175.635010 
	C549.741150,173.407425 548.407288,169.423737 551.557190,169.350800 
	C555.152832,169.267563 554.029541,173.374374 554.031250,175.769012 
	C554.096741,269.694733 554.089111,363.620483 554.090820,457.546234 
	C554.090820,458.045837 554.126404,458.549744 554.074646,459.044250 
	C553.877686,460.926910 554.455261,463.772644 551.748413,463.710144 
	C548.927673,463.645020 549.717529,460.732086 549.715088,458.911957 
	C549.665649,421.774689 549.676880,384.637299 549.675537,346.999939 
z"/>
<path fill="#fff" opacity="1.000000" stroke="none" 
	d="
M739.167969,358.747620 
	C739.039185,361.294586 738.917542,363.495483 735.975159,363.129486 
	C733.353821,362.803345 733.765320,360.561035 733.754822,358.825867 
	C733.699280,349.669342 733.716187,340.512268 733.735474,331.355469 
	C733.739685,329.356384 733.563293,327.183899 736.409241,326.835358 
	C738.873169,326.533630 740.534668,327.384247 741.402649,329.873138 
	C743.800293,336.748260 746.309692,343.584412 749.231201,351.704193 
	C751.982727,344.042603 754.348755,337.585815 756.609924,331.092499 
	C757.485718,328.577332 758.430847,326.346100 761.729492,326.844879 
	C765.303650,327.385254 764.303345,330.235535 764.330566,332.348816 
	C764.437561,340.671906 764.472229,348.998810 764.320129,357.320374 
	C764.282837,359.362579 765.535400,362.791443 762.099365,362.927002 
	C758.434875,363.071564 759.739685,359.556488 759.683167,357.547150 
	C759.500916,351.070404 759.615234,344.585327 759.615234,336.821747 
	C757.039856,343.958252 754.914673,349.949158 752.705017,355.908783 
	C752.039246,357.704407 751.766479,360.071533 749.078247,360.009155 
	C746.701843,359.954010 746.362183,357.807770 745.750000,356.163605 
	C743.491699,350.098297 741.335999,343.994751 739.176208,338.001251 
	C739.176208,344.696686 739.176208,351.487061 739.167969,358.747620 
z"/>
<path fill="#fff" opacity="1.000000" stroke="none" 
	d="
M785.781128,297.229004 
	C769.246704,300.327789 768.659546,299.847748 768.659790,283.627838 
	C768.659912,277.652832 768.813416,271.672821 768.611145,265.704773 
	C768.491760,262.183563 769.996033,260.874573 773.297241,261.029358 
	C775.945679,261.153564 778.622986,261.002197 781.243286,261.328186 
	C792.378967,262.713654 795.173889,268.530701 789.350464,277.981201 
	C797.644043,284.501740 794.995056,294.936401 785.781128,297.229004 
M781.187744,281.158417 
	C778.184082,281.378998 773.827759,279.667480 774.310608,285.274139 
	C774.551392,288.070404 772.115051,292.352478 777.685303,292.974335 
	C783.940369,293.672668 788.041199,291.888794 788.580322,287.900757 
	C789.239624,283.023804 786.120300,281.584839 781.187744,281.158417 
M780.228455,266.118622 
	C776.814209,265.839081 773.586365,265.934753 774.247742,270.752106 
	C774.537476,272.862335 772.699219,276.030029 776.878174,276.522308 
	C781.567078,277.074677 786.290405,274.870148 786.576599,271.646637 
	C786.922852,267.747101 784.472107,266.425049 780.228455,266.118622 
z"/>
<path fill="#fff" opacity="1.000000" stroke="none" 
	d="
M845.860352,297.792480 
	C834.134766,294.310394 831.035889,273.871399 839.952942,264.871490 
	C846.837036,257.923279 859.321350,259.611542 863.798462,268.286560 
	C867.358826,275.185333 867.415039,282.382568 864.368103,289.449646 
	C861.241699,296.701080 855.580322,299.214111 845.860352,297.792480 
M860.659790,279.496094 
	C860.307251,270.963135 856.637573,265.763214 850.788147,265.508057 
	C845.239075,265.265991 840.893921,270.999390 840.455811,279.141968 
	C840.446899,279.308075 840.435730,279.474213 840.434143,279.640442 
	C840.365051,286.855652 844.649963,293.058105 850.052124,293.563995 
	C855.417847,294.066437 859.576721,289.264160 860.631958,281.337006 
	C860.675598,281.009216 860.649658,280.672180 860.659790,279.496094 
z"/>
<path fill="#fff" opacity="1.000000" stroke="none" 
	d="
M798.691772,281.760803 
	C798.525757,277.282410 798.811523,273.348785 800.546448,269.599609 
	C803.275269,263.702667 807.793640,260.692383 814.309448,260.684204 
	C820.823364,260.676025 825.485657,263.659454 828.130249,269.544769 
	C830.922180,275.757874 831.010742,282.141479 828.462952,288.468628 
	C825.698975,295.332764 820.552368,298.636047 813.323303,298.376068 
	C807.025513,298.149536 802.065796,294.223816 799.860474,287.557190 
	C799.291321,285.836426 799.079224,283.997498 798.691772,281.760803 
M823.426880,285.748199 
	C825.023193,281.163177 824.641479,276.618286 823.049988,272.135529 
	C821.631226,268.139404 818.650757,265.706909 814.521851,265.589752 
	C810.367859,265.471893 807.333557,267.794556 805.754395,271.749298 
	C804.040833,276.040710 803.794861,280.401550 805.009766,284.887268 
	C806.228943,289.389130 808.532593,293.002411 813.473999,293.483307 
	C818.481140,293.970612 821.393250,290.845764 823.426880,285.748199 
z"/>
<path fill="#fff" opacity="1.000000" stroke="none" 
	d="
M691.995239,360.163239 
	C686.418274,364.321136 680.322449,363.322968 674.395752,363.268677 
	C672.222534,363.248749 671.663025,361.766907 671.634094,359.913177 
	C671.484009,350.293365 671.335388,340.673492 671.182800,331.053741 
	C671.133606,327.951660 672.559326,326.437592 675.744751,326.710022 
	C676.733459,326.794556 677.735168,326.734467 678.730835,326.728210 
	C686.283264,326.680573 693.307373,328.167755 696.397827,336.017792 
	C699.780090,344.609192 699.295532,352.935272 691.995239,360.163239 
M677.120728,349.430145 
	C677.124512,350.761749 677.112915,352.093597 677.134827,353.424896 
	C677.218811,358.521210 678.532715,359.562927 683.497681,358.487457 
	C689.525757,357.181641 693.245667,351.157654 692.600403,343.746552 
	C691.951050,336.288666 687.798706,331.826508 681.263489,331.428497 
	C678.642090,331.268890 677.110229,332.047729 677.148193,334.971863 
	C677.206604,339.464752 677.138855,343.959259 677.120728,349.430145 
z"/>
<path fill="#fff" opacity="1.000000" stroke="none" 
	d="
M658.366089,283.584747 
	C656.676819,283.229004 655.325684,283.158234 654.070557,282.773895 
	C652.976257,282.438751 652.777161,281.368561 652.860779,280.307587 
	C652.934143,279.375427 653.511230,278.900513 654.326721,278.504547 
	C660.026001,275.737244 665.364380,278.867340 665.254517,285.072449 
	C665.170166,289.838257 666.830322,295.241333 659.987915,297.442902 
	C653.240112,299.613922 646.026062,298.249298 641.642822,293.256927 
	C632.743774,283.120972 637.068848,264.734924 649.207397,261.298767 
	C653.523315,260.077026 657.797058,260.274475 661.717468,262.717438 
	C663.100281,263.579102 664.783936,264.571716 663.680725,266.645935 
	C662.584106,268.707855 660.911743,268.138885 659.447083,267.120178 
	C653.630493,263.074738 646.010071,267.128723 643.988525,272.890076 
	C641.044983,281.279053 643.739441,290.233856 650.263733,292.789886 
	C653.263184,293.964966 656.514587,294.337341 658.693970,291.980438 
	C660.811279,289.690582 660.563354,286.504791 658.366089,283.584747 
z"/>
<path fill="#fff" opacity="1.000000" stroke="none" 
	d="
M602.384094,264.743347 
	C598.803040,267.253906 595.033630,266.153381 591.487305,266.090729 
	C586.430359,266.001343 587.115173,269.355652 586.794128,272.466705 
	C586.408936,276.199005 588.870605,275.949738 591.269287,275.972137 
	C593.267334,275.990784 595.271240,275.977356 597.260864,276.130127 
	C598.868164,276.253571 600.214172,276.860321 600.098816,278.863800 
	C599.999878,280.581787 598.811401,281.056885 597.372437,281.157410 
	C596.210510,281.238586 595.042358,281.239594 593.876648,281.253479 
	C586.968506,281.335907 586.546570,281.897034 586.927673,288.661285 
	C587.090881,291.558929 588.140015,292.948334 591.139771,292.851013 
	C594.134644,292.753815 597.137146,292.840363 600.134888,292.908203 
	C601.799988,292.945892 603.122681,293.575653 603.116150,295.505432 
	C603.109558,297.469879 601.690308,298.030182 600.076355,298.046722 
	C594.912964,298.099701 589.748474,298.086151 584.584717,298.053436 
	C582.388855,298.039520 581.093384,296.836975 581.084778,294.664520 
	C581.044617,284.504089 581.059937,274.343170 581.126221,264.182861 
	C581.139160,262.202789 582.411255,261.124878 584.353943,261.107727 
	C589.516296,261.062042 594.680969,261.035645 599.841492,261.149597 
	C601.735901,261.191437 603.023376,262.150085 602.384094,264.743347 
z"/>
<path fill="#fff" opacity="1.000000" stroke="none" 
	d="
M704.241882,261.003937 
	C709.035950,261.030029 713.360718,261.002655 717.680847,261.129303 
	C719.399658,261.179657 721.163879,261.628876 720.969849,263.934631 
	C720.802734,265.920349 719.157837,266.095642 717.630249,266.138123 
	C715.137512,266.207458 712.629578,266.338745 710.150757,266.148529 
	C706.528687,265.870544 705.120178,267.216034 705.152405,270.974884 
	C705.182983,274.557770 706.240295,276.273773 710.009460,275.999664 
	C711.984253,275.856018 713.996826,276.044189 715.977539,276.235901 
	C717.218445,276.356049 718.149414,277.036591 718.207458,278.467316 
	C718.274048,280.106873 717.388489,280.952637 715.855225,281.088593 
	C714.368042,281.220490 712.842163,281.398529 711.377197,281.211823 
	C706.637573,280.607666 704.997681,282.416748 705.078125,287.303192 
	C705.151428,291.756042 706.604797,293.306885 710.907593,292.893494 
	C713.541321,292.640442 716.224243,292.855621 718.883362,292.925659 
	C720.406433,292.965759 721.403809,293.696075 721.449890,295.350189 
	C721.495239,296.980011 720.591370,297.925598 719.062988,297.945038 
	C713.580261,298.014801 708.095032,298.025635 702.612915,297.932434 
	C700.240417,297.892120 699.673340,296.191162 699.675903,294.134979 
	C699.688049,284.323334 699.723022,274.511383 699.653198,264.700226 
	C699.632202,261.746185 701.304749,261.018707 704.241882,261.003937 
z"/>
<path fill="#fff" opacity="1.000000" stroke="none" 
	d="
M595.149414,328.789429 
	C599.012329,340.127869 602.723389,351.095123 606.453064,362.117310 
	C602.450928,364.467133 600.896912,362.732727 599.773071,359.581573 
	C597.479126,353.149780 594.013611,351.443512 587.387146,353.119354 
	C584.003479,353.975098 584.156982,357.042206 583.333008,359.397583 
	C582.233643,362.540558 580.824707,364.456757 576.711426,362.240845 
	C578.895935,355.682587 581.067993,349.100525 583.283447,342.533142 
	C584.663147,338.443176 586.027710,334.344940 587.546448,330.305847 
	C589.130005,326.094299 590.868835,325.705627 595.149414,328.789429 
M592.306091,347.852325 
	C594.047607,347.755798 595.925842,347.691406 595.171692,345.111542 
	C594.152344,341.624664 592.989807,338.179596 591.500916,333.497345 
	C590.145752,337.742950 589.330139,340.612915 588.310913,343.408569 
	C587.139404,346.621765 587.974976,348.184875 592.306091,347.852325 
z"/>
<path fill="#fff" opacity="1.000000" stroke="none" 
	d="
M615.060120,287.676208 
	C612.693176,290.044647 612.595703,293.044159 611.435303,295.596680 
	C610.511536,297.628754 608.991028,298.432343 607.028015,297.637939 
	C605.056824,296.840179 605.931946,295.145172 606.396240,293.766205 
	C609.685730,283.995270 613.008728,274.235596 616.308533,264.468140 
	C616.940857,262.596649 617.928528,261.216095 620.137695,261.139191 
	C622.243469,261.065887 623.611633,261.941559 624.291504,263.964203 
	C627.939148,274.815979 631.606812,285.661011 635.334106,296.705475 
	C632.490173,298.559845 630.556763,298.430756 629.149597,295.402588 
	C627.974915,292.874817 628.357422,289.214661 625.732788,287.894592 
	C622.611572,286.324799 618.891052,287.247253 615.060120,287.676208 
M622.798340,282.479980 
	C624.191162,282.047668 624.519897,281.097351 624.110596,279.786560 
	C622.967346,276.125214 621.824524,272.463745 620.350403,267.741730 
	C618.682129,273.196533 616.817749,277.336975 616.237732,282.569214 
	C618.557129,282.569214 620.332458,282.569214 622.798340,282.479980 
z"/>
<path fill="#fff" opacity="1.000000" stroke="none" 
	d="
M652.013672,326.779755 
	C654.200623,326.733978 655.176453,327.750610 655.702698,329.304993 
	C659.273376,339.852966 662.840149,350.402252 666.375793,360.961975 
	C666.522156,361.399048 666.346252,361.944061 666.312134,362.600464 
	C662.866699,364.352234 661.300171,362.845428 660.192932,359.524567 
	C658.115967,353.295258 653.428284,351.091614 647.355652,353.170654 
	C644.392761,354.185028 644.574524,357.076172 643.814758,359.318237 
	C642.850220,362.164459 641.692627,364.285706 638.150940,362.867737 
	C637.062927,361.408325 637.764771,359.999603 638.240234,358.607544 
	C641.412659,349.320190 644.588562,340.033936 647.787964,330.755798 
	C648.439148,328.867371 649.010071,326.836945 652.013672,326.779755 
M650.243286,347.830444 
	C656.216248,347.702362 656.342407,347.548096 654.677246,342.001068 
	C653.903564,339.423798 653.076294,336.862640 651.953735,333.272003 
	C650.538208,337.645111 649.392517,340.879822 648.474304,344.177887 
	C648.126343,345.427429 647.160583,347.174652 650.243286,347.830444 
z"/>
<path fill="#fff" opacity="1.000000" stroke="none" 
	d="
M723.692444,358.715332 
	C725.848450,358.846405 727.165771,359.462219 726.923645,361.431213 
	C726.710876,363.160553 725.239258,363.324127 723.882080,363.333221 
	C718.717896,363.367798 713.553162,363.323456 708.388916,363.355225 
	C705.805847,363.371124 704.860352,361.991669 704.864624,359.593170 
	C704.881897,349.930176 704.888489,340.267059 704.861206,330.604126 
	C704.853577,327.894806 706.095154,326.667694 708.816772,326.709595 
	C713.480774,326.781403 718.146729,326.713257 722.811035,326.771759 
	C724.295227,326.790344 725.967102,326.769348 726.147278,328.889893 
	C726.348816,331.261078 724.606689,331.675140 722.904175,331.715881 
	C720.081665,331.783356 717.249573,331.658142 714.427856,331.499908 
	C710.059998,331.255005 710.395203,334.199615 710.310791,337.140442 
	C710.224731,340.138123 710.934387,341.999390 714.429993,341.750336 
	C716.583069,341.596924 718.759399,341.737122 720.924194,341.792175 
	C722.576782,341.834198 723.952942,342.368927 723.960144,344.319824 
	C723.966492,346.028931 722.652893,346.526367 721.267639,346.688049 
	C719.783569,346.861176 718.280090,346.894379 716.783752,346.932007 
	C710.912048,347.079651 708.280701,351.287659 710.521973,356.869415 
	C711.248169,358.677979 712.721497,358.661835 714.232849,358.672394 
	C717.231750,358.693298 720.230774,358.689819 723.692444,358.715332 
z"/>
<path fill="#fff" opacity="1.000000" stroke="none" 
	d="
M886.692627,283.267181 
	C883.370422,281.665283 880.319092,280.332764 877.415955,278.731537 
	C873.664124,276.662231 872.196716,273.330353 872.696472,269.096588 
	C873.188965,264.923615 875.868835,262.601410 879.553772,261.372894 
	C883.865173,259.935577 888.085999,260.456451 892.032410,262.744781 
	C893.488647,263.589142 895.098145,264.535767 893.993042,266.617279 
	C892.956665,268.569244 891.440918,268.197540 889.758667,267.329041 
	C887.244019,266.030823 884.685547,264.796417 881.705200,266.080780 
	C880.087830,266.777771 878.749329,267.659943 878.428406,269.496490 
	C878.070984,271.542725 878.950378,273.192200 880.685181,274.104095 
	C883.620178,275.646820 886.706787,276.897888 889.692017,278.349091 
	C894.724854,280.795685 896.950500,284.645203 896.209839,289.468109 
	C895.491882,294.143829 891.421753,297.700562 886.106567,298.296082 
	C881.293701,298.835327 876.829407,297.943695 872.914917,294.969757 
	C871.661011,294.017090 870.645996,292.841888 871.809937,291.184052 
	C872.927979,289.591644 874.347412,289.829529 875.699829,290.844177 
	C877.761719,292.391174 880.147156,293.178528 882.612976,293.490356 
	C885.792786,293.892456 888.769531,293.021149 890.138000,289.884491 
	C891.463684,286.846008 889.495239,284.894958 886.692627,283.267181 
z"/>
<path fill="#fff" opacity="1.000000" stroke="none" 
	d="
M744.592651,285.449890 
	C741.945801,282.693970 738.593933,281.946655 735.624756,280.504303 
	C728.523560,277.054504 725.915771,272.295135 728.266968,266.835388 
	C730.428894,261.815460 737.647705,259.119995 743.764648,261.427399 
	C746.088806,262.304108 750.443848,262.607697 749.048401,266.437836 
	C747.687500,270.173584 744.880798,266.720886 742.761475,266.251343 
	C740.980286,265.856750 739.275269,265.054504 737.413086,265.719757 
	C735.471741,266.413239 733.683044,267.335510 733.401550,269.671326 
	C733.151245,271.748108 734.269104,273.277466 735.946838,274.174805 
	C738.577698,275.581909 741.363586,276.696259 744.063293,277.977814 
	C749.901367,280.749176 752.302612,284.925140 751.133362,290.204102 
	C750.089783,294.916229 745.714233,298.064331 739.904968,298.369171 
	C735.797791,298.584656 731.934448,297.932098 728.604309,295.352936 
	C727.327698,294.364166 725.616333,293.387177 726.939758,291.336853 
	C728.177490,289.419281 729.662842,290.040863 731.215271,291.030487 
	C733.625000,292.566528 736.187195,293.769226 739.145020,293.615143 
	C744.161560,293.353821 746.065674,290.679932 744.592651,285.449890 
z"/>
<path fill="#fff" opacity="1.000000" stroke="none" 
	d="
M615.192139,338.462158 
	C613.801453,343.094360 613.755493,347.370850 615.179810,351.572510 
	C617.516479,358.465302 623.453857,360.885010 629.877991,357.601929 
	C631.621155,356.711090 633.493042,354.862610 634.882751,357.601227 
	C636.165100,360.128235 633.649719,361.088104 632.069092,362.066803 
	C624.625793,366.675507 614.654175,363.869965 610.795715,355.858215 
	C607.445801,348.902679 607.425110,341.624786 610.740295,334.657196 
	C614.482910,326.791382 624.578430,323.762817 631.522217,328.135956 
	C633.013306,329.075012 635.063965,330.011353 633.747375,332.350983 
	C632.587646,334.411926 631.063171,333.341980 629.479065,332.625183 
	C623.063538,329.722229 618.849365,331.395905 615.192139,338.462158 
z"/>
<path fill="#fff" opacity="1.000000" stroke="none" 
	d="
M914.331055,279.017517 
	C914.324707,284.336395 914.328064,289.158508 914.306885,293.980560 
	C914.298584,295.875916 914.237488,297.872314 911.619751,297.862976 
	C909.155090,297.854218 908.740540,296.060516 908.736938,294.064423 
	C908.723572,286.581848 908.524719,279.093109 908.772278,271.619171 
	C908.906677,267.560303 907.636963,265.663300 903.432800,266.172424 
	C902.456726,266.290649 901.438599,266.159821 900.449707,266.052032 
	C898.922729,265.885620 898.007690,265.037201 898.015869,263.446960 
	C898.023132,262.024933 898.999817,261.229828 900.234680,261.220276 
	C907.708313,261.162384 915.183716,261.165039 922.656494,261.277069 
	C924.101807,261.298737 925.106873,262.282501 924.985962,263.938446 
	C924.881592,265.369049 923.857788,265.754150 922.650818,266.092468 
	C919.957764,266.847290 916.018066,264.471741 914.684143,268.123779 
	C913.714172,270.779236 914.388306,274.035675 914.332703,277.024231 
	C914.323425,277.522888 914.331177,278.021912 914.331055,279.017517 
z"/>
<path fill="#fff" opacity="1.000000" stroke="none" 
	d="
M779.583435,355.174866 
	C780.227783,350.115723 777.915039,346.393463 776.071899,342.484894 
	C773.762329,337.587372 770.742737,332.987671 769.861816,327.283722 
	C778.983459,328.317657 777.188843,338.050201 782.043945,342.597626 
	C787.496338,338.844269 785.130554,328.227417 794.329773,326.616516 
	C795.554993,330.001007 793.572937,331.765625 792.634583,333.723389 
	C788.709412,341.913025 783.502808,349.662537 785.011047,359.497040 
	C785.294617,361.346222 784.680054,363.258514 782.092529,363.183502 
	C779.689453,363.113892 779.710510,361.301483 779.633667,359.621918 
	C779.572876,358.294006 779.597290,356.962189 779.583435,355.174866 
z"/>
<path fill="#fff" opacity="1.000000" stroke="none" 
	d="
M672.776123,270.075684 
	C672.789490,267.925690 672.812439,266.263031 672.814331,264.600403 
	C672.816467,262.713226 673.405945,261.266144 675.588379,261.277191 
	C677.762207,261.288208 678.336670,262.714661 678.335144,264.618073 
	C678.329468,271.768066 678.352966,278.918030 678.363098,286.068024 
	C678.372742,292.830933 678.371460,292.820007 685.277832,292.855682 
	C687.437073,292.866821 689.601440,292.878693 691.752747,293.035797 
	C693.012268,293.127777 693.922485,293.853119 694.030029,295.247742 
	C694.157837,296.904266 693.196960,297.872925 691.719543,297.902130 
	C686.406189,298.007233 681.082642,298.107697 675.776917,297.882599 
	C672.837891,297.757874 672.811646,295.240936 672.807190,293.010925 
	C672.792236,285.528290 672.785950,278.045654 672.776123,270.075684 
z"/>
</svg>