<svg version="1.1" id="Layer_1" xmlns="http://www.w3.org/2000/svg" xmlns:xlink="http://www.w3.org/1999/xlink" x="0px" y="0px"
	 width="100%" viewBox="0 0 992 992" enable-background="new 0 0 992 992" xml:space="preserve">
<path fill="#fff" opacity="1.000000" stroke="none" 
	d="
M355.124878,455.510864 
	C363.928558,455.732269 372.093689,456.798401 379.884094,460.259796 
	C390.698517,465.064880 397.971710,472.986603 402.666412,484.101959 
	C402.666412,482.055145 402.666443,480.008301 402.666412,477.961487 
	C402.666168,460.798645 402.768402,443.634705 402.591370,426.473694 
	C402.548767,422.345306 403.904388,420.675659 408.045166,421.016022 
	C410.858185,421.247223 413.707703,421.108124 416.538391,421.036041 
	C423.316132,420.863464 423.835266,421.279877 423.883118,428.301697 
	C423.959167,439.465179 423.906891,450.629517 423.962799,461.793213 
	C423.970856,463.405090 423.510315,465.122955 424.859161,467.004425 
	C441.361786,454.931915 459.474640,452.250732 478.433075,459.768982 
	C498.462006,467.711670 505.253601,484.653412 506.570190,505.240051 
	C520.977966,491.899536 538.380310,491.139954 555.977112,491.077698 
	C560.809265,491.060577 565.643433,491.095032 570.472717,490.960632 
	C575.373047,490.824280 576.609680,489.079529 575.403259,484.250824 
	C573.608765,477.068054 568.338867,473.406494 561.686768,471.905243 
	C554.329651,470.244904 546.878845,470.009064 539.653381,473.173248 
	C536.270996,474.654449 533.783997,476.830719 532.157776,480.127960 
	C531.584656,481.290009 530.832092,483.026489 529.884399,483.233856 
	C523.498169,484.631042 517.002319,484.411041 510.606171,483.320068 
	C508.618134,482.980957 508.880371,480.785583 509.241577,479.078583 
	C510.753326,471.934662 514.901245,466.518219 521.175476,463.223114 
	C540.859314,452.885620 561.054138,453.023712 581.445068,461.160034 
	C582.367920,461.528290 583.246155,462.008179 584.528992,462.618713 
	C585.800415,459.200348 588.678528,458.974548 591.679810,459.029663 
	C592.679382,459.048004 593.678833,459.076508 594.678467,459.087219 
	C609.982727,459.251007 609.812317,459.332672 616.544006,473.292694 
	C624.060730,488.880829 631.920349,504.303741 639.658264,519.784790 
	C640.237915,520.944458 640.593628,522.305603 642.813843,523.504333 
	C645.814392,517.933716 648.972473,512.402771 651.821106,506.716736 
	C659.055542,492.276764 666.206299,477.793945 673.251160,463.260742 
	C674.493896,460.697021 676.113892,459.347443 678.936157,459.314789 
	C684.845642,459.246429 690.798706,458.359161 697.554138,460.105255 
	C694.623413,465.967651 692.008240,471.289459 689.315063,476.571472 
	C672.680481,509.195953 655.934753,541.764465 639.488770,574.483704 
	C637.180298,579.076294 634.433838,580.816284 629.422119,580.374268 
	C624.508362,579.940918 619.526489,580.279846 613.389038,580.279846 
	C615.676208,573.427246 618.290771,567.756042 621.804260,562.999878 
	C629.942505,551.982971 630.580994,542.229004 622.436707,530.328918 
	C614.126770,518.186890 608.323303,504.331177 601.384705,491.245728 
	C600.794922,490.133698 600.432007,488.718048 598.436890,488.271271 
	C597.533630,492.031189 598.401855,495.824005 598.070679,499.528595 
	C596.836182,513.339050 597.421204,527.159607 598.106750,540.958740 
	C598.352661,545.909424 596.584167,547.752136 591.834045,547.219238 
	C590.683289,547.090149 589.503662,547.222412 588.337280,547.229126 
	C579.394531,547.280884 579.394531,547.280518 577.148560,539.110779 
	C575.526367,538.366394 574.775879,539.837769 573.757690,540.527039 
	C556.252014,552.377197 537.606018,554.106445 518.246704,546.096924 
	C510.914459,543.063354 505.839081,537.261841 503.613800,529.350159 
	C503.266968,528.117065 503.187683,526.693726 501.348358,525.658325 
	C493.514557,539.124817 482.355652,547.716125 466.335724,549.525024 
	C450.927887,551.264771 436.906799,548.662964 424.968781,538.504944 
	C424.390991,538.828186 423.921204,538.931091 423.860962,539.147888 
	C421.636383,547.149170 421.641541,547.150696 412.754608,547.162048 
	C402.441772,547.175232 402.507385,547.176025 402.639771,537.259583 
	C402.744324,529.429443 402.535706,521.593933 402.719330,513.766663 
	C402.802124,510.237122 401.399689,509.115112 398.015961,509.126373 
	C375.521301,509.201141 353.026184,509.113770 330.531403,509.172211 
	C325.348114,509.185669 324.664673,510.319824 326.203979,515.265808 
	C330.393524,528.727356 341.182098,535.739624 356.452118,535.280762 
	C365.933228,534.995789 373.605225,531.740845 378.590271,523.316406 
	C378.843842,522.887817 379.102478,522.443237 379.444977,522.089539 
	C380.952484,520.532593 398.803894,519.911072 400.360504,521.427734 
	C402.021149,523.045715 401.037323,524.831299 400.394379,526.514404 
	C396.342072,537.122986 388.364929,543.990051 377.847046,546.831177 
	C361.165314,551.337402 344.175903,551.540222 327.796936,545.185974 
	C315.393860,540.374146 308.034607,530.553650 305.076019,517.869507 
	C302.668671,507.548645 303.029816,496.981659 305.734192,486.664673 
	C310.426270,468.764618 323.430969,460.259766 340.285126,456.821625 
	C344.980682,455.863770 349.885437,455.931427 355.124878,455.510864 
M482.721039,493.934814 
	C479.996704,482.612183 473.288635,474.761444 461.870148,472.063141 
	C450.958374,469.484589 440.501373,470.927643 432.371185,479.581543 
	C424.221832,488.255920 422.602661,498.916382 424.353424,510.256561 
	C426.475403,524.001404 437.262604,534.131653 450.470795,535.020874 
	C466.016296,536.067505 478.084534,528.152527 482.236694,514.020508 
	C484.096649,507.690216 484.348511,501.238953 482.721039,493.934814 
M574.631226,506.695770 
	C561.319397,505.497223 548.048523,505.669373 535.022583,508.898773 
	C530.803528,509.944763 527.032898,512.384460 525.405396,516.854980 
	C522.612671,524.526001 528.444641,533.280823 537.202087,534.832764 
	C543.349060,535.922058 549.485229,535.687195 555.578125,534.656921 
	C568.334412,532.500061 577.719177,519.336426 574.631226,506.695770 
M334.667908,477.140656 
	C331.112396,480.468750 327.810577,484.000092 326.588562,488.898315 
	C325.872375,491.769012 326.555389,493.970764 330.072418,493.972443 
	C345.716858,493.979950 361.361328,493.939545 377.005768,493.932861 
	C380.076782,493.931549 381.136169,492.485260 380.583008,489.494324 
	C379.251801,482.296570 375.617188,476.703308 368.840179,473.775543 
	C357.194153,468.744324 345.865540,469.316315 334.667908,477.140656 
z"/>
</svg>