<?xml version="1.0" encoding="utf-8"?>
<!-- Generator: Adobe Illustrator 24.2.0, SVG Export Plug-In . SVG Version: 6.00 Build 0)  -->
<svg version="1.1" id="Layer_1" xmlns="http://www.w3.org/2000/svg" xmlns:xlink="http://www.w3.org/1999/xlink" x="0px" y="0px"
	 viewBox="0 0 1000 1000" style="enable-background:new 0 0 1000 1000;" xml:space="preserve">
<style type="text/css">
	.st0{fill:#ffffff;}
	.st1{fill:none;}
	.st2{fill:#ffffff;}
	.st3{fill:#ffffff;}
	.st4{fill:#ffffff;}
	.st5{fill:#ffffff;}
</style>
<g>
	<g>
		<path class="st0" d="M309.9,565.6v51.9h-16.5V489.3h43.7c11.1,0,20.5,3.7,28.3,11.1c7.9,7.4,11.8,16.4,11.8,27
			c0,10.9-3.9,19.9-11.8,27.2c-7.6,7.3-17.1,10.9-28.3,10.9H309.9z M309.9,505.1v44.8h27.6c6.6,0,12-2.2,16.3-6.6
			c4.4-4.4,6.6-9.7,6.6-15.8c0-6-2.2-11.2-6.6-15.6c-4.3-4.5-9.7-6.8-16.3-6.8H309.9z"/>
		<path class="st0" d="M421.3,526.9c12.2,0,21.8,3.3,28.8,9.8c7,6.5,10.6,15.4,10.6,26.8v54.1h-15.8v-12.2h-0.7
			c-6.8,10-15.9,15-27.2,15c-9.7,0-17.8-2.9-24.3-8.6c-6.5-5.7-9.8-12.9-9.8-21.5c0-9.1,3.4-16.3,10.3-21.7c6.9-5.4,16-8.1,27.5-8.1
			c9.8,0,17.8,1.8,24.2,5.4v-3.8c0-5.7-2.3-10.6-6.8-14.6c-4.5-4-9.9-6-15.9-6c-9.2,0-16.5,3.9-21.8,11.6l-14.5-9.1
			C393.8,532.7,405.6,526.9,421.3,526.9z M400,590.7c0,4.3,1.8,7.9,5.5,10.7c3.6,2.9,7.9,4.3,12.8,4.3c6.9,0,13.1-2.6,18.5-7.7
			c5.4-5.1,8.1-11.2,8.1-18.1c-5.1-4.1-12.3-6.1-21.5-6.1c-6.7,0-12.3,1.6-16.7,4.8C402.2,581.9,400,585.9,400,590.7z"/>
		<path class="st0" d="M479.3,529.8h15.8v14.3h0.7c4.9-11.2,15-16.8,30.3-16.8l3.4,0.4v17.2l-7.3-0.7c-7.6,0-13.9,2.4-18.9,7.1
			c-5,4.7-7.4,10.7-7.4,18v48.4h-16.5V529.8z M582.1,619c-7.2,0-13.1-2.2-17.8-6.6c-4.7-4.4-7.1-10.6-7.3-18.4v-49.1h-15.4v-15H557
			v-26.9h16.5v26.9H595v15h-21.5v43.7c0,5.9,1.1,9.8,3.4,11.9c2.3,2.1,4.8,3.1,7.7,3.1c1.3,0,2.6-0.1,3.9-0.4
			c1.3-0.3,2.4-0.7,3.5-1.2l5.2,14.7C592.8,618.2,587.8,619,582.1,619z"/>
		<path class="st0" d="M611.6,529.8h15.8V542h0.7c2.5-4.3,6.4-7.9,11.6-10.7c5.2-2.9,10.6-4.3,16.2-4.3c10.7,0,19,3.1,24.8,9.2
			c5.8,6.1,8.7,14.9,8.7,26.2v55.2h-16.5v-54.1c-0.4-14.3-7.6-21.5-21.7-21.5c-6.6,0-12.1,2.7-16.5,8c-4.4,5.3-6.6,11.7-6.6,19.1
			v48.5h-16.5V529.8z"/>
		<path class="st0" d="M748.1,620.4c-12.9,0-23.5-4.4-31.9-13.3c-8.4-8.8-12.5-20-12.5-33.5c0-13.4,4.1-24.5,12.2-33.4
			c8.1-8.9,18.5-13.3,31.2-13.3c13,0,23.4,4.2,31.1,12.6c7.7,8.4,11.6,20.2,11.6,35.4l-0.2,1.8h-69c0.2,8.6,3.1,15.5,8.6,20.8
			c5.5,5.3,12.1,7.9,19.7,7.9c10.5,0,18.7-5.3,24.7-15.8l14.7,7.2c-3.9,7.4-9.4,13.2-16.4,17.4C764.8,618.3,756.9,620.4,748.1,620.4
			z M721.8,563.1h50.3c-0.5-6.1-3-11.1-7.4-15.1c-4.5-4-10.5-6-18-6c-6.2,0-11.6,1.9-16,5.7C726.2,551.5,723.2,556.7,721.8,563.1z"
			/>
		<path class="st0" d="M821.2,617.6h-16.5v-87.8h15.8v14.3h0.7c1.7-4.7,5.1-8.6,10.3-11.9c5.2-3.3,10.3-4.9,15.3-4.9
			c4.8,0,8.8,0.7,12.2,2.1l-5,15.9c-2-0.8-5.3-1.3-9.7-1.3c-6.2,0-11.6,2.5-16.2,7.5c-4.6,5-6.9,10.9-6.9,17.6V617.6z"/>
	</g>
	<path class="st1" d="M399.4,416.7c-4.2,0-7.7,1.5-10.6,4.6c-2.9,2.9-4.3,6.7-4.3,11.4c0,4.5,1.4,8.3,4.3,11.4
		c2.9,3.1,6.4,4.6,10.6,4.6c4.1,0,7.6-1.5,10.5-4.6c2.9-3.1,4.4-6.9,4.4-11.4c0-4.7-1.4-8.5-4.3-11.4
		C407.2,418.2,403.6,416.7,399.4,416.7z"/>
	<path class="st1" d="M514.7,416.7c-4,0-7.5,1.6-10.4,4.7c-2.9,3.1-4.3,6.9-4.3,11.4c0,4.5,1.4,8.2,4.2,11.3
		c2.9,3.1,6.4,4.6,10.5,4.6c3.9,0,7.3-1.5,10-4.5c2.7-3.1,4.1-6.9,4.1-11.4c0-4.5-1.4-8.4-4.1-11.5
		C522,418.2,518.7,416.7,514.7,416.7z"/>
	<path class="st1" d="M457.2,416.7c-4.2,0-7.7,1.5-10.6,4.6c-2.9,2.9-4.3,6.7-4.3,11.4c0,4.5,1.4,8.3,4.3,11.4
		c2.9,3.1,6.4,4.6,10.6,4.6c4.1,0,7.6-1.5,10.5-4.6c2.9-3.1,4.4-6.9,4.4-11.4c0-4.7-1.4-8.5-4.3-11.4
		C464.9,418.2,461.4,416.7,457.2,416.7z"/>
	<path class="st1" d="M595.5,418c-1.8-1-3.8-1.5-6.1-1.5c-3.6,0-6.9,1.5-9.8,4.4c-2.8,2.9-4.1,6.5-4,11l23.6-9.8
		C598.5,420.4,597.3,419.1,595.5,418z"/>
	<path class="st2" d="M330.7,414.4v11.2h26.8c-0.9,7.1-3.8,12.6-8.8,16.5c-4.9,3.9-10.9,5.8-18,5.8c-8.3,0-15.2-2.9-20.9-8.7
		c-5.7-5.7-8.5-12.8-8.5-21.1c0-8.3,2.8-15.3,8.5-21.1c5.7-5.8,12.6-8.7,20.9-8.7c7.7,0,14.4,2.7,20.2,8l7.9-7.9
		c-7.9-7.5-17.3-11.3-28.1-11.3c-7.3,0-14.2,1.9-20.8,5.6c-6.5,3.7-11.6,8.7-15.3,15.1c-3.7,6.3-5.5,13-5.5,20.3
		c0,7.3,1.8,14.1,5.5,20.4c3.7,6.3,8.8,11.3,15.3,15c6.5,3.7,13.4,5.6,20.8,5.6c11.1,0,20.2-3.5,27.5-10.4
		c7.2-6.9,10.8-15.9,10.8-27.3c0-2.7-0.2-5-0.6-7H330.7z"/>
	<path class="st3" d="M399.4,406.3c-7.5,0-13.8,2.5-18.9,7.6c-5.1,5-7.6,11.3-7.6,18.8c0,7.4,2.6,13.7,7.7,18.8
		c5.1,5.1,11.3,7.6,18.8,7.6c7.5,0,13.7-2.5,18.8-7.6c5.1-5.1,7.7-11.4,7.7-18.8c0-7.5-2.6-13.8-7.7-18.8
		C413.2,408.8,406.9,406.3,399.4,406.3z M409.9,444.1c-2.9,3.1-6.4,4.6-10.5,4.6c-4.2,0-7.7-1.5-10.6-4.6c-2.9-3.1-4.3-6.9-4.3-11.4
		c0-4.7,1.4-8.5,4.3-11.4c2.9-3.1,6.4-4.6,10.6-4.6c4.2,0,7.7,1.5,10.6,4.6c2.9,2.9,4.3,6.7,4.3,11.4
		C414.3,437.1,412.9,440.9,409.9,444.1z"/>
	<rect x="547" y="379.9" class="st4" width="11.6" height="77.5"/>
	<path class="st5" d="M457.2,406.3c-7.5,0-13.8,2.5-18.9,7.6c-5.1,5-7.6,11.3-7.6,18.8c0,7.4,2.6,13.7,7.7,18.8
		c5.1,5.1,11.3,7.6,18.8,7.6c7.5,0,13.7-2.5,18.8-7.6c5.1-5.1,7.7-11.4,7.7-18.8c0-7.5-2.6-13.8-7.7-18.8
		C470.9,408.8,464.6,406.3,457.2,406.3z M467.7,444.1c-2.9,3.1-6.4,4.6-10.5,4.6c-4.2,0-7.7-1.5-10.6-4.6c-2.9-3.1-4.3-6.9-4.3-11.4
		c0-4.7,1.4-8.5,4.3-11.4c2.9-3.1,6.4-4.6,10.6-4.6s7.7,1.5,10.6,4.6c2.9,2.9,4.3,6.7,4.3,11.4C472.1,437.1,470.6,440.9,467.7,444.1
		z"/>
	<path class="st3" d="M590.3,448.7c-5.8,0-10.1-2.7-12.8-8l35.3-14.6l-1.2-3c-0.9-2.5-2.1-4.7-3.6-6.8c-1.5-2.1-3.2-3.8-5.1-5.3
		c-1.9-1.5-4.1-2.6-6.4-3.4c-2.3-0.8-4.8-1.2-7.4-1.2c-7.1,0-13,2.5-17.8,7.5c-4.7,5.1-7.1,11.4-7.1,18.9c0,7.5,2.5,13.7,7.5,18.8
		c5,5.1,11.2,7.6,18.7,7.6c9.3,0,16.6-3.9,22-11.7l-9-6C600,446.2,595.7,448.7,590.3,448.7z M579.6,420.9c2.9-2.9,6.2-4.4,9.8-4.4
		c2.3,0,4.3,0.5,6.1,1.5c1.8,1,3,2.4,3.7,4l-23.6,9.8C575.5,427.4,576.8,423.8,579.6,420.9z"/>
	<path class="st2" d="M528,412.2h-0.4c-3.3-3.9-8-5.9-13.9-5.9c-6.8,0-12.7,2.6-17.8,7.8c-5,5.2-7.5,11.4-7.5,18.7
		c0,7.2,2.5,13.4,7.5,18.6c5.1,5.1,11.1,7.7,17.8,7.7c5.9,0,10.6-2,13.9-6h0.4v2.7c0,11.1-4.7,16.6-14.1,16.6c-3,0-5.7-0.9-8-2.6
		c-2.3-1.7-4.1-4-5.3-6.8l-10.1,4.2c1,2.3,2.3,4.4,3.8,6.3c1.5,1.9,3.3,3.5,5.3,4.9c2,1.4,4.2,2.4,6.6,3.2c2.4,0.8,4.9,1.1,7.6,1.1
		c7.9,0,14-2.4,18.4-7.1c4.4-4.8,6.6-11.5,6.6-20.3v-47.3h-11V412.2z M524.7,444.2c-2.7,3-6.1,4.5-10,4.5c-4.1,0-7.6-1.5-10.5-4.6
		c-2.8-3.1-4.2-6.8-4.2-11.3c0-4.5,1.4-8.3,4.3-11.4c2.9-3.1,6.4-4.7,10.4-4.7c4,0,7.3,1.5,10,4.6c2.7,3.1,4.1,7,4.1,11.5
		C528.8,437.2,527.4,441,524.7,444.2z"/>
	<rect x="141" y="340.3" class="st2" width="84" height="319.4"/>
</g>
</svg>
