<svg version="1.1" id="Layer_1" xmlns="http://www.w3.org/2000/svg" xmlns:xlink="http://www.w3.org/1999/xlink" x="0px" y="0px"
	 width="100%" viewBox="0 0 650 366" enable-background="new 0 0 650 366" xml:space="preserve">
<path fill="transparent" opacity="1.000000" stroke="none" 
	d="
M1.000000,113.000000 
	C1.000000,75.675209 1.000000,38.350422 1.000000,1.019226 
	C217.608521,1.012817 434.217041,1.012817 650.912781,1.012817 
	C650.912781,122.913887 650.912781,244.827850 650.912781,366.870911 
	C434.333374,366.870911 217.666702,366.870911 1.000000,366.870911 
	C1.000000,329.915405 1.000000,292.923737 1.417295,255.466125 
	C3.534890,255.430862 5.213292,256.019531 6.940114,256.258942 
	C10.383146,256.736267 14.109580,259.011993 17.470993,254.993256 
	C30.702919,254.993454 43.468311,254.874954 56.228710,255.075027 
	C59.537960,255.126938 62.827976,256.197296 66.134972,256.751190 
	C66.935722,256.885315 67.839920,257.051147 68.575119,256.818573 
	C72.425339,255.600586 76.236473,254.259048 80.523033,252.964355 
	C100.720634,252.970322 120.456718,253.019119 140.191574,252.886459 
	C141.782562,252.875763 143.365189,251.618332 145.031479,250.721527 
	C145.111267,250.502808 145.337601,250.095856 145.536453,250.094452 
	C145.735306,250.093033 146.129257,250.028625 146.478271,249.977142 
	C150.170609,248.151154 152.591003,244.685715 150.327484,241.938583 
	C147.635910,238.671997 148.079086,235.557297 148.046860,232.237411 
	C147.940399,221.272659 148.003113,210.306229 148.011398,199.340439 
	C148.012405,198.012863 147.816422,196.613724 148.157486,195.369995 
	C149.754059,189.547806 149.809845,189.563110 147.999832,185.618256 
	C147.123779,182.489410 152.009537,179.746902 148.005096,176.750000 
	C148.004089,176.501221 148.004883,176.003662 148.401276,175.911835 
	C149.198456,174.155045 149.930496,172.493210 149.946320,170.824600 
	C150.050369,159.851486 150.108978,148.875427 149.957901,137.903412 
	C149.871460,131.626053 149.374069,125.353874 149.038895,119.080589 
	C148.797958,114.570908 146.450241,112.880692 141.909637,112.930084 
	C125.616692,113.107277 109.320473,112.965385 93.026077,113.052635 
	C91.334633,113.061699 89.647057,113.793549 87.549118,114.157669 
	C79.794724,115.079918 79.794724,115.079918 79.703896,123.273949 
	C79.624367,126.027397 79.818466,128.519577 79.596123,130.996429 
	C78.449860,129.274673 77.505180,127.624718 77.038536,125.849136 
	C76.260155,122.887321 75.787697,119.845108 75.115540,116.461121 
	C74.115471,115.400948 73.216316,114.179214 72.251884,114.125313 
	C68.188515,113.898201 64.105270,114.054092 60.030018,114.007317 
	C44.214737,113.825798 28.399544,113.542885 12.584992,113.580521 
	C11.402604,113.583328 9.908281,115.646858 9.151404,117.067940 
	C8.596220,118.110336 9.011449,119.669579 8.629581,120.928108 
	C7.854806,120.228821 6.962360,119.444763 7.107240,118.994392 
	C9.093448,112.820045 5.351186,112.625755 1.000000,113.000000 
M185.824905,180.499985 
	C185.824905,194.910263 185.824905,209.320541 185.824905,223.770172 
	C190.568542,223.770172 194.488907,223.770172 198.824768,223.770172 
	C198.824768,203.589279 198.824768,183.707855 198.824768,163.826416 
	C200.462189,165.544556 201.321625,167.440125 202.102219,169.367599 
	C209.032776,186.480698 216.109329,203.537674 222.759827,220.759094 
	C224.463226,225.170074 227.597061,223.698349 230.484573,224.074387 
	C233.220718,224.430695 234.612823,223.399460 235.616486,220.720215 
	C239.991455,209.041412 244.573029,197.439011 249.171448,185.845322 
	C252.132050,178.380875 255.252167,170.979721 258.300812,163.550201 
	C258.548706,163.628281 258.796631,163.706360 259.044525,163.784424 
	C259.044525,173.758423 259.044525,183.732407 259.044525,193.706390 
	C259.044525,203.652161 259.044525,213.597931 259.044525,223.716049 
	C263.966156,223.716049 268.338776,223.716049 272.657349,223.716049 
	C272.657349,196.780228 272.657349,170.226379 272.657349,143.329742 
	C267.310730,143.329742 262.305420,143.018982 257.375549,143.492996 
	C255.573395,143.666260 253.117462,145.328033 252.386063,146.952789 
	C248.700516,155.140121 245.494186,163.542831 242.103882,171.863525 
	C238.019592,181.887466 233.919449,191.904953 229.449066,202.848343 
	C228.291550,200.107178 227.555389,198.450531 226.886765,196.767044 
	C220.316681,180.224243 213.796463,163.661362 207.129211,147.157883 
	C206.537064,145.692139 205.072845,143.586777 203.904099,143.512970 
	C197.999405,143.140015 192.058426,143.341507 185.824783,143.341507 
	C185.824783,155.861221 185.824783,167.680588 185.824905,180.499985 
M607.479248,177.484848 
	C609.264465,177.580612 611.049622,177.676361 613.462646,177.805786 
	C613.462646,187.046295 613.144653,196.010345 613.592407,204.936005 
	C613.827820,209.630951 614.577881,214.651108 616.564514,218.825226 
	C619.569702,225.139145 629.337097,227.424225 638.066528,224.462128 
	C643.973816,222.457672 639.807739,217.305115 640.850708,213.741425 
	C640.903564,213.560959 640.540344,213.258698 640.305847,212.918961 
	C638.723694,213.290192 637.130310,213.889450 635.503296,214.001740 
	C631.337097,214.289215 627.867432,212.774643 627.728210,208.221893 
	C627.419556,198.131638 627.632080,188.025436 627.632080,177.417389 
	C632.105469,177.417389 636.375061,177.417389 640.706604,177.417389 
	C640.706604,173.480118 640.706604,170.058182 640.706604,166.135025 
	C636.178528,166.135025 631.923035,166.135025 627.018799,166.135025 
	C627.018799,160.298798 627.018799,154.955444 627.018799,149.506226 
	C614.157898,152.093002 614.161011,152.093201 613.401306,164.166595 
	C613.371704,164.637115 613.168152,165.096695 612.996338,165.748657 
	C606.451965,165.748657 599.928467,165.748657 593.438293,165.748657 
	C592.271729,151.036880 595.229492,147.774170 608.173157,149.694611 
	C608.173157,146.666168 608.357849,143.690521 608.069946,140.761337 
	C607.973022,139.775528 606.797913,138.253189 605.907227,138.086105 
	C595.670410,136.165573 582.459045,139.252350 579.848755,153.997482 
	C579.165100,157.859131 579.205811,161.849014 578.899292,165.976212 
	C575.867737,166.114029 573.112061,166.239304 570.170410,166.373032 
	C570.170410,170.127350 570.170410,173.530396 570.170410,177.142517 
	C573.201660,177.357208 575.966614,177.553055 579.354309,177.792999 
	C579.354309,193.246292 579.354309,208.483246 579.354309,223.734360 
	C584.252686,223.734360 588.500305,223.734360 593.197021,223.734360 
	C593.197021,208.314270 593.197021,193.218048 593.197021,177.482635 
	C597.924316,177.482635 602.205811,177.482635 607.479248,177.484848 
M555.436707,221.022034 
	C567.505493,212.593460 572.143555,195.718781 566.329834,181.389725 
	C561.609192,169.754883 552.069336,164.363785 537.322327,164.997086 
	C523.911804,165.572998 514.439026,172.370453 510.886017,183.967285 
	C505.403412,201.862015 511.811157,218.259491 526.822998,223.565689 
	C536.303162,226.916626 545.811035,226.367722 555.436707,221.022034 
M457.573364,186.120941 
	C455.281433,176.322235 449.888092,168.870926 439.943817,166.311050 
	C418.511597,160.793900 397.894684,170.755249 398.973633,197.796234 
	C399.471802,210.281891 406.409149,220.469650 417.068054,223.880432 
	C430.766998,228.264023 445.358154,224.309387 452.693909,214.135117 
	C458.643066,205.883987 459.059540,196.554077 457.573364,186.120941 
M468.239471,211.121826 
	C467.247314,210.733963 466.255157,210.346100 464.880493,209.808716 
	C464.880493,213.465240 464.690948,216.635132 464.978882,219.761047 
	C465.085907,220.922867 466.078674,222.634338 467.063232,222.985352 
	C475.791840,226.097229 484.633820,226.794174 493.277863,222.746521 
	C499.279572,219.936172 502.868408,215.259338 503.187256,208.384705 
	C503.516052,201.294235 500.362762,196.209091 494.237488,192.959290 
	C490.720276,191.093216 487.037872,189.533417 483.402130,187.897308 
	C480.197662,186.455261 478.135986,184.306473 478.946960,180.541458 
	C479.786194,176.645279 482.934296,175.616470 486.202972,175.971436 
	C490.745392,176.464706 495.212463,177.651688 499.675110,178.534454 
	C500.622314,165.679581 502.083008,166.591003 488.304230,164.992889 
	C486.666107,164.802887 484.975281,164.922256 483.320190,165.047745 
	C474.080261,165.748444 466.386261,171.816223 465.061737,179.392105 
	C463.490631,188.378326 467.073761,194.443008 476.658295,199.010498 
	C479.807556,200.511276 483.271973,201.591400 485.997742,203.650787 
	C487.660706,204.907181 489.275391,207.877411 488.919891,209.686478 
	C488.571869,211.457718 485.645935,214.045700 483.942657,213.978149 
	C478.922180,213.779007 473.946869,212.441620 468.239471,211.121826 
M347.732117,177.476913 
	C349.733032,178.415176 351.733917,179.353424 353.854279,180.347687 
	C355.623779,167.652481 353.612488,165.251205 341.475128,164.925247 
	C340.311798,164.893997 339.145172,164.923325 337.981781,164.968323 
	C325.194122,165.462723 314.923828,172.297760 311.164642,183.719498 
	C307.072693,196.152176 307.671875,208.122681 317.628113,217.960953 
	C325.532654,225.771835 340.409454,227.877594 351.265167,222.982864 
	C352.458527,222.444763 354.031555,221.179886 354.148102,220.112305 
	C354.519226,216.712845 354.285614,213.247360 354.285614,209.537933 
	C351.079193,210.941177 348.468323,212.309830 345.711090,213.248642 
	C336.908447,216.245865 327.257935,211.900650 324.500336,203.522507 
	C321.972870,195.843521 322.306244,188.219254 327.791992,181.869690 
	C332.891785,175.966843 339.702728,175.135834 347.732117,177.476913 
M379.549622,173.275314 
	C378.817688,171.074768 378.085754,168.874222 377.269073,166.418945 
	C373.308624,166.418945 369.082123,166.418945 364.720093,166.418945 
	C364.720093,185.739929 364.720093,204.750275 364.720093,223.673309 
	C369.375702,223.673309 373.607574,223.673309 378.107819,223.673309 
	C378.107819,217.134430 377.991119,210.991623 378.142120,204.855408 
	C378.280884,199.217606 378.119751,193.477036 379.146606,187.978928 
	C380.669647,179.824158 386.633270,176.534622 394.717407,178.449844 
	C395.667480,178.674957 396.631683,178.840302 398.114258,179.139160 
	C398.114258,175.764648 397.902405,172.618881 398.173340,169.515244 
	C398.448730,166.360458 396.914856,165.325974 394.177856,165.213272 
	C388.015350,164.959488 383.175751,167.248688 379.549622,173.275314 
M299.774231,181.504410 
	C299.774231,176.559296 299.774231,171.614182 299.774231,166.412201 
	C295.031067,166.412201 290.807465,166.412201 286.376068,166.412201 
	C286.376068,185.689240 286.376068,204.697739 286.376068,223.699524 
	C290.971588,223.699524 295.190277,223.699524 299.774048,223.699524 
	C299.774048,209.724228 299.774048,196.113358 299.774231,181.504410 
M285.295990,152.709244 
	C287.761810,157.294083 291.689819,158.381927 296.293823,156.805893 
	C299.774872,155.614288 301.545746,152.879440 301.239349,149.054291 
	C300.863708,144.365234 297.250214,141.402527 292.318054,141.721115 
	C287.064331,142.060471 284.681549,145.421143 285.295990,152.709244 
z"/>
<path fill="#fff" opacity="1.000000" stroke="none" 
	d="
M1.000000,113.468658 
	C5.351186,112.625755 9.093448,112.820045 7.107240,118.994392 
	C6.962360,119.444763 7.854806,120.228821 8.635386,121.396919 
	C9.006849,139.260986 8.960260,156.586197 9.083586,173.910217 
	C9.095748,175.618591 10.148736,177.319565 10.831970,179.271484 
	C10.961272,179.699783 10.977233,179.880569 10.978682,180.407135 
	C10.979588,182.172028 10.995008,183.591171 11.017809,185.364685 
	C11.073993,186.188782 11.122797,186.658463 11.159422,187.111221 
	C11.147244,187.094284 11.144638,187.127167 10.755795,187.148560 
	C9.246763,191.109879 7.306826,195.019638 7.160683,198.995361 
	C6.728913,210.741348 6.794934,222.518967 7.103823,234.272705 
	C7.239424,239.432556 8.388817,244.572205 9.227763,249.696487 
	C9.306073,250.174820 10.467401,250.475861 11.356907,250.907837 
	C11.587935,250.956467 12.019193,251.148743 12.152781,251.422302 
	C13.858447,252.794998 15.430526,253.894135 17.002602,254.993286 
	C14.109580,259.011993 10.383146,256.736267 6.940114,256.258942 
	C5.213292,256.019531 3.534890,255.430862 1.417295,255.000076 
	C1.000000,207.979111 1.000000,160.958206 1.000000,113.468658 
z"/>
<path fill="#fff" opacity="1.000000" stroke="none" 
	d="
M185.824844,179.999969 
	C185.824783,167.680588 185.824783,155.861221 185.824783,143.341507 
	C192.058426,143.341507 197.999405,143.140015 203.904099,143.512970 
	C205.072845,143.586777 206.537064,145.692139 207.129211,147.157883 
	C213.796463,163.661362 220.316681,180.224243 226.886765,196.767044 
	C227.555389,198.450531 228.291550,200.107178 229.449066,202.848343 
	C233.919449,191.904953 238.019592,181.887466 242.103882,171.863525 
	C245.494186,163.542831 248.700516,155.140121 252.386063,146.952789 
	C253.117462,145.328033 255.573395,143.666260 257.375549,143.492996 
	C262.305420,143.018982 267.310730,143.329742 272.657349,143.329742 
	C272.657349,170.226379 272.657349,196.780228 272.657349,223.716049 
	C268.338776,223.716049 263.966156,223.716049 259.044525,223.716049 
	C259.044525,213.597931 259.044525,203.652161 259.044525,193.706390 
	C259.044525,183.732407 259.044525,173.758423 259.044525,163.784424 
	C258.796631,163.706360 258.548706,163.628281 258.300812,163.550201 
	C255.252167,170.979721 252.132050,178.380875 249.171448,185.845322 
	C244.573029,197.439011 239.991455,209.041412 235.616486,220.720215 
	C234.612823,223.399460 233.220718,224.430695 230.484573,224.074387 
	C227.597061,223.698349 224.463226,225.170074 222.759827,220.759094 
	C216.109329,203.537674 209.032776,186.480698 202.102219,169.367599 
	C201.321625,167.440125 200.462189,165.544556 198.824768,163.826416 
	C198.824768,183.707855 198.824768,203.589279 198.824768,223.770172 
	C194.488907,223.770172 190.568542,223.770172 185.824905,223.770172 
	C185.824905,209.320541 185.824905,194.910263 185.824844,179.999969 
z"/>
<path fill="#fff" opacity="1.000000" stroke="none" 
	d="
M606.983276,177.483734 
	C602.205811,177.482635 597.924316,177.482635 593.197021,177.482635 
	C593.197021,193.218048 593.197021,208.314270 593.197021,223.734360 
	C588.500305,223.734360 584.252686,223.734360 579.354309,223.734360 
	C579.354309,208.483246 579.354309,193.246292 579.354309,177.792999 
	C575.966614,177.553055 573.201660,177.357208 570.170410,177.142517 
	C570.170410,173.530396 570.170410,170.127350 570.170410,166.373032 
	C573.112061,166.239304 575.867737,166.114029 578.899292,165.976212 
	C579.205811,161.849014 579.165100,157.859131 579.848755,153.997482 
	C582.459045,139.252350 595.670410,136.165573 605.907227,138.086105 
	C606.797913,138.253189 607.973022,139.775528 608.069946,140.761337 
	C608.357849,143.690521 608.173157,146.666168 608.173157,149.694611 
	C595.229492,147.774170 592.271729,151.036880 593.438293,165.748657 
	C599.928467,165.748657 606.451965,165.748657 612.996338,165.748657 
	C613.168152,165.096695 613.371704,164.637115 613.401306,164.166595 
	C614.161011,152.093201 614.157898,152.093002 627.018799,149.506226 
	C627.018799,154.955444 627.018799,160.298798 627.018799,166.135025 
	C631.923035,166.135025 636.178528,166.135025 640.706604,166.135025 
	C640.706604,170.058182 640.706604,173.480118 640.706604,177.417389 
	C636.375061,177.417389 632.105469,177.417389 627.632080,177.417389 
	C627.632080,188.025436 627.419556,198.131638 627.728210,208.221893 
	C627.867432,212.774643 631.337097,214.289215 635.503296,214.001740 
	C637.130310,213.889450 638.723694,213.290192 640.305847,212.918961 
	C640.540344,213.258698 640.903564,213.560959 640.850708,213.741425 
	C639.807739,217.305115 643.973816,222.457672 638.066528,224.462128 
	C629.337097,227.424225 619.569702,225.139145 616.564514,218.825226 
	C614.577881,214.651108 613.827820,209.630951 613.592407,204.936005 
	C613.144653,196.010345 613.462646,187.046295 613.462646,177.805786 
	C611.049622,177.676361 609.264465,177.580612 606.983276,177.483734 
z"/>
<path fill="#fff" opacity="1.000000" stroke="none" 
	d="
M555.127319,221.220718 
	C545.811035,226.367722 536.303162,226.916626 526.822998,223.565689 
	C511.811157,218.259491 505.403412,201.862015 510.886017,183.967285 
	C514.439026,172.370453 523.911804,165.572998 537.322327,164.997086 
	C552.069336,164.363785 561.609192,169.754883 566.329834,181.389725 
	C572.143555,195.718781 567.505493,212.593460 555.127319,221.220718 
M530.802612,211.969849 
	C541.150452,216.990265 551.057861,213.469528 553.209656,203.057190 
	C554.372742,197.429062 554.223938,190.974350 552.663757,185.459213 
	C549.776367,175.252441 534.832092,172.918289 527.742493,180.861221 
	C521.471130,187.887405 521.324341,206.320877 530.802612,211.969849 
z"/>
<path fill="#fff" opacity="1.000000" stroke="none" 
	d="
M457.672302,186.524628 
	C459.059540,196.554077 458.643066,205.883987 452.693909,214.135117 
	C445.358154,224.309387 430.766998,228.264023 417.068054,223.880432 
	C406.409149,220.469650 399.471802,210.281891 398.973633,197.796234 
	C397.894684,170.755249 418.511597,160.793900 439.943817,166.311050 
	C449.888092,168.870926 455.281433,176.322235 457.672302,186.524628 
M441.198486,182.484741 
	C433.747955,173.252335 419.664642,174.266907 415.234802,184.438416 
	C412.396606,190.955276 412.267365,197.717484 414.497253,204.425247 
	C416.546387,210.589340 422.193756,214.150742 429.261658,214.086777 
	C436.153137,214.024399 440.822510,210.963715 442.800781,204.498138 
	C445.000000,197.310394 445.045502,190.082230 441.198486,182.484741 
z"/>
<path fill="#fff" opacity="1.000000" stroke="none" 
	d="
M468.596680,211.335770 
	C473.946869,212.441620 478.922180,213.779007 483.942657,213.978149 
	C485.645935,214.045700 488.571869,211.457718 488.919891,209.686478 
	C489.275391,207.877411 487.660706,204.907181 485.997742,203.650787 
	C483.271973,201.591400 479.807556,200.511276 476.658295,199.010498 
	C467.073761,194.443008 463.490631,188.378326 465.061737,179.392105 
	C466.386261,171.816223 474.080261,165.748444 483.320190,165.047745 
	C484.975281,164.922256 486.666107,164.802887 488.304230,164.992889 
	C502.083008,166.591003 500.622314,165.679581 499.675110,178.534454 
	C495.212463,177.651688 490.745392,176.464706 486.202972,175.971436 
	C482.934296,175.616470 479.786194,176.645279 478.946960,180.541458 
	C478.135986,184.306473 480.197662,186.455261 483.402130,187.897308 
	C487.037872,189.533417 490.720276,191.093216 494.237488,192.959290 
	C500.362762,196.209091 503.516052,201.294235 503.187256,208.384705 
	C502.868408,215.259338 499.279572,219.936172 493.277863,222.746521 
	C484.633820,226.794174 475.791840,226.097229 467.063232,222.985352 
	C466.078674,222.634338 465.085907,220.922867 464.978882,219.761047 
	C464.690948,216.635132 464.880493,213.465240 464.880493,209.808716 
	C466.255157,210.346100 467.247314,210.733963 468.596680,211.335770 
z"/>
<path fill="#fff" opacity="1.000000" stroke="none" 
	d="
M347.359467,177.323547 
	C339.702728,175.135834 332.891785,175.966843 327.791992,181.869690 
	C322.306244,188.219254 321.972870,195.843521 324.500336,203.522507 
	C327.257935,211.900650 336.908447,216.245865 345.711090,213.248642 
	C348.468323,212.309830 351.079193,210.941177 354.285614,209.537933 
	C354.285614,213.247360 354.519226,216.712845 354.148102,220.112305 
	C354.031555,221.179886 352.458527,222.444763 351.265167,222.982864 
	C340.409454,227.877594 325.532654,225.771835 317.628113,217.960953 
	C307.671875,208.122681 307.072693,196.152176 311.164642,183.719498 
	C314.923828,172.297760 325.194122,165.462723 337.981781,164.968323 
	C339.145172,164.923325 340.311798,164.893997 341.475128,164.925247 
	C353.612488,165.251205 355.623779,167.652481 353.854279,180.347687 
	C351.733917,179.353424 349.733032,178.415176 347.359467,177.323547 
z"/>
<path fill="#fff" opacity="1.000000" stroke="none" 
	d="
M379.759277,172.962585 
	C383.175751,167.248688 388.015350,164.959488 394.177856,165.213272 
	C396.914856,165.325974 398.448730,166.360458 398.173340,169.515244 
	C397.902405,172.618881 398.114258,175.764648 398.114258,179.139160 
	C396.631683,178.840302 395.667480,178.674957 394.717407,178.449844 
	C386.633270,176.534622 380.669647,179.824158 379.146606,187.978928 
	C378.119751,193.477036 378.280884,199.217606 378.142120,204.855408 
	C377.991119,210.991623 378.107819,217.134430 378.107819,223.673309 
	C373.607574,223.673309 369.375702,223.673309 364.720093,223.673309 
	C364.720093,204.750275 364.720093,185.739929 364.720093,166.418945 
	C369.082123,166.418945 373.308624,166.418945 377.269073,166.418945 
	C378.085754,168.874222 378.817688,171.074768 379.759277,172.962585 
z"/>
<path fill="#fff" opacity="1.000000" stroke="none" 
	d="
M299.774139,182.003448 
	C299.774048,196.113358 299.774048,209.724228 299.774048,223.699524 
	C295.190277,223.699524 290.971588,223.699524 286.376068,223.699524 
	C286.376068,204.697739 286.376068,185.689240 286.376068,166.412201 
	C290.807465,166.412201 295.031067,166.412201 299.774231,166.412201 
	C299.774231,171.614182 299.774231,176.559296 299.774139,182.003448 
z"/>
<path fill="#fff" opacity="1.000000" stroke="none" 
	d="
M17.470995,254.993256 
	C15.430526,253.894135 13.858447,252.794998 12.611136,251.331360 
	C33.508247,250.966858 54.080593,250.966858 74.513977,250.966858 
	C74.513977,229.209869 74.513977,208.333832 74.513977,187.128159 
	C53.109810,187.128159 32.140705,187.128159 11.171600,187.128159 
	C11.122797,186.658463 11.073993,186.188782 11.485287,185.360519 
	C27.773195,184.997833 43.602051,185.088486 59.427982,184.913849 
	C62.805744,184.876587 66.161819,183.793060 69.547714,183.339584 
	C73.736015,182.778641 77.944992,182.372116 82.416611,182.033844 
	C83.450920,182.391800 84.213654,182.614792 84.873032,183.158813 
	C84.504501,184.314850 84.239334,185.149857 83.562119,185.996521 
	C81.816254,186.210358 80.482430,186.412537 80.046318,186.478638 
	C80.046318,206.866730 80.046318,226.431778 79.766083,245.815979 
	C78.751442,245.414566 78.017021,245.194000 77.282600,244.973434 
	C77.875526,246.646805 78.468452,248.320160 79.320213,250.197876 
	C79.739761,251.254974 79.900475,252.107712 80.061188,252.960464 
	C76.236473,254.259048 72.425339,255.600586 68.575119,256.818573 
	C67.839920,257.051147 66.935722,256.885315 66.134972,256.751190 
	C62.827976,256.197296 59.537960,255.126938 56.228710,255.075027 
	C43.468311,254.874954 30.702919,254.993454 17.470995,254.993256 
z"/>
<path fill="#fff" opacity="1.000000" stroke="none" 
	d="
M145.337585,250.095856 
	C145.337601,250.095856 145.111267,250.502808 144.566971,250.725693 
	C124.745148,250.966125 105.467308,251.034027 86.190628,250.914841 
	C84.468887,250.904190 82.754654,249.679291 81.072777,248.680145 
	C81.089104,247.889633 81.069588,247.437286 81.141365,246.524231 
	C81.238953,228.256805 81.388924,210.448166 81.150803,192.644714 
	C81.091049,188.177078 82.525635,186.977219 86.832794,187.018097 
	C106.135239,187.201340 125.440544,187.083496 144.868927,187.494629 
	C145.166077,189.651932 145.339111,191.388916 145.371216,193.562653 
	C145.325134,209.620102 145.419952,225.240814 145.447845,241.236328 
	C145.424057,242.114838 145.467178,242.618576 145.368378,243.533249 
	C145.263504,245.994736 145.300552,248.045303 145.337585,250.095856 
M85.162865,191.709000 
	C84.881561,192.311188 84.355194,192.913162 84.354660,193.515594 
	C84.339638,210.556168 84.294479,227.598282 84.600136,244.633942 
	C84.619827,245.731125 87.413818,247.699860 88.918137,247.700714 
	C99.273857,247.706604 109.628662,247.235107 119.986107,247.042526 
	C126.470177,246.921967 132.963333,246.867783 139.442566,247.081802 
	C142.837357,247.193939 144.106522,246.223862 144.067719,242.620239 
	C143.895859,226.655792 143.890457,210.687271 144.070816,194.722992 
	C144.112686,191.018387 143.039917,189.859146 139.284363,189.901917 
	C122.987549,190.087585 106.687279,189.952148 90.388657,190.023788 
	C88.815666,190.030685 87.245415,190.661209 85.162865,191.709000 
z"/>
<path fill="#fff" opacity="1.000000" stroke="none" 
	d="
M82.145035,181.898895 
	C77.944992,182.372116 73.736015,182.778641 69.547714,183.339584 
	C66.161819,183.793060 62.805744,184.876587 59.427982,184.913849 
	C43.602051,185.088486 27.773195,184.997833 11.477906,185.006134 
	C10.995008,183.591171 10.979588,182.172028 11.396709,180.484436 
	C32.794445,180.215958 53.759640,180.215958 74.897972,180.215958 
	C74.897972,158.633438 74.897972,137.863831 74.969345,117.029022 
	C75.040718,116.963814 75.186440,116.836746 75.186440,116.836746 
	C75.787697,119.845108 76.260155,122.887321 77.038536,125.849136 
	C77.505180,127.624718 78.449860,129.274673 79.638168,131.035828 
	C80.096672,131.090546 80.181053,131.169617 80.152718,131.620209 
	C80.117073,146.792664 80.036377,161.515305 80.192955,176.235428 
	C80.213104,178.129944 81.464172,180.011383 82.145035,181.898895 
z"/>
<path fill="#fff" opacity="1.000000" stroke="none" 
	d="
M10.718629,179.023972 
	C10.148736,177.319565 9.095748,175.618591 9.083586,173.910217 
	C8.960260,156.586197 9.006849,139.260986 8.999994,121.467285 
	C9.011449,119.669579 8.596220,118.110336 9.151404,117.067940 
	C9.908281,115.646858 11.402604,113.583328 12.584992,113.580521 
	C28.399544,113.542885 44.214737,113.825798 60.030018,114.007317 
	C64.105270,114.054092 68.188515,113.898201 72.251884,114.125313 
	C73.216316,114.179214 74.115471,115.400948 75.115540,116.461121 
	C75.186440,116.836746 75.040718,116.963814 74.518951,116.916626 
	C53.146416,116.869446 32.295647,116.869446 10.976731,116.869446 
	C10.976731,118.998444 10.983019,120.620667 10.975774,122.242813 
	C10.891237,141.169876 10.804663,160.096924 10.718629,179.023972 
z"/>
<path fill="#fff" opacity="1.000000" stroke="none" 
	d="
M87.957687,114.190033 
	C89.647057,113.793549 91.334633,113.061699 93.026077,113.052635 
	C109.320473,112.965385 125.616692,113.107277 141.909637,112.930084 
	C146.450241,112.880692 148.797958,114.570908 149.038895,119.080589 
	C149.374069,125.353874 149.871460,131.626053 149.957901,137.903412 
	C150.108978,148.875427 150.050369,159.851486 149.946320,170.824600 
	C149.930496,172.493210 149.198456,174.155045 148.399277,175.442749 
	C148.000412,160.148438 148.068176,145.230560 147.891129,130.315582 
	C147.873932,128.866226 146.343979,127.434822 145.416840,125.560959 
	C145.305222,122.751694 145.293015,120.376564 145.470062,117.736496 
	C144.066620,116.676750 142.470032,115.185585 140.881882,115.194542 
	C124.501808,115.286942 108.123474,115.660294 91.743324,115.813080 
	C90.486603,115.824806 89.219803,114.756386 87.957687,114.190033 
z"/>
<path fill="#fff" opacity="1.000000" stroke="none" 
	d="
M148.006104,176.998779 
	C152.009537,179.746902 147.123779,182.489410 147.743317,185.723511 
	C146.998291,186.473724 146.510849,186.735947 145.722076,186.705566 
	C143.611893,186.268875 141.803360,186.004410 139.994110,185.999374 
	C123.006264,185.952103 106.018295,185.949188 89.021423,185.536362 
	C89.002403,184.072739 88.992325,183.006226 89.451874,181.926697 
	C108.404892,181.913696 126.888283,181.913696 145.562500,181.913696 
	C145.815399,179.881561 145.995422,178.435028 146.480499,176.991730 
	C147.192398,176.996231 147.599243,176.997498 148.006104,176.998779 
z"/>
<path fill="#fff" opacity="1.000000" stroke="none" 
	d="
M285.185303,152.323242 
	C284.681549,145.421143 287.064331,142.060471 292.318054,141.721115 
	C297.250214,141.402527 300.863708,144.365234 301.239349,149.054291 
	C301.545746,152.879440 299.774872,155.614288 296.293823,156.805893 
	C291.689819,158.381927 287.761810,157.294083 285.185303,152.323242 
z"/>
<path fill="#fff" opacity="1.000000" stroke="none" 
	d="
M87.549118,114.157669 
	C89.219803,114.756386 90.486603,115.824806 91.743324,115.813080 
	C108.123474,115.660294 124.501808,115.286942 140.881882,115.194542 
	C142.470032,115.185585 144.066620,116.676750 144.993835,117.605408 
	C123.678894,117.739265 103.029427,117.739265 82.499893,117.739265 
	C81.987686,119.875916 81.612114,121.442604 80.921829,123.024796 
	C80.397247,123.031082 80.187386,123.021881 79.977531,123.012672 
	C79.794724,115.079918 79.794724,115.079918 87.549118,114.157669 
z"/>
<path fill="#fff" opacity="1.000000" stroke="none" 
	d="
M146.023392,186.998169 
	C146.510849,186.735947 146.998291,186.473724 147.742249,186.106232 
	C149.809845,189.563110 149.754059,189.547806 148.157486,195.369995 
	C147.816422,196.613724 148.012405,198.012863 148.011398,199.340439 
	C148.003113,210.306229 147.940399,221.272659 148.046860,232.237411 
	C148.079086,235.557297 147.635910,238.671997 150.327484,241.938583 
	C152.591003,244.685715 150.170609,248.151154 146.444336,249.569214 
	C145.877701,247.182617 145.694000,245.152466 145.510315,243.122314 
	C145.467178,242.618576 145.424057,242.114838 145.633331,240.894363 
	C145.939697,232.071625 146.082886,223.964951 146.021729,215.859818 
	C145.964554,208.281006 145.690643,200.703812 145.512131,193.125916 
	C145.339111,191.388916 145.166077,189.651932 145.189133,187.478745 
	C145.597931,187.027756 145.810669,187.012955 146.023392,186.998169 
z"/>
<path fill="#fff" opacity="1.000000" stroke="none" 
	d="
M148.005096,176.750000 
	C147.599243,176.997498 147.192398,176.996231 146.291656,176.960693 
	C145.797760,176.926422 145.417587,176.940048 145.345093,176.479553 
	C145.353790,159.344391 145.435013,142.669739 145.516235,125.995087 
	C146.343979,127.434822 147.873932,128.866226 147.891129,130.315582 
	C148.068176,145.230560 148.000412,160.148438 148.002884,175.534576 
	C148.004883,176.003662 148.004089,176.501221 148.005096,176.750000 
z"/>
<path fill="#fff" opacity="1.000000" stroke="none" 
	d="
M81.036934,249.018311 
	C82.754654,249.679291 84.468887,250.904190 86.190628,250.914841 
	C105.467308,251.034027 124.745148,250.966125 144.487183,250.944427 
	C143.365189,251.618332 141.782562,252.875763 140.191574,252.886459 
	C120.456718,253.019119 100.720634,252.970322 80.523026,252.964355 
	C79.900475,252.107712 79.739761,251.254974 79.477928,249.950653 
	C79.930183,249.338806 80.483559,249.178558 81.036934,249.018311 
z"/>
<path fill="#fff" opacity="1.000000" stroke="none" 
	d="
M79.703896,123.273949 
	C80.187386,123.021881 80.397247,123.031082 80.985573,123.464066 
	C81.345619,126.252617 81.327209,128.617401 81.023834,131.010834 
	C80.552940,131.082870 80.366997,131.126236 80.181053,131.169617 
	C80.181053,131.169617 80.096672,131.090546 80.054626,131.051147 
	C79.818466,128.519577 79.624367,126.027397 79.703896,123.273949 
z"/>
<path fill="#fff" opacity="1.000000" stroke="none" 
	d="
M145.368378,243.533249 
	C145.694000,245.152466 145.877701,247.182617 146.095337,249.620697 
	C146.129257,250.028625 145.735306,250.093033 145.536438,250.094452 
	C145.300552,248.045303 145.263504,245.994736 145.368378,243.533249 
z"/>
<path fill="#fff" opacity="1.000000" stroke="none" 
	d="
M11.159422,187.111221 
	C32.140705,187.128159 53.109810,187.128159 74.513977,187.128159 
	C74.513977,208.333832 74.513977,229.209869 74.513977,250.966858 
	C54.080593,250.966858 33.508247,250.966858 12.477549,251.057800 
	C12.019193,251.148743 11.587935,250.956467 11.330293,250.452881 
	C11.096646,229.008575 11.120642,208.067871 11.144638,187.127167 
	C11.144638,187.127167 11.147244,187.094284 11.159422,187.111221 
z"/>
<path fill="#fff" opacity="1.000000" stroke="none" 
	d="
M10.831970,179.271484 
	C10.804663,160.096924 10.891237,141.169876 10.975774,122.242813 
	C10.983019,120.620667 10.976731,118.998444 10.976731,116.869446 
	C32.295647,116.869446 53.146416,116.869446 74.447578,116.981842 
	C74.897972,137.863831 74.897972,158.633438 74.897972,180.215958 
	C53.759640,180.215958 32.794445,180.215958 11.411223,180.138672 
	C10.977233,179.880569 10.961272,179.699783 10.831970,179.271484 
M69.834457,129.211655 
	C70.217087,130.890961 70.918793,132.567886 70.931442,134.249969 
	C71.025337,146.742691 70.965591,159.236496 71.003510,171.729813 
	C71.008301,173.310516 71.300056,174.890366 71.458870,176.470612 
	C71.885651,176.429077 72.312439,176.387543 72.739220,176.346008 
	C72.829697,174.902206 72.997047,173.458481 72.998848,172.014572 
	C73.018547,156.189606 72.871964,140.362549 73.102188,124.540886 
	C73.167938,120.022652 71.497704,118.860481 67.256683,118.911942 
	C51.600567,119.101906 35.940739,118.977577 20.282326,118.990715 
	C14.085314,118.995911 13.005059,120.047897 12.996392,126.225922 
	C12.972380,143.341583 12.988071,160.457306 12.988071,177.792175 
	C13.598941,177.868225 14.232546,178.015579 14.866254,178.016022 
	C31.690697,178.027786 48.515228,178.045471 65.339432,177.980042 
	C66.567665,177.975266 67.793495,177.349533 69.026672,176.072525 
	C69.036720,160.385040 69.046768,144.697540 69.834457,129.211655 
z"/>
<path fill="#fff" opacity="1.000000" stroke="none" 
	d="
M10.755795,187.148560 
	C11.120642,208.067871 11.096646,229.008575 11.099264,250.404251 
	C10.467401,250.475861 9.306073,250.174820 9.227763,249.696487 
	C8.388817,244.572205 7.239424,239.432556 7.103823,234.272705 
	C6.794934,222.518967 6.728913,210.741348 7.160683,198.995361 
	C7.306826,195.019638 9.246763,191.109879 10.755795,187.148560 
z"/>
<path fill="#fff" opacity="1.000000" stroke="none" 
	d="
M530.480957,211.764709 
	C521.324341,206.320877 521.471130,187.887405 527.742493,180.861221 
	C534.832092,172.918289 549.776367,175.252441 552.663757,185.459213 
	C554.223938,190.974350 554.372742,197.429062 553.209656,203.057190 
	C551.057861,213.469528 541.150452,216.990265 530.480957,211.764709 
z"/>
<path fill="#fff" opacity="1.000000" stroke="none" 
	d="
M441.393066,182.810394 
	C445.045502,190.082230 445.000000,197.310394 442.800781,204.498138 
	C440.822510,210.963715 436.153137,214.024399 429.261658,214.086777 
	C422.193756,214.150742 416.546387,210.589340 414.497253,204.425247 
	C412.267365,197.717484 412.396606,190.955276 415.234802,184.438416 
	C419.664642,174.266907 433.747955,173.252335 441.393066,182.810394 
z"/>
<path fill="#fff" opacity="1.000000" stroke="none" 
	d="
M80.152718,131.620209 
	C80.366997,131.126236 80.552940,131.082870 81.221962,131.366302 
	C81.759178,146.183868 81.868050,160.674789 81.824364,175.165253 
	C81.814850,178.319992 82.415657,180.146622 86.161339,180.120514 
	C104.486900,179.992752 122.814529,180.114380 141.138535,179.900436 
	C142.576202,179.883636 143.991760,177.971375 145.417587,176.940048 
	C145.417587,176.940048 145.797760,176.926422 145.986603,176.957458 
	C145.995422,178.435028 145.815399,179.881561 145.562500,181.913696 
	C126.888283,181.913696 108.404892,181.913696 89.089645,181.923447 
	C87.163994,182.234726 86.070190,182.536255 84.976387,182.837799 
	C84.213654,182.614792 83.450920,182.391800 82.416611,182.033844 
	C81.464172,180.011383 80.213104,178.129944 80.192955,176.235428 
	C80.036377,161.515305 80.117073,146.792664 80.152718,131.620209 
z"/>
<path fill="#fff" opacity="1.000000" stroke="none" 
	d="
M145.722076,186.705566 
	C145.810669,187.012955 145.597931,187.027756 145.065002,187.058441 
	C125.440544,187.083496 106.135239,187.201340 86.832794,187.018097 
	C82.525635,186.977219 81.091049,188.177078 81.150803,192.644714 
	C81.388924,210.448166 81.238953,228.256805 80.918205,246.424225 
	C80.339264,246.577866 80.153458,246.315155 80.046318,245.996811 
	C80.046318,226.431778 80.046318,206.866730 80.046318,186.478638 
	C80.482430,186.412537 81.816254,186.210358 83.983795,186.005127 
	C86.221794,185.979233 87.626076,185.956360 89.030365,185.933472 
	C106.018295,185.949188 123.006264,185.952103 139.994110,185.999374 
	C141.803360,186.004410 143.611893,186.268875 145.722076,186.705566 
z"/>
<path fill="#fff" opacity="1.000000" stroke="none" 
	d="
M89.021423,185.536377 
	C87.626076,185.956360 86.221794,185.979233 84.395836,185.993500 
	C84.239334,185.149857 84.504501,184.314850 84.873032,183.158813 
	C86.070190,182.536255 87.163994,182.234726 88.620026,181.936447 
	C88.992325,183.006226 89.002403,184.072739 89.021423,185.536377 
z"/>
<path fill="#FFFFFF" opacity="1.000000" stroke="none" 
	d="
M79.766083,245.815979 
	C80.153458,246.315155 80.339264,246.577866 80.826912,246.884949 
	C81.069588,247.437286 81.089104,247.889633 81.072777,248.680145 
	C80.483559,249.178558 79.930183,249.338806 79.219093,249.746307 
	C78.468452,248.320160 77.875526,246.646805 77.282600,244.973434 
	C78.017021,245.194000 78.751442,245.414566 79.766083,245.815979 
z"/>
<path fill="#fff" opacity="1.000000" stroke="none" 
	d="
M85.418381,191.355621 
	C87.245415,190.661209 88.815666,190.030685 90.388657,190.023788 
	C106.687279,189.952148 122.987549,190.087585 139.284363,189.901917 
	C143.039917,189.859146 144.112686,191.018387 144.070816,194.722992 
	C143.890457,210.687271 143.895859,226.655792 144.067719,242.620239 
	C144.106522,246.223862 142.837357,247.193939 139.442566,247.081802 
	C132.963333,246.867783 126.470177,246.921967 119.986107,247.042526 
	C109.628662,247.235107 99.273857,247.706604 88.918137,247.700714 
	C87.413818,247.699860 84.619827,245.731125 84.600136,244.633942 
	C84.294479,227.598282 84.339638,210.556168 84.354660,193.515594 
	C84.355194,192.913162 84.881561,192.311188 85.418381,191.355621 
M95.177650,242.995346 
	C99.141006,242.806961 97.569550,241.160873 96.328743,239.418732 
	C91.623962,241.759964 91.029785,241.457306 91.014420,236.583755 
	C90.973015,223.455566 91.050568,210.326645 90.922424,197.199570 
	C90.909195,195.844681 89.830666,194.500198 89.246445,193.150879 
	C88.498009,194.501892 87.117569,195.844559 87.099594,197.205215 
	C86.932755,209.832794 86.997528,222.463486 87.001610,235.093262 
	C87.003639,241.353821 87.736366,242.131195 95.177650,242.995346 
z"/>
<path fill="#fff" opacity="1.000000" stroke="none" 
	d="
M145.371216,193.562653 
	C145.690643,200.703812 145.964554,208.281006 146.021729,215.859818 
	C146.082886,223.964951 145.939697,232.071625 145.700241,240.519592 
	C145.419952,225.240814 145.325134,209.620102 145.371216,193.562653 
z"/>
<path fill="#fff" opacity="1.000000" stroke="none" 
	d="
M145.345093,176.479553 
	C143.991760,177.971375 142.576202,179.883636 141.138535,179.900436 
	C122.814529,180.114380 104.486900,179.992752 86.161339,180.120514 
	C82.415657,180.146622 81.814850,178.319992 81.824364,175.165253 
	C81.868050,160.674789 81.759178,146.183868 81.506927,131.337646 
	C81.327209,128.617401 81.345619,126.252617 81.300285,123.448563 
	C81.612114,121.442604 81.987686,119.875916 82.499893,117.739265 
	C103.029427,117.739265 123.678894,117.739265 144.804581,117.870346 
	C145.293015,120.376564 145.305222,122.751694 145.416840,125.560959 
	C145.435013,142.669739 145.353790,159.344391 145.345093,176.479553 
z"/>
<path fill="#fff" opacity="1.000000" stroke="none" 
	d="
M69.020439,177.012497 
	C67.793495,177.349533 66.567665,177.975266 65.339432,177.980042 
	C48.515228,178.045471 31.690697,178.027786 14.866254,178.016022 
	C14.232546,178.015579 13.598941,177.868225 12.988071,177.792175 
	C12.988071,160.457306 12.972380,143.341583 12.996392,126.225922 
	C13.005059,120.047897 14.085314,118.995911 20.282326,118.990715 
	C35.940739,118.977577 51.600567,119.101906 67.256683,118.911942 
	C71.497704,118.860481 73.167938,120.022652 73.102188,124.540886 
	C72.871964,140.362549 73.018547,156.189606 72.998848,172.014572 
	C72.997047,173.458481 72.829697,174.902206 72.739220,176.346008 
	C72.312439,176.387543 71.885651,176.429077 71.458870,176.470612 
	C71.300056,174.890366 71.008301,173.310516 71.003510,171.729813 
	C70.965591,159.236496 71.025337,146.742691 70.931442,134.249969 
	C70.918793,132.567886 70.217087,130.890961 69.041222,129.192535 
	C67.841606,129.824005 67.083862,130.472763 67.080490,131.125427 
	C67.006302,145.480011 66.977745,159.835297 67.095566,174.189209 
	C67.103333,175.135498 68.350014,176.071640 69.020439,177.012497 
z"/>
<path fill="#fff" opacity="1.000000" stroke="none" 
	d="
M69.023560,176.542511 
	C68.350014,176.071640 67.103333,175.135498 67.095566,174.189209 
	C66.977745,159.835297 67.006302,145.480011 67.080490,131.125427 
	C67.083862,130.472763 67.841606,129.824005 68.652405,129.091736 
	C69.046768,144.697540 69.036720,160.385040 69.023560,176.542511 
z"/>
<path fill="#fff" opacity="1.000000" stroke="none" 
	d="
M94.782990,242.996643 
	C87.736366,242.131195 87.003639,241.353821 87.001610,235.093262 
	C86.997528,222.463486 86.932755,209.832794 87.099594,197.205215 
	C87.117569,195.844559 88.498009,194.501892 89.246445,193.150879 
	C89.830666,194.500198 90.909195,195.844681 90.922424,197.199570 
	C91.050568,210.326645 90.973015,223.455566 91.014420,236.583755 
	C91.029785,241.457306 91.623962,241.759964 96.328743,239.418732 
	C97.569550,241.160873 99.141006,242.806961 94.782990,242.996643 
z"/>
</svg>