<svg version="1.1" id="Layer_1" xmlns="http://www.w3.org/2000/svg" xmlns:xlink="http://www.w3.org/1999/xlink" x="0px" y="0px"
	 width="100%" viewBox="0 0 1000 1000" enable-background="new 0 0 1000 1000" xml:space="preserve">
<path fill="transparent" opacity="1.000000" stroke="none" 
	d="
M641.000000,1001.000000 
	C427.333344,1001.000000 214.166672,1001.000000 1.000000,1001.000000 
	C1.000000,667.666687 1.000000,334.333344 1.000000,1.000000 
	C334.333344,1.000000 667.666687,1.000000 1001.000000,1.000000 
	C1001.000000,334.333344 1001.000000,667.666687 1001.000000,1001.000000 
	C881.166687,1001.000000 761.333313,1001.000000 641.000000,1001.000000 
M601.625610,290.756165 
	C601.625610,290.756165 601.667542,290.598022 602.800232,290.938110 
	C603.182190,291.034363 603.564087,291.130646 603.800659,291.980743 
	C601.958008,298.061523 598.480530,301.873901 591.522827,301.773987 
	C588.116943,301.725067 584.698181,302.568237 579.751526,303.205139 
	C582.367493,305.521210 584.226562,306.864319 585.680725,308.555573 
	C586.740784,309.788422 587.266846,311.480408 587.511719,313.597839 
	C585.036499,311.403351 582.057373,309.569550 580.180237,306.946991 
	C574.477722,298.980072 566.652832,301.544800 558.010010,301.381073 
	C563.536743,310.370453 572.710510,305.878387 579.228699,309.605103 
	C577.047485,311.925354 574.978821,314.125916 572.398132,316.871033 
	C578.454285,316.871033 583.665222,316.871033 588.906311,316.871033 
	C588.594910,315.490021 588.309998,314.226318 588.538147,312.239441 
	C591.315369,313.888641 594.533691,315.259979 593.843018,319.414764 
	C593.362488,322.305054 592.707336,325.166260 591.326416,328.049683 
	C590.790710,328.060181 590.255005,328.070679 589.030334,327.733337 
	C582.591003,327.640747 576.151611,327.497772 569.712280,327.494843 
	C568.297058,327.494171 566.051575,327.139557 566.510620,330.244080 
	C565.914307,330.568695 565.317993,330.893311 564.166321,330.629547 
	C560.301514,321.285583 567.595825,316.740234 573.201477,310.748566 
	C561.819702,311.662903 555.309326,306.361176 552.112427,295.468414 
	C549.414185,306.973114 542.010559,311.260040 530.729980,310.514435 
	C535.396851,316.898438 544.565979,319.681610 539.255737,328.996338 
	C538.499634,328.675049 537.743469,328.353790 536.989685,328.011108 
	C536.989685,328.011108 536.970215,328.002228 536.844299,327.210724 
	C535.484802,326.838440 534.125977,326.143524 532.765808,326.141052 
	C498.854462,326.078918 464.942932,326.069519 431.031769,326.161804 
	C429.663666,326.165558 428.298523,327.253571 426.715942,328.358765 
	C426.650696,328.535522 426.585449,328.712280 425.919525,329.148438 
	C426.155792,330.800415 426.392059,332.452362 426.740265,334.872314 
	C426.684082,335.902893 426.627869,336.933472 426.067291,338.382019 
	C426.341553,339.926971 426.615814,341.471893 427.604248,343.352448 
	C428.390167,343.408173 429.176056,343.463898 430.270294,344.210846 
	C432.204987,344.446075 434.139618,344.886108 436.074402,344.886993 
	C508.102417,344.920197 580.130432,344.912933 652.158447,344.910980 
	C694.772095,344.909821 737.385864,344.935059 779.999268,344.838165 
	C782.460999,344.832550 784.920532,343.832367 787.981201,342.938751 
	C788.300415,339.275360 788.624390,335.612396 788.937500,331.948456 
	C789.321716,327.452484 787.378113,325.954010 782.793884,325.978058 
	C750.160583,326.149384 717.525757,326.017853 684.892090,326.152924 
	C681.920715,326.165222 678.954346,327.373352 675.670837,327.298767 
	C674.134888,323.237335 675.001221,320.000305 678.649841,317.396912 
	C680.965393,315.744690 682.988525,313.682739 685.142822,311.804504 
	C685.053772,311.261139 684.964661,310.717804 684.875610,310.174469 
	C673.494995,311.709808 667.077393,306.118896 663.503296,295.391815 
	C661.475037,307.756866 653.201965,310.611938 642.732361,310.524597 
	C642.790100,311.003937 642.847839,311.483246 642.905640,311.962585 
	C646.000000,314.905853 649.094421,317.849121 652.073059,321.484222 
	C652.127441,322.667206 652.181885,323.850220 652.234070,325.779816 
	C652.106812,326.514648 651.979553,327.249512 651.133972,328.001892 
	C650.415527,328.006927 649.697021,328.011932 648.245056,327.749878 
	C647.475342,327.628601 646.705688,327.507294 645.211975,327.040863 
	C639.829834,327.157593 634.447693,327.274323 628.366699,327.559784 
	C627.908630,327.696014 627.450500,327.832214 626.585327,327.645477 
	C625.922668,328.280212 625.259949,328.914948 624.528564,329.387909 
	C624.528564,329.387909 624.571350,329.217438 624.849915,328.436310 
	C624.392761,326.604309 623.935608,324.772308 623.221558,322.105011 
	C622.667603,318.560120 621.474365,314.720581 627.781433,314.540161 
	C628.013916,315.383759 628.224304,316.955322 628.482178,316.963135 
	C633.317383,317.109772 638.158203,317.070984 642.997864,317.070984 
	C643.456421,316.333344 643.914978,315.595703 644.373535,314.858063 
	C641.784607,313.181458 639.195618,311.504852 635.557129,309.148560 
	C640.988281,308.335846 644.722473,307.760468 648.461792,307.220947 
	C656.002808,306.132965 656.003967,306.141052 656.641113,301.493164 
	C642.818604,300.639740 642.826721,300.647919 633.276184,310.170746 
	C631.870056,311.572784 630.398376,312.924377 628.833618,314.140411 
	C628.473206,314.420502 627.603638,314.045441 626.584473,313.323029 
	C629.555054,310.096741 632.525574,306.870483 635.882446,303.224579 
	C626.630188,300.990936 615.136780,304.061981 613.221680,291.012238 
	C614.073730,291.036926 614.925720,291.061584 616.397461,291.066772 
	C616.598999,291.112518 616.800537,291.158295 617.592224,291.713531 
	C620.397522,291.541504 623.202820,291.369476 626.907043,291.068939 
	C629.933716,291.109894 632.960388,291.150848 636.373169,291.645752 
	C637.253052,291.493011 638.132935,291.340302 639.938354,291.058960 
	C645.288696,291.102386 650.639038,291.145844 656.432800,291.662079 
	C658.293945,291.502625 660.155151,291.343140 662.459167,291.046021 
	C662.459167,291.046021 662.912659,290.949005 663.636536,291.020905 
	C664.119995,290.996246 664.603516,290.971588 666.011292,291.014069 
	C706.391846,291.014069 746.772339,291.014069 787.226440,291.014069 
	C787.226440,285.255951 787.226440,280.327209 787.226440,275.334656 
	C666.992004,275.334656 547.004028,275.334656 426.157990,275.334656 
	C426.807434,280.910828 427.404785,286.039734 428.523132,291.664642 
	C430.351685,291.509247 432.180237,291.353882 434.936768,291.069550 
	C471.955200,291.105408 508.973633,291.141266 546.561340,291.687775 
	C548.732117,291.385712 550.902893,291.083679 553.714600,290.929626 
	C554.143555,291.017609 554.572449,291.105591 555.628906,291.734253 
	C562.088440,291.558044 568.548035,291.381836 575.659302,291.083435 
	C576.097717,291.123077 576.536072,291.162750 577.159302,291.527863 
	C577.448059,291.418671 577.736877,291.309479 578.846619,291.071533 
	C580.228333,291.112305 581.610107,291.153076 583.628052,291.724884 
	C588.070618,291.824219 592.516174,292.054108 596.954163,291.953308 
	C598.541809,291.917236 600.111328,291.081787 601.625610,290.756165 
M332.345673,521.567322 
	C324.944122,537.202637 315.668396,542.640686 299.143921,541.032471 
	C286.615540,539.813171 277.090881,530.758972 273.676910,515.829956 
	C272.095612,508.915100 271.037384,501.719025 270.989685,494.642029 
	C270.731323,456.323303 270.863251,418.001953 270.860748,379.681488 
	C270.860626,377.748688 270.860748,375.815857 270.860748,373.747925 
	C251.798203,373.747925 233.412979,373.747925 214.807449,373.747925 
	C214.714737,375.045349 214.584641,376.015533 214.584854,376.985718 
	C214.593353,415.306122 214.194214,453.633881 214.869766,491.942719 
	C215.093307,504.620422 216.899124,517.555481 220.059402,529.838257 
	C227.174149,557.490601 244.667923,575.661865 272.896851,582.662415 
	C288.639191,586.566406 304.590759,586.874939 320.527466,584.732483 
	C343.553345,581.637085 363.410217,572.375549 376.714478,552.447449 
	C388.567352,534.693359 392.464874,514.488037 392.584717,493.541138 
	C392.806824,454.722137 392.648926,415.900940 392.629700,377.080658 
	C392.629150,375.986023 392.406921,374.891479 392.275726,373.683350 
	C373.697266,373.683350 355.452148,373.683350 336.698486,373.683350 
	C336.698486,375.568756 336.698456,377.192017 336.698517,378.815277 
	C336.699585,414.469971 336.741760,450.124695 336.678589,485.779297 
	C336.657654,497.602509 336.511810,509.442230 332.345673,521.567322 
M624.500000,582.214294 
	C631.164001,582.217041 637.834167,582.052124 644.489380,582.295288 
	C647.668823,582.411499 648.641724,581.255432 649.292175,578.238953 
	C651.427979,568.333862 653.964111,558.514465 656.391541,548.673279 
	C657.608215,543.740234 658.922668,538.831177 660.207031,533.856567 
	C677.449280,533.856567 694.099243,533.940369 710.746887,533.780701 
	C713.810059,533.751343 714.249573,535.527710 714.829956,537.650146 
	C718.512573,551.116333 722.302612,564.554443 725.821472,578.063232 
	C726.623840,581.143494 727.762878,582.366089 731.144470,582.301514 
	C743.135437,582.072266 755.133423,582.213623 767.128784,582.214233 
	C773.759766,582.214600 780.390686,582.214294 787.604919,582.214294 
	C787.035095,580.206238 786.653931,578.803528 786.239502,577.410767 
	C776.237793,543.798645 766.239868,510.185394 756.225769,476.576965 
	C746.355530,443.451172 736.440125,410.338776 726.640625,377.192078 
	C725.839294,374.481750 724.959595,373.067200 721.699829,373.092194 
	C699.209778,373.264557 676.717957,373.239807 654.227051,373.166687 
	C651.642212,373.158295 650.493347,373.865051 649.744995,376.508728 
	C644.087097,396.494537 638.219055,416.420837 632.429810,436.369507 
	C620.479675,477.547302 608.530151,518.725281 596.599609,559.908752 
	C594.499634,567.157654 592.492981,574.433533 590.297241,582.214355 
	C601.873901,582.214355 612.686951,582.214355 624.500000,582.214294 
M431.017395,542.377991 
	C428.652069,552.532410 426.286743,562.686829 423.855347,573.125000 
	C426.894745,574.406738 429.583862,575.695129 432.376465,576.694092 
	C455.842285,585.087891 480.039978,587.459229 504.693359,584.700806 
	C520.566895,582.924683 535.606995,578.348633 548.901489,569.015808 
	C577.517090,548.927368 583.416016,507.373840 561.139954,481.347382 
	C551.471802,470.051483 538.626282,463.407074 525.123596,457.844940 
	C513.752136,453.160767 502.310944,448.614441 491.145721,443.474670 
	C485.557281,440.902100 481.867218,436.272156 482.920319,429.471375 
	C483.917999,423.028687 488.539612,419.232971 494.275116,418.320892 
	C502.714874,416.978699 511.532959,415.800079 519.911621,416.825531 
	C531.484680,418.241913 542.798767,421.774200 554.799438,424.532562 
	C558.405334,410.752106 562.251160,396.054565 566.158569,381.121674 
	C564.327515,380.310760 562.861816,379.574127 561.335388,378.998962 
	C542.344788,371.844177 522.616150,369.382629 502.479889,370.453827 
	C483.589722,371.458801 465.723511,375.952362 450.033325,387.307495 
	C420.474670,408.699280 415.015503,455.569000 448.337952,479.741302 
	C458.303711,486.970612 469.951508,491.969666 481.082794,497.476746 
	C490.581818,502.176208 500.575958,505.873322 510.086761,510.551178 
	C514.197021,512.572754 516.793945,516.451355 517.055847,521.429626 
	C517.451538,528.950806 513.749939,534.409302 505.719910,537.019714 
	C489.834534,542.183899 474.070312,539.418884 458.518738,535.374634 
	C450.422302,533.269165 442.593231,530.135559 434.423340,527.392456 
	C433.316162,532.179871 432.232697,536.864746 431.017395,542.377991 
M335.480774,313.500122 
	C335.480774,300.756042 335.480774,288.011963 335.480774,275.376251 
	C328.858093,275.376251 322.966370,275.376251 316.724915,275.376251 
	C316.724915,283.741394 316.724915,291.686096 316.724915,299.802795 
	C309.348694,299.802795 302.348724,299.802795 294.813110,299.802795 
	C294.813110,291.291077 294.813110,283.226654 294.813110,275.201294 
	C288.489227,275.201294 282.712952,275.201294 277.055603,275.201294 
	C276.783478,275.724396 276.502045,276.013275 276.501190,276.302948 
	C276.439880,297.775848 276.368134,319.248993 276.469604,340.721283 
	C276.473999,341.658478 278.045959,343.351166 278.951172,343.395447 
	C284.206512,343.652649 289.480896,343.521240 295.196594,343.521240 
	C295.196594,334.201843 295.196594,325.605499 295.196594,316.921143 
	C302.577026,316.921143 309.480530,316.921143 316.866486,316.921143 
	C316.866486,325.829010 316.866486,334.417145 316.866486,343.204407 
	C323.242126,343.204407 329.123993,343.204407 335.480316,343.204407 
	C335.480316,333.399872 335.480316,323.950012 335.480774,313.500122 
M351.049133,343.521576 
	C365.117554,343.521576 379.185974,343.521576 393.617950,343.521576 
	C393.617950,339.152130 393.458069,335.659332 393.665100,332.188446 
	C393.853973,329.022278 392.477264,328.202728 389.544067,328.274719 
	C383.054382,328.434021 376.552429,328.461456 370.069092,328.202362 
	C368.759186,328.150024 366.580597,326.747009 366.407776,325.701385 
	C365.909637,322.687469 366.231842,319.537994 366.231842,315.810852 
	C374.850952,315.810852 382.737152,315.810852 390.610413,315.810852 
	C390.610413,310.576355 390.610413,305.996002 390.610413,300.841797 
	C382.407745,300.841797 374.516022,300.841797 366.487061,300.841797 
	C366.487061,297.169495 366.487061,294.080841 366.487061,290.306946 
	C375.107819,290.306946 383.497925,290.306946 391.905029,290.306946 
	C391.905029,284.871979 391.905029,280.129120 391.905029,275.373779 
	C377.034332,275.373779 362.505524,275.373779 347.723328,275.373779 
	C347.723328,297.254913 347.686584,318.727081 347.828033,340.198029 
	C347.835388,341.312500 349.363190,342.416962 351.049133,343.521576 
M259.413300,274.981964 
	C244.630371,274.981964 229.847443,274.981964 214.868988,274.981964 
	C214.868988,280.422424 214.868988,285.477844 214.868988,291.012848 
	C220.637222,291.012848 226.055923,291.012848 232.016937,291.012848 
	C232.016937,308.686066 232.016937,325.881805 232.016937,343.134705 
	C238.469055,343.134705 244.350464,343.134705 250.842102,343.134705 
	C250.842102,325.556854 250.842102,308.357605 250.842102,290.668030 
	C256.869202,290.668030 262.283936,290.668030 267.958862,290.668030 
	C267.958862,285.238861 267.958862,280.315094 267.958862,274.978973 
	C265.285492,274.978973 262.831512,274.978973 259.413300,274.981964 
M453.500061,301.289520 
	C444.733765,301.289520 435.967468,301.289520 427.109375,301.289520 
	C427.109375,306.815125 427.109375,311.838074 427.109375,316.736328 
	C462.118652,316.736328 496.736481,316.736328 531.354309,316.736328 
	C531.742798,316.218292 532.131348,315.700226 532.519836,315.182190 
	C529.981995,313.410156 527.444153,311.638153 523.858643,309.134644 
	C529.190186,308.358246 532.922974,307.806702 536.658142,307.272430 
	C544.291687,306.180573 544.292236,306.184418 544.818604,301.289673 
	C514.697205,301.289673 484.598633,301.289673 453.500061,301.289520 
M686.787659,308.157196 
	C688.143250,308.496613 689.498840,308.835999 692.504333,309.588470 
	C689.156616,312.338470 686.793213,314.279907 683.638977,316.870941 
	C718.913818,316.870941 752.943298,316.870941 787.146912,316.870941 
	C787.146912,311.724915 787.146912,306.802155 787.146912,301.629944 
	C748.219971,301.629944 709.572571,301.629944 670.925171,301.629944 
	C670.682190,302.122864 670.439270,302.615753 670.196289,303.108673 
	C672.144775,304.364655 673.943970,306.155060 676.076904,306.750854 
	C679.244080,307.635590 682.647400,307.674683 686.787659,308.157196 
M324.500092,606.669006 
	C287.942688,606.669006 251.385254,606.669006 214.967010,606.669006 
	C214.967010,663.026062 214.967010,718.434937 214.967010,773.911255 
	C405.817352,773.911255 596.311279,773.911255 786.782776,773.911255 
	C786.782776,717.999207 786.782776,662.457642 786.782776,606.669006 
	C632.739929,606.669006 479.120026,606.669006 324.500092,606.669006 
z"/>
<path fill="#fff" opacity="1.000000" stroke="none" 
	d="
M332.487915,521.200562 
	C336.511810,509.442230 336.657654,497.602509 336.678589,485.779297 
	C336.741760,450.124695 336.699585,414.469971 336.698517,378.815277 
	C336.698456,377.192017 336.698486,375.568756 336.698486,373.683350 
	C355.452148,373.683350 373.697266,373.683350 392.275726,373.683350 
	C392.406921,374.891479 392.629150,375.986023 392.629700,377.080658 
	C392.648926,415.900940 392.806824,454.722137 392.584717,493.541138 
	C392.464874,514.488037 388.567352,534.693359 376.714478,552.447449 
	C363.410217,572.375549 343.553345,581.637085 320.527466,584.732483 
	C304.590759,586.874939 288.639191,586.566406 272.896851,582.662415 
	C244.667923,575.661865 227.174149,557.490601 220.059402,529.838257 
	C216.899124,517.555481 215.093307,504.620422 214.869766,491.942719 
	C214.194214,453.633881 214.593353,415.306122 214.584854,376.985718 
	C214.584641,376.015533 214.714737,375.045349 214.807449,373.747925 
	C233.412979,373.747925 251.798203,373.747925 270.860748,373.747925 
	C270.860748,375.815857 270.860626,377.748688 270.860748,379.681488 
	C270.863251,418.001953 270.731323,456.323303 270.989685,494.642029 
	C271.037384,501.719025 272.095612,508.915100 273.676910,515.829956 
	C277.090881,530.758972 286.615540,539.813171 299.143921,541.032471 
	C315.668396,542.640686 324.944122,537.202637 332.487915,521.200562 
z"/>
<path fill="#fff" opacity="1.000000" stroke="none" 
	d="
M624.000000,582.214355 
	C612.686951,582.214355 601.873901,582.214355 590.297241,582.214355 
	C592.492981,574.433533 594.499634,567.157654 596.599609,559.908752 
	C608.530151,518.725281 620.479675,477.547302 632.429810,436.369507 
	C638.219055,416.420837 644.087097,396.494537 649.744995,376.508728 
	C650.493347,373.865051 651.642212,373.158295 654.227051,373.166687 
	C676.717957,373.239807 699.209778,373.264557 721.699829,373.092194 
	C724.959595,373.067200 725.839294,374.481750 726.640625,377.192078 
	C736.440125,410.338776 746.355530,443.451172 756.225769,476.576965 
	C766.239868,510.185394 776.237793,543.798645 786.239502,577.410767 
	C786.653931,578.803528 787.035095,580.206238 787.604919,582.214294 
	C780.390686,582.214294 773.759766,582.214600 767.128784,582.214233 
	C755.133423,582.213623 743.135437,582.072266 731.144470,582.301514 
	C727.762878,582.366089 726.623840,581.143494 725.821472,578.063232 
	C722.302612,564.554443 718.512573,551.116333 714.829956,537.650146 
	C714.249573,535.527710 713.810059,533.751343 710.746887,533.780701 
	C694.099243,533.940369 677.449280,533.856567 660.207031,533.856567 
	C658.922668,538.831177 657.608215,543.740234 656.391541,548.673279 
	C653.964111,558.514465 651.427979,568.333862 649.292175,578.238953 
	C648.641724,581.255432 647.668823,582.411499 644.489380,582.295288 
	C637.834167,582.052124 631.164001,582.217041 624.000000,582.214355 
M671.533691,475.951904 
	C670.259460,481.235046 668.985168,486.518219 667.697021,491.858826 
	C680.705933,491.858826 693.168640,491.858826 705.874329,491.858826 
	C699.258972,465.951080 692.783386,440.590607 686.307739,415.230164 
	C686.006531,415.300507 685.705322,415.370880 685.404114,415.441223 
	C680.848694,435.341370 676.293274,455.241486 671.533691,475.951904 
z"/>
<path fill="#fff" opacity="1.000000" stroke="none" 
	d="
M431.083313,541.963745 
	C432.232697,536.864746 433.316162,532.179871 434.423340,527.392456 
	C442.593231,530.135559 450.422302,533.269165 458.518738,535.374634 
	C474.070312,539.418884 489.834534,542.183899 505.719910,537.019714 
	C513.749939,534.409302 517.451538,528.950806 517.055847,521.429626 
	C516.793945,516.451355 514.197021,512.572754 510.086761,510.551178 
	C500.575958,505.873322 490.581818,502.176208 481.082794,497.476746 
	C469.951508,491.969666 458.303711,486.970612 448.337952,479.741302 
	C415.015503,455.569000 420.474670,408.699280 450.033325,387.307495 
	C465.723511,375.952362 483.589722,371.458801 502.479889,370.453827 
	C522.616150,369.382629 542.344788,371.844177 561.335388,378.998962 
	C562.861816,379.574127 564.327515,380.310760 566.158569,381.121674 
	C562.251160,396.054565 558.405334,410.752106 554.799438,424.532562 
	C542.798767,421.774200 531.484680,418.241913 519.911621,416.825531 
	C511.532959,415.800079 502.714874,416.978699 494.275116,418.320892 
	C488.539612,419.232971 483.917999,423.028687 482.920319,429.471375 
	C481.867218,436.272156 485.557281,440.902100 491.145721,443.474670 
	C502.310944,448.614441 513.752136,453.160767 525.123596,457.844940 
	C538.626282,463.407074 551.471802,470.051483 561.139954,481.347382 
	C583.416016,507.373840 577.517090,548.927368 548.901489,569.015808 
	C535.606995,578.348633 520.566895,582.924683 504.693359,584.700806 
	C480.039978,587.459229 455.842285,585.087891 432.376465,576.694092 
	C429.583862,575.695129 426.894745,574.406738 423.855347,573.125000 
	C426.286743,562.686829 428.652069,552.532410 431.083313,541.963745 
z"/>
<path fill="#fff" opacity="1.000000" stroke="none" 
	d="
M635.987061,291.191803 
	C632.960388,291.150848 629.933716,291.109894 626.020569,291.009033 
	C622.423401,291.034119 619.712769,291.119110 617.002075,291.204071 
	C616.800537,291.158295 616.598999,291.112518 615.911377,290.788116 
	C613.139038,286.177795 610.852844,281.846130 608.149292,276.723755 
	C605.799622,281.753235 603.733582,286.175629 601.667542,290.598022 
	C601.667542,290.598022 601.625610,290.756165 601.216675,290.753906 
	C594.869080,290.899017 588.930420,291.046448 582.991821,291.193878 
	C581.610107,291.153076 580.228333,291.112305 578.173157,291.041443 
	C577.324585,291.075073 577.149536,291.138733 576.974487,291.202393 
	C576.536072,291.162750 576.097717,291.123077 574.879028,291.019745 
	C567.732971,291.035217 561.367188,291.114410 555.001404,291.193573 
	C554.572449,291.105591 554.143555,291.017609 553.362122,290.546509 
	C550.670471,290.501282 548.331238,290.839203 545.992065,291.177124 
	C508.973633,291.141266 471.955200,291.105408 434.054810,291.017151 
	C431.449280,291.032715 429.725677,291.100708 428.002136,291.168671 
	C427.404785,286.039734 426.807434,280.910828 426.157990,275.334656 
	C547.004028,275.334656 666.992004,275.334656 787.226440,275.334656 
	C787.226440,280.327209 787.226440,285.255951 787.226440,291.014069 
	C746.772339,291.014069 706.391846,291.014069 665.457642,290.710815 
	C664.514893,289.997284 664.125732,289.586945 664.220093,289.118286 
	C704.596252,289.059937 744.489075,289.059937 784.487549,289.059937 
	C784.487549,286.915131 784.289734,285.435120 784.521545,284.025787 
	C785.568848,277.657867 785.093994,276.889374 778.789001,277.038971 
	C771.669067,277.207825 764.556702,277.901428 757.439697,277.923309 
	C751.323669,277.942108 745.203003,277.022461 739.089111,277.074310 
	C727.395325,277.173370 715.706665,277.816345 704.012512,277.959747 
	C690.448853,278.126099 676.880798,278.074890 663.316101,277.953796 
	C658.861633,277.914032 654.408447,277.058960 649.960449,277.107788 
	C641.177063,277.204132 632.399475,277.806213 623.615967,277.915710 
	C620.291992,277.957153 616.958252,277.215576 613.139099,276.774323 
	C615.105469,281.309174 616.659485,284.893005 618.524475,289.194031 
	C633.048218,289.194031 648.172791,289.194031 663.219727,289.484375 
	C663.065552,290.166168 662.989075,290.557587 662.912659,290.949005 
	C662.912659,290.949005 662.459167,291.046021 661.819214,290.994812 
	C659.449341,291.025513 657.719360,291.107422 655.989380,291.189301 
	C650.639038,291.145844 645.288696,291.102386 639.106934,291.000244 
	C637.512695,291.024933 636.749878,291.108368 635.987061,291.191803 
z"/>
<path fill="#fff" opacity="1.000000" stroke="none" 
	d="
M335.480530,314.000122 
	C335.480316,323.950012 335.480316,333.399872 335.480316,343.204407 
	C329.123993,343.204407 323.242126,343.204407 316.866486,343.204407 
	C316.866486,334.417145 316.866486,325.829010 316.866486,316.921143 
	C309.480530,316.921143 302.577026,316.921143 295.196594,316.921143 
	C295.196594,325.605499 295.196594,334.201843 295.196594,343.521240 
	C289.480896,343.521240 284.206512,343.652649 278.951172,343.395447 
	C278.045959,343.351166 276.473999,341.658478 276.469604,340.721283 
	C276.368134,319.248993 276.439880,297.775848 276.501190,276.302948 
	C276.502045,276.013275 276.783478,275.724396 277.055603,275.201294 
	C282.712952,275.201294 288.489227,275.201294 294.813110,275.201294 
	C294.813110,283.226654 294.813110,291.291077 294.813110,299.802795 
	C302.348724,299.802795 309.348694,299.802795 316.724915,299.802795 
	C316.724915,291.686096 316.724915,283.741394 316.724915,275.376251 
	C322.966370,275.376251 328.858093,275.376251 335.480774,275.376251 
	C335.480774,288.011963 335.480774,300.756042 335.480530,314.000122 
z"/>
<path fill="#fff" opacity="1.000000" stroke="none" 
	d="
M350.616119,343.523834 
	C349.363190,342.416962 347.835388,341.312500 347.828033,340.198029 
	C347.686584,318.727081 347.723328,297.254913 347.723328,275.373779 
	C362.505524,275.373779 377.034332,275.373779 391.905029,275.373779 
	C391.905029,280.129120 391.905029,284.871979 391.905029,290.306946 
	C383.497925,290.306946 375.107819,290.306946 366.487061,290.306946 
	C366.487061,294.080841 366.487061,297.169495 366.487061,300.841797 
	C374.516022,300.841797 382.407745,300.841797 390.610413,300.841797 
	C390.610413,305.996002 390.610413,310.576355 390.610413,315.810852 
	C382.737152,315.810852 374.850952,315.810852 366.231842,315.810852 
	C366.231842,319.537994 365.909637,322.687469 366.407776,325.701385 
	C366.580597,326.747009 368.759186,328.150024 370.069092,328.202362 
	C376.552429,328.461456 383.054382,328.434021 389.544067,328.274719 
	C392.477264,328.202728 393.853973,329.022278 393.665100,332.188446 
	C393.458069,335.659332 393.617950,339.152130 393.617950,343.521576 
	C379.185974,343.521576 365.117554,343.521576 350.616119,343.523834 
z"/>
<path fill="#fff" opacity="1.000000" stroke="none" 
	d="
M259.895416,274.980469 
	C262.831512,274.978973 265.285492,274.978973 267.958862,274.978973 
	C267.958862,280.315094 267.958862,285.238861 267.958862,290.668030 
	C262.283936,290.668030 256.869202,290.668030 250.842102,290.668030 
	C250.842102,308.357605 250.842102,325.556854 250.842102,343.134705 
	C244.350464,343.134705 238.469055,343.134705 232.016937,343.134705 
	C232.016937,325.881805 232.016937,308.686066 232.016937,291.012848 
	C226.055923,291.012848 220.637222,291.012848 214.868988,291.012848 
	C214.868988,285.477844 214.868988,280.422424 214.868988,274.981964 
	C229.847443,274.981964 244.630371,274.981964 259.895416,274.980469 
z"/>
<path fill="#fff" opacity="1.000000" stroke="none" 
	d="
M454.000061,301.289612 
	C484.598633,301.289673 514.697205,301.289673 544.818604,301.289673 
	C544.292236,306.184418 544.291687,306.180573 536.658142,307.272430 
	C532.922974,307.806702 529.190186,308.358246 523.858643,309.134644 
	C527.444153,311.638153 529.981995,313.410156 532.519836,315.182190 
	C532.131348,315.700226 531.742798,316.218292 531.354309,316.736328 
	C496.736481,316.736328 462.118652,316.736328 427.109375,316.736328 
	C427.109375,311.838074 427.109375,306.815125 427.109375,301.289520 
	C435.967468,301.289520 444.733765,301.289520 454.000061,301.289612 
z"/>
<path fill="#fff" opacity="1.000000" stroke="none" 
	d="
M686.368958,308.115448 
	C682.647400,307.674683 679.244080,307.635590 676.076904,306.750854 
	C673.943970,306.155060 672.144775,304.364655 670.196289,303.108673 
	C670.439270,302.615753 670.682190,302.122864 670.925171,301.629944 
	C709.572571,301.629944 748.219971,301.629944 787.146912,301.629944 
	C787.146912,306.802155 787.146912,311.724915 787.146912,316.870941 
	C752.943298,316.870941 718.913818,316.870941 683.638977,316.870941 
	C686.793213,314.279907 689.156616,312.338470 692.504333,309.588470 
	C689.498840,308.835999 688.143250,308.496613 686.368958,308.115448 
z"/>
<path fill="#fff" opacity="1.000000" stroke="none" 
	d="
M325.000092,606.669006 
	C479.120026,606.669006 632.739929,606.669006 786.782776,606.669006 
	C786.782776,662.457642 786.782776,717.999207 786.782776,773.911255 
	C596.311279,773.911255 405.817352,773.911255 214.967010,773.911255 
	C214.967010,718.434937 214.967010,663.026062 214.967010,606.669006 
	C251.385254,606.669006 287.942688,606.669006 325.000092,606.669006 
M774.467529,772.997559 
	C775.633850,772.997559 776.800171,772.997742 777.966492,772.997498 
	C785.284973,772.995789 785.790588,772.507385 785.986633,765.236755 
	C786.000122,764.737183 785.989746,764.237000 785.989746,763.737061 
	C785.989929,714.243958 785.992798,664.750854 785.987000,615.257751 
	C785.986267,608.677307 785.332397,608.006775 778.903870,608.003906 
	C756.740295,607.994141 734.576721,608.000916 712.413147,608.001099 
	C549.602539,608.002563 386.791931,608.003235 223.981308,608.007324 
	C216.003265,608.007507 216.002090,608.021484 216.002029,616.113525 
	C216.001648,665.273315 216.000870,714.433167 216.005981,763.592957 
	C216.006149,765.257874 215.614456,767.119934 216.228867,768.531799 
	C216.833694,769.921814 218.377090,771.665405 219.700424,771.845581 
	C224.775436,772.536499 229.927414,772.953796 235.050827,772.955261 
	C414.525787,773.005859 594.000732,772.997559 774.467529,772.997559 
z"/>
<path fill="#fff" opacity="1.000000" stroke="none" 
	d="
M626.973633,313.966339 
	C621.474365,314.720581 622.667603,318.560120 623.289673,322.880676 
	C623.762329,325.510040 624.166870,327.363739 624.571350,329.217438 
	C624.571350,329.217438 624.528564,329.387909 624.558228,329.854187 
	C624.726013,331.874207 624.864136,333.428009 625.067383,335.713806 
	C619.939636,333.076233 615.623230,330.591583 611.073425,328.655457 
	C609.424316,327.953674 606.959900,327.971863 605.313599,328.687622 
	C600.713074,330.687927 596.345642,333.224457 591.416260,335.794342 
	C591.711182,332.590942 591.920654,330.315704 592.130127,328.040466 
	C592.707336,325.166260 593.362488,322.305054 593.843018,319.414764 
	C594.533691,315.259979 591.315369,313.888641 588.268066,312.620544 
	C587.998047,313.001648 588.030884,312.967712 588.030884,312.967712 
	C587.266846,311.480408 586.740784,309.788422 585.680725,308.555573 
	C584.226562,306.864319 582.367493,305.521210 579.751526,303.205139 
	C584.698181,302.568237 588.116943,301.725067 591.522827,301.773987 
	C598.480530,301.873901 601.958008,298.061523 604.102173,291.404785 
	C605.672180,288.412872 606.940674,285.996887 608.359253,283.295135 
	C609.829651,286.128876 611.097656,288.572510 612.365662,291.016174 
	C615.136780,304.061981 626.630188,300.990936 635.882446,303.224579 
	C632.525574,306.870483 629.555054,310.096741 626.794067,313.663513 
	C627.003601,314.004028 626.973633,313.966339 626.973633,313.966339 
z"/>
<path fill="#fff" opacity="1.000000" stroke="none" 
	d="
M652.188843,320.792419 
	C649.094421,317.849121 646.000000,314.905853 642.905640,311.962585 
	C642.847839,311.483246 642.790100,311.003937 642.732361,310.524597 
	C653.201965,310.611938 661.475037,307.756866 663.503296,295.391815 
	C667.077393,306.118896 673.494995,311.709808 684.875610,310.174469 
	C684.964661,310.717804 685.053772,311.261139 685.142822,311.804504 
	C682.988525,313.682739 680.965393,315.744690 678.649841,317.396912 
	C675.001221,320.000305 674.134888,323.237335 675.790588,328.051849 
	C676.216370,330.958130 676.522400,333.111298 676.877258,335.608063 
	C672.147522,333.389343 667.985168,329.911987 663.826843,329.916840 
	C659.702942,329.921692 655.583191,333.434113 651.104065,335.579437 
	C651.376099,332.817932 651.614197,330.401154 651.852295,327.984344 
	C651.979553,327.249512 652.106812,326.514648 652.453369,325.147949 
	C652.511353,323.274872 652.350098,322.033630 652.188843,320.792419 
z"/>
<path fill="#fff" opacity="1.000000" stroke="none" 
	d="
M539.878723,328.995148 
	C544.565979,319.681610 535.396851,316.898438 530.729980,310.514435 
	C542.010559,311.260040 549.414185,306.973114 552.112427,295.468414 
	C555.309326,306.361176 561.819702,311.662903 573.201477,310.748566 
	C567.595825,316.740234 560.301514,321.285583 564.462036,331.312500 
	C564.685608,333.007019 564.613586,334.018646 564.447388,336.351501 
	C556.017395,327.871796 547.852051,329.210052 539.284912,336.231689 
	C539.563110,332.841370 539.720947,330.918274 539.878723,328.995148 
z"/>
<path fill="#fff" opacity="1.000000" stroke="none" 
	d="
M787.381042,343.295013 
	C784.920532,343.832367 782.460999,344.832550 779.999268,344.838165 
	C737.385864,344.935059 694.772095,344.909821 652.158447,344.910980 
	C580.130432,344.912933 508.102417,344.920197 436.074402,344.886993 
	C434.139618,344.886108 432.204987,344.446075 430.571167,343.739563 
	C435.023560,343.244019 439.175079,343.207306 443.326630,343.197327 
	C476.539337,343.117645 509.752075,343.042999 543.307983,343.031952 
	C544.113708,343.060760 544.576111,343.024414 545.497437,343.079346 
	C570.971863,343.112274 595.987305,343.053925 621.374756,343.070953 
	C622.500610,343.100983 623.254456,343.055634 624.408081,343.078674 
	C627.080444,342.836609 629.353088,342.526184 631.673340,342.224731 
	C631.721008,342.233734 631.735352,342.329590 632.020264,342.672760 
	C639.206970,343.007660 646.108704,342.999359 653.404968,343.068420 
	C654.867004,343.093750 655.934631,343.041748 657.463867,343.065430 
	C662.957031,343.082275 667.988403,343.023407 673.344971,343.034729 
	C674.106873,343.049500 674.543640,342.994110 675.441223,343.041382 
	C680.551636,343.157776 685.201416,343.190216 689.851013,343.182312 
	C722.235901,343.127228 754.620728,343.063812 787.100952,343.074188 
	C787.196289,343.145325 787.381042,343.295013 787.381042,343.295013 
z"/>
<path fill="#fff" opacity="1.000000" stroke="none" 
	d="
M651.493164,327.993103 
	C651.614197,330.401154 651.376099,332.817932 651.104065,335.579437 
	C655.583191,333.434113 659.702942,329.921692 663.826843,329.916840 
	C667.985168,329.911987 672.147522,333.389343 676.877258,335.608063 
	C676.522400,333.111298 676.216370,330.958130 675.947998,328.415527 
	C678.954346,327.373352 681.920715,326.165222 684.892090,326.152924 
	C717.525757,326.017853 750.160583,326.149384 782.793884,325.978058 
	C787.378113,325.954010 789.321716,327.452484 788.937500,331.948456 
	C788.624390,335.612396 788.300415,339.275360 787.681152,343.116882 
	C787.381042,343.295013 787.196289,343.145325 787.153076,342.608673 
	C787.109802,337.481018 787.109802,332.890015 787.109802,328.062561 
	C750.780273,328.062561 715.112427,328.062561 678.959045,328.062561 
	C679.696350,331.926270 680.372253,335.468475 681.013062,339.342773 
	C681.020935,340.118439 681.063843,340.561920 680.856201,341.157898 
	C678.062500,340.226105 675.519409,339.141876 672.823975,337.800171 
	C672.106506,337.427338 671.541382,337.312012 670.658691,337.116821 
	C669.913147,336.953430 669.485046,336.869843 668.862488,336.514038 
	C664.436157,331.361359 660.729004,334.287750 656.675537,336.998779 
	C655.237854,337.657043 654.133728,338.341980 653.020935,339.016541 
	C653.012268,339.006104 653.025635,339.032288 652.677734,339.066589 
	C650.705017,339.843323 649.080200,340.585724 646.596863,341.720398 
	C647.474304,336.671997 648.226440,332.344482 648.978577,328.016937 
	C649.697021,328.011932 650.415527,328.006927 651.493164,327.993103 
z"/>
<path fill="#fff" opacity="1.000000" stroke="none" 
	d="
M542.964783,342.966797 
	C509.752075,343.042999 476.539337,343.117645 443.326630,343.197327 
	C439.175079,343.207306 435.023560,343.244019 430.416992,343.393951 
	C429.176056,343.463898 428.390167,343.408173 427.270660,342.760803 
	C426.815277,340.767426 426.693481,339.365753 426.571655,337.964050 
	C426.627869,336.933472 426.684082,335.902893 426.815308,334.063660 
	C426.766937,331.799683 426.643555,330.344391 426.520172,328.889069 
	C426.585449,328.712280 426.650696,328.535522 427.296692,328.116608 
	C464.241730,327.917023 500.605957,327.959625 536.970215,328.002228 
	C536.970215,328.002228 536.989685,328.011108 536.931580,328.418304 
	C536.278992,332.779480 535.684448,336.733459 535.030029,341.085999 
	C537.540466,340.499695 539.521606,340.037018 541.649536,339.916412 
	C542.185852,341.161255 542.575317,342.064026 542.964783,342.966797 
M467.500000,329.003021 
	C457.686920,329.005280 447.873505,328.965942 438.061035,329.044891 
	C436.101349,329.060638 434.150604,329.690704 432.186493,329.755371 
	C427.232880,329.918335 427.944733,333.446014 428.048889,336.561005 
	C428.162781,339.967682 430.295288,341.018585 433.396240,341.016571 
	C465.164032,340.995972 496.931824,341.018921 528.699524,340.961578 
	C529.916016,340.959381 531.663879,340.655304 532.260132,339.834900 
	C535.917236,334.803040 533.646179,329.951752 527.372742,329.102905 
	C526.063843,328.925812 524.716370,329.013306 523.386719,329.012787 
	C505.091156,329.005890 486.795563,329.004944 467.500000,329.003021 
z"/>
<path fill="#fff" opacity="1.000000" stroke="none" 
	d="
M536.907227,327.606476 
	C500.605957,327.959625 464.241730,327.917023 427.404724,327.855408 
	C428.298523,327.253571 429.663666,326.165558 431.031769,326.161804 
	C464.942932,326.069519 498.854462,326.078918 532.765808,326.141052 
	C534.125977,326.143524 535.484802,326.838440 536.907227,327.606476 
z"/>
<path fill="#fff" opacity="1.000000" stroke="none" 
	d="
M588.011597,312.982147 
	C588.309998,314.226318 588.594910,315.490021 588.906311,316.871033 
	C583.665222,316.871033 578.454285,316.871033 572.398132,316.871033 
	C574.978821,314.125916 577.047485,311.925354 579.228699,309.605103 
	C572.710510,305.878387 563.536743,310.370453 558.010010,301.381073 
	C566.652832,301.544800 574.477722,298.980072 580.180237,306.946991 
	C582.057373,309.569550 585.036499,311.403351 587.771301,313.282776 
	C588.030884,312.967712 587.998047,313.001648 588.011597,312.982147 
z"/>
<path fill="#fff" opacity="1.000000" stroke="none" 
	d="
M591.728271,328.045074 
	C591.920654,330.315704 591.711182,332.590942 591.416260,335.794342 
	C596.345642,333.224457 600.713074,330.687927 605.313599,328.687622 
	C606.959900,327.971863 609.424316,327.953674 611.073425,328.655457 
	C615.623230,330.591583 619.939636,333.076233 625.067383,335.713806 
	C624.864136,333.428009 624.726013,331.874207 624.592590,329.935059 
	C625.259949,328.914948 625.922668,328.280212 626.824707,328.214691 
	C627.731689,332.706421 628.399170,336.628937 629.092346,340.702271 
	C625.623718,339.546570 622.855347,338.624176 619.865356,337.443542 
	C617.903015,336.316010 615.881348,335.765289 614.470703,334.521545 
	C608.809082,329.529816 603.810974,332.297974 598.755859,335.500061 
	C596.856750,336.702972 594.937134,337.873352 592.679504,339.020020 
	C590.885986,339.566589 589.439819,340.151733 587.340576,341.001129 
	C588.208252,336.288239 588.963745,332.184723 589.719299,328.081177 
	C590.255005,328.070679 590.790710,328.060181 591.728271,328.045074 
z"/>
<path fill="#fff" opacity="1.000000" stroke="none" 
	d="
M626.985962,313.987976 
	C627.603638,314.045441 628.473206,314.420502 628.833618,314.140411 
	C630.398376,312.924377 631.870056,311.572784 633.276184,310.170746 
	C642.826721,300.647919 642.818604,300.639740 656.641113,301.493164 
	C656.003967,306.141052 656.002808,306.132965 648.461792,307.220947 
	C644.722473,307.760468 640.988281,308.335846 635.557129,309.148560 
	C639.195618,311.504852 641.784607,313.181458 644.373535,314.858063 
	C643.914978,315.595703 643.456421,316.333344 642.997864,317.070984 
	C638.158203,317.070984 633.317383,317.109772 628.482178,316.963135 
	C628.224304,316.955322 628.013916,315.383759 627.377563,314.253235 
	C626.973633,313.966339 627.003601,314.004028 626.985962,313.987976 
z"/>
<path fill="#fff" opacity="1.000000" stroke="none" 
	d="
M589.374817,327.907257 
	C588.963745,332.184723 588.208252,336.288239 587.340576,341.001129 
	C589.439819,340.151733 590.885986,339.566589 592.691406,339.431335 
	C594.267273,340.588379 595.451904,341.830139 596.706238,341.905212 
	C600.957092,342.159546 605.237671,341.871765 609.497192,342.038422 
	C613.339050,342.188721 617.168091,342.663757 621.002808,342.995605 
	C595.987305,343.053925 570.971863,343.112274 545.786865,342.785156 
	C549.854431,342.270050 554.123779,342.401306 558.312256,341.880890 
	C559.961670,341.675934 561.430359,340.016052 563.319214,339.049866 
	C565.715088,339.744202 567.773132,340.407379 570.297485,341.046875 
	C575.296387,341.300842 579.828918,341.578552 584.755249,341.880402 
	C585.207886,338.223083 585.818237,335.001160 585.870483,331.770203 
	C585.885071,330.864380 584.272949,329.161255 583.380066,329.143036 
	C579.141418,329.056458 574.590027,328.630402 570.815674,330.070160 
	C569.519226,330.564758 570.158997,336.127869 569.905396,339.374786 
	C569.879761,339.702881 569.792969,340.026184 569.507812,340.028015 
	C568.565125,336.459290 567.849243,333.214264 567.133362,329.969238 
	C566.051575,327.139557 568.297058,327.494171 569.712280,327.494843 
	C576.151611,327.497772 582.591003,327.640747 589.374817,327.907257 
z"/>
<path fill="#fff" opacity="1.000000" stroke="none" 
	d="
M569.831177,341.070557 
	C567.773132,340.407379 565.715088,339.744202 563.326843,339.041809 
	C562.996643,339.002625 562.984009,339.019257 562.816040,338.782837 
	C562.119690,338.327209 561.591248,338.108032 561.034241,337.915131 
	C561.005615,337.941437 561.082581,337.952484 560.988342,337.731812 
	C560.668884,337.224396 560.380493,337.129303 559.808472,337.115845 
	C559.588074,337.005829 559.096680,336.970306 558.910889,336.715485 
	C558.127563,336.272888 557.530151,336.085144 556.855713,335.833008 
	C556.778748,335.768646 556.599060,335.858063 556.338135,335.541321 
	C553.000000,332.767944 550.143799,333.173065 547.190186,335.925537 
	C546.281189,336.326355 545.648071,336.691101 544.688721,337.115479 
	C543.435364,337.960266 542.508118,338.745422 541.564087,339.546204 
	C541.547302,339.561859 541.502747,339.574310 541.502747,339.574341 
	C539.521606,340.037018 537.540466,340.499695 535.030029,341.085999 
	C535.684448,336.733459 536.278992,332.779480 536.930420,328.429016 
	C537.743469,328.353790 538.499634,328.675049 539.567261,328.995728 
	C539.720947,330.918274 539.563110,332.841370 539.284912,336.231689 
	C547.852051,329.210052 556.017395,327.871796 564.447388,336.351501 
	C564.613586,334.018646 564.685608,333.007019 564.739685,331.606689 
	C565.317993,330.893311 565.914307,330.568695 566.822021,330.106659 
	C567.849243,333.214264 568.565125,336.459290 569.488220,340.213440 
	C569.695374,340.722534 569.831177,341.070557 569.831177,341.070557 
z"/>
<path fill="#fff" opacity="1.000000" stroke="none" 
	d="
M620.086975,337.701813 
	C622.855347,338.624176 625.623718,339.546570 629.092346,340.702271 
	C628.399170,336.628937 627.731689,332.706421 627.028320,328.376160 
	C627.450500,327.832214 627.908630,327.696014 629.156494,327.623413 
	C635.276123,327.586670 640.606079,327.486328 645.935974,327.386017 
	C646.705688,327.507294 647.475342,327.628601 648.611816,327.883423 
	C648.226440,332.344482 647.474304,336.671997 646.596863,341.720398 
	C649.080200,340.585724 650.705017,339.843323 652.677612,339.462463 
	C653.020386,340.879730 653.015442,341.935394 653.010498,342.991058 
	C646.108704,342.999359 639.206970,343.007660 632.506348,342.585052 
	C636.637268,342.154175 640.567078,342.154175 644.596191,342.154175 
	C644.819763,340.008881 644.843567,338.687256 645.108826,337.415955 
	C646.661560,329.974030 646.030884,329.187012 638.166992,329.005798 
	C637.336365,328.986633 636.505005,329.002808 635.673950,329.004303 
	C629.870667,329.014740 628.387207,331.514038 630.640564,337.101166 
	C631.277893,338.681458 631.313965,340.504211 631.625732,342.215759 
	C629.353088,342.526184 627.080444,342.836609 624.371155,342.733765 
	C622.651978,340.780914 621.369507,339.241364 620.086975,337.701813 
z"/>
<path fill="#fff" opacity="1.000000" stroke="none" 
	d="
M612.793701,291.014221 
	C611.097656,288.572510 609.829651,286.128876 608.359253,283.295135 
	C606.940674,285.996887 605.672180,288.412872 604.174805,291.027893 
	C603.564087,291.130646 603.182190,291.034363 602.233887,290.768066 
	C603.733582,286.175629 605.799622,281.753235 608.149292,276.723755 
	C610.852844,281.846130 613.139038,286.177795 615.601501,290.797852 
	C614.925720,291.061584 614.073730,291.036926 612.793701,291.014221 
z"/>
<path fill="#fff" opacity="1.000000" stroke="none" 
	d="
M555.315186,291.463928 
	C561.367188,291.114410 567.732971,291.035217 574.553162,291.080841 
	C568.548035,291.381836 562.088440,291.558044 555.315186,291.463928 
z"/>
<path fill="#fff" opacity="1.000000" stroke="none" 
	d="
M583.309937,291.459381 
	C588.930420,291.046448 594.869080,290.899017 601.248413,290.681427 
	C600.111328,291.081787 598.541809,291.917236 596.954163,291.953308 
	C592.516174,292.054108 588.070618,291.824219 583.309937,291.459381 
z"/>
<path fill="#fff" opacity="1.000000" stroke="none" 
	d="
M645.573975,327.213440 
	C640.606079,327.486328 635.276123,327.586670 629.505859,327.539032 
	C634.447693,327.274323 639.829834,327.157593 645.573975,327.213440 
z"/>
<path fill="#fff" opacity="1.000000" stroke="none" 
	d="
M546.276733,291.432434 
	C548.331238,290.839203 550.670471,290.501282 553.041626,290.472473 
	C550.902893,291.083679 548.732117,291.385712 546.276733,291.432434 
z"/>
<path fill="#fff" opacity="1.000000" stroke="none" 
	d="
M426.219849,329.018738 
	C426.643555,330.344391 426.766937,331.799683 426.759338,333.679688 
	C426.392059,332.452362 426.155792,330.800415 426.219849,329.018738 
z"/>
<path fill="#fff" opacity="1.000000" stroke="none" 
	d="
M426.319489,338.173035 
	C426.693481,339.365753 426.815277,340.767426 426.913574,342.592987 
	C426.615814,341.471893 426.341553,339.926971 426.319489,338.173035 
z"/>
<path fill="#fff" opacity="1.000000" stroke="none" 
	d="
M617.297119,291.458801 
	C619.712769,291.119110 622.423401,291.034119 625.571106,291.073303 
	C623.202820,291.369476 620.397522,291.541504 617.297119,291.458801 
z"/>
<path fill="#fff" opacity="1.000000" stroke="none" 
	d="
M624.710632,328.826874 
	C624.166870,327.363739 623.762329,325.510040 623.418152,323.298309 
	C623.935608,324.772308 624.392761,326.604309 624.710632,328.826874 
z"/>
<path fill="#fff" opacity="1.000000" stroke="none" 
	d="
M656.211060,291.425690 
	C657.719360,291.107422 659.449341,291.025513 661.597778,291.063660 
	C660.155151,291.343140 658.293945,291.502625 656.211060,291.425690 
z"/>
<path fill="#fff" opacity="1.000000" stroke="none" 
	d="
M652.130981,321.138306 
	C652.350098,322.033630 652.511353,323.274872 652.454468,324.774658 
	C652.181885,323.850220 652.127441,322.667206 652.130981,321.138306 
z"/>
<path fill="#fff" opacity="1.000000" stroke="none" 
	d="
M428.262634,291.416656 
	C429.725677,291.100708 431.449280,291.032715 433.590820,291.081604 
	C432.180237,291.353882 430.351685,291.509247 428.262634,291.416656 
z"/>
<path fill="#fff" opacity="1.000000" stroke="none" 
	d="
M636.180115,291.418762 
	C636.749878,291.108368 637.512695,291.024933 638.644165,291.064514 
	C638.132935,291.340302 637.253052,291.493011 636.180115,291.418762 
z"/>
<path fill="#fff" opacity="1.000000" stroke="none" 
	d="
M663.736633,289.176636 
	C664.125732,289.586945 664.514893,289.997284 664.995483,290.677246 
	C664.603516,290.971588 664.119995,290.996246 663.274597,290.984955 
	C662.989075,290.557587 663.065552,290.166168 663.330933,289.513214 
	C663.519836,289.251678 663.736633,289.176636 663.736633,289.176636 
z"/>
<path fill="#fff" opacity="1.000000" stroke="none" 
	d="
M577.066895,291.365112 
	C577.149536,291.138733 577.324585,291.075073 577.762695,291.105835 
	C577.736877,291.309479 577.448059,291.418671 577.066895,291.365112 
z"/>
<path fill="#fff" opacity="1.000000" stroke="none" 
	d="
M671.635742,475.546753 
	C676.293274,455.241486 680.848694,435.341370 685.404114,415.441223 
	C685.705322,415.370880 686.006531,415.300507 686.307739,415.230164 
	C692.783386,440.590607 699.258972,465.951080 705.874329,491.858826 
	C693.168640,491.858826 680.705933,491.858826 667.697021,491.858826 
	C668.985168,486.518219 670.259460,481.235046 671.635742,475.546753 
z"/>
<path fill="#fff" opacity="1.000000" stroke="none" 
	d="
M664.220093,289.118286 
	C663.736633,289.176636 663.519836,289.251678 663.408569,289.222839 
	C648.172791,289.194031 633.048218,289.194031 618.524475,289.194031 
	C616.659485,284.893005 615.105469,281.309174 613.139099,276.774323 
	C616.958252,277.215576 620.291992,277.957153 623.615967,277.915710 
	C632.399475,277.806213 641.177063,277.204132 649.960449,277.107788 
	C654.408447,277.058960 658.861633,277.914032 663.316101,277.953796 
	C676.880798,278.074890 690.448853,278.126099 704.012512,277.959747 
	C715.706665,277.816345 727.395325,277.173370 739.089111,277.074310 
	C745.203003,277.022461 751.323669,277.942108 757.439697,277.923309 
	C764.556702,277.901428 771.669067,277.207825 778.789001,277.038971 
	C785.093994,276.889374 785.568848,277.657867 784.521545,284.025787 
	C784.289734,285.435120 784.487549,286.915131 784.487549,289.059937 
	C744.489075,289.059937 704.596252,289.059937 664.220093,289.118286 
M748.682739,286.847687 
	C748.896423,286.466766 749.110046,286.085846 749.323669,285.704926 
	C746.445679,285.508423 743.567688,285.311951 740.689758,285.115448 
	C740.688782,285.733887 740.687744,286.352325 740.686768,286.970764 
	C743.085938,286.970764 745.485107,286.970764 748.682739,286.847687 
z"/>
<path fill="#fff" opacity="1.000000" stroke="none" 
	d="
M773.971619,772.997559 
	C594.000732,772.997559 414.525787,773.005859 235.050827,772.955261 
	C229.927414,772.953796 224.775436,772.536499 219.700424,771.845581 
	C218.377090,771.665405 216.833694,769.921814 216.228867,768.531799 
	C215.614456,767.119934 216.006149,765.257874 216.005981,763.592957 
	C216.000870,714.433167 216.001648,665.273315 216.002029,616.113525 
	C216.002090,608.021484 216.003265,608.007507 223.981308,608.007324 
	C386.791931,608.003235 549.602539,608.002563 712.413147,608.001099 
	C734.576721,608.000916 756.740295,607.994141 778.903870,608.003906 
	C785.332397,608.006775 785.986267,608.677307 785.987000,615.257751 
	C785.992798,664.750854 785.989929,714.243958 785.989746,763.737061 
	C785.989746,764.237000 786.000122,764.737183 785.986633,765.236755 
	C785.790588,772.507385 785.284973,772.995789 777.966492,772.997498 
	C776.800171,772.997742 775.633850,772.997559 773.971619,772.997559 
M598.275330,645.885803 
	C598.476746,645.078308 598.694458,644.274475 598.877075,643.462769 
	C600.313477,637.076477 600.410583,636.401367 593.715210,635.417542 
	C582.910156,633.829834 571.895691,631.922119 561.082153,632.450806 
	C521.977600,634.362915 499.435364,658.156738 500.156281,695.483704 
	C500.640411,720.550659 516.662048,740.298523 541.033875,746.202148 
	C560.690002,750.963318 579.979736,748.836426 599.244507,743.917969 
	C602.898560,742.985107 604.289307,741.530579 604.238953,737.599182 
	C604.017212,720.281738 604.141602,702.959961 604.140686,685.639709 
	C604.140564,683.867920 604.140686,682.096191 604.140686,680.264465 
	C588.800720,680.264465 574.124939,680.264465 559.509338,680.264465 
	C559.509338,688.278625 559.509338,695.824768 559.509338,703.954346 
	C564.658997,703.954346 569.388977,703.954346 574.420349,703.954346 
	C574.420349,709.699341 574.611511,714.860352 574.284424,719.988342 
	C574.203735,721.252563 572.572449,723.297424 571.422363,723.473877 
	C562.639404,724.821228 554.104431,723.900208 546.465515,718.941345 
	C534.748413,711.335388 529.740417,695.568848 533.831116,679.742310 
	C537.098572,667.100769 547.809204,658.214050 562.134705,658.008423 
	C572.781372,657.855530 583.453247,659.461548 594.692505,660.328796 
	C595.610291,656.621460 596.839417,651.656067 598.275330,645.885803 
M464.864532,644.650146 
	C463.942017,641.631042 463.193573,638.540894 462.005493,635.630188 
	C461.571289,634.566345 460.102203,633.217590 459.089752,633.204590 
	C446.299438,633.040344 433.506256,633.096619 420.394379,633.096619 
	C409.296204,671.386292 398.283356,709.381714 387.120575,747.894348 
	C396.991669,747.894348 405.964508,747.732727 414.926300,747.976746 
	C418.342804,748.069702 419.501434,746.704468 420.138947,743.623779 
	C421.417175,737.447021 423.189056,731.372864 424.484467,725.199158 
	C425.135742,722.095154 426.369354,720.805420 429.778687,720.951599 
	C436.757324,721.250732 443.766144,721.229431 450.746368,720.944275 
	C454.107117,720.806946 455.372894,722.147400 456.098602,725.164307 
	C457.614197,731.465210 459.299347,737.732544 461.181519,743.932678 
	C461.629425,745.407959 463.096710,747.667358 464.147186,747.696533 
	C474.367065,747.980957 484.598022,747.867615 495.518951,747.867615 
	C485.207397,713.212646 475.123596,679.323120 464.864532,644.650146 
M699.052795,747.695251 
	C699.497009,739.415710 699.941223,731.136230 700.418579,722.239624 
	C684.305115,722.239624 669.413391,722.239624 654.431335,722.239624 
	C654.431335,715.087341 654.431335,708.533020 654.431335,701.482666 
	C668.071533,701.482666 681.336731,701.482666 694.646057,701.482666 
	C694.646057,693.067078 694.646057,685.160889 694.646057,676.770142 
	C681.058777,676.770142 667.811218,676.770142 654.450500,676.770142 
	C654.450500,670.404785 654.450500,664.538574 654.450500,658.151367 
	C668.924500,658.151367 683.008911,658.151367 697.288696,658.151367 
	C697.288696,649.556091 697.288696,641.493774 697.288696,633.380249 
	C672.510315,633.380249 648.102173,633.380249 623.483032,633.380249 
	C623.483032,671.592407 623.483032,709.479492 623.483032,747.876892 
	C648.568726,747.876892 673.351196,747.876892 699.052795,747.695251 
M387.591125,659.113892 
	C383.625946,644.583252 373.244629,637.088379 359.255981,634.238892 
	C341.925751,630.708557 324.471405,632.484680 307.041504,633.922546 
	C302.985901,634.257080 301.778076,635.640442 301.795135,639.696899 
	C301.940063,674.171143 301.865601,708.646301 301.876953,743.121155 
	C301.877411,744.563721 302.075317,746.006287 302.192261,747.599243 
	C312.263885,747.599243 321.994019,747.599243 332.309326,747.599243 
	C332.309326,734.734558 332.309326,722.160767 332.309326,708.828735 
	C338.330048,708.828735 343.806915,709.210754 349.215546,708.764771 
	C377.621887,706.422424 393.469360,686.264709 387.591125,659.113892 
z"/>
<path fill="#fff" opacity="1.000000" stroke="none" 
	d="
M681.048157,339.010651 
	C680.372253,335.468475 679.696350,331.926270 678.959045,328.062561 
	C715.112427,328.062561 750.780273,328.062561 787.109802,328.062561 
	C787.109802,332.890015 787.109802,337.481018 787.057739,342.537537 
	C754.620728,343.063812 722.235901,343.127228 689.851013,343.182312 
	C685.201416,343.190216 680.551636,343.157776 675.436768,342.692017 
	C674.306458,340.845856 673.641418,339.451752 672.976318,338.057617 
	C675.519409,339.141876 678.062500,340.226105 681.263855,341.210632 
	C683.875061,341.401672 685.827515,341.942535 687.780945,341.945862 
	C718.249634,341.997986 748.718567,341.936401 779.187073,342.028839 
	C783.554016,342.042084 786.263611,341.079254 786.046875,335.966370 
	C785.803406,330.221588 784.792358,329.021576 778.934265,329.019562 
	C747.966003,329.008972 716.997742,329.006348 686.029480,329.022705 
	C684.468933,329.023529 682.908447,329.226257 681.932251,329.294281 
	C681.593201,333.020660 681.320679,336.015656 681.048157,339.010651 
z"/>
<path fill="#fff" opacity="1.000000" stroke="none" 
	d="
M619.865356,337.443542 
	C621.369507,339.241364 622.651978,340.780914 623.971436,342.665375 
	C623.254456,343.055634 622.500610,343.100983 621.374756,343.070984 
	C617.168091,342.663757 613.339050,342.188721 609.497192,342.038422 
	C605.237671,341.871765 600.957092,342.159546 596.706238,341.905212 
	C595.451904,341.830139 594.267273,340.588379 593.038757,339.469940 
	C594.937134,337.873352 596.856750,336.702972 598.755859,335.500061 
	C603.810974,332.297974 608.809082,329.529816 614.470703,334.521545 
	C615.881348,335.765289 617.903015,336.316010 619.865356,337.443542 
z"/>
<path fill="#fff" opacity="1.000000" stroke="none" 
	d="
M672.823975,337.800171 
	C673.641418,339.451752 674.306458,340.845856 674.976013,342.589355 
	C674.543640,342.994110 674.106873,343.049500 673.045044,342.743439 
	C667.280762,342.584564 662.141479,342.787140 657.002197,342.989746 
	C655.934631,343.041748 654.867004,343.093750 653.404968,343.068420 
	C653.015442,341.935394 653.020386,340.879730 653.025513,339.428162 
	C653.025635,339.032288 653.012268,339.006104 653.393250,339.022369 
	C654.852539,338.367554 655.930847,337.696503 657.009155,337.025421 
	C660.729004,334.287750 664.436157,331.361359 668.951355,336.767975 
	C669.815186,337.261627 670.395691,337.229126 670.976196,337.196655 
	C671.541382,337.312012 672.106506,337.427338 672.823975,337.800171 
z"/>
<path fill="#fff" opacity="1.000000" stroke="none" 
	d="
M559.096680,336.970306 
	C559.096680,336.970306 559.588074,337.005829 559.937256,337.296875 
	C560.509644,337.801392 560.775085,337.922913 561.082581,337.952484 
	C561.082581,337.952484 561.005615,337.941437 561.167480,338.186584 
	C561.880859,338.627594 562.432434,338.823425 562.984009,339.019257 
	C562.984009,339.019257 562.996643,339.002625 562.989014,339.010681 
	C561.430359,340.016052 559.961670,341.675934 558.312256,341.880890 
	C554.123779,342.401306 549.854431,342.270050 545.328003,342.693909 
	C544.576111,343.024414 544.113708,343.060760 543.307983,343.031952 
	C542.575317,342.064026 542.185852,341.161255 541.649536,339.916382 
	C541.502747,339.574310 541.547302,339.561859 541.916626,339.617340 
	C543.195618,338.800476 544.105225,337.928162 545.014893,337.055847 
	C545.648071,336.691101 546.281189,336.326355 547.621338,335.953552 
	C551.085266,335.916351 553.842163,335.887207 556.599060,335.858063 
	C556.599060,335.858063 556.778748,335.768646 557.033691,336.104919 
	C557.891296,336.617554 558.493958,336.793945 559.096680,336.970306 
z"/>
<path fill="#fff" opacity="1.000000" stroke="none" 
	d="
M657.463867,343.065460 
	C662.141479,342.787140 667.280762,342.584564 672.719971,342.673248 
	C667.988403,343.023407 662.957031,343.082275 657.463867,343.065460 
z"/>
<path fill="#fff" opacity="1.000000" stroke="none" 
	d="
M681.013062,339.342773 
	C681.320679,336.015656 681.593201,333.020660 681.932251,329.294281 
	C682.908447,329.226257 684.468933,329.023529 686.029480,329.022705 
	C716.997742,329.006348 747.966003,329.008972 778.934265,329.019562 
	C784.792358,329.021576 785.803406,330.221588 786.046875,335.966370 
	C786.263611,341.079254 783.554016,342.042084 779.187073,342.028839 
	C748.718567,341.936401 718.249634,341.997986 687.780945,341.945862 
	C685.827515,341.942535 683.875061,341.401672 681.514465,341.058167 
	C681.063843,340.561920 681.020935,340.118439 681.013062,339.342773 
z"/>
<path fill="#fff" opacity="1.000000" stroke="none" 
	d="
M656.675537,336.998779 
	C655.930847,337.696503 654.852539,338.367554 653.401917,339.032776 
	C654.133728,338.341980 655.237854,337.657043 656.675537,336.998779 
z"/>
<path fill="#fff" opacity="1.000000" stroke="none" 
	d="
M670.658691,337.116821 
	C670.395691,337.229126 669.815186,337.261627 669.145813,337.040161 
	C669.485046,336.869843 669.913147,336.953430 670.658691,337.116821 
z"/>
<path fill="#fff" opacity="1.000000" stroke="none" 
	d="
M468.000000,329.002777 
	C486.795563,329.004944 505.091156,329.005890 523.386719,329.012787 
	C524.716370,329.013306 526.063843,328.925812 527.372742,329.102905 
	C533.646179,329.951752 535.917236,334.803040 532.260132,339.834900 
	C531.663879,340.655304 529.916016,340.959381 528.699524,340.961578 
	C496.931824,341.018921 465.164032,340.995972 433.396240,341.016571 
	C430.295288,341.018585 428.162781,339.967682 428.048889,336.561005 
	C427.944733,333.446014 427.232880,329.918335 432.186493,329.755371 
	C434.150604,329.690704 436.101349,329.060638 438.061035,329.044891 
	C447.873505,328.965942 457.686920,329.005280 468.000000,329.002777 
z"/>
<path fill="#fff" opacity="1.000000" stroke="none" 
	d="
M570.297485,341.046875 
	C569.831177,341.070557 569.695374,340.722534 569.714966,340.537109 
	C569.792969,340.026184 569.879761,339.702881 569.905396,339.374786 
	C570.158997,336.127869 569.519226,330.564758 570.815674,330.070160 
	C574.590027,328.630402 579.141418,329.056458 583.380066,329.143036 
	C584.272949,329.161255 585.885071,330.864380 585.870483,331.770203 
	C585.818237,335.001160 585.207886,338.223083 584.755249,341.880402 
	C579.828918,341.578552 575.296387,341.300842 570.297485,341.046875 
z"/>
<path fill="#fff" opacity="1.000000" stroke="none" 
	d="
M556.338135,335.541321 
	C553.842163,335.887207 551.085266,335.916351 547.897217,335.917480 
	C550.143799,333.173065 553.000000,332.767944 556.338135,335.541321 
z"/>
<path fill="#fff" opacity="1.000000" stroke="none" 
	d="
M544.688721,337.115479 
	C544.105225,337.928162 543.195618,338.800476 541.933472,339.601685 
	C542.508118,338.745422 543.435364,337.960266 544.688721,337.115479 
z"/>
<path fill="#fff" opacity="1.000000" stroke="none" 
	d="
M562.816040,338.782837 
	C562.432434,338.823425 561.880859,338.627594 561.196045,338.160278 
	C561.591248,338.108032 562.119690,338.327209 562.816040,338.782837 
z"/>
<path fill="#fff" opacity="1.000000" stroke="none" 
	d="
M558.910889,336.715485 
	C558.493958,336.793945 557.891296,336.617554 557.110596,336.169312 
	C557.530151,336.085144 558.127563,336.272888 558.910889,336.715485 
z"/>
<path fill="#fff" opacity="1.000000" stroke="none" 
	d="
M560.988342,337.731812 
	C560.775085,337.922913 560.509644,337.801392 560.157654,337.406921 
	C560.380493,337.129303 560.668884,337.224396 560.988342,337.731812 
z"/>
<path fill="#fff" opacity="1.000000" stroke="none" 
	d="
M631.673340,342.224731 
	C631.313965,340.504211 631.277893,338.681458 630.640564,337.101166 
	C628.387207,331.514038 629.870667,329.014740 635.673950,329.004303 
	C636.505005,329.002808 637.336365,328.986633 638.166992,329.005798 
	C646.030884,329.187012 646.661560,329.974030 645.108826,337.415955 
	C644.843567,338.687256 644.819763,340.008881 644.596191,342.154175 
	C640.567078,342.154175 636.637268,342.154175 632.221436,342.241882 
	C631.735352,342.329590 631.721008,342.233734 631.673340,342.224731 
z"/>
<path fill="#fff" opacity="1.000000" stroke="none" 
	d="
M748.283508,286.909241 
	C745.485107,286.970764 743.085938,286.970764 740.686768,286.970764 
	C740.687744,286.352325 740.688782,285.733887 740.689758,285.115448 
	C743.567688,285.311951 746.445679,285.508423 749.323669,285.704926 
	C749.110046,286.085846 748.896423,286.466766 748.283508,286.909241 
z"/>
<path fill="#fff" opacity="1.000000" stroke="none" 
	d="
M598.171997,646.288208 
	C596.839417,651.656067 595.610291,656.621460 594.692505,660.328796 
	C583.453247,659.461548 572.781372,657.855530 562.134705,658.008423 
	C547.809204,658.214050 537.098572,667.100769 533.831116,679.742310 
	C529.740417,695.568848 534.748413,711.335388 546.465515,718.941345 
	C554.104431,723.900208 562.639404,724.821228 571.422363,723.473877 
	C572.572449,723.297424 574.203735,721.252563 574.284424,719.988342 
	C574.611511,714.860352 574.420349,709.699341 574.420349,703.954346 
	C569.388977,703.954346 564.658997,703.954346 559.509338,703.954346 
	C559.509338,695.824768 559.509338,688.278625 559.509338,680.264465 
	C574.124939,680.264465 588.800720,680.264465 604.140686,680.264465 
	C604.140686,682.096191 604.140564,683.867920 604.140686,685.639709 
	C604.141602,702.959961 604.017212,720.281738 604.238953,737.599182 
	C604.289307,741.530579 602.898560,742.985107 599.244507,743.917969 
	C579.979736,748.836426 560.690002,750.963318 541.033875,746.202148 
	C516.662048,740.298523 500.640411,720.550659 500.156281,695.483704 
	C499.435364,658.156738 521.977600,634.362915 561.082153,632.450806 
	C571.895691,631.922119 582.910156,633.829834 593.715210,635.417542 
	C600.410583,636.401367 600.313477,637.076477 598.877075,643.462769 
	C598.694458,644.274475 598.476746,645.078308 598.171997,646.288208 
z"/>
<path fill="#fff" opacity="1.000000" stroke="none" 
	d="
M464.952148,645.041870 
	C475.123596,679.323120 485.207397,713.212646 495.518951,747.867615 
	C484.598022,747.867615 474.367065,747.980957 464.147186,747.696533 
	C463.096710,747.667358 461.629425,745.407959 461.181519,743.932678 
	C459.299347,737.732544 457.614197,731.465210 456.098602,725.164307 
	C455.372894,722.147400 454.107117,720.806946 450.746368,720.944275 
	C443.766144,721.229431 436.757324,721.250732 429.778687,720.951599 
	C426.369354,720.805420 425.135742,722.095154 424.484467,725.199158 
	C423.189056,731.372864 421.417175,737.447021 420.138947,743.623779 
	C419.501434,746.704468 418.342804,748.069702 414.926300,747.976746 
	C405.964508,747.732727 396.991669,747.894348 387.120575,747.894348 
	C398.283356,709.381714 409.296204,671.386292 420.394379,633.096619 
	C433.506256,633.096619 446.299438,633.040344 459.089752,633.204590 
	C460.102203,633.217590 461.571289,634.566345 462.005493,635.630188 
	C463.193573,638.540894 463.942017,641.631042 464.952148,645.041870 
M436.828796,668.177307 
	C434.500610,677.986633 432.172424,687.795959 429.776062,697.892578 
	C436.763214,697.892578 443.378448,697.892578 450.503510,697.892578 
	C446.918549,683.900024 443.475708,670.462097 440.032867,657.024170 
	C439.713043,657.068970 439.393188,657.113708 439.073334,657.158508 
	C438.368408,660.555725 437.663513,663.952942 436.828796,668.177307 
z"/>
<path fill="#fff" opacity="1.000000" stroke="none" 
	d="
M698.593262,747.786072 
	C673.351196,747.876892 648.568726,747.876892 623.483032,747.876892 
	C623.483032,709.479492 623.483032,671.592407 623.483032,633.380249 
	C648.102173,633.380249 672.510315,633.380249 697.288696,633.380249 
	C697.288696,641.493774 697.288696,649.556091 697.288696,658.151367 
	C683.008911,658.151367 668.924500,658.151367 654.450500,658.151367 
	C654.450500,664.538574 654.450500,670.404785 654.450500,676.770142 
	C667.811218,676.770142 681.058777,676.770142 694.646057,676.770142 
	C694.646057,685.160889 694.646057,693.067078 694.646057,701.482666 
	C681.336731,701.482666 668.071533,701.482666 654.431335,701.482666 
	C654.431335,708.533020 654.431335,715.087341 654.431335,722.239624 
	C669.413391,722.239624 684.305115,722.239624 700.418579,722.239624 
	C699.941223,731.136230 699.497009,739.415710 698.593262,747.786072 
z"/>
<path fill="#fff" opacity="1.000000" stroke="none" 
	d="
M387.712891,659.511108 
	C393.469360,686.264709 377.621887,706.422424 349.215546,708.764771 
	C343.806915,709.210754 338.330048,708.828735 332.309326,708.828735 
	C332.309326,722.160767 332.309326,734.734558 332.309326,747.599243 
	C321.994019,747.599243 312.263885,747.599243 302.192261,747.599243 
	C302.075317,746.006287 301.877411,744.563721 301.876953,743.121155 
	C301.865601,708.646301 301.940063,674.171143 301.795135,639.696899 
	C301.778076,635.640442 302.985901,634.257080 307.041504,633.922546 
	C324.471405,632.484680 341.925751,630.708557 359.255981,634.238892 
	C373.244629,637.088379 383.625946,644.583252 387.712891,659.511108 
M332.219177,679.277954 
	C332.206329,685.822754 332.222198,686.069397 338.795929,685.646667 
	C342.531067,685.406494 346.371460,684.647400 349.867920,683.333130 
	C355.768066,681.115479 358.947662,675.098328 358.418243,668.493896 
	C357.918976,662.265808 354.260803,657.414429 347.847748,656.368042 
	C342.919556,655.564026 337.755127,656.208008 332.223419,656.208008 
	C332.223419,663.792297 332.223419,671.061096 332.219177,679.277954 
z"/>
<path fill="#fff" opacity="1.000000" stroke="none" 
	d="
M436.893677,667.763733 
	C437.663513,663.952942 438.368408,660.555725 439.073334,657.158508 
	C439.393188,657.113708 439.713043,657.068970 440.032867,657.024170 
	C443.475708,670.462097 446.918549,683.900024 450.503510,697.892578 
	C443.378448,697.892578 436.763214,697.892578 429.776062,697.892578 
	C432.172424,687.795959 434.500610,677.986633 436.893677,667.763733 
z"/>
<path fill="#fff" opacity="1.000000" stroke="none" 
	d="
M332.221313,678.803955 
	C332.223419,671.061096 332.223419,663.792297 332.223419,656.208008 
	C337.755127,656.208008 342.919556,655.564026 347.847748,656.368042 
	C354.260803,657.414429 357.918976,662.265808 358.418243,668.493896 
	C358.947662,675.098328 355.768066,681.115479 349.867920,683.333130 
	C346.371460,684.647400 342.531067,685.406494 338.795929,685.646667 
	C332.222198,686.069397 332.206329,685.822754 332.221313,678.803955 
z"/>
</svg>