<svg version="1.1" id="Layer_1" xmlns="http://www.w3.org/2000/svg" xmlns:xlink="http://www.w3.org/1999/xlink" x="0px" y="0px"
	 width="100%" viewBox="0 0 577 433" enable-background="new 0 0 577 433" xml:space="preserve">
<path fill="transparent" opacity="1.000000" stroke="none" 
	d="
M311.000000,434.000000 
	C207.333359,434.000000 104.166718,434.000000 1.000055,434.000000 
	C1.000037,289.666718 1.000037,145.333450 1.000018,1.000133 
	C193.333237,1.000089 385.666473,1.000089 577.999756,1.000044 
	C577.999878,145.333191 577.999878,289.666382 577.999939,433.999786 
	C489.166656,434.000000 400.333344,434.000000 311.000000,434.000000 
M491.571136,214.842728 
	C491.571136,214.842728 491.619324,214.716934 490.992706,214.879425 
	C490.108429,216.196655 489.224152,217.513885 488.350037,218.815994 
	C488.242889,218.272537 488.119354,217.645859 487.720673,216.340347 
	C484.817474,207.514832 482.117096,198.613388 478.863068,189.919189 
	C478.086029,187.843155 475.574341,185.153900 473.667419,184.989746 
	C466.762787,184.395370 459.776001,184.755646 451.621033,184.755646 
	C453.344177,188.420731 454.663544,191.227005 455.997894,193.995056 
	C455.997894,193.995056 455.961700,194.014709 455.985077,194.839249 
	C456.063782,195.816254 455.941467,196.862778 456.251587,197.759781 
	C460.408173,209.782181 464.575562,221.801392 468.849426,233.782471 
	C470.791290,239.226105 472.973633,244.583923 475.068329,250.868332 
	C475.339050,255.623077 475.418304,260.263885 468.106384,261.081390 
	C465.090759,261.079987 462.075104,261.078583 458.631134,260.405579 
	C457.762756,261.114868 456.169312,261.796906 456.141449,262.537781 
	C455.930420,268.155029 456.026001,273.783783 456.026001,280.037964 
	C463.606659,280.037964 470.844452,279.632721 478.014832,280.154327 
	C484.897461,280.655029 488.579315,276.073639 491.038849,271.523407 
	C494.833405,264.503326 497.296082,256.707581 499.842163,249.080093 
	C505.038055,233.514694 509.946655,217.852814 514.902161,202.208054 
	C516.615662,196.798584 518.117371,191.322067 519.983032,184.965790 
	C514.355652,184.965790 509.425415,185.918472 505.091614,184.718033 
	C499.988983,183.304626 498.626770,186.361038 496.950592,189.368393 
	C496.192535,190.728561 496.651947,192.711685 496.249115,194.335312 
	C494.688141,200.626587 493.002533,206.886932 491.305023,213.630295 
	C491.305023,213.630295 491.501282,214.062943 491.428497,214.395706 
	C491.428497,214.395706 491.564087,214.708206 491.571136,214.842728 
M267.562317,158.081161 
	C267.562317,158.081161 267.094849,157.974319 266.546387,157.352570 
	C261.256653,157.178543 255.967392,156.987991 250.677048,156.835251 
	C245.547699,156.687134 244.217682,158.427948 245.047821,164.417145 
	C245.047821,164.417145 244.955429,164.858841 244.349319,165.313354 
	C242.543915,173.200363 240.738510,181.087387 238.342697,189.384735 
	C235.743500,198.539749 233.144287,207.694763 230.545090,216.849777 
	C228.023499,211.109192 226.598083,205.730286 225.093979,200.373459 
	C224.116974,196.893951 222.907028,193.477066 222.007736,189.979080 
	C219.598923,180.609512 217.467285,171.165161 214.874557,161.848190 
	C213.888580,158.305054 211.233353,155.840942 207.173492,156.012146 
	C201.620255,156.246323 196.039246,156.443787 190.554672,157.239670 
	C189.212021,157.434494 186.997070,160.142258 187.230820,161.270416 
	C188.581680,167.790192 190.448349,174.211548 192.325089,180.612045 
	C195.422302,191.174957 198.669220,201.693893 201.836105,212.236450 
	C204.537643,221.229889 207.215332,230.230453 209.958725,239.997955 
	C211.431671,245.151566 212.904633,250.305176 214.457047,255.736862 
	C217.132156,255.736862 220.073502,255.736862 223.543411,255.844604 
	C223.718307,255.886368 223.893204,255.928116 224.183487,256.358185 
	C224.449142,256.234741 224.714798,256.111267 225.513336,255.880646 
	C225.689102,255.836655 225.864853,255.792648 226.672607,255.880234 
	C227.097549,255.831573 227.522476,255.782928 228.639633,255.825333 
	C229.102402,255.788574 229.565155,255.751801 230.941330,255.878281 
	C233.427780,255.934128 235.955948,255.722748 238.391769,256.102936 
	C243.085983,256.835663 244.773422,254.305984 245.787857,250.323730 
	C248.651047,239.084167 251.639313,227.875748 254.674622,216.681183 
	C255.614059,213.216522 256.998077,209.872726 257.945221,206.409775 
	C261.349976,193.961212 264.654999,181.485352 268.159485,168.259384 
	C268.726440,166.428040 269.706207,164.602249 269.730896,162.763626 
	C269.750916,161.270523 268.624878,159.762039 267.562317,158.081161 
M381.322388,183.528610 
	C381.270020,197.012100 381.217651,210.495590 381.014191,224.908264 
	C381.014191,235.151886 381.014191,245.395508 381.014191,255.870071 
	C390.123383,255.870071 398.574066,255.870071 407.820374,255.540054 
	C407.861694,232.245590 407.912109,208.951111 407.907837,185.656647 
	C407.907684,184.805969 407.370667,183.955383 406.726776,182.278549 
	C400.645386,182.184952 394.563080,181.992340 388.483154,182.050980 
	C386.327972,182.071762 384.178711,182.704437 381.322388,183.528610 
M289.028076,226.076447 
	C301.050354,226.073959 313.072968,226.113480 325.094543,226.020355 
	C326.757446,226.007462 328.415283,225.338638 330.652161,224.428848 
	C330.425049,220.848236 330.607025,217.182877 329.886536,213.704468 
	C328.340027,206.238327 327.102600,198.533554 321.000275,193.004196 
	C321.000275,193.004196 321.030548,192.989319 320.942780,192.297852 
	C318.574097,190.055450 316.575165,186.978012 313.764587,185.733566 
	C306.507355,182.520203 298.856293,180.067032 290.710938,181.017761 
	C281.572083,182.084457 273.028870,184.928238 267.584961,192.876953 
	C261.203735,202.194336 257.996826,212.727127 259.080353,224.077438 
	C260.116943,234.935852 263.312897,245.178528 273.006042,251.567047 
	C285.346680,259.700500 298.984924,260.024872 312.327759,255.061600 
	C321.491608,251.652802 327.187439,243.919266 329.609497,234.348450 
	C329.840240,233.436646 327.023041,231.471680 325.333527,230.490265 
	C324.627899,230.080383 323.170685,230.964432 321.245850,231.148544 
	C320.156860,231.110992 319.067871,231.073425 317.733154,230.392654 
	C315.526276,230.270203 313.299866,230.291229 311.116791,229.994019 
	C307.154358,229.454559 304.009125,229.748093 303.830078,234.916122 
	C303.805756,235.617767 302.358948,236.520065 301.400696,236.897263 
	C296.608429,238.783646 292.046906,238.546280 287.997864,235.003510 
	C287.997864,235.003510 288.010986,235.004456 287.979218,234.112503 
	C288.022125,231.462006 288.065033,228.811523 289.028076,226.076447 
M105.011818,196.345001 
	C104.934639,195.900314 104.857452,195.455643 104.917511,194.069611 
	C105.215599,191.256836 105.513680,188.444077 106.125771,185.164017 
	C107.064705,184.440674 107.942833,183.199905 108.952820,183.081207 
	C114.028107,182.484726 119.137833,182.181442 125.010101,181.764435 
	C127.675926,181.438171 130.341751,181.111908 133.376480,180.932007 
	C133.376480,180.932007 133.761658,180.836349 134.746063,180.971909 
	C141.431961,180.937820 148.117859,180.903732 155.754028,180.961853 
	C159.253235,180.954590 162.799423,181.273148 166.228439,180.778915 
	C167.590973,180.582535 169.665192,178.649277 169.748108,177.396423 
	C170.121353,171.755814 170.048798,166.067825 169.761475,160.416000 
	C169.702057,159.247147 168.242310,157.546814 167.076218,157.164627 
	C164.777908,156.411407 162.233215,156.410019 158.893112,155.998718 
	C146.607147,156.028473 134.321182,156.058212 121.245956,156.326553 
	C117.241264,156.854782 113.245811,157.708130 109.229362,157.822159 
	C104.992233,157.942459 103.529846,160.446426 102.972504,163.891052 
	C102.662041,165.809830 102.938187,167.823502 102.366287,170.033432 
	C101.912590,170.365219 101.458893,170.696991 100.176437,171.060486 
	C98.797516,171.009918 97.418587,170.959366 95.614868,170.143524 
	C87.885345,170.101868 80.155373,170.001877 72.426636,170.061539 
	C70.605247,170.075592 68.788010,170.627533 66.147453,171.031555 
	C64.773598,171.097214 63.399746,171.162872 61.346737,171.059967 
	C60.884064,171.100006 60.421391,171.140060 59.335888,171.180038 
	C59.257263,171.771957 59.178642,172.363861 58.942554,173.886978 
	C58.998405,181.270767 59.054256,188.654572 59.008427,196.498230 
	C59.008427,196.498230 59.113598,196.957306 58.955780,197.644958 
	C59.009079,198.109238 59.062378,198.573517 59.011181,199.496201 
	C59.011181,199.496201 59.116272,199.954483 58.955467,200.885269 
	C59.006443,207.937073 59.057423,214.988861 58.993053,222.763748 
	C59.030338,223.492966 59.067619,224.222183 58.944466,225.759415 
	C58.998417,226.852585 59.052368,227.945740 58.991608,229.729401 
	C59.317039,230.437561 59.642475,231.145706 60.649342,231.987137 
	C61.105808,231.934036 61.562279,231.880936 62.945477,231.959366 
	C76.290352,231.906433 89.635223,231.853500 103.836868,231.950851 
	C104.389442,228.625290 104.942024,225.299713 106.112007,221.644653 
	C110.401878,220.772232 114.675446,219.257187 118.984688,219.147797 
	C131.932648,218.819168 144.894562,219.057129 157.850922,219.024872 
	C159.831757,219.019943 162.628754,219.799637 161.886765,215.069809 
	C161.906830,212.615005 162.079163,210.149826 161.912933,207.707703 
	C161.630844,203.563614 161.135239,199.434067 160.878433,194.362167 
	C146.509247,194.254959 132.140106,194.141846 117.770714,194.083557 
	C117.486969,194.082413 117.200623,194.723785 116.503792,195.080673 
	C116.503792,195.080673 116.103096,195.176453 115.238853,195.039337 
	C111.896225,195.691986 108.553604,196.344635 105.011818,196.345001 
M115.794243,257.673553 
	C117.557793,257.453217 119.320625,257.048553 121.085007,257.041687 
	C135.568863,256.985321 150.053177,257.033386 164.536804,256.951599 
	C166.009308,256.943298 167.478149,256.288635 169.630554,255.442413 
	C169.717407,249.019318 169.880295,242.595947 169.855820,236.173279 
	C169.845169,233.381912 168.678406,231.773422 165.358154,231.900848 
	C158.934921,232.147369 152.495621,231.974792 145.725906,231.150391 
	C137.083694,231.076920 128.441483,230.980331 119.799240,230.977219 
	C119.160919,230.976990 118.522354,231.649673 117.077904,232.000732 
	C113.374771,232.974533 109.671631,233.948334 105.282257,235.000320 
	C104.910027,235.652832 104.537796,236.305328 104.090256,237.757172 
	C104.015816,238.824738 103.941368,239.892319 103.232216,241.400818 
	C103.116249,242.972061 103.000282,244.543289 101.961655,246.141357 
	C87.738487,246.141357 73.515320,246.141357 59.014084,246.141357 
	C59.014084,253.179810 58.841728,259.954803 59.178944,266.704346 
	C59.237064,267.867645 61.446526,269.864716 62.685173,269.882538 
	C75.461433,270.066345 88.242409,269.922302 101.625748,270.021454 
	C102.089783,269.733917 102.553810,269.446381 103.842819,269.004395 
	C108.095139,268.576782 112.578957,268.658966 115.226799,263.162506 
	C115.156494,261.443604 115.086197,259.724731 115.794243,257.673553 
M381.246490,176.810043 
	C387.708557,176.886719 394.171539,177.052948 400.632233,176.989471 
	C402.773956,176.968430 404.909882,176.356461 407.692200,175.475327 
	C409.017273,161.994278 409.017273,161.994263 395.843872,161.989288 
	C395.511871,161.989166 395.179871,161.989090 394.847870,161.988861 
	C380.800568,161.979172 380.800568,161.979172 381.246490,176.810043 
M415.985016,255.939011 
	C423.747894,255.939011 431.510773,255.939011 440.028534,255.939011 
	C440.028534,251.411423 439.941132,246.932632 440.045105,242.458298 
	C440.341797,229.691299 440.716309,216.926102 441.973755,204.049728 
	C445.120972,204.021820 448.281586,203.798492 451.412170,204.013046 
	C455.825714,204.315475 456.039215,201.968964 454.957184,198.797913 
	C454.165680,196.478455 452.731781,194.331161 452.226807,191.969727 
	C450.661407,184.649689 447.519623,182.693909 440.083984,184.043930 
	C440.276825,177.119141 441.238037,176.219940 448.190247,175.903549 
	C449.510742,175.843460 451.457184,175.527939 451.990692,174.648376 
	C454.120667,171.137039 456.129211,167.478119 457.575439,163.644745 
	C459.370331,158.887314 457.082916,156.026184 451.942230,155.998413 
	C446.303925,155.967957 440.665222,156.016617 435.026672,156.022736 
	C423.140381,156.035629 415.796326,162.964813 414.255127,175.450333 
	C414.188263,201.782745 414.116241,228.115143 414.096527,254.447571 
	C414.096191,254.912933 414.724548,255.378738 415.985016,255.939011 
M333.024872,184.963165 
	C333.066650,207.957489 333.108429,230.951797 333.071747,254.666138 
	C333.696136,255.245224 334.324432,256.331116 334.944366,256.326355 
	C342.652832,256.267395 350.360107,256.049866 358.936707,255.959030 
	C359.290405,255.337051 359.952667,254.714874 359.952240,254.093140 
	C359.943817,241.849609 359.858459,229.606155 360.076660,216.636551 
	C363.007233,208.517700 366.748230,206.272888 376.003052,207.507706 
	C376.003052,199.276047 376.091736,191.108047 375.861694,182.949051 
	C375.839447,182.160019 373.872314,180.822037 372.757050,180.766724 
	C366.085449,180.435867 360.745361,183.174133 357.031494,189.091736 
	C356.066803,186.590408 355.355652,183.126419 354.633209,183.124054 
	C347.470581,183.100632 340.306091,183.649963 333.024872,184.963165 
M509.024414,251.614502 
	C509.503265,255.727676 512.451294,257.154541 515.568909,255.730881 
	C517.067993,255.046295 517.935425,251.453766 517.874634,249.211014 
	C517.764648,245.153534 514.510559,245.822815 511.631439,246.237579 
	C510.921295,247.761505 510.184326,249.342896 509.024414,251.614502 
z"/>
<path fill="#fff" opacity="1.000000" stroke="none" 
	d="
M244.955429,164.858841 
	C244.955429,164.858841 245.047821,164.417145 245.324554,163.985626 
	C246.395340,162.372055 247.189392,161.190033 248.416260,160.007294 
	C251.272949,159.366806 253.696838,158.727005 256.415466,158.089127 
	C257.103210,158.084839 257.496185,158.078644 258.039001,158.424622 
	C259.167175,159.182327 260.237762,160.073441 261.107697,159.908218 
	C264.620850,159.240906 265.928345,161.380524 266.995422,164.380310 
	C266.971008,165.471542 266.952850,166.198441 266.645813,167.128967 
	C265.919495,168.021072 265.305908,168.654663 265.071899,169.406433 
	C262.725067,176.946609 260.509613,184.528198 258.113037,192.052216 
	C256.641296,196.672745 254.911362,201.210831 253.322006,205.794479 
	C253.163300,206.252182 253.194656,206.772705 253.106110,207.258316 
	C252.026886,213.177231 251.257843,219.175308 249.781235,224.993683 
	C247.757980,232.966034 245.141586,240.786163 242.890228,248.703049 
	C241.867599,252.299179 240.193863,254.478348 235.928879,254.133530 
	C234.017014,253.978973 231.998215,255.147125 230.027924,255.715027 
	C229.565155,255.751801 229.102402,255.788574 228.129211,255.629013 
	C227.092728,255.538010 226.566681,255.643326 226.040619,255.748642 
	C225.864853,255.792648 225.689102,255.836655 225.018875,255.926758 
	C224.524414,255.972855 224.068085,255.969864 224.068085,255.969864 
	C223.893204,255.928116 223.718307,255.886368 223.146423,255.461670 
	C215.895966,254.435577 214.763336,249.188339 213.761856,243.866425 
	C213.430191,242.103897 213.509308,240.209641 212.885605,238.571747 
	C212.258514,236.925003 210.990311,235.522400 209.994720,233.600952 
	C209.043976,229.702103 208.126923,226.208023 207.154694,222.729355 
	C203.150909,208.403732 199.135590,194.081329 195.112946,179.761002 
	C193.821243,175.162613 192.334930,170.611832 191.235870,165.968704 
	C190.436707,162.592575 190.514328,159.570786 195.546829,159.915115 
	C199.689804,160.198593 203.905365,159.662781 208.009445,160.153427 
	C209.636215,160.347931 211.984146,162.062729 212.413589,163.545792 
	C216.496384,177.645203 220.209305,191.851303 224.090652,206.009705 
	C225.503571,211.163742 227.083344,216.272034 228.587006,221.401199 
	C229.130402,221.531113 229.673798,221.661011 230.217194,221.790909 
	C231.208191,220.128174 232.645813,218.581955 233.115143,216.783112 
	C235.520264,207.564911 237.675995,198.281631 240.003357,188.637405 
	C241.304794,180.371033 246.572098,173.331085 244.955429,164.858841 
z"/>
<path fill="#fff" opacity="1.000000" stroke="none" 
	d="
M317.978882,231.035858 
	C319.067871,231.073425 320.156860,231.110992 321.924866,231.400131 
	C323.895172,232.743027 326.456604,234.499359 326.285980,234.825226 
	C323.979980,239.229431 321.924927,244.035767 318.566895,247.560303 
	C312.202637,254.240189 303.442261,255.856308 294.620514,255.881760 
	C286.162018,255.906158 278.548187,253.105103 272.282440,247.075638 
	C265.284607,240.341705 261.803131,232.385712 261.513763,222.506561 
	C261.076752,207.587189 265.154449,195.520340 278.480713,187.129471 
	C287.182007,181.650681 308.438660,182.566711 316.328186,190.696320 
	C317.470428,191.873291 319.442505,192.244980 321.030548,192.989319 
	C321.030548,192.989319 321.000275,193.004196 320.996948,193.390900 
	C321.163239,195.075470 320.902283,196.677338 321.570251,197.623398 
	C327.185760,205.577042 327.384399,214.784866 327.496155,223.944702 
	C315.416290,223.972733 303.800293,223.937088 292.185303,224.032288 
	C290.451477,224.046509 288.722687,224.675308 287.003906,225.001892 
	C287.016296,224.983963 287.045013,225.016678 286.669495,225.120544 
	C284.642090,228.874893 282.953613,232.531830 288.010986,235.004456 
	C288.010986,235.004456 287.997864,235.003510 288.005341,235.381409 
	C288.612396,239.867081 292.194550,240.085724 294.799835,239.769592 
	C298.288574,239.346237 303.251007,238.500259 304.622986,236.126373 
	C306.715576,232.505615 308.809875,231.832169 312.305969,231.921783 
	C314.188141,231.970047 316.087341,231.352829 317.978882,231.035858 
M292.216675,211.995377 
	C295.358765,211.989258 298.511536,212.128372 301.637177,211.898422 
	C302.735077,211.817642 304.328583,211.092072 304.735321,210.215317 
	C307.096252,205.126541 303.908142,198.635925 298.518219,197.101379 
	C290.663910,194.865219 286.809631,197.328064 285.101685,206.130737 
	C284.752106,207.932358 285.138519,210.486465 286.253418,211.756073 
	C287.044708,212.657181 289.630920,211.982117 292.216675,211.995377 
z"/>
<path fill="#fff" opacity="1.000000" stroke="none" 
	d="
M491.501282,214.062943 
	C491.501282,214.062943 491.305023,213.630295 491.731659,213.247375 
	C493.084625,211.571289 494.478485,210.398682 494.848816,208.962189 
	C495.915710,204.823929 496.469360,200.556702 497.405762,196.380753 
	C499.537018,186.876541 501.842987,185.295166 511.605133,185.982468 
	C515.172607,186.233643 516.377625,187.888229 515.394958,191.230255 
	C513.164062,198.817688 511.129669,206.473190 508.588684,213.956116 
	C506.233704,220.891449 502.996643,227.532272 500.739960,234.494659 
	C497.741333,243.746109 495.953278,253.435211 492.393494,262.441559 
	C490.432312,267.403320 486.479431,271.999268 482.400085,275.599274 
	C476.891266,280.460754 469.592987,277.254517 463.118347,277.991608 
	C459.397797,278.415222 457.865692,276.353363 458.039734,272.945557 
	C458.242096,268.982422 458.707947,265.032745 459.059448,261.077209 
	C462.075104,261.078583 465.090759,261.079987 468.824036,261.307495 
	C476.683929,261.833344 478.844482,257.952484 476.000916,249.530090 
	C474.187073,243.495163 472.528351,237.800522 470.534210,232.225861 
	C466.821198,221.846252 462.938171,211.527008 459.067108,201.204681 
	C458.151520,198.763199 457.003021,196.409042 455.961670,194.014709 
	C455.961700,194.014709 455.997894,193.995056 455.996124,193.593658 
	C455.776062,191.091904 455.557800,188.991531 455.224060,185.780228 
	C461.762482,186.300125 467.907440,186.725449 474.030090,187.364395 
	C474.711548,187.435516 475.548248,188.625046 475.835327,189.460083 
	C478.280823,196.574356 480.549011,203.749908 483.024597,210.853333 
	C483.768921,212.989044 484.998627,214.955597 486.016663,217.364838 
	C486.463928,219.260437 486.900482,220.790817 487.378754,222.467499 
	C492.201477,221.338928 491.996613,218.072510 491.619324,214.716934 
	C491.619324,214.716934 491.571136,214.842728 491.776245,214.776978 
	C491.821320,214.495132 491.661285,214.279037 491.501282,214.062943 
z"/>
<path fill="#fff" opacity="1.000000" stroke="none" 
	d="
M105.811768,185.631302 
	C105.513680,188.444077 105.215599,191.256836 104.568649,194.744995 
	C103.564224,197.249146 102.339035,199.080536 102.347382,200.906265 
	C102.394440,211.205109 102.737762,221.502594 102.980103,231.800552 
	C89.635223,231.853500 76.290352,231.906433 62.398540,231.494141 
	C61.561504,229.250061 61.026653,227.472153 61.019527,225.692154 
	C60.955250,209.640656 60.945492,193.588577 61.030689,177.537262 
	C61.041862,175.432648 61.678791,173.331360 62.025894,171.228531 
	C63.399746,171.162872 64.773598,171.097214 66.869461,171.262817 
	C74.692108,171.662750 81.792641,171.934830 88.893448,171.942184 
	C91.275162,171.944656 93.657570,171.272583 96.039665,170.908813 
	C97.418587,170.959366 98.797516,171.009918 100.776367,171.284607 
	C101.952370,171.637497 102.528442,171.766266 103.087471,171.903870 
	C103.070427,171.912689 103.096207,171.941132 103.061913,172.389648 
	C103.353920,175.888214 103.680229,178.938248 104.090988,182.340607 
	C104.720886,183.672363 105.266327,184.651840 105.811768,185.631302 
M70.796837,224.303253 
	C70.722183,222.596527 71.284729,220.228836 70.393250,219.369400 
	C69.505783,218.513870 66.217941,218.520660 65.666298,219.316467 
	C64.784492,220.588547 64.697533,223.149841 65.447029,224.528870 
	C65.874908,225.316147 68.624992,224.841309 70.796837,224.303253 
M66.205475,192.456940 
	C65.857368,194.038269 64.879791,195.863464 65.367043,197.121140 
	C65.734566,198.069733 67.963226,198.601974 69.392731,198.665924 
	C69.880150,198.687714 71.179283,196.217941 70.857368,195.753952 
	C69.877296,194.341339 68.287483,193.351761 66.205475,192.456940 
M70.932632,210.216339 
	C70.201881,208.835693 69.471130,207.455063 68.740387,206.074417 
	C67.569252,206.761398 65.825241,207.195465 65.380402,208.203094 
	C64.888527,209.317245 65.586288,210.956604 65.765953,212.367233 
	C67.428246,211.916672 69.090538,211.466110 70.932632,210.216339 
z"/>
<path fill="#fff" opacity="1.000000" stroke="none" 
	d="
M116.103088,195.176453 
	C116.103096,195.176453 116.503792,195.080673 116.971703,195.120422 
	C117.612137,195.202393 117.784668,195.244598 118.317268,195.494598 
	C128.055237,195.803894 137.433289,195.987473 146.810944,195.968796 
	C150.882187,195.960693 154.952606,195.536453 159.307312,195.258514 
	C159.970612,195.243332 160.349991,195.270874 160.729385,195.298401 
	C161.135239,199.434067 161.630844,203.563614 161.912933,207.707703 
	C162.079163,210.149826 161.906830,212.615005 161.451111,215.601456 
	C157.456528,216.732513 153.917175,217.513428 150.335266,217.899399 
	C136.041840,219.439590 121.618034,214.752487 107.344299,218.736847 
	C106.530533,218.963989 105.457603,218.262680 104.424187,217.536438 
	C104.408493,213.349197 104.473907,209.619003 104.680832,205.682037 
	C104.731041,204.685577 104.639732,203.895889 104.470901,202.726044 
	C104.494766,201.586853 104.596153,200.827850 104.995468,199.963882 
	C108.896637,198.298096 112.499863,196.737274 116.103088,195.176453 
z"/>
<path fill="#fff" opacity="1.000000" stroke="none" 
	d="
M133.761658,180.836349 
	C133.761658,180.836349 133.376480,180.932007 132.958817,180.716248 
	C132.012314,180.398819 131.483490,180.297150 130.665070,179.897797 
	C124.909477,179.414825 119.442719,179.061508 113.977646,179.085968 
	C106.847900,179.117905 106.848480,179.246704 105.513290,172.106232 
	C103.728882,162.563385 106.637428,158.983322 116.273888,158.967911 
	C130.439758,158.945236 144.605698,158.960327 158.771606,158.969894 
	C167.052109,158.975479 167.052109,158.984726 167.063538,167.144928 
	C167.080246,179.068741 167.079330,178.969452 155.301788,179.077332 
	C148.529968,179.139343 141.761658,179.584991 134.743774,179.962601 
	C134.251068,180.323624 134.006363,180.579987 133.761658,180.836349 
z"/>
<path fill="#fff" opacity="1.000000" stroke="none" 
	d="
M114.901970,263.982574 
	C112.578957,268.658966 108.095139,268.576782 103.136719,268.779053 
	C89.084702,268.553741 75.738792,268.553741 62.392876,268.553741 
	C73.172684,268.985016 83.957870,268.938751 94.742004,269.024963 
	C96.837486,269.041687 98.928825,269.574646 101.022072,269.869507 
	C88.242409,269.922302 75.461433,270.066345 62.685173,269.882538 
	C61.446526,269.864716 59.237064,267.867645 59.178944,266.704346 
	C58.841728,259.954803 59.014084,253.179810 59.014084,246.141357 
	C73.515320,246.141357 87.738487,246.141357 102.456337,246.415985 
	C103.367607,247.080414 103.784187,247.470200 104.228935,248.309204 
	C104.355835,250.816513 104.454582,252.874619 104.426910,255.281830 
	C104.313499,256.370697 104.326500,257.110474 104.258781,258.239502 
	C105.260338,259.746155 106.148705,261.309845 107.467522,261.882812 
	C109.807983,262.899628 112.409615,263.315369 114.901970,263.982574 
z"/>
<path fill="#fff" opacity="1.000000" stroke="none" 
	d="
M239.918900,189.021103 
	C237.675995,198.281631 235.520264,207.564911 233.115143,216.783112 
	C232.645813,218.581955 231.208191,220.128174 230.217194,221.790909 
	C229.673798,221.661011 229.130402,221.531113 228.587006,221.401199 
	C227.083344,216.272034 225.503571,211.163742 224.090652,206.009705 
	C220.209305,191.851303 216.496384,177.645203 212.413589,163.545792 
	C211.984146,162.062729 209.636215,160.347931 208.009445,160.153427 
	C203.905365,159.662781 199.689804,160.198593 195.546829,159.915115 
	C190.514328,159.570786 190.436707,162.592575 191.235870,165.968704 
	C192.334930,170.611832 193.821243,175.162613 195.112946,179.761002 
	C199.135590,194.081329 203.150909,208.403732 207.154694,222.729355 
	C208.126923,226.208023 209.043976,229.702103 209.996399,234.034668 
	C209.972122,236.329437 209.937851,237.778656 209.903564,239.227875 
	C207.215332,230.230453 204.537643,221.229889 201.836105,212.236450 
	C198.669220,201.693893 195.422302,191.174957 192.325089,180.612045 
	C190.448349,174.211548 188.581680,167.790192 187.230820,161.270416 
	C186.997070,160.142258 189.212021,157.434494 190.554672,157.239670 
	C196.039246,156.443787 201.620255,156.246323 207.173492,156.012146 
	C211.233353,155.840942 213.888580,158.305054 214.874557,161.848190 
	C217.467285,171.165161 219.598923,180.609512 222.007736,189.979080 
	C222.907028,193.477066 224.116974,196.893951 225.093979,200.373459 
	C226.598083,205.730286 228.023499,211.109192 230.545090,216.849777 
	C233.144287,207.694763 235.743500,198.539749 238.884338,189.193268 
	C239.425964,189.001816 239.918900,189.021103 239.918900,189.021103 
z"/>
<path fill="#fff" opacity="1.000000" stroke="none" 
	d="
M320.986664,192.643585 
	C319.442505,192.244980 317.470428,191.873291 316.328186,190.696320 
	C308.438660,182.566711 287.182007,181.650681 278.480713,187.129471 
	C265.154449,195.520340 261.076752,207.587189 261.513763,222.506561 
	C261.803131,232.385712 265.284607,240.341705 272.282440,247.075638 
	C278.548187,253.105103 286.162018,255.906158 294.620514,255.881760 
	C303.442261,255.856308 312.202637,254.240189 318.566895,247.560303 
	C321.924927,244.035767 323.979980,239.229431 326.285980,234.825226 
	C326.456604,234.499359 323.895172,232.743027 322.329529,231.455933 
	C323.170685,230.964432 324.627899,230.080383 325.333527,230.490265 
	C327.023041,231.471680 329.840240,233.436646 329.609497,234.348450 
	C327.187439,243.919266 321.491608,251.652802 312.327759,255.061600 
	C298.984924,260.024872 285.346680,259.700500 273.006042,251.567047 
	C263.312897,245.178528 260.116943,234.935852 259.080353,224.077438 
	C257.996826,212.727127 261.203735,202.194336 267.584961,192.876953 
	C273.028870,184.928238 281.572083,182.084457 290.710938,181.017761 
	C298.856293,180.067032 306.507355,182.520203 313.764587,185.733566 
	C316.575165,186.978012 318.574097,190.055450 320.986664,192.643585 
z"/>
<path fill="#fff" opacity="1.000000" stroke="none" 
	d="
M458.845276,260.741394 
	C458.707947,265.032745 458.242096,268.982422 458.039734,272.945557 
	C457.865692,276.353363 459.397797,278.415222 463.118347,277.991608 
	C469.592987,277.254517 476.891266,280.460754 482.400085,275.599274 
	C486.479431,271.999268 490.432312,267.403320 492.393494,262.441559 
	C495.953278,253.435211 497.741333,243.746109 500.739960,234.494659 
	C502.996643,227.532272 506.233704,220.891449 508.588684,213.956116 
	C511.129669,206.473190 513.164062,198.817688 515.394958,191.230255 
	C516.377625,187.888229 515.172607,186.233643 511.605133,185.982468 
	C501.842987,185.295166 499.537018,186.876541 497.405762,196.380753 
	C496.469360,200.556702 495.915710,204.823929 494.848816,208.962189 
	C494.478485,210.398682 493.084625,211.571289 491.760803,213.011627 
	C493.002533,206.886932 494.688141,200.626587 496.249115,194.335312 
	C496.651947,192.711685 496.192535,190.728561 496.950592,189.368393 
	C498.626770,186.361038 499.988983,183.304626 505.091614,184.718033 
	C509.425415,185.918472 514.355652,184.965790 519.983032,184.965790 
	C518.117371,191.322067 516.615662,196.798584 514.902161,202.208054 
	C509.946655,217.852814 505.038055,233.514694 499.842163,249.080093 
	C497.296082,256.707581 494.833405,264.503326 491.038849,271.523407 
	C488.579315,276.073639 484.897461,280.655029 478.014832,280.154327 
	C470.844452,279.632721 463.606659,280.037964 456.026001,280.037964 
	C456.026001,273.783783 455.930420,268.155029 456.141449,262.537781 
	C456.169312,261.796906 457.762756,261.114868 458.845276,260.741394 
z"/>
<path fill="#fff" opacity="1.000000" stroke="none" 
	d="
M358.067688,255.873123 
	C350.360107,256.049866 342.652832,256.267395 334.944366,256.326355 
	C334.324432,256.331116 333.696136,255.245224 333.347168,253.974686 
	C333.735443,252.803101 333.946350,252.323090 333.947021,251.842804 
	C333.977478,230.330612 334.002014,208.818375 333.966827,187.306244 
	C333.965057,186.216125 333.429291,185.126907 333.142120,184.037277 
	C340.306091,183.649963 347.470581,183.100632 354.633209,183.124054 
	C355.355652,183.126419 356.066803,186.590408 357.031494,189.091736 
	C360.745361,183.174133 366.085449,180.435867 372.757050,180.766724 
	C373.872314,180.822037 375.839447,182.160019 375.861694,182.949051 
	C376.091736,191.108047 376.003052,199.276047 376.003052,207.507706 
	C366.748230,206.272888 363.007233,208.517700 359.724243,217.324768 
	C359.265411,228.734390 359.203796,239.456604 359.010742,250.176468 
	C358.976471,252.080399 358.395966,253.974487 358.067688,255.873123 
M373.910950,201.980560 
	C373.940338,197.321869 374.332764,192.621719 373.808044,188.026306 
	C373.616608,186.349747 371.258667,183.650482 369.863098,183.634094 
	C366.493500,183.594528 363.021790,184.403259 361.234741,188.298279 
	C359.791168,191.444748 357.669647,194.280182 355.848846,197.253586 
	C355.258301,197.135941 354.667755,197.018295 354.077209,196.900665 
	C353.882416,194.613068 353.742584,192.318970 353.472443,190.040314 
	C353.306610,188.641556 352.962189,186.064240 352.662567,186.059036 
	C347.210358,185.964661 341.747528,186.101868 336.305450,186.466156 
	C335.819519,186.498688 335.100830,188.432434 335.096527,189.485687 
	C335.014771,209.416412 334.954926,229.348190 335.152344,249.277161 
	C335.167450,250.802338 337.051025,253.539429 338.208618,253.618179 
	C344.532532,254.048386 350.901062,253.823013 357.718414,253.823013 
	C356.723358,250.928787 355.387909,248.860031 355.890289,248.208557 
	C358.946838,244.245087 357.322113,239.647491 357.810852,235.452896 
	C358.537903,229.213348 357.888153,222.824112 358.037170,216.503601 
	C358.205811,209.350616 359.906982,207.215424 366.723724,204.963974 
	C369.025757,204.203659 371.356354,203.529861 373.910950,201.980560 
z"/>
<path fill="#fff" opacity="1.000000" stroke="none" 
	d="
M134.991776,179.857941 
	C141.761658,179.584991 148.529968,179.139343 155.301788,179.077332 
	C167.079330,178.969452 167.080246,179.068741 167.063538,167.144928 
	C167.052109,158.984726 167.052109,158.975479 158.771606,158.969894 
	C144.605698,158.960327 130.439758,158.945236 116.273888,158.967911 
	C106.637428,158.983322 103.728882,162.563385 105.513290,172.106232 
	C106.848480,179.246704 106.847900,179.117905 113.977646,179.085968 
	C119.442719,179.061508 124.909477,179.414825 130.265747,179.944824 
	C128.182495,180.784744 126.208977,181.279953 124.235466,181.775162 
	C119.137833,182.181442 114.028107,182.484726 108.952820,183.081207 
	C107.942833,183.199905 107.064705,184.440674 105.968765,185.397659 
	C105.266327,184.651840 104.720886,183.672363 104.181206,181.902130 
	C103.823380,178.054611 103.459793,174.997879 103.096207,171.941132 
	C103.096207,171.941132 103.070427,171.912689 103.139931,171.550491 
	C103.122948,170.723663 103.036461,170.259048 102.949982,169.794418 
	C102.938187,167.823502 102.662041,165.809830 102.972504,163.891052 
	C103.529846,160.446426 104.992233,157.942459 109.229362,157.822159 
	C113.245811,157.708130 117.241264,156.854782 121.885620,156.555435 
	C130.589294,156.836960 138.654465,156.992706 146.716827,156.900940 
	C151.077179,156.851334 155.432709,156.379196 159.790421,156.097672 
	C162.233215,156.410019 164.777908,156.411407 167.076218,157.164627 
	C168.242310,157.546814 169.702057,159.247147 169.761475,160.416000 
	C170.048798,166.067825 170.121353,171.755814 169.748108,177.396423 
	C169.665192,178.649277 167.590973,180.582535 166.228439,180.778915 
	C162.799423,181.273148 159.253235,180.954590 154.983276,180.648773 
	C147.805618,180.176437 141.398697,180.017181 134.991776,179.857941 
z"/>
<path fill="#fff" opacity="1.000000" stroke="none" 
	d="
M230.484619,255.796661 
	C231.998215,255.147125 234.017014,253.978973 235.928879,254.133530 
	C240.193863,254.478348 241.867599,252.299179 242.890228,248.703049 
	C245.141586,240.786163 247.757980,232.966034 249.781235,224.993683 
	C251.257843,219.175308 252.026886,213.177231 253.106110,207.258316 
	C253.194656,206.772705 253.163300,206.252182 253.322006,205.794479 
	C254.911362,201.210831 256.641296,196.672745 258.113037,192.052216 
	C260.509613,184.528198 262.725067,176.946609 265.071899,169.406433 
	C265.305908,168.654663 265.919495,168.021072 266.691345,167.434113 
	C267.349762,168.030334 267.673737,168.525070 267.997711,169.019806 
	C264.654999,181.485352 261.349976,193.961212 257.945221,206.409775 
	C256.998077,209.872726 255.614059,213.216522 254.674622,216.681183 
	C251.639313,227.875748 248.651047,239.084167 245.787857,250.323730 
	C244.773422,254.305984 243.085983,256.835663 238.391769,256.102936 
	C235.955948,255.722748 233.427780,255.934128 230.484619,255.796661 
z"/>
<path fill="#fff" opacity="1.000000" stroke="none" 
	d="
M104.339500,257.850250 
	C104.326500,257.110474 104.313499,256.370697 104.856712,255.299255 
	C121.193855,254.978470 136.974777,254.992905 152.755692,254.999176 
	C167.368134,255.004974 167.241959,255.002228 167.114075,240.229980 
	C167.076553,235.892883 165.142944,234.063889 161.197861,234.044907 
	C147.077988,233.976959 132.949463,233.723145 118.840050,234.112946 
	C107.988998,234.412720 108.007332,234.797775 105.648132,244.903183 
	C105.547356,245.334824 105.057602,245.675674 104.532570,245.754089 
	C104.166374,243.952881 104.016655,242.456375 103.866928,240.959885 
	C103.941368,239.892319 104.015816,238.824738 104.376007,237.225372 
	C105.097336,236.103088 105.532913,235.512604 105.968491,234.922119 
	C109.671631,233.948334 113.374771,232.974533 117.952888,232.073120 
	C127.906242,232.088959 136.984604,232.032425 146.062973,231.975891 
	C152.495621,231.974792 158.934921,232.147369 165.358154,231.900848 
	C168.678406,231.773422 169.845169,233.381912 169.855820,236.173279 
	C169.880295,242.595947 169.717407,249.019318 168.825073,255.715088 
	C150.363281,256.070251 132.707001,256.152740 114.632248,256.186829 
	C110.922356,256.709015 107.630928,257.279633 104.339500,257.850250 
z"/>
<path fill="#fff" opacity="1.000000" stroke="none" 
	d="
M414.963776,174.959061 
	C415.796326,162.964813 423.140381,156.035629 435.026672,156.022736 
	C440.665222,156.016617 446.303925,155.967957 451.942230,155.998413 
	C457.082916,156.026184 459.370331,158.887314 457.575439,163.644745 
	C456.129211,167.478119 454.120667,171.137039 451.990692,174.648376 
	C451.457184,175.527939 449.510742,175.843460 448.190247,175.903549 
	C441.238037,176.219940 440.276825,177.119141 440.045715,184.513596 
	C440.007416,184.983261 439.893524,185.106400 439.539490,184.949646 
	C435.805573,177.065750 437.929138,173.672287 446.199280,172.887848 
	C448.003845,172.716675 450.227783,171.481857 451.268555,170.028122 
	C452.832550,167.843506 453.771637,165.096924 454.446503,162.453964 
	C454.675079,161.558884 453.549774,159.594574 452.614288,159.235153 
	C440.102722,154.428055 426.684540,158.374634 418.855774,169.215546 
	C417.455872,171.154083 416.917419,173.714691 415.766418,175.995209 
	C415.551636,176.002335 415.122253,176.021469 415.078430,175.756500 
	C415.011017,175.314041 414.987396,175.136551 414.963776,174.959061 
z"/>
<path fill="#fff" opacity="1.000000" stroke="none" 
	d="
M415.122253,176.021469 
	C415.122253,176.021469 415.551636,176.002335 415.775757,176.465149 
	C416.000763,189.900635 416.001770,202.873306 416.002380,215.845963 
	C416.002930,226.822800 416.115356,237.801407 415.942902,248.775528 
	C415.881805,252.662872 417.280670,254.294250 421.175629,254.027161 
	C424.979431,253.766312 428.799408,253.667557 432.613190,253.644699 
	C437.380432,253.616119 438.965515,250.670334 438.915802,246.603729 
	C438.757751,233.663559 438.307770,220.725586 438.297729,207.786499 
	C438.296234,205.873047 440.062073,203.958191 441.013031,202.396698 
	C441.030640,203.219666 441.045410,203.689926 441.060211,204.160202 
	C440.716309,216.926102 440.341797,229.691299 440.045105,242.458298 
	C439.941132,246.932632 440.028534,251.411423 440.028534,255.939011 
	C431.510773,255.939011 423.747894,255.939011 415.499023,255.436218 
	C415.049438,228.629456 415.085846,202.325455 415.122253,176.021469 
z"/>
<path fill="#fff" opacity="1.000000" stroke="none" 
	d="
M381.135406,175.911438 
	C380.800568,161.979172 380.800568,161.979172 394.847870,161.988861 
	C395.179871,161.989090 395.511871,161.989166 395.843872,161.989288 
	C409.017273,161.994263 409.017273,161.994278 406.899963,175.703552 
	C397.783600,175.924988 389.459503,175.918213 381.135406,175.911438 
M382.997711,169.561722 
	C383.822540,170.990265 384.584991,173.610291 385.482178,173.657288 
	C392.163788,174.007339 398.872131,173.847336 405.627838,173.847336 
	C404.538971,163.998795 404.538971,163.997986 395.674500,163.995911 
	C393.179016,163.995331 390.683533,164.010864 388.188080,164.001251 
	C385.012665,163.988998 383.154175,165.406754 382.997711,169.561722 
z"/>
<path fill="#fff" opacity="1.000000" stroke="none" 
	d="
M486.005981,216.999634 
	C484.998627,214.955597 483.768921,212.989044 483.024597,210.853333 
	C480.549011,203.749908 478.280823,196.574356 475.835327,189.460083 
	C475.548248,188.625046 474.711548,187.435516 474.030090,187.364395 
	C467.907440,186.725449 461.762482,186.300125 455.224060,185.780228 
	C455.557800,188.991531 455.776062,191.091904 455.988647,193.612778 
	C454.663544,191.227005 453.344177,188.420731 451.621033,184.755646 
	C459.776001,184.755646 466.762787,184.395370 473.667419,184.989746 
	C475.574341,185.153900 478.086029,187.843155 478.863068,189.919189 
	C482.117096,198.613388 484.817474,207.514832 487.526459,216.679703 
	C486.890167,217.012573 486.448059,217.006104 486.005981,216.999634 
z"/>
<path fill="#fff" opacity="1.000000" stroke="none" 
	d="
M455.973389,194.426987 
	C457.003021,196.409042 458.151520,198.763199 459.067108,201.204681 
	C462.938171,211.527008 466.821198,221.846252 470.534210,232.225861 
	C472.528351,237.800522 474.187073,243.495163 475.761475,249.544952 
	C475.525818,249.954254 475.046875,249.980682 475.046875,249.980682 
	C472.973633,244.583923 470.791290,239.226105 468.849426,233.782471 
	C464.575562,221.801392 460.408173,209.782181 456.251587,197.759781 
	C455.941467,196.862778 456.063782,195.816254 455.973389,194.426987 
z"/>
<path fill="#fff" opacity="1.000000" stroke="none" 
	d="
M61.686317,171.144257 
	C61.678791,173.331360 61.041862,175.432648 61.030689,177.537262 
	C60.945492,193.588577 60.955250,209.640656 61.019527,225.692154 
	C61.026653,227.472153 61.561504,229.250061 61.935177,231.428375 
	C61.562279,231.880936 61.105808,231.934036 60.319359,231.608185 
	C59.695026,230.499130 59.400673,229.769012 59.106323,229.038910 
	C59.052368,227.945740 58.998417,226.852585 59.246208,225.168518 
	C59.401432,223.731964 59.254913,222.886307 59.108398,222.040665 
	C59.057423,214.988861 59.006443,207.937073 59.165821,200.329498 
	C59.559082,199.463654 59.472248,199.218353 59.115677,199.037796 
	C59.062378,198.573517 59.009079,198.109238 59.166321,197.210556 
	C59.561993,196.462067 59.473072,196.216141 59.110107,196.038361 
	C59.054256,188.654572 58.998405,181.270767 59.234066,173.271332 
	C59.669956,172.163834 59.814335,171.671967 59.958714,171.180115 
	C60.421391,171.140060 60.884064,171.100006 61.686317,171.144257 
z"/>
<path fill="#fff" opacity="1.000000" stroke="none" 
	d="
M441.516968,204.104965 
	C441.045410,203.689926 441.030640,203.219666 441.306152,202.134186 
	C445.283844,201.081421 448.971191,200.643860 452.541565,200.220184 
	C451.490112,197.007858 450.202393,193.990952 449.557892,190.842377 
	C448.935120,187.799805 447.492828,186.810776 444.474243,186.867401 
	C442.958893,186.895844 441.421143,185.731384 439.893524,185.106400 
	C439.893524,185.106400 440.007416,184.983261 440.063416,184.920715 
	C447.519623,182.693909 450.661407,184.649689 452.226807,191.969727 
	C452.731781,194.331161 454.165680,196.478455 454.957184,198.797913 
	C456.039215,201.968964 455.825714,204.315475 451.412170,204.013046 
	C448.281586,203.798492 445.120972,204.021820 441.516968,204.104965 
z"/>
<path fill="#fff" opacity="1.000000" stroke="none" 
	d="
M104.505295,217.993484 
	C105.457603,218.262680 106.530533,218.963989 107.344299,218.736847 
	C121.618034,214.752487 136.041840,219.439590 150.335266,217.899399 
	C153.917175,217.513428 157.456528,216.732513 161.382767,216.064941 
	C162.628754,219.799637 159.831757,219.019943 157.850922,219.024872 
	C144.894562,219.057129 131.932648,218.819168 118.984688,219.147797 
	C114.675446,219.257187 110.401878,220.772232 105.556374,221.535431 
	C104.835587,220.281982 104.670441,219.137726 104.505295,217.993484 
z"/>
<path fill="#fff" opacity="1.000000" stroke="none" 
	d="
M327.960297,223.923462 
	C327.384399,214.784866 327.185760,205.577042 321.570251,197.623398 
	C320.902283,196.677338 321.163239,195.075470 321.001740,193.374817 
	C327.102600,198.533554 328.340027,206.238327 329.886536,213.704468 
	C330.607025,217.182877 330.425049,220.848236 330.016296,224.694946 
	C328.917725,224.955399 328.454987,224.949768 327.992188,224.688721 
	C327.981537,224.263351 327.970917,224.093399 327.960297,223.923462 
z"/>
<path fill="#fff" opacity="1.000000" stroke="none" 
	d="
M415.078430,175.756500 
	C415.085846,202.325455 415.049438,228.629456 415.036255,255.388885 
	C414.724548,255.378738 414.096191,254.912933 414.096527,254.447571 
	C414.116241,228.115143 414.188263,201.782745 414.609436,175.204697 
	C414.987396,175.136551 415.011017,175.314041 415.078430,175.756500 
z"/>
<path fill="#fff" opacity="1.000000" stroke="none" 
	d="
M509.235901,251.269379 
	C510.184326,249.342896 510.921295,247.761505 511.631439,246.237579 
	C514.510559,245.822815 517.764648,245.153534 517.874634,249.211014 
	C517.935425,251.453766 517.067993,255.046295 515.568909,255.730881 
	C512.451294,257.154541 509.503265,255.727676 509.235901,251.269379 
z"/>
<path fill="#fff" opacity="1.000000" stroke="none" 
	d="
M407.083862,183.104752 
	C407.370667,183.955383 407.907684,184.805969 407.907837,185.656647 
	C407.912109,208.951111 407.861694,232.245590 407.380585,255.481384 
	C406.940796,255.422699 406.827423,254.980942 406.938477,254.524994 
	C407.058838,230.394012 407.068115,206.718979 407.053680,183.060501 
	C407.029938,183.077057 407.083862,183.104752 407.083862,183.104752 
z"/>
<path fill="#fff" opacity="1.000000" stroke="none" 
	d="
M209.931152,239.612915 
	C209.937851,237.778656 209.972122,236.329437 210.004730,234.446518 
	C210.990311,235.522400 212.258514,236.925003 212.885605,238.571747 
	C213.509308,240.209641 213.430191,242.103897 213.761856,243.866425 
	C214.763336,249.188339 215.895966,254.435577 222.882141,255.407791 
	C220.073502,255.736862 217.132156,255.736862 214.457047,255.736862 
	C212.904633,250.305176 211.431671,245.151566 209.931152,239.612915 
z"/>
<path fill="#fff" opacity="1.000000" stroke="none" 
	d="
M317.856018,230.714264 
	C316.087341,231.352829 314.188141,231.970047 312.305969,231.921783 
	C308.809875,231.832169 306.715576,232.505615 304.622986,236.126373 
	C303.251007,238.500259 298.288574,239.346237 294.799835,239.769592 
	C292.194550,240.085724 288.612396,239.867081 288.003601,235.375183 
	C292.046906,238.546280 296.608429,238.783646 301.400696,236.897263 
	C302.358948,236.520065 303.805756,235.617767 303.830078,234.916122 
	C304.009125,229.748093 307.154358,229.454559 311.116791,229.994019 
	C313.299866,230.291229 315.526276,230.270203 317.856018,230.714264 
z"/>
<path fill="#fff" opacity="1.000000" stroke="none" 
	d="
M333.083496,184.500214 
	C333.429291,185.126907 333.965057,186.216125 333.966827,187.306244 
	C334.002014,208.818375 333.977478,230.330612 333.947021,251.842804 
	C333.946350,252.323090 333.735443,252.803101 333.386383,253.614685 
	C333.108429,230.951797 333.066650,207.957489 333.083496,184.500214 
z"/>
<path fill="#fff" opacity="1.000000" stroke="none" 
	d="
M104.258781,258.239502 
	C107.630928,257.279633 110.922356,256.709015 114.633598,256.480652 
	C115.040909,257.217224 115.028397,257.611511 115.015884,258.005829 
	C115.086197,259.724731 115.156494,261.443604 115.064384,263.572540 
	C112.409615,263.315369 109.807983,262.899628 107.467522,261.882812 
	C106.148705,261.309845 105.260338,259.746155 104.258781,258.239502 
z"/>
<path fill="#fff" opacity="1.000000" stroke="none" 
	d="
M406.827423,254.980942 
	C406.827423,254.980942 406.940796,255.422699 406.982758,255.646393 
	C398.574066,255.870071 390.123383,255.870071 381.014191,255.870071 
	C381.014191,245.395508 381.014191,235.151886 381.278015,224.424927 
	C381.541870,223.941574 381.917358,223.893982 381.947784,224.372925 
	C382.008026,233.918854 382.037842,242.985840 382.074524,252.348541 
	C382.097137,253.038803 382.112885,253.433350 382.176147,254.002228 
	C382.501221,254.110916 382.778748,254.045273 383.464691,254.051208 
	C390.916321,254.077515 397.959503,254.032242 405.168701,254.201172 
	C405.832275,254.603928 406.329834,254.792435 406.827423,254.980942 
z"/>
<path fill="#fff" opacity="1.000000" stroke="none" 
	d="
M95.827271,170.526169 
	C93.657570,171.272583 91.275162,171.944656 88.893448,171.942184 
	C81.792641,171.934830 74.692108,171.662750 67.280167,171.213058 
	C68.788010,170.627533 70.605247,170.075592 72.426636,170.061539 
	C80.155373,170.001877 87.885345,170.101868 95.827271,170.526169 
z"/>
<path fill="#fff" opacity="1.000000" stroke="none" 
	d="
M104.424187,217.536438 
	C104.670441,219.137726 104.835587,220.281982 105.247665,221.700195 
	C104.942024,225.299713 104.389442,228.625290 103.408485,231.875702 
	C102.737762,221.502594 102.394440,211.205109 102.347382,200.906265 
	C102.339035,199.080536 103.564224,197.249146 104.500031,195.215668 
	C104.857452,195.455643 104.934639,195.900314 104.954681,196.956497 
	C104.830879,198.401611 104.764206,199.235229 104.697540,200.068848 
	C104.596153,200.827850 104.494766,201.586853 104.347954,203.063354 
	C104.381462,204.483505 104.460396,205.186157 104.539322,205.888809 
	C104.473907,209.619003 104.408493,213.349197 104.424187,217.536438 
z"/>
<path fill="#fff" opacity="1.000000" stroke="none" 
	d="
M115.405060,257.839691 
	C115.028397,257.611511 115.040909,257.217224 115.052063,256.529053 
	C132.707001,256.152740 150.363281,256.070251 168.484131,255.960815 
	C167.478149,256.288635 166.009308,256.943298 164.536804,256.951599 
	C150.053177,257.033386 135.568863,256.985321 121.085007,257.041687 
	C119.320625,257.048553 117.557793,257.453217 115.405060,257.839691 
z"/>
<path fill="#fff" opacity="1.000000" stroke="none" 
	d="
M240.003357,188.637405 
	C239.918900,189.021103 239.425964,189.001816 239.179535,188.988098 
	C240.738510,181.087387 242.543915,173.200363 244.652374,165.086090 
	C246.572098,173.331085 241.304794,180.371033 240.003357,188.637405 
z"/>
<path fill="#fff" opacity="1.000000" stroke="none" 
	d="
M117.957199,195.286804 
	C117.784668,195.244598 117.612137,195.202393 117.177551,195.112793 
	C117.200623,194.723785 117.486969,194.082413 117.770714,194.083557 
	C132.140106,194.141846 146.509247,194.254959 160.803909,194.830292 
	C160.349991,195.270874 159.970612,195.243332 158.839447,195.191223 
	C144.710861,195.206711 131.334030,195.246750 117.957199,195.286804 
z"/>
<path fill="#fff" opacity="1.000000" stroke="none" 
	d="
M101.323914,269.945465 
	C98.928825,269.574646 96.837486,269.041687 94.742004,269.024963 
	C83.957870,268.938751 73.172684,268.985016 62.392876,268.553741 
	C75.738792,268.553741 89.084702,268.553741 102.724228,268.856323 
	C102.553810,269.446381 102.089783,269.733917 101.323914,269.945465 
z"/>
<path fill="#fff" opacity="1.000000" stroke="none" 
	d="
M327.992249,224.944153 
	C328.454987,224.949768 328.917725,224.955399 329.727966,224.967270 
	C328.415283,225.338638 326.757446,226.007462 325.094543,226.020355 
	C313.072968,226.113480 301.050354,226.073959 288.339478,225.978317 
	C287.448914,225.592346 287.246948,225.304520 287.045013,225.016678 
	C287.045013,225.016678 287.016296,224.983963 287.473755,224.996017 
	C301.284882,224.986771 314.638550,224.965454 327.992249,224.944153 
z"/>
<path fill="#fff" opacity="1.000000" stroke="none" 
	d="
M381.917358,223.893982 
	C381.917358,223.893982 381.541870,223.941574 381.353577,223.960327 
	C381.217651,210.495590 381.270020,197.012100 381.665161,183.279892 
	C382.007935,183.031174 382.022491,183.023376 381.992798,183.489746 
	C381.947876,197.268753 381.932617,210.581360 381.917358,223.893982 
z"/>
<path fill="#fff" opacity="1.000000" stroke="none" 
	d="
M358.502197,255.916077 
	C358.395966,253.974487 358.976471,252.080399 359.010742,250.176468 
	C359.203796,239.456604 359.265411,228.734390 359.580322,217.687820 
	C359.858459,229.606155 359.943817,241.849609 359.952240,254.093140 
	C359.952667,254.714874 359.290405,255.337051 358.502197,255.916077 
z"/>
<path fill="#fff" opacity="1.000000" stroke="none" 
	d="
M159.341766,156.048187 
	C155.432709,156.379196 151.077179,156.851334 146.716827,156.900940 
	C138.654465,156.992706 130.589294,156.836960 122.280243,156.436142 
	C134.321182,156.058212 146.607147,156.028473 159.341766,156.048187 
z"/>
<path fill="#fff" opacity="1.000000" stroke="none" 
	d="
M247.983459,160.008011 
	C247.189392,161.190033 246.395340,162.372055 245.381775,163.767365 
	C244.217682,158.427948 245.547699,156.687134 250.677048,156.835251 
	C255.967392,156.987991 261.256653,157.178543 266.360962,157.670959 
	C263.413422,158.017044 260.651306,158.044754 257.889160,158.072449 
	C257.496185,158.078644 257.103210,158.084839 255.971558,158.062042 
	C252.816406,158.691345 250.399933,159.349670 247.983459,160.008011 
z"/>
<path fill="#fff" opacity="1.000000" stroke="none" 
	d="
M475.057617,250.424500 
	C475.046875,249.980682 475.525818,249.954254 475.765259,249.939392 
	C478.844482,257.952484 476.683929,261.833344 469.276947,261.289520 
	C475.418304,260.263885 475.339050,255.623077 475.057617,250.424500 
z"/>
<path fill="#fff" opacity="1.000000" stroke="none" 
	d="
M286.669495,225.120544 
	C287.246948,225.304520 287.448914,225.592346 287.879395,226.020599 
	C288.065033,228.811523 288.022125,231.462006 287.995117,234.558472 
	C282.953613,232.531830 284.642090,228.874893 286.669495,225.120544 
z"/>
<path fill="#fff" opacity="1.000000" stroke="none" 
	d="
M145.894440,231.563141 
	C136.984604,232.032425 127.906242,232.088959 118.355888,232.077515 
	C118.522354,231.649673 119.160919,230.976990 119.799240,230.977219 
	C128.441483,230.980331 137.083694,231.076920 145.894440,231.563141 
z"/>
<path fill="#fff" opacity="1.000000" stroke="none" 
	d="
M258.039001,158.424622 
	C260.651306,158.044754 263.413422,158.017044 266.635193,157.981827 
	C267.094849,157.974319 267.562317,158.081161 267.784882,158.551361 
	C267.672180,160.686371 267.336914,162.351151 267.001648,164.015945 
	C265.928345,161.380524 264.620850,159.240906 261.107697,159.908218 
	C260.237762,160.073441 259.167175,159.182327 258.039001,158.424622 
z"/>
<path fill="#fff" opacity="1.000000" stroke="none" 
	d="
M486.016663,217.364838 
	C486.448059,217.006104 486.890167,217.012573 487.664001,217.019135 
	C488.119354,217.645859 488.242889,218.272537 488.350037,218.815994 
	C489.224152,217.513885 490.108429,216.196655 491.306030,214.798187 
	C491.996613,218.072510 492.201477,221.338928 487.378754,222.467499 
	C486.900482,220.790817 486.463928,219.260437 486.016663,217.364838 
z"/>
<path fill="#fff" opacity="1.000000" stroke="none" 
	d="
M381.190948,176.360748 
	C389.459503,175.918213 397.783600,175.924988 406.578064,175.973206 
	C404.909882,176.356461 402.773956,176.968430 400.632233,176.989471 
	C394.171539,177.052948 387.708557,176.886719 381.190948,176.360748 
z"/>
<path fill="#fff" opacity="1.000000" stroke="none" 
	d="
M382.017334,183.044464 
	C384.178711,182.704437 386.327972,182.071762 388.483154,182.050980 
	C394.563080,181.992340 400.645386,182.184952 406.905334,182.691650 
	C407.083862,183.104752 407.029938,183.077057 406.579895,183.063904 
	C398.094055,183.041626 390.058289,183.032501 382.022491,183.023376 
	C382.022491,183.023376 382.007935,183.031174 382.017334,183.044464 
z"/>
<path fill="#fff" opacity="1.000000" stroke="none" 
	d="
M134.743774,179.962601 
	C141.398697,180.017181 147.805618,180.176437 154.508148,180.602661 
	C148.117859,180.903732 141.431961,180.937820 134.253860,180.904129 
	C134.006363,180.579987 134.251068,180.323624 134.743774,179.962601 
z"/>
<path fill="#fff" opacity="1.000000" stroke="none" 
	d="
M104.995468,199.963882 
	C104.764206,199.235229 104.830879,198.401611 105.054260,197.282639 
	C108.553604,196.344635 111.896225,195.691986 115.670975,195.107880 
	C112.499863,196.737274 108.896637,198.298096 104.995468,199.963882 
z"/>
<path fill="#fff" opacity="1.000000" stroke="none" 
	d="
M266.995422,164.380310 
	C267.336914,162.351151 267.672180,160.686371 268.007263,158.640976 
	C268.624878,159.762039 269.750916,161.270523 269.730896,162.763626 
	C269.706207,164.602249 268.726440,166.428040 268.078613,168.639587 
	C267.673737,168.525070 267.349762,168.030334 266.980225,167.230469 
	C266.952850,166.198441 266.971008,165.471542 266.995422,164.380310 
z"/>
<path fill="#fff" opacity="1.000000" stroke="none" 
	d="
M124.622787,181.769806 
	C126.208977,181.279953 128.182495,180.784744 130.555328,180.242508 
	C131.483490,180.297150 132.012314,180.398819 132.774353,180.643066 
	C130.341751,181.111908 127.675926,181.438171 124.622787,181.769806 
z"/>
<path fill="#fff" opacity="1.000000" stroke="none" 
	d="
M103.549576,241.180359 
	C104.016655,242.456375 104.166374,243.952881 104.567238,246.007050 
	C104.612511,246.996490 104.406639,247.428238 104.200775,247.860001 
	C103.784187,247.470200 103.367607,247.080414 102.917664,246.402588 
	C103.000282,244.543289 103.116249,242.972061 103.549576,241.180359 
z"/>
<path fill="#fff" opacity="1.000000" stroke="none" 
	d="
M102.658127,169.913925 
	C103.036461,170.259048 103.122948,170.723663 103.156975,171.541656 
	C102.528442,171.766266 101.952370,171.637497 101.190742,171.268738 
	C101.458893,170.696991 101.912590,170.365219 102.658127,169.913925 
z"/>
<path fill="#9D747E" opacity="1.000000" stroke="none" 
	d="
M105.625374,234.961212 
	C105.532913,235.512604 105.097336,236.103088 104.413666,236.825714 
	C104.537796,236.305328 104.910027,235.652832 105.625374,234.961212 
z"/>
<path fill="#fff" opacity="1.000000" stroke="none" 
	d="
M59.048965,229.384155 
	C59.400673,229.769012 59.695026,230.499130 59.978645,231.541550 
	C59.642475,231.145706 59.317039,230.437561 59.048965,229.384155 
z"/>
<path fill="#fff" opacity="1.000000" stroke="none" 
	d="
M59.050724,222.402206 
	C59.254913,222.886307 59.401432,223.731964 59.326424,224.764496 
	C59.067619,224.222183 59.030338,223.492966 59.050724,222.402206 
z"/>
<path fill="#fff" opacity="1.000000" stroke="none" 
	d="
M59.647301,171.180069 
	C59.814335,171.671967 59.669956,172.163834 59.312798,172.805740 
	C59.178642,172.363861 59.257263,171.771957 59.647301,171.180069 
z"/>
<path fill="#fff" opacity="1.000000" stroke="none" 
	d="
M226.356613,255.814438 
	C226.566681,255.643326 227.092728,255.538010 227.783112,255.583496 
	C227.522476,255.782928 227.097549,255.831573 226.356613,255.814438 
z"/>
<path fill="#fff" opacity="1.000000" stroke="none" 
	d="
M59.059265,196.268295 
	C59.473072,196.216141 59.561993,196.462067 59.245232,196.866730 
	C59.113598,196.957306 59.008427,196.498230 59.059265,196.268295 
z"/>
<path fill="#fff" opacity="1.000000" stroke="none" 
	d="
M59.063431,199.266998 
	C59.472248,199.218353 59.559082,199.463654 59.246223,199.864105 
	C59.116272,199.954483 59.011181,199.496201 59.063431,199.266998 
z"/>
<path fill="#fff" opacity="1.000000" stroke="none" 
	d="
M224.125793,256.164032 
	C224.068085,255.969864 224.524414,255.972855 224.752426,255.980316 
	C224.714798,256.111267 224.449142,256.234741 224.125793,256.164032 
z"/>
<path fill="#fff" opacity="1.000000" stroke="none" 
	d="
M491.464905,214.229324 
	C491.661285,214.279037 491.821320,214.495132 491.772705,214.709717 
	C491.564087,214.708206 491.428497,214.395706 491.464905,214.229324 
z"/>
<path fill="#fff" opacity="1.000000" stroke="none" 
	d="
M248.416260,160.007294 
	C250.399933,159.349670 252.816406,158.691345 255.676804,158.060120 
	C253.696838,158.727005 251.272949,159.366806 248.416260,160.007294 
z"/>
<path fill="#fff" opacity="1.000000" stroke="none" 
	d="
M291.816345,212.002960 
	C289.630920,211.982117 287.044708,212.657181 286.253418,211.756073 
	C285.138519,210.486465 284.752106,207.932358 285.101685,206.130737 
	C286.809631,197.328064 290.663910,194.865219 298.518219,197.101379 
	C303.908142,198.635925 307.096252,205.126541 304.735321,210.215317 
	C304.328583,211.092072 302.735077,211.817642 301.637177,211.898422 
	C298.511536,212.128372 295.358765,211.989258 291.816345,212.002960 
M297.066498,198.971161 
	C289.860657,199.007629 288.485992,200.537659 287.562469,209.592773 
	C292.948517,209.592773 298.322327,209.592773 304.202057,209.592773 
	C303.195770,204.968689 301.941620,201.209595 297.066498,198.971161 
z"/>
<path fill="#fff" opacity="1.000000" stroke="none" 
	d="
M327.992188,224.688721 
	C314.638550,224.965454 301.284882,224.986771 287.461365,225.013947 
	C288.722687,224.675308 290.451477,224.046509 292.185303,224.032288 
	C303.800293,223.937088 315.416290,223.972733 327.496155,223.944702 
	C327.970917,224.093399 327.981537,224.263351 327.992188,224.688721 
z"/>
<path fill="#fff" opacity="1.000000" stroke="none" 
	d="
M70.563148,224.619003 
	C68.624992,224.841309 65.874908,225.316147 65.447029,224.528870 
	C64.697533,223.149841 64.784492,220.588547 65.666298,219.316467 
	C66.217941,218.520660 69.505783,218.513870 70.393250,219.369400 
	C71.284729,220.228836 70.722183,222.596527 70.563148,224.619003 
z"/>
<path fill="#fff" opacity="1.000000" stroke="none" 
	d="
M66.570251,192.327225 
	C68.287483,193.351761 69.877296,194.341339 70.857368,195.753952 
	C71.179283,196.217941 69.880150,198.687714 69.392731,198.665924 
	C67.963226,198.601974 65.734566,198.069733 65.367043,197.121140 
	C64.879791,195.863464 65.857368,194.038269 66.570251,192.327225 
z"/>
<path fill="#fff" opacity="1.000000" stroke="none" 
	d="
M70.842728,210.615936 
	C69.090538,211.466110 67.428246,211.916672 65.765953,212.367218 
	C65.586288,210.956604 64.888527,209.317245 65.380402,208.203094 
	C65.825241,207.195465 67.569252,206.761398 68.740387,206.074417 
	C69.471130,207.455063 70.201881,208.835693 70.842728,210.615936 
z"/>
<path fill="#fff" opacity="1.000000" stroke="none" 
	d="
M103.061913,172.389648 
	C103.459793,174.997879 103.823380,178.054611 104.096756,181.549835 
	C103.680229,178.938248 103.353920,175.888214 103.061913,172.389648 
z"/>
<path fill="#fff" opacity="1.000000" stroke="none" 
	d="
M118.317268,195.494598 
	C131.334030,195.246750 144.710861,195.206711 158.555542,195.233948 
	C154.952606,195.536453 150.882187,195.960693 146.810944,195.968796 
	C137.433289,195.987473 128.055237,195.803894 118.317268,195.494598 
z"/>
<path fill="#fff" opacity="1.000000" stroke="none" 
	d="
M104.680832,205.682037 
	C104.460396,205.186157 104.381462,204.483505 104.425476,203.443542 
	C104.639732,203.895889 104.731041,204.685577 104.680832,205.682037 
z"/>
<path fill="#fff" opacity="1.000000" stroke="none" 
	d="
M104.228928,248.309204 
	C104.406639,247.428238 104.612511,246.996490 104.783714,246.311768 
	C105.057602,245.675674 105.547356,245.334824 105.648132,244.903183 
	C108.007332,234.797775 107.988998,234.412720 118.840050,234.112946 
	C132.949463,233.723145 147.077988,233.976959 161.197861,234.044907 
	C165.142944,234.063889 167.076553,235.892883 167.114075,240.229980 
	C167.241959,255.002228 167.368134,255.004974 152.755692,254.999176 
	C136.974777,254.992905 121.193855,254.978470 104.983124,254.950165 
	C104.454582,252.874619 104.355835,250.816513 104.228928,248.309204 
z"/>
<path fill="#fff" opacity="1.000000" stroke="none" 
	d="
M373.792419,202.398544 
	C371.356354,203.529861 369.025757,204.203659 366.723724,204.963974 
	C359.906982,207.215424 358.205811,209.350616 358.037170,216.503601 
	C357.888153,222.824112 358.537903,229.213348 357.810852,235.452896 
	C357.322113,239.647491 358.946838,244.245087 355.890289,248.208557 
	C355.387909,248.860031 356.723358,250.928787 357.718414,253.823013 
	C350.901062,253.823013 344.532532,254.048386 338.208618,253.618179 
	C337.051025,253.539429 335.167450,250.802338 335.152344,249.277161 
	C334.954926,229.348190 335.014771,209.416412 335.096527,189.485687 
	C335.100830,188.432434 335.819519,186.498688 336.305450,186.466156 
	C341.747528,186.101868 347.210358,185.964661 352.662567,186.059036 
	C352.962189,186.064240 353.306610,188.641556 353.472443,190.040314 
	C353.742584,192.318970 353.882416,194.613068 354.077209,196.900665 
	C354.667755,197.018295 355.258301,197.135941 355.848846,197.253586 
	C357.669647,194.280182 359.791168,191.444748 361.234741,188.298279 
	C363.021790,184.403259 366.493500,183.594528 369.863098,183.634094 
	C371.258667,183.650482 373.616608,186.349747 373.808044,188.026306 
	C374.332764,192.621719 373.940338,197.321869 373.792419,202.398544 
z"/>
<path fill="#fff" opacity="1.000000" stroke="none" 
	d="
M439.539490,184.949646 
	C441.421143,185.731384 442.958893,186.895844 444.474243,186.867401 
	C447.492828,186.810776 448.935120,187.799805 449.557892,190.842377 
	C450.202393,193.990952 451.490112,197.007858 452.541565,200.220184 
	C448.971191,200.643860 445.283844,201.081421 441.303345,201.781479 
	C440.062073,203.958191 438.296234,205.873047 438.297729,207.786499 
	C438.307770,220.725586 438.757751,233.663559 438.915802,246.603729 
	C438.965515,250.670334 437.380432,253.616119 432.613190,253.644699 
	C428.799408,253.667557 424.979431,253.766312 421.175629,254.027161 
	C417.280670,254.294250 415.881805,252.662872 415.942902,248.775528 
	C416.115356,237.801407 416.002930,226.822800 416.002380,215.845963 
	C416.001770,202.873306 416.000763,189.900635 415.990570,176.458038 
	C416.917419,173.714691 417.455872,171.154083 418.855774,169.215546 
	C426.684540,158.374634 440.102722,154.428055 452.614288,159.235153 
	C453.549774,159.594574 454.675079,161.558884 454.446503,162.453964 
	C453.771637,165.096924 452.832550,167.843506 451.268555,170.028122 
	C450.227783,171.481857 448.003845,172.716675 446.199280,172.887848 
	C437.929138,173.672287 435.805573,177.065750 439.539490,184.949646 
z"/>
<path fill="#fff" opacity="1.000000" stroke="none" 
	d="
M383.002747,169.138290 
	C383.154175,165.406754 385.012665,163.988998 388.188080,164.001251 
	C390.683533,164.010864 393.179016,163.995331 395.674500,163.995911 
	C404.538971,163.997986 404.538971,163.998795 405.627838,173.847336 
	C398.872131,173.847336 392.163788,174.007339 385.482178,173.657288 
	C384.584991,173.610291 383.822540,170.990265 383.002747,169.138290 
z"/>
<path fill="#fff" opacity="1.000000" stroke="none" 
	d="
M381.992798,183.489746 
	C390.058289,183.032501 398.094055,183.041626 406.603638,183.047363 
	C407.068115,206.718979 407.058838,230.394012 406.938477,254.524994 
	C406.329834,254.792435 405.832275,254.603928 405.334229,253.819733 
	C405.553894,251.259644 405.958344,249.295837 405.964966,247.330688 
	C406.018555,231.359192 405.996033,215.387451 405.999939,199.415787 
	C406.003784,183.462158 406.005463,183.462173 389.722107,184.028091 
	C384.196228,184.220139 383.021942,185.372498 383.016357,190.888687 
	C382.997681,209.355896 383.043182,227.823242 382.977203,246.290222 
	C382.970337,248.212158 382.384735,250.132004 382.067657,252.052826 
	C382.037842,242.985840 382.008026,233.918854 381.947784,224.372925 
	C381.932617,210.581360 381.947876,197.268753 381.992798,183.489746 
z"/>
<path fill="#fff" opacity="1.000000" stroke="none" 
	d="
M382.074524,252.348541 
	C382.384735,250.132004 382.970337,248.212158 382.977203,246.290222 
	C383.043182,227.823242 382.997681,209.355896 383.016357,190.888687 
	C383.021942,185.372498 384.196228,184.220139 389.722107,184.028091 
	C406.005463,183.462173 406.003784,183.462158 405.999939,199.415787 
	C405.996033,215.387451 406.018555,231.359192 405.964966,247.330688 
	C405.958344,249.295837 405.553894,251.259644 405.168274,253.605515 
	C397.959503,254.032242 390.916321,254.077515 383.231750,254.017212 
	C382.590424,253.911606 382.128601,253.827881 382.128601,253.827881 
	C382.112885,253.433350 382.097137,253.038803 382.074524,252.348541 
z"/>
<path fill="#fff" opacity="1.000000" stroke="none" 
	d="
M382.176147,254.002228 
	C382.128601,253.827881 382.590424,253.911606 382.823364,253.945618 
	C382.778748,254.045273 382.501221,254.110916 382.176147,254.002228 
z"/>
<path fill="transparent" opacity="1.000000" stroke="none" 
	d="
M297.465668,199.024323 
	C301.941620,201.209595 303.195770,204.968689 304.202057,209.592773 
	C298.322327,209.592773 292.948517,209.592773 287.562469,209.592773 
	C288.485992,200.537659 289.860657,199.007629 297.465668,199.024323 
z"/>
</svg>