<svg version="1.1" id="Layer_1" xmlns="http://www.w3.org/2000/svg" xmlns:xlink="http://www.w3.org/1999/xlink" x="0px" y="0px"
	 width="100%" viewBox="0 0 1920 1080" enable-background="new 0 0 1920 1080" xml:space="preserve">
<path fill="transparent" opacity="1.000000" stroke="none" 
	d="
M1253.000000,1081.000000 
	C835.333435,1081.000000 418.166809,1081.000000 1.000168,1081.000000 
	C1.000112,721.000122 1.000112,361.000275 1.000056,1.000313 
	C640.999756,1.000209 1280.999512,1.000209 1920.999512,1.000104 
	C1920.999634,360.999664 1920.999634,720.999329 1920.999756,1080.999512 
	C1698.500000,1081.000000 1476.000000,1081.000000 1253.000000,1081.000000 
M264.103058,558.208984 
	C256.251129,517.178833 248.399170,476.148712 240.580765,435.293915 
	C224.332626,435.293915 208.808197,435.293915 193.141541,435.293915 
	C203.295334,476.996979 213.335648,518.329407 223.429077,559.648804 
	C228.476044,580.309509 233.339966,601.021423 238.838089,621.562622 
	C241.591553,631.849731 246.391357,641.226074 256.964294,645.952576 
	C267.022675,650.448975 277.404388,649.130615 287.866058,647.792908 
	C291.703094,647.302307 293.094574,645.524719 293.868591,642.073975 
	C296.268616,631.373962 298.917908,620.729919 301.459412,610.061584 
	C309.852936,574.828857 318.284454,539.605164 326.588715,504.351471 
	C327.926331,498.672974 328.688416,492.858948 329.896118,486.102905 
	C330.612488,487.485565 330.911652,487.834106 330.976959,488.222076 
	C333.754333,504.720520 336.038666,521.318604 339.375244,537.702576 
	C345.073242,565.682190 351.247833,593.569214 357.602264,621.408386 
	C360.013062,631.970215 365.354370,640.970947 375.784637,645.689209 
	C385.414398,650.045349 395.480194,649.481384 405.649414,647.885803 
	C409.202942,647.328247 410.917023,646.038147 411.876587,642.369446 
	C427.603485,582.239746 443.503479,522.155334 459.355591,462.058350 
	C461.700867,453.167236 464.000824,444.264160 466.332275,435.326416 
	C450.965332,435.326416 436.234802,435.326416 421.239685,435.326416 
	C410.238647,489.695374 399.303528,543.738464 388.789978,595.698059 
	C378.132965,543.451599 367.075897,489.243683 356.032013,435.100586 
	C339.734436,435.100586 324.441223,435.100586 308.433899,435.100586 
	C296.081238,489.696014 283.729706,544.286255 271.326569,599.104675 
	C268.962646,585.673279 266.620819,572.367615 264.103058,558.208984 
M786.329956,484.471466 
	C765.912964,483.748138 749.756592,491.547546 738.685303,509.518829 
	C738.410522,509.193237 738.135742,508.867645 737.860962,508.542053 
	C737.860962,501.777435 737.860962,495.012787 737.860962,488.113586 
	C724.162537,488.113586 710.799377,488.113586 697.434570,488.113586 
	C697.434570,541.209167 697.434570,593.943115 697.434570,646.675598 
	C711.784546,646.675598 725.827271,646.675598 740.030273,646.675598 
	C740.030273,615.298218 740.040527,584.311646 740.023071,553.325073 
	C740.018677,545.624451 741.973999,538.521790 746.542480,532.289001 
	C752.896118,523.620667 761.221802,518.771484 772.258606,520.320801 
	C783.394653,521.884155 789.492188,529.275208 792.008057,539.535156 
	C793.492310,545.587769 794.158142,551.976318 794.209351,558.221863 
	C794.436340,585.881653 794.307434,613.544250 794.307312,641.205872 
	C794.307312,642.994995 794.307312,644.784058 794.307312,646.691650 
	C808.869751,646.691650 822.904724,646.691650 837.132324,646.691650 
	C837.132324,644.491455 837.132263,642.666809 837.132324,640.842224 
	C837.132629,611.514282 836.972473,582.184631 837.275879,552.859802 
	C837.332886,547.352234 838.479431,541.571411 840.454102,536.427673 
	C844.507019,525.870117 855.332947,519.548157 866.651978,520.069580 
	C877.242371,520.557434 884.885559,526.495361 888.260620,538.282043 
	C890.155457,544.899353 891.297668,551.953552 891.384216,558.828430 
	C891.730347,586.319031 891.529968,613.816589 891.531799,641.311523 
	C891.531921,643.108337 891.531799,644.905151 891.531799,646.841553 
	C906.012634,646.841553 919.950378,646.841553 934.302063,646.841553 
	C934.302063,644.806641 934.302002,642.995117 934.302063,641.183594 
	C934.302612,612.022278 934.385437,582.860535 934.239807,553.699951 
	C934.207642,547.251099 933.759033,540.748535 932.820251,534.371155 
	C930.667236,519.745911 925.793091,506.157410 914.192566,496.248596 
	C896.119324,480.810760 867.535095,480.012238 847.527893,494.628296 
	C840.693115,499.621368 835.008179,506.188324 828.856750,511.980743 
	C814.451233,491.123474 804.907288,484.773407 786.329956,484.471466 
M594.877258,546.716370 
	C594.651184,544.081787 594.455383,541.444214 594.194214,538.813110 
	C591.294617,509.592865 573.810242,490.480988 544.804932,485.732727 
	C525.527527,482.576965 506.413025,484.462006 487.789612,490.256409 
	C481.085114,492.342407 474.673340,495.369293 468.109192,497.974243 
	C471.122620,508.305145 473.809753,517.517578 476.581116,527.018555 
	C478.294647,526.152893 479.749481,525.427368 481.196014,524.685730 
	C495.266357,517.471497 510.178223,514.316895 525.972656,515.339539 
	C542.129272,516.385498 552.172180,527.071533 550.579102,541.392334 
	C538.863342,542.636902 527.073669,543.251343 515.529663,545.269958 
	C499.500610,548.072998 484.379974,553.438721 472.149536,564.981995 
	C451.869049,584.122986 451.705872,618.186646 471.897461,637.247131 
	C490.267792,654.588379 525.257507,654.835205 545.875732,637.697083 
	C548.832092,635.239685 551.507996,632.445068 554.471436,629.658203 
	C561.832581,649.953552 582.510132,652.488159 597.143616,646.326294 
	C593.277527,613.513489 595.439819,580.562256 594.877258,546.716370 
M978.911377,491.370514 
	C973.619934,493.653564 968.328430,495.936646 963.051697,498.213348 
	C966.000610,508.167969 968.755188,517.466248 971.587036,527.025513 
	C987.313171,518.277405 1003.460876,514.260803 1020.852600,515.313904 
	C1036.940308,516.287964 1047.377075,527.406616 1045.200562,541.606628 
	C1035.966309,542.424744 1026.696777,542.963623 1017.505493,544.122925 
	C1001.677002,546.119446 986.583069,550.430420 973.325134,559.789185 
	C945.097656,579.715088 944.401733,622.369812 971.988220,641.632996 
	C992.199890,655.746399 1025.937866,652.583923 1043.975708,634.779907 
	C1045.679443,633.098267 1046.808350,630.834045 1048.314697,628.682495 
	C1051.148926,633.327148 1052.612305,636.578796 1054.824829,639.197449 
	C1062.699585,648.517700 1078.814819,652.317200 1089.998413,647.501526 
	C1091.067017,647.041443 1091.925171,644.679321 1091.868042,643.240356 
	C1091.387817,631.149597 1090.380127,619.075195 1090.087280,606.982422 
	C1089.527710,583.870361 1090.253296,560.689514 1088.750244,537.647827 
	C1086.985474,510.593140 1069.028320,491.195404 1043.034546,486.273804 
	C1021.540955,482.204254 1000.410828,484.580139 978.911377,491.370514 
M1308.337158,635.470215 
	C1308.337158,628.027344 1308.337158,620.584534 1308.337158,613.159058 
	C1302.285034,613.506775 1297.037109,614.005005 1291.783813,614.068970 
	C1280.985596,614.200378 1275.924194,610.220459 1273.455811,599.684326 
	C1272.744385,596.646973 1272.348267,593.465332 1272.332397,590.347107 
	C1272.233032,570.691711 1272.281494,551.035645 1272.281128,531.379761 
	C1272.281006,529.636414 1272.281128,527.893127 1272.281128,525.797974 
	C1285.011230,525.797974 1296.955933,525.797974 1309.031128,525.797974 
	C1309.031128,512.059570 1309.031128,498.684387 1309.031128,484.961609 
	C1296.722290,484.961609 1284.774414,484.961609 1272.253906,484.961609 
	C1272.253906,468.234131 1272.253906,451.844574 1272.253906,435.201691 
	C1257.945801,435.201691 1244.218018,435.201691 1230.014526,435.201691 
	C1230.014526,437.187347 1230.014526,438.979736 1230.014526,440.772125 
	C1230.014893,491.410980 1229.932251,542.050110 1230.107178,592.688354 
	C1230.132812,600.102234 1230.892578,607.597717 1232.165527,614.906860 
	C1235.479126,633.931519 1247.149902,645.523865 1266.219971,649.268616 
	C1277.103516,651.405823 1288.025513,650.658569 1298.737671,648.343018 
	C1310.562622,645.787109 1308.032104,648.106323 1308.337158,635.470215 
M624.045288,508.500000 
	C624.045288,554.563049 624.045288,600.626099 624.045288,646.606689 
	C638.666199,646.606689 652.690857,646.606689 666.669556,646.606689 
	C666.669556,575.943726 666.669556,505.740753 666.669556,435.284729 
	C652.375854,435.284729 638.356262,435.284729 624.045288,435.284729 
	C624.045288,459.589874 624.045288,483.544922 624.045288,508.500000 
M1165.373779,548.110840 
	C1173.776855,526.366699 1191.677612,524.249573 1211.591553,526.411438 
	C1211.591553,512.418030 1211.591553,498.986389 1211.591553,485.377960 
	C1199.629639,482.873505 1188.823364,485.125793 1178.706665,491.608154 
	C1168.789062,497.962769 1162.981812,507.498657 1158.593384,518.216125 
	C1158.156982,518.038574 1157.720581,517.861023 1157.284180,517.683472 
	C1157.284180,507.812378 1157.284180,497.941254 1157.284180,488.170654 
	C1144.109619,488.170654 1131.559082,488.170654 1119.175171,488.170654 
	C1119.175171,541.312561 1119.175171,594.039978 1119.175171,646.767822 
	C1133.932251,646.767822 1148.341064,646.767822 1163.106812,646.767822 
	C1163.106812,644.672302 1163.106934,642.870728 1163.106934,641.069153 
	C1163.106689,614.910522 1163.010132,588.751221 1163.196289,562.593933 
	C1163.229004,558.016357 1164.448120,553.447327 1165.373779,548.110840 
M1559.086914,466.563721 
	C1559.292114,464.589111 1559.521973,462.616730 1559.698975,460.639587 
	C1562.107178,433.754730 1564.493652,406.867920 1566.922119,379.984894 
	C1567.438965,374.264709 1566.579468,369.319000 1561.873779,365.152496 
	C1552.488037,356.842377 1534.124634,356.297852 1523.799438,364.388855 
	C1519.440674,367.804565 1517.314209,371.914978 1517.842163,377.692291 
	C1520.330078,404.913116 1522.525879,432.160583 1524.987671,459.383911 
	C1525.443726,464.427032 1525.728149,469.810303 1527.729858,474.307495 
	C1530.283081,480.044556 1539.464478,482.558807 1547.220947,480.723114 
	C1552.935913,479.370667 1559.142212,475.946075 1559.086914,466.563721 
M1669.598267,493.035095 
	C1678.467163,488.868561 1687.300903,484.624664 1696.219604,480.567841 
	C1700.710449,478.525177 1703.177979,475.011261 1704.258057,470.438263 
	C1707.294678,457.580048 1697.196289,440.024658 1684.563232,436.051086 
	C1680.245850,434.693085 1676.145264,434.715057 1672.230835,437.472168 
	C1646.961304,455.270325 1621.667603,473.034332 1596.350952,490.765381 
	C1591.849976,493.917755 1589.905640,498.411133 1591.564941,503.306702 
	C1593.161377,508.016388 1595.685669,512.727600 1598.907471,516.492371 
	C1603.168823,521.471863 1607.731323,521.702759 1613.757080,518.903076 
	C1632.135010,510.364258 1650.511841,501.822876 1669.598267,493.035095 
M1381.808594,626.561829 
	C1384.417480,630.770752 1386.557739,635.378784 1389.732178,639.106079 
	C1396.506714,647.060608 1405.905762,649.062927 1412.760986,644.286499 
	C1438.016113,626.689941 1463.216675,609.014099 1488.309082,591.186829 
	C1490.434204,589.677002 1492.465210,587.028137 1493.057861,584.553406 
	C1494.971680,576.563293 1489.815430,566.064636 1482.183350,562.983337 
	C1479.157104,561.761536 1474.726807,561.533081 1471.837158,562.842041 
	C1443.961548,575.468689 1416.290283,588.546204 1388.527222,601.422729 
	C1384.053345,603.497681 1381.071045,606.983643 1380.632446,611.591980 
	C1380.187866,616.261963 1381.165527,621.067383 1381.808594,626.561829 
M1563.855469,666.714539 
	C1563.689331,666.070801 1563.427612,665.435303 1563.371094,664.782104 
	C1561.929443,648.094055 1560.450195,631.408813 1559.111816,614.712402 
	C1558.520752,607.339966 1554.468018,602.733582 1546.827148,601.256409 
	C1538.088501,599.567078 1529.194946,603.101257 1526.526123,609.374207 
	C1526.141479,610.277954 1525.890503,611.284424 1525.805786,612.263123 
	C1523.126587,643.162903 1520.499634,674.067322 1517.795166,704.964844 
	C1517.366211,709.864136 1519.119507,713.654724 1522.782593,716.764038 
	C1530.045410,722.928955 1538.590332,724.285706 1547.631348,723.054382 
	C1561.929199,721.107300 1567.682251,713.647766 1566.446533,699.358093 
	C1565.531982,688.783203 1564.733765,678.198303 1563.855469,666.714539 
M1596.775269,591.710083 
	C1621.564331,609.056580 1646.406860,626.327515 1671.100952,643.808167 
	C1676.576538,647.684265 1681.996094,647.732727 1687.441772,644.734985 
	C1698.342407,638.734436 1704.047119,629.073364 1704.784180,616.856567 
	C1705.180786,610.283020 1702.822998,604.493896 1696.123047,601.389587 
	C1668.228638,588.465332 1640.361694,575.481628 1612.503052,562.480530 
	C1608.466309,560.596741 1604.723999,561.118896 1601.178589,563.519470 
	C1596.300049,566.822815 1593.091919,571.373413 1591.695312,577.106934 
	C1590.331421,582.705505 1591.169067,587.673157 1596.775269,591.710083 
M1429.240967,449.288666 
	C1423.924072,445.565582 1418.533081,441.942871 1413.312012,438.089905 
	C1408.503418,434.541443 1403.444458,434.200958 1398.307007,436.790527 
	C1387.153809,442.412170 1381.179565,451.800720 1380.041626,464.046539 
	C1379.295898,472.072113 1382.537964,477.918640 1390.383789,481.502136 
	C1417.314209,493.802460 1444.107300,506.405762 1470.872314,519.063904 
	C1476.054321,521.514648 1481.020020,521.305786 1484.724731,517.479553 
	C1488.182251,513.908691 1491.294800,509.390076 1492.816406,504.720703 
	C1494.545166,499.416046 1493.430542,494.132507 1487.893799,490.334320 
	C1468.414917,476.971710 1449.155884,463.288483 1429.240967,449.288666 
M1718.170532,632.072876 
	C1712.686157,635.301392 1711.081909,639.525818 1713.707520,643.824402 
	C1716.166626,647.850647 1721.211426,648.890320 1725.426514,646.226685 
	C1728.664551,644.180481 1729.660034,641.135193 1728.654053,637.633728 
	C1727.271240,632.820679 1723.587036,631.462402 1718.170532,632.072876 
z"/>
<path fill="#FDFEFE" opacity="1.000000" stroke="none" 
	d="
M264.191040,558.635437 
	C266.620819,572.367615 268.962646,585.673279 271.326569,599.104675 
	C283.729706,544.286255 296.081238,489.696014 308.433899,435.100586 
	C324.441223,435.100586 339.734436,435.100586 356.032013,435.100586 
	C367.075897,489.243683 378.132965,543.451599 388.789978,595.698059 
	C399.303528,543.738464 410.238647,489.695374 421.239685,435.326416 
	C436.234802,435.326416 450.965332,435.326416 466.332275,435.326416 
	C464.000824,444.264160 461.700867,453.167236 459.355591,462.058350 
	C443.503479,522.155334 427.603485,582.239746 411.876587,642.369446 
	C410.917023,646.038147 409.202942,647.328247 405.649414,647.885803 
	C395.480194,649.481384 385.414398,650.045349 375.784637,645.689209 
	C365.354370,640.970947 360.013062,631.970215 357.602264,621.408386 
	C351.247833,593.569214 345.073242,565.682190 339.375244,537.702576 
	C336.038666,521.318604 333.754333,504.720520 330.976959,488.222076 
	C330.911652,487.834106 330.612488,487.485565 329.896118,486.102905 
	C328.688416,492.858948 327.926331,498.672974 326.588715,504.351471 
	C318.284454,539.605164 309.852936,574.828857 301.459412,610.061584 
	C298.917908,620.729919 296.268616,631.373962 293.868591,642.073975 
	C293.094574,645.524719 291.703094,647.302307 287.866058,647.792908 
	C277.404388,649.130615 267.022675,650.448975 256.964294,645.952576 
	C246.391357,641.226074 241.591553,631.849731 238.838089,621.562622 
	C233.339966,601.021423 228.476044,580.309509 223.429077,559.648804 
	C213.335648,518.329407 203.295334,476.996979 193.141541,435.293915 
	C208.808197,435.293915 224.332626,435.293915 240.580765,435.293915 
	C248.399170,476.148712 256.251129,517.178833 264.191040,558.635437 
z"/>
<path fill="#FEFEFF" opacity="1.000000" stroke="none" 
	d="
M786.793457,484.519562 
	C804.907288,484.773407 814.451233,491.123474 828.856750,511.980743 
	C835.008179,506.188324 840.693115,499.621368 847.527893,494.628296 
	C867.535095,480.012238 896.119324,480.810760 914.192566,496.248596 
	C925.793091,506.157410 930.667236,519.745911 932.820251,534.371155 
	C933.759033,540.748535 934.207642,547.251099 934.239807,553.699951 
	C934.385437,582.860535 934.302612,612.022278 934.302063,641.183594 
	C934.302002,642.995117 934.302063,644.806641 934.302063,646.841553 
	C919.950378,646.841553 906.012634,646.841553 891.531799,646.841553 
	C891.531799,644.905151 891.531921,643.108337 891.531799,641.311523 
	C891.529968,613.816589 891.730347,586.319031 891.384216,558.828430 
	C891.297668,551.953552 890.155457,544.899353 888.260620,538.282043 
	C884.885559,526.495361 877.242371,520.557434 866.651978,520.069580 
	C855.332947,519.548157 844.507019,525.870117 840.454102,536.427673 
	C838.479431,541.571411 837.332886,547.352234 837.275879,552.859802 
	C836.972473,582.184631 837.132629,611.514282 837.132324,640.842224 
	C837.132263,642.666809 837.132324,644.491455 837.132324,646.691650 
	C822.904724,646.691650 808.869751,646.691650 794.307312,646.691650 
	C794.307312,644.784058 794.307312,642.994995 794.307312,641.205872 
	C794.307434,613.544250 794.436340,585.881653 794.209351,558.221863 
	C794.158142,551.976318 793.492310,545.587769 792.008057,539.535156 
	C789.492188,529.275208 783.394653,521.884155 772.258606,520.320801 
	C761.221802,518.771484 752.896118,523.620667 746.542480,532.289001 
	C741.973999,538.521790 740.018677,545.624451 740.023071,553.325073 
	C740.040527,584.311646 740.030273,615.298218 740.030273,646.675598 
	C725.827271,646.675598 711.784546,646.675598 697.434570,646.675598 
	C697.434570,593.943115 697.434570,541.209167 697.434570,488.113586 
	C710.799377,488.113586 724.162537,488.113586 737.860962,488.113586 
	C737.860962,495.012787 737.860962,501.777435 737.860962,508.542053 
	C738.135742,508.867645 738.410522,509.193237 738.685303,509.518829 
	C749.756592,491.547546 765.912964,483.748138 786.793457,484.519562 
z"/>
<path fill="#FDFEFE" opacity="1.000000" stroke="none" 
	d="
M594.877075,547.194946 
	C595.439819,580.562256 593.277527,613.513489 597.142578,646.326294 
	C582.510132,652.488159 561.832581,649.953552 554.471436,629.658203 
	C551.507996,632.445068 548.832092,635.239685 545.875732,637.697083 
	C525.257507,654.835205 490.267792,654.588379 471.897461,637.247131 
	C451.705872,618.186646 451.869049,584.122986 472.149536,564.981995 
	C484.379974,553.438721 499.500610,548.072998 515.529663,545.269958 
	C527.073669,543.251343 538.863342,542.636902 550.579102,541.392334 
	C552.172180,527.071533 542.129272,516.385498 525.972656,515.339539 
	C510.178223,514.316895 495.266357,517.471497 481.196014,524.685730 
	C479.749481,525.427368 478.294647,526.152893 476.581116,527.018555 
	C473.809753,517.517578 471.122620,508.305145 468.109192,497.974243 
	C474.673340,495.369293 481.085114,492.342407 487.789612,490.256409 
	C506.413025,484.462006 525.527527,482.576965 544.804932,485.732727 
	C573.810242,490.480988 591.294617,509.592865 594.194214,538.813110 
	C594.455383,541.444214 594.651184,544.081787 594.877075,547.194946 
M504.819977,584.417542 
	C497.148804,596.246765 500.061646,611.523865 511.022980,616.950317 
	C526.541321,624.632812 549.537231,613.066101 551.716919,595.887634 
	C552.769409,587.592346 551.898499,579.053040 551.898499,570.241882 
	C540.061646,570.027954 528.781311,570.673645 518.248169,575.068604 
	C513.523132,577.040100 509.567474,580.855347 504.819977,584.417542 
z"/>
<path fill="#FDFEFE" opacity="1.000000" stroke="none" 
	d="
M979.288818,491.254272 
	C1000.410828,484.580139 1021.540955,482.204254 1043.034546,486.273804 
	C1069.028320,491.195404 1086.985474,510.593140 1088.750244,537.647827 
	C1090.253296,560.689514 1089.527710,583.870361 1090.087280,606.982422 
	C1090.380127,619.075195 1091.387817,631.149597 1091.868042,643.240356 
	C1091.925171,644.679321 1091.067017,647.041443 1089.998413,647.501526 
	C1078.814819,652.317200 1062.699585,648.517700 1054.824829,639.197449 
	C1052.612305,636.578796 1051.148926,633.327148 1048.314697,628.682495 
	C1046.808350,630.834045 1045.679443,633.098267 1043.975708,634.779907 
	C1025.937866,652.583923 992.199890,655.746399 971.988220,641.632996 
	C944.401733,622.369812 945.097656,579.715088 973.325134,559.789185 
	C986.583069,550.430420 1001.677002,546.119446 1017.505493,544.122925 
	C1026.696777,542.963623 1035.966309,542.424744 1045.199951,541.599976 
	C1047.377075,527.406616 1036.940308,516.287964 1020.852600,515.313904 
	C1003.460876,514.260803 987.313171,518.277405 971.587036,527.025513 
	C968.755188,517.466248 966.000610,508.167969 963.051697,498.213348 
	C968.328430,495.936646 973.619934,493.653564 979.288818,491.254272 
M1047.135986,587.439148 
	C1047.135986,581.838562 1047.135986,576.237976 1047.135986,569.060974 
	C1036.584717,570.655945 1026.651978,571.400696 1017.170654,573.875061 
	C1011.496521,575.355957 1005.735657,578.691833 1001.423584,582.707764 
	C994.448853,589.203369 993.953918,597.967346 996.964661,606.746826 
	C999.415100,613.892578 1004.990601,617.712769 1012.168579,618.815247 
	C1030.435669,621.620972 1048.801270,607.818481 1047.135986,587.439148 
z"/>
<path fill="#FEFEFF" opacity="1.000000" stroke="none" 
	d="
M1308.337158,635.960205 
	C1308.032104,648.106323 1310.562622,645.787109 1298.737671,648.343018 
	C1288.025513,650.658569 1277.103516,651.405823 1266.219971,649.268616 
	C1247.149902,645.523865 1235.479126,633.931519 1232.165527,614.906860 
	C1230.892578,607.597717 1230.132812,600.102234 1230.107178,592.688354 
	C1229.932251,542.050110 1230.014893,491.410980 1230.014526,440.772125 
	C1230.014526,438.979736 1230.014526,437.187347 1230.014526,435.201691 
	C1244.218018,435.201691 1257.945801,435.201691 1272.253906,435.201691 
	C1272.253906,451.844574 1272.253906,468.234131 1272.253906,484.961609 
	C1284.774414,484.961609 1296.722290,484.961609 1309.031128,484.961609 
	C1309.031128,498.684387 1309.031128,512.059570 1309.031128,525.797974 
	C1296.955933,525.797974 1285.011230,525.797974 1272.281128,525.797974 
	C1272.281128,527.893127 1272.281006,529.636414 1272.281128,531.379761 
	C1272.281494,551.035645 1272.233032,570.691711 1272.332397,590.347107 
	C1272.348267,593.465332 1272.744385,596.646973 1273.455811,599.684326 
	C1275.924194,610.220459 1280.985596,614.200378 1291.783813,614.068970 
	C1297.037109,614.005005 1302.285034,613.506775 1308.337158,613.159058 
	C1308.337158,620.584534 1308.337158,628.027344 1308.337158,635.960205 
z"/>
<path fill="#FEFEFF" opacity="1.000000" stroke="none" 
	d="
M624.045288,508.000000 
	C624.045288,483.544922 624.045288,459.589874 624.045288,435.284729 
	C638.356262,435.284729 652.375854,435.284729 666.669556,435.284729 
	C666.669556,505.740753 666.669556,575.943726 666.669556,646.606689 
	C652.690857,646.606689 638.666199,646.606689 624.045288,646.606689 
	C624.045288,600.626099 624.045288,554.563049 624.045288,508.000000 
z"/>
<path fill="#FEFFFF" opacity="1.000000" stroke="none" 
	d="
M1165.246582,548.492554 
	C1164.448120,553.447327 1163.229004,558.016357 1163.196289,562.593933 
	C1163.010132,588.751221 1163.106689,614.910522 1163.106934,641.069153 
	C1163.106934,642.870728 1163.106812,644.672302 1163.106812,646.767822 
	C1148.341064,646.767822 1133.932251,646.767822 1119.175171,646.767822 
	C1119.175171,594.039978 1119.175171,541.312561 1119.175171,488.170654 
	C1131.559082,488.170654 1144.109619,488.170654 1157.284180,488.170654 
	C1157.284180,497.941254 1157.284180,507.812378 1157.284180,517.683472 
	C1157.720581,517.861023 1158.156982,518.038574 1158.593384,518.216125 
	C1162.981812,507.498657 1168.789062,497.962769 1178.706665,491.608154 
	C1188.823364,485.125793 1199.629639,482.873505 1211.591553,485.377960 
	C1211.591553,498.986389 1211.591553,512.418030 1211.591553,526.411438 
	C1191.677612,524.249573 1173.776855,526.366699 1165.246582,548.492554 
z"/>
<path fill="#FBBB2F" opacity="1.000000" stroke="none" 
	d="
M1559.085083,467.003296 
	C1559.142212,475.946075 1552.935913,479.370667 1547.220947,480.723114 
	C1539.464478,482.558807 1530.283081,480.044556 1527.729858,474.307495 
	C1525.728149,469.810303 1525.443726,464.427032 1524.987671,459.383911 
	C1522.525879,432.160583 1520.330078,404.913116 1517.842163,377.692291 
	C1517.314209,371.914978 1519.440674,367.804565 1523.799438,364.388855 
	C1534.124634,356.297852 1552.488037,356.842377 1561.873779,365.152496 
	C1566.579468,369.319000 1567.438965,374.264709 1566.922119,379.984894 
	C1564.493652,406.867920 1562.107178,433.754730 1559.698975,460.639587 
	C1559.521973,462.616730 1559.292114,464.589111 1559.085083,467.003296 
z"/>
<path fill="#FBBB2F" opacity="1.000000" stroke="none" 
	d="
M1669.243652,493.158813 
	C1650.511841,501.822876 1632.135010,510.364258 1613.757080,518.903076 
	C1607.731323,521.702759 1603.168823,521.471863 1598.907471,516.492371 
	C1595.685669,512.727600 1593.161377,508.016388 1591.564941,503.306702 
	C1589.905640,498.411133 1591.849976,493.917755 1596.350952,490.765381 
	C1621.667603,473.034332 1646.961304,455.270325 1672.230835,437.472168 
	C1676.145264,434.715057 1680.245850,434.693085 1684.563232,436.051086 
	C1697.196289,440.024658 1707.294678,457.580048 1704.258057,470.438263 
	C1703.177979,475.011261 1700.710449,478.525177 1696.219604,480.567841 
	C1687.300903,484.624664 1678.467163,488.868561 1669.243652,493.158813 
z"/>
<path fill="#FBBB2F" opacity="1.000000" stroke="none" 
	d="
M1381.664307,626.187622 
	C1381.165527,621.067383 1380.187866,616.261963 1380.632446,611.591980 
	C1381.071045,606.983643 1384.053345,603.497681 1388.527222,601.422729 
	C1416.290283,588.546204 1443.961548,575.468689 1471.837158,562.842041 
	C1474.726807,561.533081 1479.157104,561.761536 1482.183350,562.983337 
	C1489.815430,566.064636 1494.971680,576.563293 1493.057861,584.553406 
	C1492.465210,587.028137 1490.434204,589.677002 1488.309082,591.186829 
	C1463.216675,609.014099 1438.016113,626.689941 1412.760986,644.286499 
	C1405.905762,649.062927 1396.506714,647.060608 1389.732178,639.106079 
	C1386.557739,635.378784 1384.417480,630.770752 1381.664307,626.187622 
z"/>
<path fill="#FBBB2F" opacity="1.000000" stroke="none" 
	d="
M1563.869629,667.166199 
	C1564.733765,678.198303 1565.531982,688.783203 1566.446533,699.358093 
	C1567.682251,713.647766 1561.929199,721.107300 1547.631348,723.054382 
	C1538.590332,724.285706 1530.045410,722.928955 1522.782593,716.764038 
	C1519.119507,713.654724 1517.366211,709.864136 1517.795166,704.964844 
	C1520.499634,674.067322 1523.126587,643.162903 1525.805786,612.263123 
	C1525.890503,611.284424 1526.141479,610.277954 1526.526123,609.374207 
	C1529.194946,603.101257 1538.088501,599.567078 1546.827148,601.256409 
	C1554.468018,602.733582 1558.520752,607.339966 1559.111816,614.712402 
	C1560.450195,631.408813 1561.929443,648.094055 1563.371094,664.782104 
	C1563.427612,665.435303 1563.689331,666.070801 1563.869629,667.166199 
z"/>
<path fill="#FBBB2F" opacity="1.000000" stroke="none" 
	d="
M1596.487549,591.490845 
	C1591.169067,587.673157 1590.331421,582.705505 1591.695312,577.106934 
	C1593.091919,571.373413 1596.300049,566.822815 1601.178589,563.519470 
	C1604.723999,561.118896 1608.466309,560.596741 1612.503052,562.480530 
	C1640.361694,575.481628 1668.228638,588.465332 1696.123047,601.389587 
	C1702.822998,604.493896 1705.180786,610.283020 1704.784180,616.856567 
	C1704.047119,629.073364 1698.342407,638.734436 1687.441772,644.734985 
	C1681.996094,647.732727 1676.576538,647.684265 1671.100952,643.808167 
	C1646.406860,626.327515 1621.564331,609.056580 1596.487549,591.490845 
z"/>
<path fill="#FBBB2F" opacity="1.000000" stroke="none" 
	d="
M1429.527222,449.507812 
	C1449.155884,463.288483 1468.414917,476.971710 1487.893799,490.334320 
	C1493.430542,494.132507 1494.545166,499.416046 1492.816406,504.720703 
	C1491.294800,509.390076 1488.182251,513.908691 1484.724731,517.479553 
	C1481.020020,521.305786 1476.054321,521.514648 1470.872314,519.063904 
	C1444.107300,506.405762 1417.314209,493.802460 1390.383789,481.502136 
	C1382.537964,477.918640 1379.295898,472.072113 1380.041626,464.046539 
	C1381.179565,451.800720 1387.153809,442.412170 1398.307007,436.790527 
	C1403.444458,434.200958 1408.503418,434.541443 1413.312012,438.089905 
	C1418.533081,441.942871 1423.924072,445.565582 1429.527222,449.507812 
z"/>
<path fill="#E3BB2F" opacity="1.000000" stroke="none" 
	d="
M1718.564697,632.000000 
	C1723.587036,631.462402 1727.271240,632.820679 1728.654053,637.633728 
	C1729.660034,641.135193 1728.664551,644.180481 1725.426514,646.226685 
	C1721.211426,648.890320 1716.166626,647.850647 1713.707520,643.824402 
	C1711.081909,639.525818 1712.686157,635.301392 1718.564697,632.000000 
M1724.440063,644.196777 
	C1725.118530,643.102234 1726.562500,641.795593 1726.329102,640.953796 
	C1725.682739,638.622009 1724.851807,635.395996 1723.122192,634.578308 
	C1721.424927,633.775818 1717.354980,634.797607 1716.464233,636.292664 
	C1715.352173,638.159119 1715.575562,641.857117 1716.780884,643.795044 
	C1718.154419,646.003662 1721.240601,647.259460 1723.721191,644.268250 
	C1723.721191,644.268250 1723.674805,644.316345 1724.440063,644.196777 
z"/>
<path fill="#037CC2" opacity="1.000000" stroke="none" 
	d="
M505.041321,584.125732 
	C509.567474,580.855347 513.523132,577.040100 518.248169,575.068604 
	C528.781311,570.673645 540.061646,570.027954 551.898499,570.241882 
	C551.898499,579.053040 552.769409,587.592346 551.716919,595.887634 
	C549.537231,613.066101 526.541321,624.632812 511.022980,616.950317 
	C500.061646,611.523865 497.148804,596.246765 505.041321,584.125732 
z"/>
<path fill="#037CC2" opacity="1.000000" stroke="none" 
	d="
M1047.135986,587.926514 
	C1048.801270,607.818481 1030.435669,621.620972 1012.168579,618.815247 
	C1004.990601,617.712769 999.415100,613.892578 996.964661,606.746826 
	C993.953918,597.967346 994.448853,589.203369 1001.423584,582.707764 
	C1005.735657,578.691833 1011.496521,575.355957 1017.170654,573.875061 
	C1026.651978,571.400696 1036.584717,570.655945 1047.135986,569.060974 
	C1047.135986,576.237976 1047.135986,581.838562 1047.135986,587.926514 
z"/>
<path fill="#037CC2" opacity="1.000000" stroke="none" 
	d="
M1723.770386,644.223145 
	C1721.240601,647.259460 1718.154419,646.003662 1716.780884,643.795044 
	C1715.575562,641.857117 1715.352173,638.159119 1716.464233,636.292664 
	C1717.354980,634.797607 1721.424927,633.775818 1723.122192,634.578308 
	C1724.851807,635.395996 1725.682739,638.622009 1726.329102,640.953796 
	C1726.562500,641.795593 1725.118530,643.102234 1724.205566,643.840515 
	C1723.481934,635.103516 1723.481934,635.103516 1717.277710,636.719849 
	C1717.418579,638.881836 1717.565796,641.140320 1717.807495,644.850647 
	C1719.403564,642.777893 1720.010742,641.989258 1720.717041,641.071960 
	C1721.805786,642.195740 1722.788086,643.209473 1723.770386,644.223145 
z"/>
<path fill="#E3BB2F" opacity="1.000000" stroke="none" 
	d="
M1723.745728,644.245728 
	C1722.788086,643.209473 1721.805786,642.195740 1720.717041,641.071960 
	C1720.010742,641.989258 1719.403564,642.777893 1717.807495,644.850647 
	C1717.565796,641.140320 1717.418579,638.881836 1717.277710,636.719849 
	C1723.481934,635.103516 1723.481934,635.103516 1723.822998,643.900269 
	C1723.674805,644.316345 1723.721191,644.268250 1723.745728,644.245728 
z"/>
</svg>