<?xml version="1.0" encoding="UTF-8"?>
<svg version="1.1" xmlns="http://www.w3.org/2000/svg" width="512" height="512">
<path d="M0 0 C133.32 0 266.64 0 404 0 C404 210.68784463 404 210.68784463 370.6875 244.75 C345.49560371 269.64278406 313.61043939 276.15628111 279.39599609 276.14526367 C277.53035414 276.14826056 275.6647128 276.1516643 273.79907227 276.15544128 C268.75741734 276.1642326 263.71577942 276.16661737 258.67411757 276.16725707 C255.51586324 276.16797046 252.35761316 276.17011026 249.19935989 276.17275429 C238.15715513 276.18199235 227.1149624 276.1860912 216.07275391 276.18530273 C205.81920055 276.1847027 195.56569992 276.19524391 185.3121599 276.2110464 C176.47692348 276.22417231 167.64170419 276.2294845 158.80645812 276.22884732 C153.54388993 276.22859378 148.28136864 276.23136522 143.01881027 276.24202538 C138.06273787 276.25179152 133.10675637 276.25172792 128.15068054 276.24450874 C126.34529613 276.24347332 124.53990579 276.24576271 122.7345314 276.2518692 C87.14873197 276.36431163 56.92490059 267.6603621 30.9375 242.3125 C-27.50655557 183.53442538 0 56.56466752 0 0 Z M152 48 C147.76937489 53.97528266 147.41950438 58.64625466 147.46655273 65.85717773 C147.45793716 66.92799591 147.44932159 67.99881409 147.44044495 69.1020813 C147.41780708 72.62950045 147.42452043 76.15612373 147.43359375 79.68359375 C147.42835715 82.14307389 147.42208053 84.60255201 147.41481018 87.06202698 C147.40440987 92.21242738 147.40896236 97.36255144 147.42358398 102.51293945 C147.44076853 109.10489122 147.41727732 115.69597109 147.38209438 122.28782558 C147.36010735 127.36572519 147.3615652 132.44341661 147.3698597 137.52134895 C147.37067853 139.95136534 147.36382821 142.38139712 147.34908867 144.81136894 C147.33162034 148.21259634 147.34620672 151.61226241 147.36889648 155.01342773 C147.35720428 156.01160019 147.34551208 157.00977264 147.33346558 158.03819275 C147.42110221 164.51263242 148.67685745 169.05780577 153 174 C157.15445372 177.41383891 161.64323601 178.90602168 167 179 C172.83171157 177.06639224 178.15471745 174.51947775 183.5625 171.625 C184.37984619 171.19147217 185.19719238 170.75794434 186.03930664 170.3112793 C193.36851171 166.39588452 200.58776367 162.29282718 207.80566406 158.17700195 C215.57553392 153.76323781 223.42740978 149.51517467 231.3125 145.3125 C243.30571623 138.92034825 243.30571623 138.92034825 255.25 132.4375 C255.93360596 132.06858643 256.61721191 131.69967285 257.3215332 131.31958008 C267.74532389 125.62265771 267.74532389 125.62265771 274 116 C275.29538522 111.00351413 274.91946626 107.70327382 273.1796875 102.9921875 C270.03723021 97.68538876 265.17051985 94.61128617 259.9375 91.625 C259.22070068 91.20927734 258.50390137 90.79355469 257.76538086 90.36523438 C248.79935497 85.22329482 239.65015574 80.40866368 230.52731323 75.55265808 C222.52148941 71.29064403 214.58677593 66.91544198 206.67138672 62.48876953 C201.32770203 59.51072263 195.97143017 56.55539009 190.61569214 53.59909058 C188.658842 52.51868467 186.70258206 51.43721551 184.74633789 50.35571289 C183.53145087 49.68498955 182.31652736 49.01433231 181.1015625 48.34375 C179.48241943 47.44946289 179.48241943 47.44946289 177.83056641 46.53710938 C169.18824214 41.8439859 159.59536114 40.30314183 152 48 Z " fill="green" transform="translate(54,182)"/>
<path d="M0 0 C10.2847373 -0.04664496 20.56944881 -0.0820308 30.85427094 -0.10362434 C35.63156409 -0.11399587 40.40878409 -0.12803159 45.18603516 -0.15087891 C49.80910445 -0.17284674 54.43210404 -0.18461827 59.05522156 -0.18975449 C60.80597529 -0.1934078 62.55672586 -0.20053957 64.30744934 -0.21146011 C99.12451772 -0.41970822 128.83561339 8.43835318 154 33 C154.65484375 33.59296875 155.3096875 34.1859375 155.984375 34.796875 C171.6125555 49.27803308 181.54783491 72.15051702 184 93 C170.67689486 95.8702928 157.33901873 97.70308943 143.75 98.75 C142.7360466 98.82860638 141.7220932 98.90721275 140.67741394 98.98820114 C113.83584073 100.81905213 92.52801083 96.14524501 71.97186279 78.48092651 C60.77439824 68.62777517 50.39089929 57.98705238 40.25 47.0625 C39.73944754 46.51388243 39.22889507 45.96526485 38.70287132 45.40002251 C0 3.76842703 0 3.76842703 0 0 Z " fill="green" transform="translate(272,54)"/>
<path d="M0 0 C1.81777668 1.31999874 1.81777668 1.31999874 3.52449036 3.03001404 C4.17925354 3.67638824 4.83401672 4.32276245 5.50862122 4.98872375 C6.2106517 5.70199326 6.91268219 6.41526276 7.63598633 7.15014648 C8.38774139 7.89810486 9.13949646 8.64606323 9.91403198 9.41668701 C12.39657784 11.89182242 14.86442934 14.38106648 17.33203125 16.87109375 C19.05051475 18.59196095 20.76973766 20.31209006 22.4896698 22.0315094 C26.09106241 25.63603065 29.6856328 29.24717523 33.27514648 32.86352539 C37.88659475 37.50900423 42.51115094 42.14115704 47.14040089 46.76888943 C50.68989982 50.31893094 54.23417189 53.87415121 57.77667809 57.43116951 C59.48080346 59.14167768 61.18615919 60.85096096 62.89274025 62.55901909 C65.2705785 64.94117164 67.64172605 67.3297788 70.01098633 69.72045898 C70.72313797 70.43170425 71.43528961 71.14294952 72.16902161 71.87574768 C72.80968567 72.52494171 73.45034973 73.17413574 74.11042786 73.84300232 C74.67175824 74.40768439 75.23308863 74.97236647 75.81142902 75.55416012 C77 77 77 77 77 79 C31.46 79 -14.08 79 -61 79 C-58.06871061 55.5496849 -47.08484903 36.00637684 -31 19 C-30.01 17.93072266 -30.01 17.93072266 -29 16.83984375 C-24.15001523 11.7649605 -18.85576954 7.84488524 -13 4 C-12.26136719 3.47792969 -11.52273437 2.95585938 -10.76171875 2.41796875 C-10.07722656 1.95003906 -9.39273438 1.48210937 -8.6875 1 C-8.09324219 0.5875 -7.49898437 0.175 -6.88671875 -0.25 C-4.24512387 -1.30007498 -2.71022841 -0.76676843 0 0 Z " fill="green" transform="translate(117,68)"/>
<path d="M0 0 C13.91054053 9.94439697 25.43028189 23.21341249 36.62382269 36.02023292 C41.60209607 41.70135704 46.77501843 47.19071197 51.96477795 52.67809582 C60.00734601 61.19022488 67.94137793 69.78986307 75.72158742 78.5427829 C76.48445058 79.39945557 77.24731374 80.25612824 78.03329396 81.13876069 C83.1830132 86.97290942 83.1830132 86.97290942 83.1830132 88.10162079 C73.68719823 90.9572291 64.15346008 92.71439199 54.3080132 93.72662079 C53.56552453 93.80336785 52.82303586 93.8801149 52.05804753 93.95918763 C32.78171436 95.7057544 17.21841349 91.57071044 2.08193898 79.30083954 C-11.18495733 68.20704308 -23.25378489 55.77109469 -35.1294868 43.22662079 C-35.63784918 42.69091493 -36.14621156 42.15520907 -36.66997886 41.6032697 C-47.55082684 30.13102219 -58.23652613 18.48914972 -68.65023875 6.59039032 C-69.38354852 5.75604273 -70.11685828 4.92169514 -70.87238955 4.06206429 C-71.52980199 3.30201277 -72.18721442 2.54196126 -72.86454844 1.75887787 C-73.43862091 1.09703051 -74.01269338 0.43518315 -74.60416198 -0.24672019 C-75.8169868 -1.89837921 -75.8169868 -1.89837921 -75.8169868 -3.89837921 C-53.23302917 -8.5793215 -20.45170934 -13.67718904 0 0 Z " fill="green" transform="translate(229.8169867992401,58.89837920665741)"/>
</svg>
