<?xml version="1.0" encoding="UTF-8"?>
<svg version="1.1" xmlns="http://www.w3.org/2000/svg" width="512" height="512">
<path d="M0 0 C1.21508743 -0.0127597 2.43017487 -0.02551941 3.68208313 -0.03866577 C4.98735458 -0.04089142 6.29262604 -0.04311707 7.63745117 -0.04541016 C9.00119667 -0.0518443 10.36494081 -0.05857312 11.72868347 -0.06558228 C14.58412879 -0.07753628 17.43945331 -0.08126513 20.29492188 -0.08007812 C23.93645103 -0.07987523 27.57719721 -0.10715436 31.21854115 -0.14162254 C34.03516629 -0.1639699 36.85160548 -0.16791327 39.66831017 -0.16685867 C41.65790472 -0.17033666 43.64744123 -0.19195224 45.63691711 -0.21395874 C53.98291764 -0.17202059 59.65674408 0.60024607 66.11010742 6.25537109 C66.64893555 6.90634766 67.18776367 7.55732422 67.74291992 8.22802734 C68.2972168 8.87642578 68.85151367 9.52482422 69.42260742 10.19287109 C72.24960119 14.29583232 73.11852403 17.86145996 73.06323242 22.81005859 C73.05678711 23.83164062 73.0503418 24.85322266 73.04370117 25.90576172 C73.02694336 26.96085937 73.01018555 28.01595703 72.99291992 29.10302734 C72.98389648 30.17746094 72.97487305 31.25189453 72.96557617 32.35888672 C72.94207298 35.00299588 72.90921568 37.64664607 72.86791992 40.29052734 C73.64751068 40.2816449 74.42710144 40.27276245 75.23031616 40.26361084 C82.61467064 40.18311606 89.99880926 40.12238725 97.38348961 40.08327866 C101.17911022 40.06249581 104.97436516 40.03435141 108.76977539 39.98876953 C112.43971929 39.94497552 116.1093138 39.92132047 119.77949905 39.91101837 C121.17241534 39.90368658 122.56531475 39.88937089 123.95808029 39.86760712 C134.8914565 39.70371544 144.09485293 40.88985629 152.33666992 48.58740234 C159.96482019 57.07177356 161.16386746 65.4558402 161.0949707 76.53808594 C161.09526276 77.76791199 161.09555481 78.99773804 161.09585571 80.26483154 C161.09470393 83.62397055 161.08469713 86.98286149 161.0707078 90.34195662 C161.05817627 93.85732761 161.05702803 97.37270216 161.05465698 100.88809204 C161.04844932 107.53904256 161.0320482 114.18992707 161.011958 120.84084857 C160.98957676 128.41519946 160.97859998 135.98955357 160.96856713 143.56392932 C160.94768131 159.13950018 160.91251926 174.71500524 160.86791992 190.29052734 C163.58892257 190.47430051 166.31009289 190.65168256 169.03173828 190.82543945 C169.79748924 190.87781517 170.5632402 190.93019089 171.35219574 190.98415375 C176.90774168 191.33184765 181.98548869 191.08693172 187.43041992 189.85302734 C188.16454102 189.70542969 188.89866211 189.55783203 189.6550293 189.40576172 C191.39659148 189.05289618 193.13302881 188.67485241 194.86791992 188.29052734 C194.80991211 187.25412109 194.7519043 186.21771484 194.69213867 185.14990234 C194.64522954 183.78015579 194.5997306 182.41036042 194.55541992 181.04052734 C194.51352539 180.35861328 194.47163086 179.67669922 194.4284668 178.97412109 C194.34451847 175.51545017 194.44202955 173.74425026 196.84790039 171.18115234 C200.72887551 168.7515427 204.2038648 168.10153461 208.67651367 167.36865234 C209.52085464 167.21893982 210.36519562 167.06922729 211.23512268 166.91497803 C213.01489743 166.60227421 214.79595003 166.29676782 216.578125 165.99804688 C219.29552385 165.54218747 222.0084531 165.06487531 224.72143555 164.58349609 C226.45624232 164.28145273 228.19126224 163.98063054 229.92651367 163.68115234 C230.73293808 163.54058411 231.53936249 163.40001587 232.370224 163.25518799 C244.1138111 161.29999978 244.1138111 161.29999978 248.86791992 164.29052734 C252.26815964 172.19328102 253.39225468 180.76305274 254.87060547 189.19238281 C255.15620366 190.79170483 255.44237248 192.39092504 255.72906494 193.99005127 C256.50186301 198.3113011 257.26601247 202.63403709 258.02804542 206.95719671 C258.66665375 210.57574011 259.30942181 214.19353966 259.95214111 217.81135476 C261.46913209 226.35100343 262.97899571 234.89189111 264.484375 243.43359375 C266.03381337 252.22457708 267.59513095 261.01339132 269.1623494 269.80122077 C270.51108056 277.3663337 271.85244701 284.93272739 273.18797523 292.50018227 C273.98413389 297.01102557 274.78299375 301.52134583 275.58893394 306.03045273 C276.34681479 310.27255436 277.09542598 314.51619255 277.8371582 318.76114655 C278.10962398 320.31161967 278.38525135 321.86154134 278.66440773 323.41082382 C282.58620939 345.20702158 282.58620939 345.20702158 279.44213867 350.84912109 C275.66789048 352.96247099 271.91758373 353.63177395 267.68041992 354.35302734 C266.35324951 354.59617676 266.35324951 354.59617676 264.99926758 354.84423828 C263.17657029 355.17623074 261.35264863 355.50156858 259.52758789 355.8203125 C257.05332663 356.25774845 254.58766972 356.72617313 252.12182617 357.20849609 C235.31047309 360.45059346 235.31047309 360.45059346 229.86791992 359.29052734 C226.74291992 357.10302734 226.74291992 357.10302734 224.86791992 354.29052734 C224.55541992 351.47802734 224.55541992 351.47802734 224.86791992 349.29052734 C222.55791992 349.62052734 220.24791992 349.95052734 217.86791992 350.29052734 C217.55854492 351.46615234 217.55854492 351.46615234 217.24291992 352.66552734 C213.22022202 363.27082181 205.97318565 372.72993203 197.49291992 380.16552734 C193.3534129 384.15231469 192.94697603 387.68498757 192.34838867 393.25537109 C191.31039972 399.81242327 187.61783711 406.6689863 182.86791992 411.29052734 C174.36772675 417.33611928 166.37139833 420.1813549 155.86791992 419.29052734 C154.87791992 418.96052734 153.88791992 418.63052734 152.86791992 418.29052734 C152.85374023 418.89638672 152.83956055 419.50224609 152.82495117 420.12646484 C152.30269718 429.30119718 149.39340667 436.22957243 142.74291992 442.66552734 C134.41449271 449.46592907 125.46112384 451.32774314 114.86791992 450.29052734 C114.20791992 449.96052734 113.54791992 449.63052734 112.86791992 449.29052734 C112.95041992 450.23927734 113.03291992 451.18802734 113.11791992 452.16552734 C113.06978308 460.1081068 109.11942166 466.89158546 103.79370117 472.53662109 C96.91287317 478.80333868 89.83939638 481.59187596 80.49291992 481.41552734 C79.24768555 481.39748047 78.00245117 481.37943359 76.71948242 481.36083984 C75.30795898 481.32603516 75.30795898 481.32603516 73.86791992 481.29052734 C73.7931543 481.96857422 73.71838867 482.64662109 73.64135742 483.34521484 C72.29631544 492.86600219 69.00503829 500.03928734 61.49291992 506.22802734 C52.39530647 512.60387545 43.77379266 513.31709229 32.86791992 512.29052734 C29.58874272 511.33634053 26.80174292 510.01938732 23.86791992 508.29052734 C21.31070256 506.86495378 21.31070256 506.86495378 18.86791992 506.29052734 C17.50666992 506.75652344 17.50666992 506.75652344 16.11791992 507.23193359 C8.82162698 509.60849055 0.13550561 509.21664846 -7.01098633 506.38427734 C-16.97946685 501.24399273 -22.19380532 493.58499439 -26.13208008 483.29052734 C-27.18395508 483.76490234 -28.23583008 484.23927734 -29.31958008 484.72802734 C-38.47496536 488.59444503 -47.34733454 488.24572152 -56.52270508 484.55224609 C-64.40598639 480.74041995 -69.62079537 475.43268175 -73.44458008 467.60302734 C-74.13208008 465.29052734 -74.13208008 465.29052734 -74.13208008 461.29052734 C-74.93645508 461.72365234 -74.93645508 461.72365234 -75.75708008 462.16552734 C-84.20834344 466.16875736 -93.7951561 466.8950401 -102.87817383 464.59521484 C-105.13402746 463.66472409 -107.08190048 462.61084301 -109.13208008 461.29052734 C-109.83848633 460.85482422 -110.54489258 460.41912109 -111.27270508 459.97021484 C-118.16946687 455.29574296 -121.94738508 449.2882434 -124.13208008 441.29052734 C-124.34311176 438.59644751 -124.45729916 436.04184208 -124.44458008 433.35302734 C-124.46069336 432.675625 -124.47680664 431.99822266 -124.4934082 431.30029297 C-124.4983128 426.18480102 -123.35123485 422.7815345 -121.13208008 418.29052734 C-121.76114258 417.96181641 -122.39020508 417.63310547 -123.03833008 417.29443359 C-132.79034011 411.87501838 -138.96938008 405.6051038 -142.49926758 394.91162109 C-143.06632658 392.56287669 -143.20436766 390.68359112 -143.19458008 388.29052734 C-143.58427859 383.39431527 -147.39902524 380.65948056 -150.76782227 377.49755859 C-158.31708728 370.40271536 -163.7072685 361.62639352 -168.13208008 352.29052734 C-168.13208008 351.63052734 -168.13208008 350.97052734 -168.13208008 350.29052734 C-170.44208008 349.96052734 -172.75208008 349.63052734 -175.13208008 349.29052734 C-175.21458008 350.38365234 -175.29708008 351.47677734 -175.38208008 352.60302734 C-176.13208008 356.29052734 -176.13208008 356.29052734 -177.91821289 357.99829102 C-185.35743363 362.34057105 -197.01876663 358.35081268 -205.08325195 356.8918457 C-207.3890464 356.47677332 -209.6976235 356.08113614 -212.00708008 355.68701172 C-213.4916599 355.42449553 -214.97604276 355.16086252 -216.46020508 354.89599609 C-217.14157532 354.78023727 -217.82294556 354.66447845 -218.52496338 354.54521179 C-222.81748236 353.75094701 -226.36965177 352.51135577 -230.13208008 350.29052734 C-234.21353064 342.12762623 -230.05504856 329.68682431 -228.50170898 321.09814453 C-228.21844505 319.49227725 -227.93600238 317.88626492 -227.65431213 316.28012085 C-226.89211214 311.94830911 -226.11825987 307.61865503 -225.34199953 303.28934383 C-224.52912126 298.74539446 -223.7264436 294.19964278 -222.92245483 289.65411377 C-221.57192816 282.02722045 -220.21426689 274.40162556 -218.85180664 266.77685547 C-217.2784961 257.97186408 -215.71427501 249.16529794 -214.1553942 240.35774112 C-212.4920216 230.95995971 -210.82300677 221.56318755 -209.15180922 212.16679478 C-208.67193031 209.46683437 -208.19299249 206.76670835 -207.71422195 204.06655121 C-206.96102038 199.82069072 -206.2039569 195.57553582 -205.4439373 191.33089066 C-205.16615349 189.7763166 -204.88959645 188.22152273 -204.61437798 186.66649246 C-204.23751316 184.53848915 -203.85609894 182.41134897 -203.47354126 180.28436279 C-203.15552268 178.50138353 -203.15552268 178.50138353 -202.83107948 176.68238449 C-200.89142842 167.27033165 -200.89142842 167.27033165 -198.19458008 163.79052734 C-190.27607215 159.91207448 -177.58334849 164.23136827 -169.05053711 165.7097168 C-166.74259966 166.10551063 -164.43178552 166.48016152 -162.12036133 166.85498047 C-160.63706555 167.10954466 -159.15398372 167.36535935 -157.67114258 167.62255859 C-156.98774811 167.73001907 -156.30435364 167.83747955 -155.60025024 167.94819641 C-151.14270642 168.75419391 -148.29634965 170.02497113 -145.13208008 173.29052734 C-144.75809161 176.1029206 -144.64914993 178.2664489 -144.81958008 181.04052734 C-144.84213867 181.73791016 -144.86469727 182.43529297 -144.88793945 183.15380859 C-144.94660959 184.8669767 -145.03628752 186.57903358 -145.13208008 188.29052734 C-142.65651598 188.83893141 -140.18009391 189.35330595 -137.69458008 189.85302734 C-136.69201172 190.08022461 -136.69201172 190.08022461 -135.66918945 190.31201172 C-130.11956507 191.39180289 -124.89848782 191.2086445 -119.29589844 190.82543945 C-118.50934624 190.77522392 -117.72279404 190.72500839 -116.91240692 190.67327118 C-114.98537167 190.54967352 -113.05868587 190.42064792 -111.13208008 190.29052734 C-111.13576725 189.650375 -111.13945442 189.01022266 -111.14325333 188.35067177 C-111.23176554 172.74167129 -111.29786776 157.13275866 -111.33932877 141.52356911 C-111.35991428 133.97493068 -111.38795758 126.42646025 -111.43383789 118.87792969 C-111.47382916 112.29514014 -111.49954202 105.71247231 -111.50843406 99.12956464 C-111.51362817 95.64706111 -111.52575105 92.16490566 -111.55500031 88.68251419 C-111.58746214 84.78567453 -111.58803164 80.88916887 -111.58618164 76.9921875 C-111.60056274 75.8499472 -111.61494385 74.70770691 -111.62976074 73.53085327 C-111.58107399 64.02195695 -109.44739109 55.90149166 -102.83520508 48.82177734 C-96.34780502 42.98906903 -89.34276822 40.02882502 -80.57592773 40.06347656 C-78.65461533 40.06370316 -78.65461533 40.06370316 -76.69448853 40.06393433 C-75.31170493 40.07414525 -73.92892295 40.0845772 -72.54614258 40.09521484 C-71.11982421 40.09894899 -69.69350326 40.10179407 -68.2671814 40.10379028 C-64.52875581 40.11139516 -60.79048774 40.13101626 -57.05212402 40.15319824 C-53.23114146 40.17372477 -49.41013324 40.1828065 -45.58911133 40.19287109 C-38.10336274 40.21426543 -30.61774356 40.24836294 -23.13208008 40.29052734 C-23.15302734 39.63568359 -23.17397461 38.98083984 -23.19555664 38.30615234 C-23.27938391 35.30110406 -23.33094903 32.29630271 -23.38208008 29.29052734 C-23.4155957 28.26056641 -23.44911133 27.23060547 -23.48364258 26.16943359 C-23.58310994 18.36124588 -22.45411491 13.08147763 -17.16723633 7.04833984 C-16.19077148 6.24009766 -16.19077148 6.24009766 -15.19458008 5.41552734 C-14.54618164 4.86123047 -13.8977832 4.30693359 -13.22973633 3.73583984 C-8.92658485 0.77091238 -5.1799099 0.03703797 0 0 Z M-5.13208008 19.29052734 C-8.12245522 25.86893772 -8.12245522 25.86893772 -7.13208008 40.29052734 C13.98791992 40.29052734 35.10791992 40.29052734 56.86791992 40.29052734 C58.06048951 25.55763253 58.06048951 25.55763253 53.86791992 18.29052734 C50.57801325 16.41561028 47.73543408 16.03682821 43.98925781 16.01586914 C43.04800552 16.00633713 42.10675323 15.99680511 41.13697815 15.98698425 C40.1316655 15.98789566 39.12635284 15.98880707 38.09057617 15.98974609 C36.52441811 15.98331841 36.52441811 15.98331841 34.92662048 15.97676086 C32.72192102 15.97102651 30.51720264 15.9705107 28.3125 15.97485352 C24.9458783 15.97801284 21.58013614 15.95454465 18.21362305 15.92919922 C16.06844186 15.92692603 13.92325832 15.92622282 11.77807617 15.92724609 C10.77478775 15.91803635 9.77149933 15.9088266 8.73780823 15.89933777 C3.44658196 15.93423589 -0.70393947 16.04652826 -5.13208008 19.29052734 Z M-91.06958008 62.04052734 C-95.57592315 69.14143158 -95.44269193 75.97282509 -95.38208008 84.16552734 C-95.38981445 85.20322266 -95.39754883 86.24091797 -95.40551758 87.31005859 C-95.38134999 96.89250553 -94.58224864 105.77624468 -88.13208008 113.29052734 C-82.97503861 117.82827344 -77.89885036 119.11822532 -71.13208008 119.29052734 C-71.09469727 118.53126953 -71.05731445 117.77201172 -71.01879883 116.98974609 C-70.95305664 115.99587891 -70.88731445 115.00201172 -70.81958008 113.97802734 C-70.76157227 112.99189453 -70.70356445 112.00576172 -70.64379883 110.98974609 C-70.06317964 107.92709066 -69.52952304 107.18459427 -67.13208008 105.29052734 C-64.08345483 104.99204741 -61.24347913 104.8703089 -58.19458008 104.89208984 C-57.31809814 104.88921967 -56.44161621 104.88634949 -55.53857422 104.88339233 C-53.6859472 104.88135136 -51.83329865 104.88688357 -49.98071289 104.89941406 C-47.14265829 104.91546751 -44.30602781 104.89956679 -41.46801758 104.88037109 C-39.66853526 104.88235352 -37.86905384 104.88619718 -36.06958008 104.89208984 C-35.21952393 104.88601715 -34.36946777 104.87994446 -33.49365234 104.87368774 C-27.47698257 104.94562485 -27.47698257 104.94562485 -24.13208008 108.29052734 C-23.63708008 114.23052734 -23.63708008 114.23052734 -23.13208008 120.29052734 C8.54791992 120.29052734 40.22791992 120.29052734 72.86791992 120.29052734 C73.19791992 116.33052734 73.52791992 112.37052734 73.86791992 108.29052734 C77.28853287 104.8699144 78.58012392 104.92927699 83.22949219 104.87368774 C84.50457642 104.88279678 84.50457642 104.88279678 85.80541992 104.89208984 C86.68190186 104.88921967 87.55838379 104.88634949 88.46142578 104.88339233 C90.3140528 104.88135136 92.16670135 104.88688357 94.01928711 104.89941406 C96.85734171 104.91546751 99.69397219 104.89956679 102.53198242 104.88037109 C104.33146474 104.88235352 106.13094616 104.88619718 107.93041992 104.89208984 C108.78047607 104.88601715 109.63053223 104.87994446 110.50634766 104.87368774 C116.42994601 104.94451206 116.42994601 104.94451206 118.58374023 106.64608765 C120.43139252 109.01207489 120.38117554 111.01587288 120.55541992 113.97802734 C120.62116211 114.97189453 120.6869043 115.96576172 120.75463867 116.98974609 C120.81071289 118.12863281 120.81071289 118.12863281 120.86791992 119.29052734 C127.89713066 118.97811798 132.36998547 117.82201513 137.49682617 112.64599609 C145.07840677 104.26058526 145.06473878 95.34692407 145.11791992 84.47802734 C145.13854492 83.43582031 145.15916992 82.39361328 145.18041992 81.31982422 C145.21450583 74.53246716 145.04276123 67.23598481 140.5925293 61.70556641 C134.7625784 56.35822734 127.66692032 55.9937332 120.19021606 56.02983093 C118.91670141 56.02409261 118.91670141 56.02409261 117.61745918 56.01823837 C114.78568044 56.00795766 111.95410634 56.01189113 109.12231445 56.01586914 C107.08664768 56.01151993 105.05098254 56.00633608 103.01531982 56.00038147 C97.49462647 55.98700252 91.97400163 55.9864116 86.45329523 55.98894477 C81.84101749 55.99001526 77.22875357 55.98512909 72.6164788 55.98033935 C61.73332234 55.96924791 50.85020039 55.96880468 39.96704102 55.97485352 C28.74772173 55.98089341 17.52852786 55.96858101 6.30922997 55.94728345 C-3.33089524 55.92965795 -12.97098057 55.9236676 -22.6111213 55.92692119 C-28.3653537 55.92873272 -34.11949666 55.9261108 -39.87371445 55.91220665 C-45.28609715 55.89961762 -50.69828461 55.90158271 -56.11066437 55.91461754 C-58.09356121 55.91698054 -60.07647184 55.91425858 -62.05935287 55.90599442 C-64.77326325 55.89550179 -67.4865215 55.90364774 -70.20040894 55.91630554 C-70.97873577 55.90893126 -71.7570626 55.90155697 -72.5589751 55.89395922 C-79.15538322 55.95835992 -86.43204216 56.93476522 -91.06958008 62.04052734 Z M-55.13208008 120.29052734 C-55.13208008 125.57052734 -55.13208008 130.85052734 -55.13208008 136.29052734 C-49.85208008 136.29052734 -44.57208008 136.29052734 -39.13208008 136.29052734 C-39.13208008 131.01052734 -39.13208008 125.73052734 -39.13208008 120.29052734 C-44.41208008 120.29052734 -49.69208008 120.29052734 -55.13208008 120.29052734 Z M88.86791992 120.29052734 C88.86791992 125.57052734 88.86791992 130.85052734 88.86791992 136.29052734 C94.14791992 136.29052734 99.42791992 136.29052734 104.86791992 136.29052734 C104.86791992 131.01052734 104.86791992 125.73052734 104.86791992 120.29052734 C99.58791992 120.29052734 94.30791992 120.29052734 88.86791992 120.29052734 Z M-95.13208008 129.29052734 C-95.13208008 148.76052734 -95.13208008 168.23052734 -95.13208008 188.29052734 C-76.83766604 185.35022551 -76.83766604 185.35022551 -58.55029297 182.36669922 C-31.51025914 178.05167913 -9.80238502 177.21390521 15.29907227 188.64794922 C16.06429199 188.98890625 16.82951172 189.32986328 17.61791992 189.68115234 C18.63112305 190.14569824 18.63112305 190.14569824 19.66479492 190.61962891 C24.72077542 192.15928254 28.66392955 191.26631779 33.38745117 189.17333984 C34.41032227 188.73119141 35.43319336 188.28904297 36.48706055 187.83349609 C37.54086914 187.36556641 38.59467773 186.89763672 39.68041992 186.41552734 C41.76705221 185.49415724 43.85686378 184.5799502 45.94995117 183.67333984 C46.8701001 183.26486816 47.79024902 182.85639648 48.73828125 182.43554688 C56.52306976 179.58737946 63.98060835 178.9023852 72.23510742 178.91552734 C73.31686249 178.91713867 74.39861755 178.91875 75.51315308 178.92041016 C88.19360861 179.10612268 100.51957526 181.15949297 112.99291992 183.29052734 C116.46118594 183.86671872 119.93029102 184.43721219 123.40036011 185.00244141 C125.53076554 185.35109886 127.66003819 185.70677981 129.78787231 186.07080078 C130.74773041 186.2309668 131.7075885 186.39113281 132.6965332 186.55615234 C133.94577072 186.76933105 133.94577072 186.76933105 135.22024536 186.98681641 C138.41676868 187.35348499 141.65043531 187.29052734 144.86791992 187.29052734 C144.86791992 168.15052734 144.86791992 149.01052734 144.86791992 129.29052734 C141.23791992 130.94052734 137.60791992 132.59052734 133.86791992 134.29052734 C129.94995117 135.21630859 129.94995117 135.21630859 126.68041992 135.60302734 C125.01946289 135.81378906 125.01946289 135.81378906 123.32495117 136.02880859 C122.1087207 136.15835938 122.1087207 136.15835938 120.86791992 136.29052734 C120.83053711 137.12197266 120.7931543 137.95341797 120.75463867 138.81005859 C120.65602539 140.44007813 120.65602539 140.44007813 120.55541992 142.10302734 C120.49741211 143.18197266 120.4394043 144.26091797 120.37963867 145.37255859 C119.81326461 148.6021878 119.38279992 149.32371978 116.86791992 151.29052734 C113.81929468 151.58900728 110.97931897 151.71074579 107.93041992 151.68896484 C107.05393799 151.69183502 106.17745605 151.6947052 105.27441406 151.69766235 C103.42178705 151.69970333 101.5691385 151.69417112 99.71655273 151.68164062 C96.87849813 151.66558718 94.04186765 151.68148789 91.20385742 151.70068359 C89.40437511 151.69870117 87.60489368 151.6948575 85.80541992 151.68896484 C84.95536377 151.69503754 84.10530762 151.70111023 83.22949219 151.70736694 C77.21282241 151.63542983 77.21282241 151.63542983 73.86791992 148.29052734 C73.53791992 144.33052734 73.20791992 140.37052734 72.86791992 136.29052734 C41.18791992 136.29052734 9.50791992 136.29052734 -23.13208008 136.29052734 C-23.46208008 140.25052734 -23.79208008 144.21052734 -24.13208008 148.29052734 C-27.55269302 151.71114029 -28.84428408 151.6517777 -33.49365234 151.70736694 C-34.76873657 151.6982579 -34.76873657 151.6982579 -36.06958008 151.68896484 C-36.94606201 151.69183502 -37.82254395 151.6947052 -38.72558594 151.69766235 C-40.57821295 151.69970333 -42.4308615 151.69417112 -44.28344727 151.68164062 C-47.12150187 151.66558718 -49.95813235 151.68148789 -52.79614258 151.70068359 C-54.59562489 151.69870117 -56.39510632 151.6948575 -58.19458008 151.68896484 C-59.04463623 151.69503754 -59.89469238 151.70111023 -60.77050781 151.70736694 C-66.68957458 151.6365968 -66.68957458 151.6365968 -68.84790039 149.94863892 C-70.77565273 147.45955698 -70.65293063 145.20270712 -70.81958008 142.10302734 C-70.88532227 141.01634766 -70.95106445 139.92966797 -71.01879883 138.81005859 C-71.05618164 137.97861328 -71.09356445 137.14716797 -71.13208008 136.29052734 C-71.94290039 136.20416016 -72.7537207 136.11779297 -73.58911133 136.02880859 C-74.69641602 135.88830078 -75.8037207 135.74779297 -76.94458008 135.60302734 C-78.56299805 135.41160156 -78.56299805 135.41160156 -80.21411133 135.21630859 C-84.13208008 134.29052734 -84.13208008 134.29052734 -95.13208008 129.29052734 Z M-186.13208008 181.29052734 C-189.65555943 201.18688731 -193.17611372 221.08376271 -196.69316864 240.98125935 C-198.32619703 250.21960569 -199.96018894 259.4577797 -201.59643555 268.69555664 C-203.02227312 276.74543898 -204.4463168 284.79563621 -205.86819029 292.84621972 C-206.62140201 297.11050213 -207.37552254 301.37461937 -208.13179016 305.63836098 C-208.84315532 309.64911273 -209.55212646 313.66028019 -210.2592411 317.67178345 C-210.51957346 319.1461728 -210.78079 320.62040633 -211.04294395 322.09447289 C-211.40001274 324.10299364 -211.75362933 326.11212722 -212.10705566 328.12129211 C-212.30616295 329.24680135 -212.50527023 330.37231058 -212.71041107 331.53192616 C-213.2076306 334.31967943 -213.2076306 334.31967943 -213.13208008 337.29052734 C-207.90304373 338.78453773 -202.7142627 339.67334108 -197.32348633 340.36083984 C-196.63033325 340.45115479 -195.93718018 340.54146973 -195.22302246 340.63452148 C-193.5263137 340.855291 -191.82923317 341.07320002 -190.13208008 341.29052734 C-186.60755722 321.41162282 -183.08694163 301.53203012 -179.57099152 281.65160751 C-177.93842868 272.42105378 -176.30458222 263.19073069 -174.66772461 253.9609375 C-173.24124418 245.91738494 -171.81716116 237.87341229 -170.39596987 229.82892346 C-169.64319904 225.56844213 -168.88921959 221.3081826 -168.13237 217.04842377 C-167.42026158 213.04026099 -166.71135637 209.03154499 -166.00491905 205.02237892 C-165.74488753 203.54996879 -165.48367973 202.07776584 -165.2212162 200.60578728 C-164.86335169 198.59775792 -164.5101067 196.58890692 -164.15710449 194.58001709 C-163.95799721 193.45542965 -163.75888992 192.33084221 -163.55374908 191.17217636 C-163.0355553 188.11627493 -163.0355553 188.11627493 -163.13208008 184.29052734 C-165.83934374 183.78404595 -168.54765132 183.28517634 -171.25708008 182.79052734 C-172.01762695 182.64744141 -172.77817383 182.50435547 -173.56176758 182.35693359 C-174.30942383 182.22158203 -175.05708008 182.08623047 -175.82739258 181.94677734 C-176.50817871 181.82109375 -177.18896484 181.69541016 -177.89038086 181.56591797 C-180.64879673 181.22704919 -183.35523852 181.27381527 -186.13208008 181.29052734 Z M225.56323242 181.94677734 C224.44174805 182.14980469 224.44174805 182.14980469 223.29760742 182.35693359 C222.15678711 182.5715625 222.15678711 182.5715625 220.99291992 182.79052734 C219.81729492 183.00515625 219.81729492 183.00515625 218.61791992 183.22412109 C216.70038743 183.57488923 214.78402754 183.93205732 212.86791992 184.29052734 C213.62919974 192.23481193 214.97586371 200.04362825 216.36816406 207.89819336 C216.62470834 209.35758782 216.88100338 210.81702612 217.1370697 212.27650452 C217.82868045 216.21430983 218.52375108 220.15149723 219.21947026 224.08857846 C219.94753237 228.21217321 220.67237524 232.33633377 221.39756775 236.46043396 C222.7694108 244.25913004 224.14412543 252.05731702 225.51988643 259.85532278 C227.08680815 268.73767755 228.65050651 277.62059881 230.21394169 286.50356781 C233.42836205 304.76651785 236.64680585 323.02875678 239.86791992 341.29052734 C241.2860189 341.14156801 242.7038563 340.99011727 244.12158203 340.83764648 C245.30596107 340.71154747 245.30596107 340.71154747 246.51426697 340.582901 C249.87908294 340.16491943 253.12034302 339.46717073 256.43041992 338.72802734 C258.57625326 338.24886068 260.72208659 337.76969401 262.86791992 337.29052734 C261.61498498 327.35451437 260.11256868 317.50375186 258.34594727 307.64428711 C258.09907463 306.25297852 257.85248616 304.86161948 257.6061554 303.47021484 C256.94593222 299.74550242 256.281809 296.02149548 255.61690474 292.29761624 C254.91924833 288.38631895 254.22528972 284.47436559 253.53091431 280.56248474 C252.21962277 273.17829563 250.90507643 265.79468997 249.58931696 258.41129583 C248.08976302 249.99560138 246.59390379 241.57925151 245.09833217 233.16284859 C242.02559629 215.87134988 238.94829431 198.58066691 235.86791992 181.29052734 C232.34262015 181.26931077 229.03285598 181.30623146 225.56323242 181.94677734 Z M-37.71411133 195.89990234 C-39.0094429 196.08220398 -40.30477448 196.26450562 -41.63935852 196.45233154 C-58.51544119 198.84234528 -75.34937261 201.54438144 -92.17919922 204.23779297 C-95.73993743 204.80724228 -99.30190817 205.3683693 -102.86475563 205.92446136 C-104.82583134 206.2329603 -106.78546985 206.55055282 -108.74504089 206.86846924 C-119.61205621 208.55940401 -129.4985735 208.692557 -140.31958008 206.79052734 C-141.60445312 206.57589844 -141.60445312 206.57589844 -142.9152832 206.35693359 C-144.98889453 206.00940097 -147.06070341 205.65114007 -149.13208008 205.29052734 C-152.43861221 218.20653714 -154.51788874 231.37245817 -156.80004883 244.49755859 C-157.24385995 247.03494024 -157.68798213 249.57226749 -158.13240051 252.10954285 C-159.17611765 258.07270978 -160.21672964 264.03641068 -161.2557891 270.00039071 C-162.44046259 276.7991177 -163.62917685 283.59713627 -164.81820333 290.3951031 C-167.26060678 304.35946977 -169.69802461 318.32470328 -172.13208008 332.29052734 C-171.24004883 332.46068359 -170.34801758 332.63083984 -169.42895508 332.80615234 C-167.67325195 333.16966797 -167.67325195 333.16966797 -165.88208008 333.54052734 C-164.1418457 333.88857422 -164.1418457 333.88857422 -162.36645508 334.24365234 C-157.63524334 335.77501073 -155.81359864 338.00376724 -153.52661133 342.32177734 C-153.00454102 343.46646484 -152.4824707 344.61115234 -151.94458008 345.79052734 C-148.58628628 352.82757349 -144.65659559 359.71495346 -139.13208008 365.29052734 C-134.22365167 365.29052734 -132.84836118 363.5887016 -129.56958008 360.35302734 C-128.49630009 359.33113738 -127.42073563 358.31164195 -126.34301758 357.29443359 C-125.53429199 356.52897217 -125.53429199 356.52897217 -124.70922852 355.74804688 C-121.60345292 352.87784868 -118.28868383 350.26701229 -114.99145508 347.62255859 C-112.90410227 345.92016839 -110.86177755 344.19902591 -108.83520508 342.42724609 C-98.21305389 333.16306644 -90.274527 328.73969821 -75.90161133 329.00927734 C-70.88756047 329.38338269 -67.36697837 330.6652347 -63.13208008 333.29052734 C-62.49786133 333.65275391 -61.86364258 334.01498047 -61.21020508 334.38818359 C-54.71814955 338.48039808 -50.94118419 344.9033522 -49.13208008 352.29052734 C-48.00869935 358.51050904 -48.23999091 364.04590316 -49.13208008 370.29052734 C-48.20266602 370.70302734 -47.27325195 371.11552734 -46.31567383 371.54052734 C-36.6645549 375.98014636 -30.10594885 380.24650134 -25.75708008 390.35302734 C-24.31542036 394.33915485 -23.49871754 398.07419656 -23.13208008 402.29052734 C-21.99770508 402.24927734 -20.86333008 402.20802734 -19.69458008 402.16552734 C-9.94601186 402.23405858 -1.30262135 405.13084855 5.72729492 412.14599609 C9.44276785 416.75355039 11.36672532 421.60178989 12.86791992 427.29052734 C15.56846697 426.81396022 18.01547296 426.23548604 20.59057617 425.27490234 C27.8773412 423.08626732 36.79650109 422.97176151 43.86791992 425.97802734 C45.22337574 426.70926009 46.55892228 427.47905523 47.86791992 428.29052734 C48.50213867 428.65275391 49.13635742 429.01498047 49.78979492 429.38818359 C56.28185045 433.48039808 60.05881581 439.9033522 61.86791992 447.29052734 C61.82795898 447.98017578 61.78799805 448.66982422 61.74682617 449.38037109 C61.66793973 452.09499286 61.80476863 453.77030815 62.86791992 456.29052734 C67.83526487 460.72802217 73.91833111 464.69811718 80.74291992 465.04052734 C85.81661886 464.49126452 89.81306949 462.63719085 93.18823242 458.78271484 C96.22118829 454.2226763 96.80161569 449.64699253 95.86791992 444.29052734 C91.621771 435.05976883 80.42671713 429.58247665 72.11791992 424.41552734 C65.7032563 420.37776174 59.29950887 416.33899437 53.05541992 412.04052734 C52.05897461 411.35474609 51.0625293 410.66896484 50.03588867 409.96240234 C47.86791992 408.29052734 47.86791992 408.29052734 46.86791992 406.29052734 C46.4172157 399.19193579 46.4172157 399.19193579 47.86791992 396.29052734 C51.17440506 394.63728478 54.30815011 394.66858025 57.86791992 395.29052734 C61.45050806 396.94094365 64.61062427 399.11766763 67.85229492 401.35302734 C68.78914124 401.97773926 69.72598755 402.60245117 70.69122314 403.24609375 C73.67864316 405.24387923 76.64821931 407.26652061 79.61791992 409.29052734 C81.59855723 410.62164261 83.58031849 411.95108711 85.56323242 413.27880859 C91.70869244 417.40044702 97.83440363 421.55088723 103.95556641 425.70849609 C105.6586609 426.86388962 107.36469446 428.01494786 109.07104492 429.16552734 C109.94921875 429.76107422 110.82739258 430.35662109 111.73217773 430.97021484 C115.80246623 433.48646086 119.16242143 433.67622394 123.86791992 433.29052734 C128.29237848 431.92026592 131.78522754 430.02725959 134.36791992 426.10302734 C136.38419382 421.90845753 136.66226342 417.84755057 135.86791992 413.29052734 C130.987038 402.67991447 116.74647576 396.14527553 107.24291992 389.97802734 C101.7810708 386.42091904 96.32197083 382.85958171 90.86791992 379.29052734 C89.81320496 378.60050629 89.81320496 378.60050629 88.73718262 377.89654541 C86.66599423 376.53856325 84.59845815 375.17519865 82.53198242 373.81005859 C81.59145523 373.19429207 81.59145523 373.19429207 80.63192749 372.56608582 C73.13619539 367.59508255 73.13619539 367.59508255 72.46948242 364.35302734 C72.53071062 358.96494595 72.53071062 358.96494595 73.86791992 356.29052734 C77.09627596 354.67634932 80.36831619 354.82632102 83.86791992 355.29052734 C86.52349091 356.56028811 88.65274775 357.7633846 91.04370117 359.40771484 C91.71959793 359.85106171 92.39549469 360.29440857 93.09187317 360.75119019 C95.362506 362.24705572 97.61462368 363.76869481 99.86791992 365.29052734 C101.53922667 366.39921803 103.21162477 367.50626499 104.88500977 368.61181641 C110.28988797 372.19117 115.67394079 375.80112245 121.05541992 379.41552734 C135.11077839 388.89878782 135.11077839 388.89878782 149.36401367 398.07958984 C150.32621826 398.6823877 151.28842285 399.28518555 152.27978516 399.90625 C156.1016 401.95036755 159.5530968 402.94915005 163.86791992 402.29052734 C168.735611 400.60667397 172.03193813 397.54450003 174.86791992 393.29052734 C176.4082503 388.6695362 176.40647543 384.84283438 174.80541992 380.22802734 C170.27711401 373.36253128 162.86844686 369.12427029 156.08666992 364.71240234 C155.15552368 364.10092346 154.22437744 363.48944458 153.26501465 362.85943604 C150.30230573 360.91519314 147.3352742 358.97767114 144.36791992 357.04052734 C142.40667932 355.7558337 140.44573917 354.47068125 138.48510742 353.18505859 C135.60845027 351.29892343 132.73166222 349.41299435 129.85392761 347.52850342 C119.95603758 341.04530332 110.09237723 334.51871061 100.34838867 327.80615234 C89.4858636 320.3973054 79.43553522 314.03846583 66.66479492 310.47021484 C61.01311957 308.71424164 56.55584847 305.8370472 51.86791992 302.29052734 C51.24014648 301.84322266 50.61237305 301.39591797 49.96557617 300.93505859 C40.23410512 293.41027032 34.44981716 282.43082651 29.86791992 271.29052734 C28.58014648 271.44392578 27.29237305 271.59732422 25.96557617 271.75537109 C22.68997191 272.13354693 19.4713397 272.3373217 16.17651367 272.41943359 C9.36971473 272.87719065 3.43968843 273.65080129 -1.49731445 278.71826172 C-5.33149898 283.72706152 -8.51939953 289.03109418 -11.65161133 294.49755859 C-17.5565033 304.78939032 -24.58607668 309.24310289 -35.38208008 313.60302734 C-47.48885002 315.82260183 -59.07006745 314.61179039 -69.37817383 307.67724609 C-74.9136361 303.30065566 -77.5103359 298.39924824 -78.88208008 291.54052734 C-79.70044798 283.61050538 -76.96074988 277.13125051 -72.63208008 270.66552734 C-72.18703125 269.9780542 -71.74198242 269.29058105 -71.28344727 268.58227539 C-69.91374787 266.47536111 -68.52534009 264.38191657 -67.13208008 262.29052734 C-66.3349217 261.08107866 -65.53803457 259.87145113 -64.74145508 258.66162109 C-63.14338763 256.2440915 -61.53057557 253.83715966 -59.90942383 251.43505859 C-57.78747729 248.28537975 -55.70692816 245.11068197 -53.63598633 241.92724609 C-53.02529297 240.99485107 -52.41459961 240.06245605 -51.78540039 239.10180664 C-50.58950191 237.27544443 -49.39968625 235.44507945 -48.21704102 233.61010742 C-36.33158521 215.54332199 -17.43585275 210.15335316 1.86791992 202.29052734 C1.86791992 201.63052734 1.86791992 200.97052734 1.86791992 200.29052734 C-0.39805283 199.46181126 -2.66841142 198.65288138 -4.94458008 197.85302734 C-5.5678418 197.62292969 -6.19110352 197.39283203 -6.83325195 197.15576172 C-17.17454784 193.57008626 -27.04260025 194.32001804 -37.71411133 195.89990234 Z M50.14916992 199.66162109 C49.29303101 200.00861053 48.43689209 200.35559998 47.55480957 200.71310425 C36.63928819 205.16120216 25.7900038 209.7696608 14.94702148 214.39111328 C11.34697178 215.9244496 7.74424156 217.45136498 4.14135742 218.97802734 C1.81046349 219.96982771 -0.52027139 220.96200196 -2.85083008 221.95458984 C-3.90733765 222.40162262 -4.96384521 222.8486554 -6.05236816 223.30923462 C-20.45290174 228.63031258 -20.45290174 228.63031258 -31.56958008 238.43896484 C-32.2837207 239.48149414 -32.99786133 240.52402344 -33.73364258 241.59814453 C-34.53341848 242.828746 -35.33287205 244.05955699 -36.13208008 245.29052734 C-37.13789046 246.79089489 -38.14583963 248.28983007 -39.15551758 249.78759766 C-41.94571358 253.94639716 -44.69826337 258.12862797 -47.43725586 262.32128906 C-49.15315507 264.94778647 -50.87455863 267.57061026 -52.59692383 270.19287109 C-53.69228887 271.86323883 -54.78735246 273.53380429 -55.88208008 275.20458984 C-56.39552979 275.98782623 -56.90897949 276.77106262 -57.43798828 277.57803345 C-57.90938232 278.29993866 -58.38077637 279.02184387 -58.86645508 279.765625 C-59.28121094 280.40005524 -59.6959668 281.03448547 -60.12329102 281.68814087 C-62.24750456 285.06229626 -62.60368822 287.28185813 -62.13208008 291.29052734 C-58.40933339 296.10819953 -54.83135483 297.81609696 -48.87817383 298.57958984 C-42.09209929 298.98314357 -36.62632549 297.32259454 -31.13208008 293.29052734 C-24.72775109 287.07854447 -20.45288807 279.00967466 -15.9621582 271.38818359 C-10.69833845 262.93764846 -10.69833845 262.93764846 -6.21801758 261.32177734 C-4.53170934 260.9362737 -2.83403248 260.59973045 -1.13208008 260.29052734 C0.82165458 259.83671755 2.77535722 259.38276699 4.72862244 258.92694092 C7.68917285 258.25191756 10.66019912 257.63320914 13.63378906 257.01855469 C15.93161987 256.54027758 18.22473926 256.04268458 20.51831055 255.54443359 C22.00048377 255.23464777 23.48289844 254.92601443 24.96557617 254.61865234 C25.63976089 254.46978577 26.31394562 254.32091919 27.00856018 254.1675415 C31.98381615 253.16998912 35.94510648 253.29459588 40.86791992 254.29052734 C42.8486721 256.97869101 43.64883657 259.64640209 44.71557617 262.78271484 C49.71551798 277.0740465 57.02418549 287.33318903 70.46166992 294.74755859 C85.8663581 301.72559968 100.94367052 301.85712102 116.86791992 296.29052734 C122.76584287 293.66670778 127.88415264 290.31325293 133.05541992 286.47802734 C137.48728052 283.30033397 140.39099642 282.10166791 145.86791992 282.29052734 C148.30541992 283.29052734 148.30541992 283.29052734 149.86791992 285.29052734 C151.65382536 292.84628114 151.65382536 292.84628114 149.86791992 296.29052734 C149.16538086 296.55736328 148.4628418 296.82419922 147.73901367 297.09912109 C144.8212092 298.30991071 142.46628032 299.8860506 139.90527344 301.71875 C131.70043107 307.58136272 123.42947307 311.19967048 113.86791992 314.29052734 C113.86791992 315.28052734 113.86791992 316.27052734 113.86791992 317.29052734 C115.43264243 318.76020442 115.43264243 318.76020442 117.57373047 320.07104492 C118.38686203 320.60623245 119.19999359 321.14141998 120.0377655 321.69282532 C121.38261772 322.55523079 121.38261772 322.55523079 122.75463867 323.43505859 C123.6814595 324.04129562 124.60828033 324.64753265 125.56318665 325.2721405 C128.55428783 327.2256572 131.55450376 329.16462961 134.55541992 331.10302734 C136.49811677 332.36701887 138.44018137 333.63198272 140.3815918 334.89794922 C143.29071025 336.79435246 146.20013661 338.69026003 149.11129761 340.58352661 C155.90841241 345.00502662 162.69091969 349.44771943 169.44995117 353.92724609 C170.31110031 354.49433792 171.17224945 355.06142975 172.05949402 355.64570618 C177.36308175 359.17225338 182.35063104 362.77323846 186.86791992 367.29052734 C194.99886142 358.88008473 201.01126058 348.96395924 205.56713867 338.21630859 C208.94233811 333.2193917 216.60115522 333.34388028 221.86791992 332.29052734 C214.60791992 290.71052734 207.34791992 249.13052734 199.86791992 206.29052734 C195.38312236 204.79559482 191.25194432 206.22899482 186.73120117 207.17529297 C174.12720497 209.63046997 162.12545391 207.47467056 149.62182617 205.48193359 C147.76070598 205.19201969 145.89945135 204.90296761 144.03807068 204.61473083 C139.16069563 203.85768414 134.28481061 203.09147325 129.40930176 202.32250977 C121.61217763 201.09365514 113.81331828 199.8759983 106.01359367 198.66377068 C103.31005753 198.24180275 100.6074647 197.8141604 97.90492249 197.38587952 C80.87760132 194.71004074 66.50003857 192.95527857 50.14916992 199.66162109 Z M-98.38208008 355.47802734 C-99.69742604 356.63938557 -101.01384031 357.79953492 -102.33129883 358.95849609 C-102.97373535 359.52487793 -103.61617187 360.09125977 -104.27807617 360.67480469 C-106.87340603 362.93657622 -109.52457682 365.11726888 -112.19458008 367.29052734 C-113.49588867 368.35207031 -113.49588867 368.35207031 -114.82348633 369.43505859 C-116.21424734 370.55284452 -117.61508258 371.65848202 -119.03442383 372.73974609 C-123.94986 376.54950958 -125.83798444 380.01128615 -126.63208008 386.16552734 C-126.3954622 392.03590429 -123.16779364 396.37456164 -119.00708008 400.29052734 C-113.85908356 402.08113483 -108.15435662 402.71755235 -103.09692383 400.32958984 C-100.97445537 398.77040919 -99.07365924 397.07116432 -97.13208008 395.29052734 C-95.5902538 393.98791531 -94.04810302 392.6856695 -92.50073242 391.38964844 C-90.81202482 389.97168339 -89.13336126 388.54254975 -87.45629883 387.11083984 C-81.87299842 382.35764316 -76.20975985 377.69218497 -70.42895508 373.18115234 C-66.81726574 370.20826521 -65.44481597 367.47445608 -64.25708008 362.97802734 C-64.08287702 357.83903704 -65.02377706 353.56143884 -68.60083008 349.70849609 C-72.16381632 346.67821122 -74.69645618 345.12921384 -79.31958008 344.97802734 C-80.42366211 344.92195313 -80.42366211 344.92195313 -81.55004883 344.86474609 C-88.32421401 345.98181721 -93.44749668 351.0456504 -98.38208008 355.47802734 Z M-71.81958008 395.91552734 C-73.0621837 397.00247851 -74.30568208 398.08840759 -75.55004883 399.17333984 C-76.15896973 399.70604492 -76.76789063 400.23875 -77.39526367 400.78759766 C-79.76675509 402.83973445 -82.19391309 404.81832115 -84.63208008 406.79052734 C-88.99035561 410.34459727 -93.32898359 413.9198993 -97.63208008 417.54052734 C-98.23213867 418.03617187 -98.83219727 418.53181641 -99.45043945 419.04248047 C-103.41390073 422.40035017 -106.6276152 425.4228036 -107.56567383 430.75537109 C-107.57465271 436.4390032 -107.10309909 439.90150633 -103.13208008 444.29052734 C-99.25226471 447.4112484 -96.15305213 449.1901079 -91.13208008 449.29052734 C-84.99327642 447.42662116 -81.00921449 444.97067672 -76.31958008 440.66552734 C-75.09524954 439.57854157 -73.86997979 438.4926128 -72.64379883 437.40771484 C-72.04744629 436.87500977 -71.45109375 436.34230469 -70.83666992 435.79345703 C-68.48947571 433.72394578 -66.06764614 431.75480957 -63.63208008 429.79052734 C-59.25970425 426.23146548 -54.93055628 422.62575586 -50.63208008 418.97802734 C-50.03202148 418.47400391 -49.43196289 417.96998047 -48.8137207 417.45068359 C-44.89707727 414.11014849 -41.79882771 411.29077024 -40.13208008 406.29052734 C-39.73527559 401.03286789 -40.23709862 397.72949892 -43.13208008 393.29052734 C-46.85879162 389.51290444 -50.05651326 387.4471739 -55.44458008 387.04052734 C-62.4058376 387.51247701 -66.82598349 391.46495639 -71.81958008 395.91552734 Z M-36.51977539 428.90478516 C-38.27641203 430.41457764 -40.04360766 431.91143822 -41.81176758 433.40771484 C-52.52873192 441.30360991 -52.52873192 441.30360991 -58.46801758 452.43896484 C-58.5876497 459.25799596 -56.65622153 462.62214924 -51.94458008 467.60302734 C-48.13050168 469.89147438 -44.5747569 470.82985078 -40.13208008 470.29052734 C-34.09907649 468.04465287 -29.52727365 464.39249614 -24.81958008 460.10302734 C-23.51758113 458.94001499 -22.21418438 457.77856566 -20.90942383 456.61865234 C-20.27375488 456.05210937 -19.63808594 455.48556641 -18.9831543 454.90185547 C-15.54628522 451.91012032 -11.92736372 449.14966018 -8.30395508 446.38818359 C-5.26892351 443.45686714 -3.51467522 440.33103475 -2.73364258 436.16552734 C-2.80669093 430.32165892 -4.14699067 426.39238671 -8.25708008 422.04052734 C-20.00075228 414.89220513 -27.27520366 420.95601322 -36.51977539 428.90478516 Z M13.18041992 449.97802734 C6.17728848 456.09154662 6.17728848 456.09154662 2.65307617 458.79443359 C-5.12087732 464.68598329 -5.12087732 464.68598329 -9.13208008 473.29052734 C-9.62047976 478.50916841 -8.63887311 482.1570369 -5.31958008 486.22802734 C-2.05031924 489.78303334 1.19393988 491.57800363 6.05541992 491.79052734 C16.83397052 491.4405744 26.18566995 480.06702919 33.86791992 473.29052734 C34.38692871 472.83613281 34.9059375 472.38173828 35.44067383 471.91357422 C42.62712312 466.10452572 42.62712312 466.10452572 46.68041992 458.10302734 C46.9076118 453.48345922 46.20798869 450.27700165 43.86791992 446.29052734 C41.04958997 443.2548262 37.91592416 440.51521846 33.69604492 440.05224609 C32.84526367 440.02775391 31.99448242 440.00326172 31.11791992 439.97802734 C30.27745117 439.94064453 29.43698242 439.90326172 28.57104492 439.86474609 C22.44355898 440.82991368 17.71850861 445.99653275 13.18041992 449.97802734 Z M50.36791992 481.35302734 C46.23942209 485.12459453 41.99603567 488.57912083 37.48510742 491.88037109 C36.95143555 492.34572266 36.41776367 492.81107422 35.86791992 493.29052734 C35.86791992 493.95052734 35.86791992 494.61052734 35.86791992 495.29052734 C40.82410853 495.64314155 44.69709047 495.85426004 49.24291992 493.66552734 C52.63381957 490.59757052 55.57930969 487.86939937 56.11010742 483.12646484 C56.11698719 481.17949012 56.00187669 479.23290051 55.86791992 477.29052734 C53.78651993 477.29052734 51.76863642 480.05822922 50.36791992 481.35302734 Z " fill="green" transform="translate(231.132080078125,-0.29052734375)"/>
</svg>
