<?xml version="1.0" encoding="UTF-8"?>
<svg version="1.1" xmlns="http://www.w3.org/2000/svg" width="512" height="512">
<path d="M0 0 C1.88290489 0.00424484 1.88290489 0.00424484 3.80384827 0.00857544 C7.11979972 0.01784123 10.43546926 0.03576951 13.75134277 0.0579834 C17.14344826 0.07854655 20.53558388 0.08770947 23.92773438 0.09765625 C30.56786563 0.11795625 37.2075075 0.15711414 43.84765625 0.1953125 C43.84765625 10.7553125 43.84765625 21.3153125 43.84765625 32.1953125 C39.61179687 32.23269531 35.3759375 32.27007812 31.01171875 32.30859375 C27.6392296 32.34668634 24.26680615 32.38775917 20.89437866 32.4308548 C17.33162565 32.47556223 13.76899155 32.51498746 10.20605469 32.54174805 C6.12014475 32.57267688 2.03486078 32.62746754 -2.05078125 32.68359375 C-3.33101166 32.68998367 -4.61124207 32.6963736 -5.93026733 32.70295715 C-7.11134064 32.72275131 -8.29241394 32.74254547 -9.50927734 32.76293945 C-11.0748085 32.77959404 -11.0748085 32.77959404 -12.67196655 32.79658508 C-13.49049103 32.92816513 -14.3090155 33.05974518 -15.15234375 33.1953125 C-17.18108561 36.2384253 -17.40314342 36.82047496 -17.41405678 40.23453808 C-17.42152302 41.0593675 -17.42898926 41.88419693 -17.43668175 42.73402119 C-17.43474627 43.63939719 -17.43281078 44.5447732 -17.43081665 45.47758484 C-17.43660233 46.43745804 -17.442388 47.39733124 -17.448349 48.3862915 C-17.46543973 51.62694565 -17.46822254 54.86745857 -17.47119141 58.1081543 C-17.48059682 60.46141566 -17.49087517 62.81467368 -17.50195885 65.16792774 C-17.52928915 71.48487238 -17.54462999 77.80179364 -17.55754089 84.11878204 C-17.57144536 90.0406862 -17.59609089 95.96252632 -17.61987305 101.88439941 C-17.68319091 119.2171676 -17.72920369 136.54999551 -17.77734375 153.8828125 C-17.90109375 192.5959375 -18.02484375 231.3090625 -18.15234375 271.1953125 C123.74765625 271.1953125 265.64765625 271.1953125 411.84765625 271.1953125 C411.72390625 232.4821875 411.60015625 193.7690625 411.47265625 153.8828125 C411.43865723 141.64147217 411.4046582 129.40013184 411.36962891 116.7878418 C411.32973782 105.85196179 411.32973782 105.85196179 411.28720093 94.91609192 C411.2682684 90.03039298 411.25495023 85.1447127 411.2449646 80.25898743 C411.23206489 74.03615159 411.20973144 67.81341821 411.18042254 61.59063876 C411.17127191 59.30112395 411.16549933 57.0115927 411.16340184 54.72206056 C411.16010461 51.64044975 411.14470332 48.55913573 411.12612915 45.47758484 C411.12806463 44.57220883 411.13000011 43.66683283 411.13199425 42.73402119 C411.12452801 41.90919176 411.11706177 41.08436234 411.10936928 40.23453808 C411.10709096 39.52180302 411.10481263 38.80906796 411.10246527 38.07473487 C410.94226472 35.8628487 410.94226472 35.8628487 408.84765625 33.1953125 C406.26549604 32.7173733 406.26549604 32.7173733 403.20458984 32.76293945 C401.43297989 32.73324821 401.43297989 32.73324821 399.62557983 32.70295715 C397.70523422 32.69337227 397.70523422 32.69337227 395.74609375 32.68359375 C394.43935699 32.66564255 393.13262024 32.64769135 391.7862854 32.62919617 C388.31096426 32.58162147 384.83570836 32.551861 381.36016846 32.52575684 C377.81420083 32.49598857 374.26845372 32.44960796 370.72265625 32.40429688 C363.76430418 32.31660369 356.80648913 32.25672642 349.84765625 32.1953125 C349.84765625 21.6353125 349.84765625 11.0753125 349.84765625 0.1953125 C357.08355045 0.11109259 364.31763753 0.03099801 371.5535965 -0.01168823 C374.92421247 -0.03268543 378.29441661 -0.06067398 381.66479492 -0.10644531 C385.54486781 -0.15531454 389.42436151 -0.17773755 393.3046875 -0.1953125 C394.49471878 -0.21595764 395.68475006 -0.23660278 396.9108429 -0.25787354 C409.49067514 -0.26120643 418.62403484 3.46017368 427.75390625 11.97265625 C435.62893523 20.13131975 437.45177718 29.71575289 437.36231995 40.72557068 C437.36926547 41.83314525 437.376211 42.94071983 437.383367 44.08185726 C437.40155207 47.76498602 437.39139592 51.44746446 437.38110352 55.13061523 C437.38816626 57.78270441 437.39677698 60.43474858 437.4072113 63.08682251 C437.42877994 69.52570184 437.42874286 75.96440395 437.42058576 82.40330749 C437.41426906 87.63989689 437.41543804 92.87643487 437.42185783 98.11302376 C437.42275949 98.86019159 437.42366114 99.60735942 437.42459012 100.3771687 C437.42644145 101.89535007 437.42830401 103.41353142 437.43017768 104.93171275 C437.44673127 119.14690988 437.43805776 133.36200756 437.4211921 147.57719869 C437.40649725 160.56296457 437.42112478 173.54849903 437.44996227 186.53423511 C437.4794021 199.89141309 437.49031521 213.24848442 437.48078007 226.6056934 C437.47975759 228.11839074 437.47876297 229.6310881 437.47779655 231.14378548 C437.47732016 231.88792595 437.47684377 232.63206642 437.47635295 233.3987566 C437.47419487 238.62410401 437.48396046 243.84934973 437.49856758 249.07467461 C437.51614165 255.44986999 437.51590131 261.8247705 437.49321593 268.19995456 C437.48211922 271.44822903 437.48154003 274.6958814 437.49751663 277.94415092 C437.51350917 281.47594703 437.49843544 285.00633975 437.47584534 288.53807068 C437.48768107 289.55006025 437.49951679 290.56204983 437.51171118 291.60470575 C437.38108122 301.71171427 433.90699853 311.07143849 426.87109375 318.4453125 C415.50320045 328.277004 403.59323629 329.35261776 389.21118164 329.30883789 C387.32233246 329.30905693 387.32233246 329.30905693 385.39532471 329.3092804 C381.95988392 329.30956611 378.52447839 329.3037059 375.08904576 329.29670644 C371.49226261 329.2904353 367.89547857 329.28986613 364.2986908 329.28868103 C357.49550884 329.28557878 350.69234305 329.27738034 343.8891682 329.26733154 C334.69049075 329.25404069 325.49180884 329.24866156 316.2931242 329.24282932 C301.81128946 329.23343967 287.32948881 329.21351338 272.84765625 329.1953125 C272.84765625 348.0053125 272.84765625 366.8153125 272.84765625 386.1953125 C277.07449219 386.17210937 281.30132812 386.14890625 285.65625 386.125 C289.04732394 386.11211898 292.43839087 386.10128012 295.8294754 386.09181213 C299.39767954 386.08129394 302.96578712 386.06726086 306.53393555 386.04443359 C310.63721602 386.01835001 314.74039579 386.0088035 318.84375 386 C320.10972519 385.98967743 321.37570038 385.97935486 322.68003845 385.96871948 C334.39076725 385.96724597 344.8660619 387.21868831 353.66015625 395.5703125 C360.32745234 402.69323247 361.03162273 410.2973241 361.09765625 419.6328125 C361.12859375 420.72045898 361.12859375 420.72045898 361.16015625 421.83007812 C361.19746347 427.02044456 360.32896274 430.60953345 357.84765625 435.1953125 C354.50769035 437.42195644 353.45350283 437.44742456 349.55739021 437.45537472 C348.45374756 437.46244031 347.35010491 437.4695059 346.21301854 437.4767856 C344.995628 437.47437052 343.77823746 437.47195543 342.5239563 437.46946716 C341.23451831 437.47470384 339.94508032 437.47994052 338.61656845 437.48533589 C335.03008145 437.4995474 331.44368099 437.50117859 327.85716987 437.50073898 C323.99204186 437.5023844 320.12694979 437.5154457 316.26184082 437.52693176 C307.80740746 437.54980149 299.35299917 437.55770436 290.89853907 437.56275821 C285.62175655 437.56601267 280.34498135 437.57253359 275.06820297 437.5797596 C260.46429491 437.59932742 245.86039365 437.61573079 231.25647163 437.61863613 C229.85411866 437.61891749 229.85411866 437.61891749 228.42343532 437.61920452 C226.52808499 437.61957078 224.63273466 437.61993448 222.73738433 437.62029564 C221.79650356 437.62047845 220.85562278 437.62066126 219.88623047 437.62084961 C218.47319115 437.62112043 218.47319115 437.62112043 217.03160559 437.62139673 C201.76117539 437.62493975 186.49088609 437.65196926 171.22050478 437.6893475 C155.55049612 437.72739769 139.88055745 437.74679336 124.21050155 437.74709564 C115.40910473 437.74768093 106.60787601 437.75621849 97.80652237 437.78509331 C90.31327132 437.80956321 82.82024968 437.8169199 75.32696952 437.80184578 C71.50245811 437.79465894 67.67840011 437.79560976 63.85393906 437.81825638 C59.71073112 437.84255586 55.56856221 437.82826077 51.42532349 437.81004333 C49.60592984 437.82984329 49.60592984 437.82984329 47.74978077 437.85004324 C38.7055702 437.75878502 38.7055702 437.75878502 35.61167717 434.78646946 C32.37247347 430.02842769 32.66504668 425.56930672 32.66015625 419.9453125 C32.64791016 419.21957031 32.63566406 418.49382812 32.62304688 417.74609375 C32.60019671 409.20013298 34.23936958 401.99561112 40.34765625 395.6328125 C48.04453236 388.50607536 56.67627694 386.05992984 67.03662109 386.08178711 C68.23741302 386.08186264 69.43820496 386.08193817 70.67538452 386.08201599 C71.95684357 386.08717728 73.23830261 386.09233856 74.55859375 386.09765625 C75.89523261 386.09952355 77.23187217 386.10094598 78.56851196 386.10194397 C82.07014894 386.10574455 85.57174381 386.11555359 89.07336426 386.12664795 C92.65307027 386.13691518 96.23278336 386.14150789 99.8125 386.14648438 C106.82425582 386.15664634 113.83589632 386.17622422 120.84765625 386.1953125 C120.84765625 367.3853125 120.84765625 348.5753125 120.84765625 329.1953125 C111.66308594 329.21851563 102.47851562 329.24171875 93.015625 329.265625 C87.18684783 329.27584758 81.35807718 329.28555872 75.52929688 329.29296875 C66.28358735 329.30481734 57.03791439 329.31871595 47.79223633 329.34619141 C41.05745089 329.36619559 34.32269523 329.37904554 27.58788091 329.38348949 C24.02553672 329.38608503 20.46327768 329.39213737 16.90096092 329.40677261 C12.91334717 329.42302054 8.92587922 329.42328771 4.93823242 329.42236328 C3.77153519 329.42955383 2.60483795 329.43674438 1.40278625 329.44415283 C-12.16092059 329.4102687 -23.21168997 327.2731509 -33.51953125 317.99609375 C-41.29001819 309.42625049 -43.45353721 300.48357534 -43.41976929 289.25959778 C-43.42656596 287.60358576 -43.42656596 287.60358576 -43.43349993 285.91411895 C-43.44616409 282.21329265 -43.44452223 278.51261315 -43.44287109 274.81176758 C-43.44885514 272.15880791 -43.45560384 269.50585975 -43.46322632 266.85290527 C-43.47982428 260.39300019 -43.48533535 253.9331316 -43.48645107 247.47320697 C-43.48740228 242.21981569 -43.49151621 236.96643642 -43.49785233 231.71304893 C-43.51546278 216.80774382 -43.5246917 201.90246748 -43.52319138 186.99715189 C-43.52311147 186.19395846 -43.52303155 185.39076504 -43.52294922 184.56323242 C-43.52286746 183.75905424 -43.5227857 182.95487606 -43.52270146 182.12632885 C-43.52188899 169.1008077 -43.54101718 156.07540231 -43.56922595 143.04991464 C-43.59798424 129.66466644 -43.61176457 116.27947464 -43.6100384 102.89419478 C-43.60937543 95.38376234 -43.61482652 87.8734512 -43.6363945 80.36304665 C-43.65464529 73.96688897 -43.65892194 67.57090755 -43.64537565 61.17473505 C-43.63886498 57.91453481 -43.64085155 54.65474091 -43.65608215 51.39455986 C-43.67155937 47.85138906 -43.66220877 44.30909783 -43.64682007 40.76594543 C-43.65710719 39.74763242 -43.66739432 38.72931941 -43.67799318 37.68014842 C-43.57331943 26.72975571 -40.25670971 18.29279801 -32.65234375 10.42578125 C-22.53056159 1.39525373 -13.13245008 -0.111971 0 0 Z " fill="green" transform="translate(59.15234375,63.8046875)"/>
<path d="M0 0 C91.08 0 182.16 0 276 0 C276 58.41 276 116.82 276 177 C253.23 177.33 230.46 177.66 207 178 C195.64139533 183.65549448 195.64139533 183.65549448 189.61923981 193.89158058 C188.38504635 198.09382569 188.60301444 202.39134581 188.64355469 206.73706055 C188.64048813 208.32366486 188.64048813 208.32366486 188.63735962 209.94232178 C188.63436167 213.4239657 188.6527976 216.90513144 188.671875 220.38671875 C188.67493406 222.81093733 188.67680906 225.23515766 188.67755127 227.65937805 C188.68214793 232.73237872 188.69655162 237.80522009 188.71875 242.87817383 C188.74707698 249.38502365 188.7579669 255.89174835 188.7624321 262.39865398 C188.76658542 267.40085605 188.77640147 272.40303279 188.78830719 277.40522194 C188.79400834 279.80503957 188.79876756 282.20485963 188.80257416 284.60468102 C188.80943769 287.95353872 188.82306963 291.30229706 188.83886719 294.65112305 C188.84054398 296.14190117 188.84054398 296.14190117 188.84225464 297.66279602 C188.84796478 298.57532135 188.85367493 299.48784668 188.85955811 300.42802429 C188.8640201 301.61456116 188.8640201 301.61456116 188.86857224 302.82506847 C188.95337311 305.33362597 188.95337311 305.33362597 190 309 C162.28 309 134.56 309 106 309 C106.33 307.35 106.66 305.7 107 304 C107.1074298 301.25466457 107.16730262 298.53383975 107.17700195 295.78833008 C107.18357315 294.97460938 107.19014435 294.16088867 107.19691467 293.32250977 C107.21657209 290.63818252 107.22829409 287.95391106 107.23828125 285.26953125 C107.24235678 284.34883032 107.2464323 283.42812939 107.25063133 282.47952843 C107.27146103 277.60508832 107.28577549 272.7306761 107.29516602 267.85620117 C107.30621708 262.84064147 107.34061091 257.82552702 107.38033772 252.8101244 C107.40657491 248.93659176 107.4148642 245.06316406 107.41844749 241.1895504 C107.42329597 239.34171228 107.43485994 237.49387831 107.45348549 235.6461277 C107.71978168 220.24449346 107.71978168 220.24449346 101.17578125 206.59765625 C100.56089844 206.09105469 99.94601563 205.58445313 99.3125 205.0625 C98.71050781 204.53785156 98.10851562 204.01320312 97.48828125 203.47265625 C69.47887152 186.89565865 32.54505605 198.37843088 0 198 C0 132.66 0 67.32 0 0 Z M194 21 C191.35468475 27.24588323 188.9847541 34.18334895 190 41 C191.44927477 43.89854954 192.36562982 44.74959072 195.375 45.9375 C198.92733708 46.02207945 200.28305663 45.28795231 203 43 C206.48883727 36.40997404 209.00722334 28.48223052 208 21 C205.58140437 18.30499344 203.99236035 17.19363129 200.4375 16.5 C197.14708717 17.17495648 196.15310025 18.44081404 194 21 Z M134 30 C132.5636004 32.31216224 132.5636004 32.31216224 132 35 C132.85772759 37.65555533 132.85772759 37.65555533 134.55859375 40.26171875 C135.16445312 41.28458984 135.7703125 42.30746094 136.39453125 43.36132812 C137.40580078 45.0077832 137.40580078 45.0077832 138.4375 46.6875 C139.13213751 47.84845726 139.82481556 49.01058896 140.515625 50.17382812 C141.95320853 52.59105776 143.3991184 55.00299922 144.85107422 57.41162109 C148.14701079 62.89488284 151.31705751 68.45067699 154.5 74 C155.74940243 76.16701131 156.99940459 78.33367695 158.25 80.5 C165.75 93.5 165.75 93.5 167.62646484 96.75268555 C168.87141282 98.91049803 170.1165289 101.06821353 171.36181641 103.22583008 C175.22435216 109.91876812 179.08014434 116.61554115 182.93188477 123.31469727 C184.81943956 126.59105981 186.71550644 129.86236186 188.61328125 133.1328125 C190.68943929 136.71255455 192.7323397 140.30587285 194.73046875 143.9296875 C195.50775651 145.30732326 196.2850951 146.68493034 197.0625 148.0625 C197.69285156 149.20847656 198.32320313 150.35445313 198.97265625 151.53515625 C200.82972449 154.25301758 200.82972449 154.25301758 204.046875 154.9453125 C207.84750276 155.0156945 209.82249506 154.04772541 213 152 C215.23631817 149.83822577 215.90414904 148.58058297 216.41015625 145.515625 C215.78855435 140.18760868 213.196539 136.17374887 210.5625 131.5625 C210.02133545 130.59272217 209.4801709 129.62294434 208.92260742 128.6237793 C205.29969038 122.16957421 201.57244549 115.77636527 197.67993164 109.48071289 C196.14435944 106.98925514 194.93057619 104.79172856 194 102 C194.8353125 101.690625 194.8353125 101.690625 195.6875 101.375 C200.1336001 98.73137292 202.46983867 95.30130507 204.375 90.625 C205.4752229 84.24370715 204.72225724 79.10916788 201.2265625 73.6015625 C197.38304018 68.58295055 193.17809262 66.06518838 187 65 C181.67477098 65.01034025 177.64692497 66.32801814 173 69 C172.5992627 67.68467285 172.5992627 67.68467285 172.19042969 66.34277344 C171.0437751 63.12292221 169.68813372 60.45235336 167.953125 57.515625 C167.355 56.49726562 166.756875 55.47890625 166.140625 54.4296875 C165.51671875 53.38039063 164.8928125 52.33109375 164.25 51.25 C163.6415625 50.21617188 163.033125 49.18234375 162.40625 48.1171875 C161.19636185 46.06451401 159.98222718 44.01433705 158.76367188 41.96679688 C157.6061199 40.01959703 156.45611109 38.06788911 155.31445312 36.11132812 C154.79302734 35.22380859 154.27160156 34.33628906 153.734375 33.421875 C153.27772461 32.6390918 152.82107422 31.85630859 152.35058594 31.04980469 C149.87716346 27.29585401 148.65842054 26.17270047 144.1875 25 C139.38128107 24.5574384 137.22365446 26.46933082 134 30 Z M228.25 50.8125 C226.58710938 51.87404297 226.58710938 51.87404297 224.890625 52.95703125 C221.67673682 55.20356429 221.67673682 55.20356429 219 58 C218.45713551 61.64494732 218.49408964 63.30671544 220.6875 66.3125 C223.42166097 68.30769855 224.60944618 68.84756366 228 69 C230.90703006 67.88231995 233.51632282 66.34061953 236.1875 64.75 C236.91130859 64.34136719 237.63511719 63.93273437 238.38085938 63.51171875 C241.82871055 61.51677602 243.73778377 60.39332435 246 57 C245.81989972 53.63812807 245.58112046 51.00081858 243.875 48.0625 C238.25639345 44.87862296 233.12989944 47.63369226 228.25 50.8125 Z M121 52 C119.60028121 54.1411083 118.32120868 56.27731403 117.0625 58.5 C109.97267286 70.65419799 102.04793546 82.21506834 93 93 C94.4160506 96.78518732 96.15421065 100.19749321 98.16796875 103.69921875 C98.80702148 104.81401611 99.44607422 105.92881348 100.10449219 107.07739258 C100.79874867 108.28080756 101.49308653 109.4841756 102.1875 110.6875 C102.90163303 111.93042998 103.61549651 113.17351487 104.32910156 114.41674805 C106.1793735 117.63809986 108.03378901 120.85704339 109.88983154 124.07507324 C110.97931788 125.96413917 112.06813648 127.85358829 113.15673828 129.74316406 C116.39788905 135.36854829 119.6421389 140.99212858 122.890625 146.61328125 C125.27226582 150.73551645 127.64302097 154.86361849 130 159 C135.35768823 158.33215332 135.35768823 158.33215332 140.71386719 157.65234375 C154.13759909 155.93656234 167.47277487 154.50100834 181 154 C179.575794 150.19037936 177.82091117 146.75596032 175.796875 143.23046875 C175.15363281 142.10705078 174.51039063 140.98363281 173.84765625 139.82617188 C173.14855234 138.61321505 172.44933056 137.40032616 171.75 136.1875 C171.02454649 134.92393897 170.29928874 133.66026552 169.57421875 132.39648438 C164.52513923 123.60581085 159.42331885 114.84620228 154.30078125 106.09814453 C150.08329254 98.88609539 145.92507028 91.64183624 141.78814697 84.38342285 C139.46533711 80.30918512 137.13728988 76.237938 134.80957031 72.16650391 C133.65647821 70.14874829 132.50464925 68.13026992 131.35449219 66.11083984 C129.95211239 63.65284233 128.54044804 61.20048777 127.125 58.75 C126.52703613 57.69534546 126.52703613 57.69534546 125.91699219 56.61938477 C125.00120727 55.04530299 124.00916332 53.51591057 123 52 C122.34 52 121.68 52 121 52 Z M223 95 C221.92357291 96.88850355 221.92357291 96.88850355 222 99 C223.43554559 102.67858557 224.67596521 103.82845217 228.1875 105.6875 C234.29922793 107.95205603 240.43513759 109.75748412 247 109 C249.56338689 107.52006844 249.56338689 107.52006844 251 105 C251.66666667 102 251.66666667 102 251 99 C246.35644311 93.19278327 238.78984732 91.82583574 231.734375 90.609375 C227.46612172 90.34956828 225.45935975 91.59473265 223 95 Z M72.30078125 110.0703125 C71.17349609 110.72 70.04621094 111.3696875 68.88476562 112.0390625 C68.00365112 112.55388184 68.00365112 112.55388184 67.10473633 113.07910156 C65.34100265 114.10836666 63.57057437 115.12522958 61.79882812 116.140625 C49.65843458 123.18053484 38.13506397 130.05287309 33.66015625 144.078125 C31.60496395 153.17447911 32.55580011 161.77401484 37 170 C42.90074993 178.62033447 50.62796806 184.3385569 60.89453125 186.65234375 C70.13440841 187.80248231 77.85378181 185.54612519 85.875 181.0625 C86.93835571 180.48447632 86.93835571 180.48447632 88.02319336 179.89477539 C96.77658981 175.09900629 105.39673502 170.05881669 114 165 C110.11653794 157.01221547 105.95955874 149.26791618 101.4375 141.625 C100.21093336 139.54427327 98.98437097 137.46354404 97.7578125 135.3828125 C97.1380957 134.33383789 96.51837891 133.28486328 95.87988281 132.20410156 C93.99979753 128.99965492 92.14891945 125.77988033 90.3046875 122.5546875 C89.7176001 121.53681152 89.1305127 120.51893555 88.52563477 119.47021484 C87.40057991 117.5196067 86.28360254 115.56431295 85.17553711 113.60400391 C84.41768921 112.29955322 84.41768921 112.29955322 83.64453125 110.96875 C83.20471924 110.19982422 82.76490723 109.43089844 82.31176758 108.63867188 C81.66244263 107.8275293 81.66244263 107.8275293 81 107 C77.22555535 107 75.56359794 108.18711743 72.30078125 110.0703125 Z M117.52734375 181.625 C116.62822266 182.16640625 115.72910156 182.7078125 114.80273438 183.265625 C113.85720703 183.83796875 112.91167969 184.4103125 111.9375 185 C110.5134082 185.85851562 110.5134082 185.85851562 109.06054688 186.734375 C106.70584308 188.15429689 104.35239466 189.57625692 102 191 C104.08502672 196.46437574 106.8821546 201.41482047 109.75 206.5 C110.26304687 207.43714844 110.77609375 208.37429687 111.3046875 209.33984375 C114.83647736 215.59590367 118.00029146 219.78963475 124.375 223.3125 C132.67807372 225.48711455 137.80430191 223.12867923 145 219 C143.50741958 214.9663787 141.58927092 211.35819211 139.4453125 207.6328125 C139.10249237 207.03499969 138.75967224 206.43718689 138.40646362 205.82125854 C137.31568509 203.92073799 136.22044325 202.02283491 135.125 200.125 C134.39683495 198.85824558 133.66896761 197.59131999 132.94140625 196.32421875 C131.59314977 193.97695364 130.2428495 191.630912 128.89111328 189.28564453 C126.92011529 185.86120727 124.9587396 182.43145981 123 179 C121.01607865 179 119.16360269 180.63707007 117.52734375 181.625 Z " fill="green" transform="translate(118,11)"/>
<path d="M0 0 C1.03046448 -0.0071553 2.06092896 -0.01431061 3.12261963 -0.02168274 C4.25771469 -0.02437164 5.39280975 -0.02706055 6.56230164 -0.02983093 C8.35022629 -0.03968773 8.35022629 -0.03968773 10.17427063 -0.04974365 C14.13262793 -0.06951168 18.090972 -0.08114646 22.04936218 -0.09111023 C23.41191821 -0.09515765 24.77447404 -0.09927457 26.13702965 -0.10346031 C32.53838774 -0.12251296 38.9397343 -0.13674377 45.3411153 -0.14507228 C52.73069657 -0.15484516 60.11997834 -0.1811653 67.50945407 -0.22157317 C73.22078052 -0.25173274 78.93202111 -0.26654099 84.64342564 -0.26985329 C88.05473977 -0.27220405 91.46573395 -0.28116691 94.87696266 -0.30631447 C98.68377865 -0.33057328 102.48980757 -0.3297647 106.29667664 -0.32279968 C107.42569901 -0.33560974 108.55472137 -0.3484198 109.71795654 -0.36161804 C117.33386266 -0.3107159 117.33386266 -0.3107159 121.30026245 1.98904419 C123.88666426 5.05037615 124.24867754 7.51403309 124.26402283 11.38456726 C124.26973297 12.24812332 124.27544312 13.11167938 124.28132629 14.00140381 C124.28300308 15.41813133 124.28300308 15.41813133 124.28471375 16.86347961 C124.28967865 17.860504 124.29464355 18.85752838 124.29975891 19.88476562 C124.31438351 23.1883869 124.32118273 26.49196017 124.32670593 29.79560852 C124.33245673 32.08862815 124.33821447 34.38164776 124.34397888 36.67466736 C124.35448944 41.48484013 124.36033189 46.29499619 124.36381531 51.10517883 C124.36930293 57.27133362 124.39333662 63.43726791 124.42178726 69.6033535 C124.44040179 74.34052682 124.44561859 79.07764687 124.44715118 83.81485367 C124.45018045 86.08826021 124.45821814 88.36166576 124.47133636 90.63503647 C124.48837325 93.81422003 124.4865223 96.99286279 124.48002625 100.17207336 C124.48924103 101.11250992 124.49845581 102.05294647 124.50794983 103.0218811 C124.46856605 109.16863491 123.5894527 112.68129925 119.12358093 117.14717102 C116.9364872 117.40164661 116.9364872 117.40164661 114.164505 117.40786743 C113.11576706 117.41495224 112.06702911 117.42203705 110.98651123 117.42933655 C109.83114365 117.42685913 108.67577606 117.42438171 107.48539734 117.42182922 C106.27233414 117.42694016 105.05927094 117.43205109 103.80944824 117.43731689 C100.47667795 117.44886003 97.14415584 117.45128242 93.81138277 117.4487536 C91.03056781 117.44768548 88.24977592 117.45256328 85.46896589 117.45735902 C78.90818209 117.46846433 72.34745553 117.46888625 65.78666687 117.46284485 C59.01675587 117.45680671 52.24705278 117.46910952 45.47717726 117.49041492 C39.66734256 117.5080272 33.85757405 117.51403277 28.04771364 117.51077718 C24.5767053 117.50896314 21.10584519 117.51161202 17.63486099 117.52549171 C13.76334214 117.54039276 9.89208815 117.53110314 6.02055359 117.51948547 C4.86923447 117.52712921 3.71791534 117.53477295 2.53170776 117.54264832 C1.47733017 117.535634 0.42295258 117.52861969 -0.66337585 117.52139282 C-1.57888403 117.52156056 -2.4943922 117.52172831 -3.43764305 117.52190113 C-6.38285889 117.06935401 -7.73737763 116.19682486 -9.87641907 114.14717102 C-10.8010023 111.37342132 -11.00759324 109.6976319 -11.02359009 106.83384705 C-11.03074539 105.95346268 -11.0379007 105.07307831 -11.04527283 104.16601562 C-11.04796173 103.20282913 -11.05065063 102.23964264 -11.05342102 101.24726868 C-11.05999222 100.23073715 -11.06656342 99.21420563 -11.07333374 98.16687012 C-11.09306726 94.79832386 -11.10472815 91.42982215 -11.11470032 88.06123352 C-11.12081361 86.33709291 -11.12081361 86.33709291 -11.1270504 84.57812119 C-11.14790917 78.49697295 -11.16221299 72.41584729 -11.17158508 66.33467102 C-11.1826623 60.0473853 -11.21707821 53.76045225 -11.25675678 47.4732914 C-11.28286994 42.64347159 -11.29127211 37.81373659 -11.29486656 32.98385239 C-11.2997445 30.66577644 -11.31139261 28.34770458 -11.32990456 26.02969742 C-11.35418751 22.78813226 -11.35335076 19.54749022 -11.34638977 16.30586243 C-11.35919983 15.3467244 -11.37200989 14.38758636 -11.38520813 13.39938354 C-11.35163963 9.11607657 -11.27155876 6.78466918 -8.9720459 3.07475281 C-5.85061658 0.20362603 -4.14426427 0.01970658 0 0 Z M38.12358093 28.14717102 C35.49943338 30.77131857 35.87059997 31.91698164 35.86479187 35.5749054 C35.85848755 36.70948181 35.85218323 37.84405823 35.84568787 39.01301575 C35.84973633 40.24322449 35.85378479 41.47343323 35.85795593 42.74092102 C35.85604248 43.99852234 35.85412903 45.25612366 35.85215759 46.55183411 C35.85079444 49.21509977 35.85350087 51.87800032 35.86283875 54.54121399 C35.87423341 57.95788496 35.86767346 61.37424174 35.85569382 64.79090118 C35.8467364 68.04508581 35.85300465 71.2992323 35.85795593 74.55342102 C35.85390747 75.78362976 35.84985901 77.0138385 35.84568787 78.28132629 C35.85199219 79.41590271 35.85829651 80.55047913 35.86479187 81.71943665 C35.86638306 82.72156189 35.86797424 83.72368713 35.86961365 84.75617981 C35.89000654 87.33257242 35.89000654 87.33257242 38.12358093 89.14717102 C43.01207776 89.99848914 46.33033792 87.58104475 50.31108093 85.08467102 C51.80854672 84.1711898 53.30733898 83.25988088 54.80717468 82.35029602 C56.05410095 81.59136047 56.05410095 81.59136047 57.32621765 80.8170929 C60.47431139 78.93779798 63.6554576 77.1248934 66.84623718 75.31904602 C68.01854891 74.65381538 69.19083072 73.98853201 70.36308289 73.32319641 C72.67173469 72.01344932 74.98453157 70.71211122 77.3000946 69.414505 C78.90654846 68.49906921 78.90654846 68.49906921 80.54545593 67.56513977 C81.50032898 67.02655334 82.45520203 66.48796692 83.43901062 65.93305969 C86.39437317 63.96702868 88.69623138 61.72684971 91.12358093 59.14717102 C89.6877916 55.53114476 88.12915288 54.24482102 84.74076843 52.40498352 C83.83173767 51.90249084 82.92270691 51.39999817 81.98612976 50.88227844 C81.00023865 50.35094299 80.01434753 49.81960754 78.99858093 49.27217102 C76.91543441 48.12706214 74.83344132 46.97985297 72.75248718 45.83076477 C71.66854675 45.2337677 70.58460632 44.63677063 69.46781921 44.02168274 C66.08147067 42.12356738 62.73755437 40.16641379 59.40092468 38.18232727 C58.31891785 37.53956848 57.23691101 36.89680969 56.12211609 36.23457336 C54.02571865 34.98444579 51.93283025 33.72841169 49.84379578 32.46601868 C48.89069519 31.90060364 47.9375946 31.3351886 46.95561218 30.75263977 C46.11747986 30.24885803 45.27934753 29.74507629 44.41581726 29.22602844 C41.94262325 27.8632723 41.94262325 27.8632723 38.12358093 28.14717102 Z " fill="green" transform="translate(331.8764190673828,202.8528289794922)"/>
<path d="M0 0 C3.21049006 1.39451789 5.82254568 3.50897865 8.609375 5.6015625 C11.71052942 7.2424646 13.55428002 7.34892113 17.0234375 6.87890625 C19.75476614 5.19492919 22.08534577 3.25439421 24.55859375 1.21484375 C27.0234375 -0.12109375 27.0234375 -0.12109375 29.4609375 0.359375 C32.58534683 2.21211163 35.25610873 4.41433199 37.9609375 6.81640625 C42.55412655 10.80314669 47.21501043 14.65454138 52.0234375 18.37890625 C57.83919067 22.89794202 63.48974432 27.58372536 69.0859375 32.37109375 C71.17302846 34.15289215 73.27377425 35.90141124 75.3984375 37.63671875 C76.6978125 38.74660156 76.6978125 38.74660156 78.0234375 39.87890625 C78.0234375 40.20890625 78.0234375 40.53890625 78.0234375 40.87890625 C35.4534375 40.87890625 -7.1165625 40.87890625 -50.9765625 40.87890625 C-47.41984123 37.32218498 -43.8763669 33.97761954 -40.0390625 30.75390625 C-39.47767578 30.28017578 -38.91628906 29.80644531 -38.33789062 29.31835938 C-33.71805812 25.44547654 -28.99131437 21.72104248 -24.23120117 18.02294922 C-19.46100457 14.30146251 -14.82883642 10.43445977 -10.23828125 6.49414062 C-8.82402218 5.28165888 -7.40064156 4.07983902 -5.9765625 2.87890625 C-5.27789062 2.26015625 -4.57921875 1.64140625 -3.859375 1.00390625 C-1.9765625 -0.12109375 -1.9765625 -0.12109375 0 0 Z " fill="green" transform="translate(119.9765625,279.12109375)"/>
<path d="M0 0 C41.91 0 83.82 0 127 0 C127 0.66 127 1.32 127 2 C125.61743164 3.22998047 125.61743164 3.22998047 123.66015625 4.6171875 C122.93570313 5.13539063 122.21125 5.65359375 121.46484375 6.1875 C120.27568359 7.0228125 120.27568359 7.0228125 119.0625 7.875 C118.2478125 8.45507812 117.433125 9.03515625 116.59375 9.6328125 C114.0674309 11.428959 111.53461826 13.21558902 109 15 C107.55068779 16.02330514 106.10146399 17.04673553 104.65234375 18.0703125 C102.5752429 19.53638696 100.49761054 21.00168153 98.41845703 22.46484375 C93.06668271 26.23408411 87.74503141 30.0437356 82.4375 33.875 C81.34888672 34.66003906 81.34888672 34.66003906 80.23828125 35.4609375 C79.53960937 35.96625 78.8409375 36.4715625 78.12109375 36.9921875 C77.43772949 37.48170898 76.75436523 37.97123047 76.05029297 38.47558594 C74.63742868 39.52606517 73.25717049 40.6213638 71.90673828 41.75097656 C66.80998276 45.94489206 66.80998276 45.94489206 62.95703125 46.20703125 C59.00638497 44.59441606 56.00477559 42.34041208 52.6875 39.6875 C51.2633921 38.58377503 49.83755512 37.48227809 48.41015625 36.3828125 C47.68070801 35.81852539 46.95125977 35.25423828 46.19970703 34.67285156 C42.74032571 32.04203238 39.18787535 29.55040923 35.625 27.0625 C6.15451906 6.39870093 6.15451906 6.39870093 0 1 C0 0.67 0 0.34 0 0 Z " fill="green" transform="translate(70,224)"/>
<path d="M0 0 C5.61559508 2.24623803 5.61559508 2.24623803 8.3203125 4.36328125 C8.92858887 4.8315332 9.53686523 5.29978516 10.16357422 5.78222656 C10.81084473 6.2872168 11.45811523 6.79220703 12.125 7.3125 C18.24241199 12.00275491 24.48348524 16.44136934 30.875 20.75 C37.50555975 25.22753889 43.90052024 29.80995424 50 35 C48.66464967 39.006051 46.00655761 40.55672027 42.75 43 C37.89537635 46.7217125 33.1388389 50.51236476 28.5 54.5 C23.38885513 58.87918427 18.16066328 63.08233463 12.84375 67.20898438 C12.29847656 67.63244141 11.75320312 68.05589844 11.19140625 68.4921875 C10.66305176 68.90178711 10.13469727 69.31138672 9.59033203 69.73339844 C7.92892214 71.05660914 6.32377513 72.43399137 4.71484375 73.8203125 C2 76 2 76 0 76 C0 50.92 0 25.84 0 0 Z " fill="green" transform="translate(56,234)"/>
<path d="M0 0 C0 25.08 0 50.16 0 76 C-3.05547989 74.47226006 -5.01517321 73.31808289 -7.546875 71.19921875 C-8.21879883 70.64073242 -8.89072266 70.08224609 -9.58300781 69.50683594 C-10.29811523 68.90645508 -11.01322266 68.30607422 -11.75 67.6875 C-13.28089599 66.41493859 -14.81215457 65.14281326 -16.34375 63.87109375 C-17.50777344 62.90212158 -17.50777344 62.90212158 -18.6953125 61.91357422 C-28.96186218 53.38929282 -39.36862393 45.06455411 -50 37 C-48.8884992 33.6654976 -48.32152885 33.23403264 -45.5625 31.28515625 C-44.8408667 30.76985352 -44.1192334 30.25455078 -43.37573242 29.72363281 C-42.59174072 29.17545898 -41.80774902 28.62728516 -41 28.0625 C-40.19344971 27.48983398 -39.38689941 26.91716797 -38.5559082 26.32714844 C-36.04203841 24.54458177 -33.52115209 22.77224625 -31 21 C-29.49291317 19.93180237 -27.98637807 18.86282576 -26.48046875 17.79296875 C-22.33008601 14.84797307 -18.16744227 11.92078899 -14 9 C-13.34467285 8.53980469 -12.6893457 8.07960937 -12.01416016 7.60546875 C-10.17811605 6.31740749 -8.33963438 5.03292665 -6.5 3.75 C-5.4584375 3.02296875 -4.416875 2.2959375 -3.34375 1.546875 C-1 0 -1 0 0 0 Z " fill="green" transform="translate(211,234)"/>
</svg>
