<?xml version="1.0" encoding="UTF-8"?>
<svg version="1.1" xmlns="http://www.w3.org/2000/svg" width="512" height="512">
<path d="M0 0 C1.30080265 -0.0039821 2.60160531 -0.00796419 3.94182622 -0.01206696 C5.37836616 -0.00636152 6.81490537 -0.00047034 8.25144386 0.00558662 C9.78279905 0.00471427 11.31415395 0.00296274 12.84550726 0.00040829 C17.05057175 -0.00406338 21.25553433 0.00393599 25.46058583 0.01396441 C29.99631003 0.02259918 34.53202846 0.01967873 39.06775856 0.01815987 C46.92523879 0.01711103 54.78268582 0.02338748 62.6401577 0.03463554 C74.00074686 0.05088778 85.36131996 0.05609827 96.72191949 0.05861153 C115.15361453 0.06298906 133.58529188 0.07629976 152.01697731 0.09521675 C169.92192433 0.11357403 187.82686653 0.12773128 205.73182106 0.13623238 C206.83543308 0.13675782 207.93904511 0.13728327 209.07609992 0.13782464 C214.61258244 0.14043471 220.14906501 0.14296213 225.68554759 0.14544845 C271.61813929 0.16618277 317.55071168 0.2014099 363.4832859 0.24609566 C361.63571965 4.25809168 358.98749448 7.00315254 355.8582859 10.05859566 C355.11385231 10.80206245 355.11385231 10.80206245 354.35437965 11.56054878 C351.61924933 14.26436082 348.8126652 16.840362 345.88807106 19.33790779 C340.93379967 23.66096843 336.30901298 28.28785597 331.6707859 32.94507027 C330.71416814 33.90197076 329.75732882 34.8586498 328.80028725 35.81512642 C326.22628614 38.38884291 323.65536021 40.96561084 321.08501244 43.54297519 C318.38958152 46.24469599 315.69128126 48.94354813 312.99329567 51.64271736 C307.89519195 56.74391788 302.79964073 61.84766005 297.70502186 66.95234066 C291.90040834 72.76816683 286.09292417 78.58112288 280.28520775 84.39385021 C268.34805689 96.34142803 256.41448141 108.29257071 244.4832859 120.24609566 C241.1347007 118.68094926 239.48343979 117.30094329 237.3114109 114.28125191 C236.73294411 113.48573921 236.15447731 112.69022652 235.55848122 111.87060738 C234.95616676 111.02514351 234.35385231 110.17967964 233.7332859 109.30859566 C232.80274391 108.02493111 232.80274391 108.02493111 231.85340309 106.71533394 C230.05482034 104.23159917 228.26691489 101.74058375 226.4832859 99.24609566 C224.90215243 97.03615247 223.31903561 94.82773633 221.7332859 92.62109566 C221.14031715 91.78320503 220.5473484 90.94531441 219.9364109 90.08203316 C218.60103343 88.12839282 218.60103343 88.12839282 216.4832859 87.24609566 C216.22805153 87.80425972 215.97281715 88.36242378 215.7098484 88.93750191 C214.30907717 91.57398535 212.66692039 93.80583488 210.8582859 96.18359566 C210.47567604 96.68882759 210.09306618 97.19405952 209.69886208 97.71460152 C208.29790586 99.56169477 206.89111441 101.40423482 205.4832859 103.24609566 C202.92010862 106.59974573 200.3574283 109.95377296 197.7957859 113.30859566 C197.10613747 114.21126167 196.41648903 115.11392769 195.70594215 116.04394722 C191.19414464 121.96253662 186.75239329 127.92725735 182.3582859 133.93359566 C177.27317036 140.88236611 172.04754344 147.70303435 166.73279762 154.47729683 C162.5485734 159.82873627 158.49139409 165.26178691 154.4832859 170.74609566 C149.91646074 176.99489883 145.26079278 183.15684171 140.4832859 189.24609566 C135.00758904 196.2258433 129.70412763 203.31578293 124.4652195 210.47461128 C120.38078133 216.05008337 116.21474737 221.54982499 111.9598484 226.99609566 C108.38653202 231.6853689 104.9508997 236.47812669 101.4832859 241.24609566 C178.0432859 240.91609566 254.6032859 240.58609566 333.4832859 240.24609566 C328.8632859 234.30609566 324.2432859 228.36609566 319.4832859 222.24609566 C316.80913918 218.77209254 314.13848837 215.29689503 311.4832859 211.80859566 C310.82231911 210.9408149 310.16135231 210.07303413 309.48035622 209.17895699 C303.85591157 201.77487141 298.33432379 194.29789721 292.8348484 186.80078316 C287.77373856 179.90735586 282.62788983 173.0773005 277.4832859 166.24609566 C279.12794408 162.01902287 282.26433145 159.20469475 285.42942238 156.08636665 C286.04492537 155.47197707 286.66042836 154.85758749 287.29458296 154.22458005 C289.36108994 152.1641518 291.43464678 150.11096612 293.50818825 148.05761909 C294.99011622 146.58280271 296.47157568 145.10751542 297.95260048 143.63179207 C301.14469415 140.45280779 304.33976719 137.27685881 307.53706932 134.10311317 C312.59377222 129.08297121 317.64179619 124.05416398 322.68827248 119.02374458 C337.04057253 104.71976445 351.40451275 90.42750732 365.77723122 76.14404488 C373.71362745 68.25678143 381.64279239 60.36231936 389.56429636 52.46009851 C394.57776175 47.45970792 399.60010324 42.46846245 404.62921691 37.48381281 C407.75947154 34.37705313 410.88129713 31.26192946 414.00082397 28.14440155 C415.44692358 26.70258961 416.89645818 25.26421327 418.3496933 23.82959366 C420.33692989 21.86682896 422.3113526 19.89198461 424.28318214 17.91375923 C424.85769973 17.35225725 425.43221732 16.79075527 426.02414453 16.21223807 C430.65883215 11.51899262 433.40291284 6.48721484 435.4832859 0.24609566 C439.64981776 0.1583176 443.81610867 0.10544294 447.9832859 0.05859566 C449.15633278 0.03345894 450.32937965 0.00832222 451.5379734 -0.01757622 C459.19969212 -0.08214126 465.590045 0.00398912 471.7254734 5.11328316 C472.26430153 5.77586128 472.80312965 6.43843941 473.3582859 7.12109566 C473.91258278 7.77851753 474.46687965 8.43593941 475.0379734 9.11328316 C478.87411013 14.77417681 478.76331111 19.89830701 478.72379494 26.52815437 C478.72636299 28.09274139 478.72636299 28.09274139 478.72898293 29.68893623 C478.73229702 33.20000193 478.72124011 36.71087743 478.71033669 40.22192574 C478.70972413 42.77567317 478.7099908 45.32942094 478.7110672 47.88316822 C478.71147339 54.03555269 478.70289802 60.18786672 478.69006454 66.34023596 C478.67566366 73.4570915 478.67407499 80.57392662 478.67249489 87.69079781 C478.66199452 106.48007301 478.63407229 125.26933521 478.6082859 144.05859566 C478.5670359 186.03047066 478.5257859 228.00234566 478.4832859 271.24609566 C312.8232859 271.24609566 147.1632859 271.24609566 -23.5167141 271.24609566 C-23.5992141 229.33609566 -23.6817141 187.42609566 -23.7667141 144.24609566 C-23.80313011 131.00613472 -23.83954613 117.76617378 -23.87706566 104.12500191 C-23.89513206 87.97461128 -23.89513206 87.97461128 -23.898489 80.41723824 C-23.9022201 75.13168344 -23.91689666 69.84629247 -23.93901634 64.56079292 C-23.96718381 57.8201998 -23.97468195 51.07988136 -23.9690032 44.33921814 C-23.97019081 41.86454082 -23.97813296 39.38985541 -23.99357462 36.91522598 C-24.0134634 33.57282793 -24.00867746 30.2313367 -23.99773216 26.88891792 C-24.00938282 25.9203083 -24.02103348 24.95169868 -24.03303719 23.95373726 C-23.97109788 16.91881834 -22.389198 11.64323415 -17.8057766 6.22265816 C-17.25663597 5.77664253 -16.70749535 5.33062691 -16.1417141 4.87109566 C-15.59772972 4.40961128 -15.05374535 3.94812691 -14.4932766 3.47265816 C-9.87801115 0.60863968 -5.34636146 -0.00361974 0 0 Z M147.60024452 33.6443119 C146.20344987 36.14904524 146.20344987 36.14904524 147.1082859 38.49609566 C148.45701425 40.54322441 148.45701425 40.54322441 151.4832859 41.24609566 C153.26302222 41.34071806 155.04611619 41.37671478 156.82836342 41.37980843 C157.93737511 41.38407341 159.0463868 41.38833839 160.1890049 41.39273262 C161.40623238 41.39227943 162.62345985 41.39182625 163.87757301 41.39135933 C165.15905724 41.39471794 166.44054146 41.39807655 167.76085854 41.40153694 C171.27737101 41.41037598 174.79385915 41.412715 178.31038165 41.41335273 C181.24533043 41.41430205 184.18027353 41.41798057 187.11522013 41.42152482 C194.03893703 41.42966884 200.96264093 41.43210909 207.88636208 41.43139839 C215.03058087 41.43079744 222.1747242 41.44135285 229.31892389 41.45714206 C235.45148383 41.47021291 241.58401908 41.47558249 247.71659285 41.47494298 C251.37982209 41.47468788 255.04298426 41.47754574 258.70619965 41.48812103 C262.79072045 41.49959064 266.87507184 41.495058 270.95960426 41.48901558 C272.17480751 41.49463509 273.39001076 41.50025459 274.64203835 41.50604439 C276.30978561 41.49975266 276.30978561 41.49975266 278.01122475 41.49333382 C278.97705451 41.49387858 279.94288427 41.49442335 280.93798161 41.49498463 C283.62214405 41.23251761 285.24146358 40.73084656 287.4832859 39.24609566 C288.56353249 36.84499348 288.56353249 36.84499348 288.4832859 34.24609566 C287.37891892 32.49566628 287.37891892 32.49566628 285.4832859 31.24609566 C282.92028838 30.78787974 282.92028838 30.78787974 279.97962379 30.85168648 C278.83551033 30.84033669 277.69139687 30.82898689 276.5126133 30.81729317 C274.62831108 30.82168907 274.62831108 30.82168907 272.70594215 30.82617378 C271.37047552 30.81883496 270.03501525 30.81024928 268.69956398 30.8005085 C265.0715007 30.77826589 261.44366433 30.77536308 257.81554222 30.77725601 C254.78852406 30.77737557 251.76155425 30.76881781 248.73454952 30.7604785 C241.59509822 30.74123527 234.45576385 30.73836423 227.31629372 30.74511909 C219.94580728 30.751764 212.57582077 30.72888006 205.20543575 30.69180536 C198.88093518 30.66114361 192.55659573 30.64974437 186.23202229 30.65364218 C182.45300367 30.65571304 178.67437418 30.65017915 174.8954258 30.62574959 C171.34278825 30.60354195 167.79096586 30.60530881 164.23832512 30.62567711 C162.31017423 30.63073141 160.38200856 30.6110264 158.45395851 30.59066963 C157.30984505 30.60187843 156.16573158 30.61308723 154.98694801 30.6246357 C153.99069908 30.62392319 152.99445015 30.62321068 151.96801186 30.62247658 C149.25406035 31.03398833 149.25406035 31.03398833 147.60024452 33.6443119 Z M19.4832859 40.24609566 C18.1349499 42.94276767 18.33375738 45.06581399 18.30628395 48.08520699 C18.29344872 49.31020409 18.28061348 50.53520119 18.2673893 51.79731941 C18.25922158 53.1409178 18.25177791 54.48452076 18.24500465 55.82812691 C18.24092913 56.50407087 18.2368536 57.18001484 18.23265457 57.87644196 C18.21179462 61.45481625 18.19749318 65.03315222 18.18811989 68.61157417 C18.17706113 72.30387991 18.14266829 75.99558202 18.10294819 79.68767452 C18.07677452 82.52989493 18.06842741 85.37197174 18.06483841 88.21430206 C18.05997355 89.57505236 18.04836219 90.93579629 18.02980042 92.29642868 C18.00540029 94.20373788 18.00879466 96.11134083 18.0133152 98.01880074 C18.00744896 99.10308861 18.00158272 100.18737648 17.99553871 101.30452156 C18.60029148 104.95174925 19.94281197 106.61146776 22.4832859 109.24609566 C25.17995791 110.59443166 27.30300424 110.39562418 30.32239723 110.42309761 C31.54739433 110.43593285 32.77239143 110.44876808 34.03450966 110.46199226 C35.37810805 110.47015998 36.72171101 110.47760365 38.06531715 110.48437691 C39.0792331 110.4904902 39.0792331 110.4904902 40.1136322 110.49672699 C43.6920065 110.51758694 47.27034247 110.53188839 50.84876442 110.54126167 C54.54107015 110.55232043 58.23277226 110.58671327 61.92486477 110.62643337 C64.76708517 110.65260705 67.60916199 110.66095415 70.45149231 110.66454315 C71.81224261 110.66940801 73.17298654 110.68101937 74.53361893 110.69958115 C76.44092813 110.72398127 78.34853107 110.72058691 80.25599098 110.71606636 C81.34027885 110.7219326 82.42456673 110.72779884 83.54171181 110.73384285 C87.18893949 110.12909009 88.848658 108.78656959 91.4832859 106.24609566 C92.83162191 103.54942365 92.63281443 101.42637732 92.66028786 98.40698433 C92.67312309 97.18198723 92.68595833 95.95699013 92.69918251 94.6948719 C92.70735023 93.35127351 92.7147939 92.00767055 92.72156715 90.66406441 C92.72564268 89.98812044 92.72971821 89.31217648 92.73391724 88.61574936 C92.75477719 85.03737506 92.76907863 81.45903909 92.77845192 77.88061714 C92.78951068 74.18831141 92.82390351 70.4966093 92.86362362 66.80451679 C92.88979729 63.96229639 92.8981444 61.12021957 92.9017334 58.27788925 C92.90659826 56.91713895 92.91820962 55.55639503 92.93677139 54.19576263 C92.96117152 52.28845344 92.95777715 50.38085049 92.95325661 48.47339058 C92.96205597 46.84695877 92.96205597 46.84695877 92.9710331 45.18766975 C92.36628033 41.54044207 91.02375983 39.88072356 88.4832859 37.24609566 C85.78661389 35.89775965 83.66356757 36.09656713 80.64417458 36.0690937 C79.41917747 36.05625847 78.19418037 36.04342323 76.93206215 36.03019905 C75.58846376 36.02203133 74.2448608 36.01458766 72.90125465 36.00781441 C71.88733871 36.00170112 71.88733871 36.00170112 70.85293961 35.99546432 C67.27456531 35.97460437 63.69622934 35.96030293 60.11780739 35.95092964 C56.42550165 35.93987089 52.73379954 35.90547805 49.04170704 35.86575794 C46.19948663 35.83958427 43.35740982 35.83123716 40.5150795 35.82764816 C39.1543292 35.8227833 37.79358527 35.81117194 36.43295288 35.79261017 C34.52564368 35.76821004 32.61804074 35.77160441 30.71058083 35.77612495 C29.62629295 35.77025871 28.54200508 35.76439247 27.42486 35.75834846 C23.77763231 36.36310123 22.1179138 37.70562173 19.4832859 40.24609566 Z M368.4832859 106.24609566 C367.74307956 110.38506561 367.80062451 114.47267947 367.83631325 118.66797066 C367.82755165 119.9286335 367.81879005 121.18929634 367.80976295 122.48816109 C367.78700446 125.93874931 367.79579079 129.38858853 367.81165838 132.83918953 C367.82433568 136.45368627 367.81257222 140.06811978 367.80472755 143.68261909 C367.79563624 149.75207191 367.80760499 155.82122033 367.83143044 161.89062691 C367.85864113 168.90329953 367.84982657 175.9152453 367.82229841 182.92790031 C367.79959326 188.9535703 367.79641399 194.97902173 367.80949175 201.00472069 C367.81727871 204.60153553 367.81834917 208.19800894 367.80180931 211.79480171 C367.78465565 215.80504442 367.80844251 219.81403826 367.83631325 223.82422066 C367.82619209 225.01398506 367.81607094 226.20374947 367.80564308 227.42956734 C367.86608962 233.83606111 367.86608962 233.83606111 370.63175392 239.48301888 C373.97152354 241.54796863 375.84502475 241.87375889 379.75477028 241.87719917 C380.99956154 241.88973228 382.2443528 241.9022654 383.52686501 241.9151783 C384.87693265 241.90290952 386.22699025 241.88948943 387.5770359 241.87500191 C388.97038902 241.8758312 390.36374204 241.87829289 391.75708961 241.88231087 C394.67247014 241.88516458 397.58708059 241.87051148 400.50232887 241.84301949 C404.23170602 241.80893569 407.95970681 241.81495799 411.68914986 241.83368206 C414.56492439 241.84427134 417.44038088 241.8352971 420.31612587 241.82029724 C421.69078056 241.815129 423.06546865 241.81558074 424.44011879 241.82184219 C426.36405691 241.82731656 428.28801129 241.80401754 430.21180153 241.77954292 C431.30480568 241.77334435 432.39780983 241.76714577 433.52393532 241.76075935 C437.21476091 241.11888409 438.87854147 239.90619512 441.4832859 237.24609566 C442.54034294 234.18537049 442.61103046 231.31147872 442.61699867 228.09120369 C442.62126366 227.04957573 442.62552864 226.00794777 442.62992287 224.93475533 C442.62946968 223.79750008 442.62901649 222.66024483 442.62854958 221.4885273 C442.63190819 220.28653191 442.6352668 219.08453651 442.63872719 217.84611702 C442.64659829 214.55271544 442.64990467 211.25937691 442.65054297 207.96597028 C442.65125421 205.90754759 442.65338989 203.8491315 442.65604019 201.79071045 C442.66528826 194.60729618 442.66937568 187.42390045 442.66858864 180.24048042 C442.66798773 173.54784813 442.67854355 166.8552964 442.6943323 160.1626845 C442.70741229 154.41310022 442.71277235 148.66354227 442.71213323 142.91394323 C442.71187841 139.48152644 442.71472079 136.04918128 442.72531128 132.61677933 C442.73680014 128.78884041 442.73224262 124.9610119 442.72620583 121.13305855 C442.73182533 119.99782753 442.73744484 118.86259651 442.74323463 117.69296455 C442.73904015 116.64851677 442.73484566 115.60406898 442.73052406 114.52797127 C442.73106883 113.62335687 442.7316136 112.71874247 442.73217487 111.78671551 C442.36316422 108.01991222 441.39707274 105.18410516 438.74315834 102.45984077 C435.8004656 100.87936265 433.66183936 100.85182215 430.32532692 100.82617378 C429.08046013 100.81026192 427.83559334 100.79435005 426.55300331 100.77795601 C425.1977335 100.77668874 423.8424623 100.7765119 422.48719215 100.77734566 C421.09240857 100.77024182 419.6976279 100.76254249 418.30285072 100.75427437 C415.38171195 100.74083809 412.46084339 100.7392568 409.53968239 100.74511909 C405.80234946 100.7510149 402.06631577 100.72042739 398.32923412 100.68000221 C395.4492136 100.65410999 392.56950532 100.65124905 389.68938446 100.65489388 C388.31189585 100.65320403 386.9343926 100.64357423 385.55701828 100.62574959 C383.62835249 100.60353649 381.69937951 100.6164803 379.77063942 100.63086128 C378.12660889 100.62777962 378.12660889 100.62777962 376.44936562 100.6246357 C372.18163093 101.51882145 370.90842478 102.58952724 368.4832859 106.24609566 Z M20.4832859 137.24609566 C17.36633034 141.39827587 18.11506227 146.71313233 18.1082859 151.68359566 C18.08379372 152.62525581 18.05930153 153.56691597 18.03406715 154.53711128 C18.01539133 158.94771817 18.03649639 161.51707491 20.3817234 165.34375191 C23.77675533 168.41694995 25.81664966 168.38209986 30.32239723 168.42309761 C31.54739433 168.43593285 32.77239143 168.44876808 34.03450966 168.46199226 C35.37810805 168.47015998 36.72171101 168.47760365 38.06531715 168.48437691 C39.0792331 168.4904902 39.0792331 168.4904902 40.1136322 168.49672699 C43.6920065 168.51758694 47.27034247 168.53188839 50.84876442 168.54126167 C54.54107015 168.55232043 58.23277226 168.58671327 61.92486477 168.62643337 C64.76708517 168.65260705 67.60916199 168.66095415 70.45149231 168.66454315 C71.81224261 168.66940801 73.17298654 168.68101937 74.53361893 168.69958115 C76.44092813 168.72398127 78.34853107 168.72058691 80.25599098 168.71606636 C81.34027885 168.7219326 82.42456673 168.72779884 83.54171181 168.73384285 C87.18893949 168.12909009 88.848658 166.78656959 91.4832859 164.24609566 C93.34959505 160.51347736 92.71127496 156.04138781 92.7332859 151.93359566 C92.7539109 150.98291206 92.7745359 150.03222847 92.7957859 149.05273628 C92.94752814 142.06816441 92.94752814 142.06816441 89.4832859 136.24609566 C83.58463211 133.45163856 77.27536606 133.94035151 70.89344215 133.94531441 C69.67555504 133.94102928 68.45766792 133.93674416 67.20287514 133.93232918 C64.63171955 133.92659567 62.06054774 133.92607838 59.48938942 133.93042183 C55.56324448 133.93358161 51.63785339 133.9101096 47.71180153 133.88476753 C45.20984935 133.88249439 42.70789515 133.88179111 40.20594215 133.88281441 C39.03596184 133.87360466 37.86598152 133.86439491 36.66054726 133.85490608 C30.55466982 133.88944105 25.76540152 134.021959 20.4832859 137.24609566 Z M18.03406715 191.71093941 C14.07843078 196.34662788 13.18280214 199.00149735 13.26844215 204.92968941 C13.69735512 209.55415102 15.54884188 212.3608329 18.8582859 215.49609566 C23.80404722 218.79326987 27.31271175 219.73738556 33.19812965 218.92187691 C37.79188284 217.56338238 41.16670456 214.38168746 43.65125465 210.35156441 C45.20940528 206.40863865 45.01620951 202.40421562 44.4832859 198.24609566 C42.27086151 193.82124687 39.53528975 191.05132909 35.4832859 188.24609566 C29.02175045 186.09225051 22.96730058 186.72451748 18.03406715 191.71093941 Z M16.1707859 232.87109566 C13.03522206 237.28411144 12.8370478 240.9236068 13.4832859 246.24609566 C16.01568972 251.21711056 19.47189724 254.74040133 24.4832859 257.24609566 C29.40849741 257.7864516 33.35270308 257.79045035 37.8582859 255.62109566 C42.55975913 251.36738179 44.72219748 248.19290785 45.0457859 241.80859566 C44.83113596 236.36832986 43.47912886 232.95652126 39.4832859 229.24609566 C31.06604169 223.31576451 22.68893347 225.47211734 16.1707859 232.87109566 Z " fill="green" transform="translate(28.516714096069336,38.75390434265137)"/>
<path d="M0 0 C165.66 0 331.32 0 502 0 C502 52.36465324 502 52.36465324 496.25390625 59.0234375 C495.69574219 59.46945312 495.13757813 59.91546875 494.5625 60.375 C494.00691406 60.83648437 493.45132812 61.29796875 492.87890625 61.7734375 C488.08552195 64.90259066 483.67413329 65.28847454 478.06694317 65.25726891 C477.27003509 65.26077498 476.47312701 65.26428105 475.65207019 65.26789337 C472.97115869 65.27722656 470.2904635 65.27227911 467.60954285 65.26742554 C465.67227113 65.27116083 463.73500093 65.27576186 461.79773313 65.28115618 C456.46571788 65.29341655 451.13376523 65.29312214 445.8017391 65.29076743 C440.05450746 65.29036003 434.30729609 65.30139104 428.56007385 65.31088257 C417.29703682 65.3275101 406.03402073 65.3329929 394.77097245 65.33410732 C385.61783818 65.33505695 376.46471083 65.33916298 367.31157875 65.34550858 C345.59527545 65.36025794 323.87897808 65.3725578 302.16266918 65.37151146 C301.46805669 65.3714803 300.77344419 65.37144914 300.05778283 65.37141704 C296.53714251 65.37125083 293.01650218 65.37105274 289.49586185 65.37084763 C288.79664149 65.37080774 288.09742112 65.37076785 287.37701226 65.37072675 C285.963018 65.37064587 284.54902375 65.37056228 283.13502949 65.37047596 C261.13483373 65.36925041 239.13469961 65.38426384 217.13452148 65.41162109 C192.42128886 65.44233932 167.70809829 65.45952841 142.99484521 65.45769465 C129.9082343 65.45703005 116.8216929 65.46255283 103.73509789 65.48405075 C92.5935821 65.5022358 81.45216734 65.50663189 70.31064316 65.4930319 C64.62462341 65.48648881 58.93879763 65.48643353 53.25279617 65.5037384 C48.04845189 65.51941469 42.84445628 65.51666118 37.64012078 65.49917014 C35.75655875 65.49608823 33.87297104 65.49977721 31.98943927 65.51089029 C29.42939715 65.52499546 26.87058072 65.51443815 24.31058025 65.49777794 C23.57898324 65.5077143 22.84738623 65.51765066 22.09361961 65.52788812 C15.84336102 65.44186941 10.72036175 63.34749363 5.9765625 59.25390625 C5.53054687 58.69574219 5.08453125 58.13757813 4.625 57.5625 C4.16351562 57.00691406 3.70203125 56.45132813 3.2265625 55.87890625 C-6.97226891 40.25585558 0 18.65732763 0 0 Z " fill="green" transform="translate(5,320)"/>
<path d="M0 0 C108.24 0 216.48 0 328 0 C328 12.54 328 25.08 328 38 C219.76 38 111.52 38 0 38 C0 25.46 0 12.92 0 0 Z " fill="green" transform="translate(92,458)"/>
<path d="M0 0 C63.36 0 126.72 0 192 0 C192 17.49 192 34.98 192 53 C128.64 53 65.28 53 0 53 C0 35.51 0 18.02 0 0 Z " fill="green" transform="translate(160,395)"/>
<path d="M0 0 C3.81249879 1.7758666 6.23349496 4.00365188 9.203125 7.0078125 C9.6857782 7.49329559 10.1684314 7.97877869 10.66571045 8.47897339 C12.19858562 10.02299866 13.72434004 11.57384824 15.25 13.125 C16.29120361 14.17624009 17.33286541 15.22702657 18.375 16.27734375 C20.92199464 18.84633004 23.46265177 21.42148161 26 24 C24.6557376 26.98768547 23.16581905 29.08924027 20.8631897 31.41096497 C20.21833115 32.06579865 19.5734726 32.72063232 18.90907288 33.39530945 C18.20254074 34.10250626 17.49600861 34.80970306 16.76806641 35.53833008 C16.02317459 36.29154541 15.27828278 37.04476074 14.51081848 37.82080078 C12.04652436 40.30919519 9.5746309 42.7898587 7.1015625 45.26953125 C5.38756589 46.99249082 3.67364889 48.71552959 1.95980835 50.43864441 C-1.63276869 54.04771175 -5.22971737 57.65236094 -8.82910156 61.25463867 C-13.4503984 65.88133363 -18.05530722 70.52398279 -22.65643883 75.1707201 C-26.18924957 78.73319631 -29.73318422 82.28444253 -33.28035355 85.83261681 C-34.98376375 87.54024656 -36.68303218 89.25201792 -38.37812424 90.96790504 C-40.74358442 93.36007243 -43.1241632 95.73609374 -45.50927734 98.10864258 C-46.21176102 98.82596054 -46.91424469 99.5432785 -47.63801575 100.28233337 C-48.28851395 100.92306793 -48.93901215 101.56380249 -49.60922241 102.22395325 C-50.45153192 103.06927974 -50.45153192 103.06927974 -51.31085777 103.93168354 C-53 105 -53 105 -55.09096718 104.77218151 C-57.6093173 103.75353826 -59.02809621 102.32703401 -60.93359375 100.39453125 C-61.66513672 99.65783203 -62.39667969 98.92113281 -63.15039062 98.16210938 C-63.90513672 97.38673828 -64.65988281 96.61136719 -65.4375 95.8125 C-66.18837891 95.05646484 -66.93925781 94.30042969 -67.71289062 93.52148438 C-71.68328532 89.49521781 -75.46149113 85.41082517 -79 81 C-77.65323083 77.99976052 -76.16088099 75.91279995 -73.83627319 73.59576416 C-73.185634 72.94237564 -72.53499481 72.28898712 -71.86463928 71.61579895 C-71.15182297 70.91017319 -70.43900665 70.20454742 -69.70458984 69.47753906 C-68.57761436 68.3501255 -68.57761436 68.3501255 -67.4278717 67.19993591 C-64.94360487 64.71706229 -62.45232905 62.2413477 -59.9609375 59.765625 C-58.23700151 58.04541916 -56.51350659 56.3247712 -54.79043579 54.60369873 C-50.25415749 50.07505668 -45.71190506 45.55245285 -41.168396 41.03106689 C-36.53313047 36.41625986 -31.90352137 31.79578604 -27.2734375 27.17578125 C-18.18782914 18.11162268 -9.09609212 9.0536372 0 0 Z M-5 25 C-11.10122224 30.18422121 -16.83252203 35.67214193 -22.49609375 41.328125 C-23.37024429 42.19894714 -24.24439484 43.06976929 -25.14503479 43.96697998 C-26.97747271 45.79438539 -28.80858512 47.62312084 -30.63842773 49.453125 C-33.44820248 52.26069408 -36.26590248 55.06014724 -39.08398438 57.859375 C-40.867676 59.64013583 -42.65089614 61.42136908 -44.43359375 63.203125 C-45.70063393 64.4593869 -45.70063393 64.4593869 -46.99327087 65.74102783 C-47.76820389 66.51903748 -48.5431369 67.29704712 -49.34155273 68.09863281 C-50.02579819 68.78145325 -50.71004364 69.46427368 -51.4150238 70.16778564 C-53.21712888 72.01554763 -53.21712888 72.01554763 -54 75 C-52.97098426 77.2890789 -52.97098426 77.2890789 -51 79 C-48.62413168 79.49758531 -48.62413168 79.49758531 -46 79 C-43.53173141 77.29043868 -43.53173141 77.29043868 -41.2097168 74.85668945 C-40.28913986 73.95187332 -39.36856293 73.04705719 -38.42008972 72.11482239 C-37.42915945 71.11494249 -36.43888459 70.11441268 -35.44921875 69.11328125 C-34.42576367 68.09319498 -33.4015674 67.07385186 -32.37666321 66.05522156 C-30.23270459 63.91863109 -28.09804145 61.77326721 -25.96948242 59.62133789 C-23.24129932 56.86466733 -20.49128201 54.13105425 -17.73390484 51.40362263 C-15.61530598 49.3030981 -13.50876916 47.19080121 -11.4056797 45.07475853 C-10.39624755 44.06199276 -9.38309284 43.05292318 -8.36618614 42.04766273 C-6.94645909 40.64064324 -5.54444241 39.21582109 -4.14331055 37.7902832 C-3.34120651 36.9842012 -2.53910248 36.1781192 -1.71269226 35.34761047 C0.1930008 33.11267899 0.1930008 33.11267899 0.41520691 30.31388855 C0.22631385 27.72341838 0.22631385 27.72341838 -2.5 26.1875 C-3.325 25.795625 -4.15 25.40375 -5 25 Z " fill="green" transform="translate(358,87)"/>
<path d="M0 0 C4.6599258 1.98782116 8.13887721 6.51735582 11.682724 10.07698059 C13.237471 11.63270312 14.81234001 13.16586231 16.38951111 14.69880676 C17.37843902 15.68252995 18.36611412 16.66751454 19.35240173 17.65388489 C20.70458801 18.9954364 20.70458801 18.9954364 22.08409119 20.36408997 C23.92662048 22.82185364 23.92662048 22.82185364 23.78410339 24.71185303 C22.67182424 27.4488285 21.14844363 28.95986373 19.04942322 31.03962708 C17.81826027 32.27045013 17.81826027 32.27045013 16.56222534 33.52613831 C15.67056168 34.40231812 14.77889801 35.27849792 13.86021423 36.18122864 C12.95159134 37.08560669 12.04296844 37.98998474 11.10681152 38.92176819 C8.69508285 41.32206117 6.27448046 43.71320733 3.85191345 46.10255432 C1.37985216 48.54388725 -1.08370256 50.99377103 -3.54798889 53.44294739 C-8.38149847 58.24431538 -13.22443725 63.03607313 -18.07337952 67.82185364 C-22.16830868 64.37471481 -26.13831497 60.88060828 -29.91322327 57.07966614 C-30.74789124 56.24177551 -31.5825592 55.40388489 -32.44252014 54.54060364 C-33.29007874 53.68466614 -34.13763733 52.82872864 -35.01087952 51.94685364 C-35.88550842 51.06771301 -36.76013733 50.18857239 -37.66127014 49.28279114 C-39.80095 47.13141904 -41.93824549 44.97773572 -44.07337952 42.82185364 C-37.30690443 34.73778772 -29.88268644 27.335033 -22.45960999 19.85798645 C-20.77651418 18.15820041 -19.09882015 16.45304966 -17.42640686 14.74275208 C-15.00553077 12.26744768 -12.56892103 9.80869067 -10.12806702 7.35310364 C-9.38007843 6.58244568 -8.63208984 5.81178772 -7.86143494 5.01777649 C-7.16035614 4.31954773 -6.45927734 3.62131897 -5.73695374 2.90193176 C-5.12439728 2.28128845 -4.51184082 1.66064514 -3.88072205 1.02119446 C-2.07337952 -0.17814636 -2.07337952 -0.17814636 0 0 Z " fill="green" transform="translate(410.07337951660156,37.17814636230469)"/>
<path d="M0 0 C6.68412777 3.34206389 13.61897936 9.63609659 17.19140625 16.18359375 C18.39517842 20.06746245 18.18722182 23.49659863 16.3203125 27.12109375 C13.44610354 31.2113142 10.06056955 35.07244899 6 38 C1.75190945 37.81640145 -0.64046956 34.7417659 -3.421875 31.87109375 C-3.92672424 31.36199966 -4.43157349 30.85290558 -4.95172119 30.3283844 C-6.55833979 28.7050088 -8.15419822 27.071503 -9.75 25.4375 C-10.83914984 24.3332995 -11.92898605 23.22977555 -13.01953125 22.12695312 C-15.6877076 19.4257471 -18.34628291 16.71540937 -21 14 C-14.77385294 6.55076781 -14.77385294 6.55076781 -11.25 3.625 C-10.67765625 3.14289062 -10.1053125 2.66078125 -9.515625 2.1640625 C-6.3238132 -0.28738058 -3.9796225 -0.38265601 0 0 Z " fill="green" transform="translate(437,16)"/>
<path d="M0 0 C5.74512769 4.8030503 11.15878868 9.87794464 16.5 15.125 C17.3353125 15.92292969 18.170625 16.72085938 19.03125 17.54296875 C19.815 18.31511719 20.59875 19.08726562 21.40625 19.8828125 C22.12103516 20.57777832 22.83582031 21.27274414 23.57226562 21.98876953 C25 24 25 24 24.85864258 26.09399414 C23.52407403 29.05645551 21.46020666 31.01317306 19.1875 33.3125 C18.31480469 34.21613281 17.44210937 35.11976563 16.54296875 36.05078125 C14 38 14 38 12.16845703 37.91992188 C7.38049113 35.88872895 3.8772439 31.39439692 0.24389648 27.74487305 C-1.31085051 26.18915052 -2.88571953 24.65599133 -4.46289062 23.12304688 C-5.45181854 22.13932369 -6.43949363 21.1543391 -7.42578125 20.16796875 C-8.32723877 19.27360107 -9.22869629 18.3792334 -10.1574707 17.45776367 C-12 15 -12 15 -11.94238281 12.85180664 C-10.38336894 9.788304 -7.898366 7.59104855 -5.4375 5.25 C-4.91736328 4.74339844 -4.39722656 4.23679688 -3.86132812 3.71484375 C-2.58089916 2.46965595 -1.29132446 1.23388498 0 0 Z " fill="green" transform="translate(271,174)"/>
<path d="M0 0 C1.25025719 -0.00855011 1.25025719 -0.00855011 2.52577209 -0.01727295 C4.29019907 -0.02672544 6.05464371 -0.03325792 7.8190918 -0.03710938 C10.5209826 -0.04682404 13.22211565 -0.07784804 15.92382812 -0.109375 C17.63671422 -0.11590413 19.34960577 -0.12115496 21.0625 -0.125 C21.87194565 -0.1373468 22.6813913 -0.1496936 23.5153656 -0.16241455 C29.15712518 -0.13996219 29.15712518 -0.13996219 31.3115387 1.53790283 C33.29263189 4.10295632 32.98956957 6.06781845 32.59765625 9.203125 C31.31054688 10.86735535 31.31054688 10.86735535 29.59765625 12.203125 C26.69096172 12.48932781 24.00313226 12.59959292 21.09765625 12.56640625 C19.84952148 12.56715401 19.84952148 12.56715401 18.57617188 12.56791687 C16.81768403 12.56557736 15.05919278 12.55585602 13.30078125 12.53930664 C10.6077686 12.51571359 7.91574598 12.51874649 5.22265625 12.52539062 C3.51431701 12.51981377 1.80598194 12.51270385 0.09765625 12.50390625 C-0.70865234 12.50481766 -1.51496094 12.50572906 -2.34570312 12.50666809 C-6.21066354 12.45760445 -8.11338092 12.39576689 -11.40234375 10.203125 C-12.38102528 7.34236362 -12.62369486 5.81609731 -11.58984375 2.953125 C-8.89278476 -1.02148825 -4.3262904 0.0226579 0 0 Z " fill="green" transform="translate(423.40234375,233.796875)"/>
<path d="M0 0 C1.25025719 -0.00855011 1.25025719 -0.00855011 2.52577209 -0.01727295 C4.29019907 -0.02672544 6.05464371 -0.03325792 7.8190918 -0.03710938 C10.5209826 -0.04682404 13.22211565 -0.07784804 15.92382812 -0.109375 C17.63671422 -0.11590413 19.34960577 -0.12115496 21.0625 -0.125 C21.87194565 -0.1373468 22.6813913 -0.1496936 23.5153656 -0.16241455 C29.15712518 -0.13996219 29.15712518 -0.13996219 31.3115387 1.53790283 C33.29263189 4.10295632 32.98956957 6.06781845 32.59765625 9.203125 C31.31054688 10.86735535 31.31054688 10.86735535 29.59765625 12.203125 C26.69096172 12.48932781 24.00313226 12.59959292 21.09765625 12.56640625 C19.84952148 12.56715401 19.84952148 12.56715401 18.57617188 12.56791687 C16.81768403 12.56557736 15.05919278 12.55585602 13.30078125 12.53930664 C10.6077686 12.51571359 7.91574598 12.51874649 5.22265625 12.52539062 C3.51431701 12.51981377 1.80598194 12.51270385 0.09765625 12.50390625 C-0.70865234 12.50481766 -1.51496094 12.50572906 -2.34570312 12.50666809 C-6.21066354 12.45760445 -8.11338092 12.39576689 -11.40234375 10.203125 C-12.38102528 7.34236362 -12.62369486 5.81609731 -11.58984375 2.953125 C-8.89278476 -1.02148825 -4.3262904 0.0226579 0 0 Z " fill="green" transform="translate(423.40234375,213.796875)"/>
<path d="M0 0 C1.25025719 -0.00855011 1.25025719 -0.00855011 2.52577209 -0.01727295 C4.29019907 -0.02672544 6.05464371 -0.03325792 7.8190918 -0.03710938 C10.5209826 -0.04682404 13.22211565 -0.07784804 15.92382812 -0.109375 C17.63671422 -0.11590413 19.34960577 -0.12115496 21.0625 -0.125 C21.87194565 -0.1373468 22.6813913 -0.1496936 23.5153656 -0.16241455 C29.15712518 -0.13996219 29.15712518 -0.13996219 31.3115387 1.53790283 C33.29263189 4.10295632 32.98956957 6.06781845 32.59765625 9.203125 C31.31054688 10.86735535 31.31054688 10.86735535 29.59765625 12.203125 C26.69096172 12.48932781 24.00313226 12.59959292 21.09765625 12.56640625 C19.84952148 12.56715401 19.84952148 12.56715401 18.57617188 12.56791687 C16.81768403 12.56557736 15.05919278 12.55585602 13.30078125 12.53930664 C10.6077686 12.51571359 7.91574598 12.51874649 5.22265625 12.52539062 C3.51431701 12.51981377 1.80598194 12.51270385 0.09765625 12.50390625 C-0.70865234 12.50481766 -1.51496094 12.50572906 -2.34570312 12.50666809 C-6.21066354 12.45760445 -8.11338092 12.39576689 -11.40234375 10.203125 C-12.38102528 7.34236362 -12.62369486 5.81609731 -11.58984375 2.953125 C-8.89278476 -1.02148825 -4.3262904 0.0226579 0 0 Z " fill="green" transform="translate(423.40234375,193.796875)"/>
<path d="M0 0 C1.25025719 -0.00855011 1.25025719 -0.00855011 2.52577209 -0.01727295 C4.29019907 -0.02672544 6.05464371 -0.03325792 7.8190918 -0.03710938 C10.5209826 -0.04682404 13.22211565 -0.07784804 15.92382812 -0.109375 C17.63671422 -0.11590413 19.34960577 -0.12115496 21.0625 -0.125 C21.87194565 -0.1373468 22.6813913 -0.1496936 23.5153656 -0.16241455 C29.15712518 -0.13996219 29.15712518 -0.13996219 31.3115387 1.53790283 C33.29263189 4.10295632 32.98956957 6.06781845 32.59765625 9.203125 C31.31054688 10.86735535 31.31054688 10.86735535 29.59765625 12.203125 C26.69096172 12.48932781 24.00313226 12.59959292 21.09765625 12.56640625 C19.84952148 12.56715401 19.84952148 12.56715401 18.57617188 12.56791687 C16.81768403 12.56557736 15.05919278 12.55585602 13.30078125 12.53930664 C10.6077686 12.51571359 7.91574598 12.51874649 5.22265625 12.52539062 C3.51431701 12.51981377 1.80598194 12.51270385 0.09765625 12.50390625 C-0.70865234 12.50481766 -1.51496094 12.50572906 -2.34570312 12.50666809 C-6.21066354 12.45760445 -8.11338092 12.39576689 -11.40234375 10.203125 C-12.38102528 7.34236362 -12.62369486 5.81609731 -11.58984375 2.953125 C-8.89278476 -1.02148825 -4.3262904 0.0226579 0 0 Z " fill="green" transform="translate(423.40234375,173.796875)"/>
<path d="M0 0 C1.25025719 -0.00855011 1.25025719 -0.00855011 2.52577209 -0.01727295 C4.29019907 -0.02672544 6.05464371 -0.03325792 7.8190918 -0.03710938 C10.5209826 -0.04682404 13.22211565 -0.07784804 15.92382812 -0.109375 C17.63671422 -0.11590413 19.34960577 -0.12115496 21.0625 -0.125 C21.87194565 -0.1373468 22.6813913 -0.1496936 23.5153656 -0.16241455 C29.15712518 -0.13996219 29.15712518 -0.13996219 31.3115387 1.53790283 C33.29263189 4.10295632 32.98956957 6.06781845 32.59765625 9.203125 C31.31054688 10.86735535 31.31054688 10.86735535 29.59765625 12.203125 C26.69096172 12.48932781 24.00313226 12.59959292 21.09765625 12.56640625 C19.84952148 12.56715401 19.84952148 12.56715401 18.57617188 12.56791687 C16.81768403 12.56557736 15.05919278 12.55585602 13.30078125 12.53930664 C10.6077686 12.51571359 7.91574598 12.51874649 5.22265625 12.52539062 C3.51431701 12.51981377 1.80598194 12.51270385 0.09765625 12.50390625 C-0.70865234 12.50481766 -1.51496094 12.50572906 -2.34570312 12.50666809 C-6.21066354 12.45760445 -8.11338092 12.39576689 -11.40234375 10.203125 C-12.38102528 7.34236362 -12.62369486 5.81609731 -11.58984375 2.953125 C-8.89278476 -1.02148825 -4.3262904 0.0226579 0 0 Z " fill="green" transform="translate(423.40234375,153.796875)"/>
<path d="M0 0 C1.18154663 -0.00430527 1.18154663 -0.00430527 2.38696289 -0.00869751 C4.05127685 -0.01073772 5.71561481 -0.00521082 7.37988281 0.00732422 C9.92827947 0.02337941 12.47509021 0.00747506 15.0234375 -0.01171875 C16.6406285 -0.00973631 18.25781852 -0.00589261 19.875 0 C20.63756104 -0.00607269 21.40012207 -0.01214539 22.18579102 -0.0184021 C27.42341129 0.05127552 27.42341129 0.05127552 29.91796875 1.73583984 C31.52885439 4.36278698 31.31253316 6.3981722 30.9375 9.3984375 C29.91796875 11.06103516 29.91796875 11.06103516 27.9375 12.3984375 C25.17330967 12.69669093 22.63901406 12.81888636 19.875 12.796875 C18.69345337 12.80118027 18.69345337 12.80118027 17.48803711 12.80557251 C15.82372315 12.80761272 14.15938519 12.80208582 12.49511719 12.78955078 C9.94672053 12.77349559 7.39990979 12.78939994 4.8515625 12.80859375 C3.2343715 12.80661131 1.61718148 12.80276761 0 12.796875 C-1.14384155 12.80598404 -1.14384155 12.80598404 -2.31079102 12.8152771 C-7.54841129 12.74559948 -7.54841129 12.74559948 -10.04296875 11.06103516 C-11.65385439 8.43408802 -11.43753316 6.3987028 -11.0625 3.3984375 C-8.53513407 -0.72305723 -4.32407846 -0.03443501 0 0 Z " fill="green" transform="translate(74.0625,105.6015625)"/>
<path d="M0 0 C1.18154663 -0.00430527 1.18154663 -0.00430527 2.38696289 -0.00869751 C4.05127685 -0.01073772 5.71561481 -0.00521082 7.37988281 0.00732422 C9.92827947 0.02337941 12.47509021 0.00747506 15.0234375 -0.01171875 C16.6406285 -0.00973631 18.25781852 -0.00589261 19.875 0 C20.63756104 -0.00607269 21.40012207 -0.01214539 22.18579102 -0.0184021 C27.42341129 0.05127552 27.42341129 0.05127552 29.91796875 1.73583984 C31.52885439 4.36278698 31.31253316 6.3981722 30.9375 9.3984375 C29.91796875 11.06103516 29.91796875 11.06103516 27.9375 12.3984375 C25.17330967 12.69669093 22.63901406 12.81888636 19.875 12.796875 C18.69345337 12.80118027 18.69345337 12.80118027 17.48803711 12.80557251 C15.82372315 12.80761272 14.15938519 12.80208582 12.49511719 12.78955078 C9.94672053 12.77349559 7.39990979 12.78939994 4.8515625 12.80859375 C3.2343715 12.80661131 1.61718148 12.80276761 0 12.796875 C-1.14384155 12.80598404 -1.14384155 12.80598404 -2.31079102 12.8152771 C-7.54841129 12.74559948 -7.54841129 12.74559948 -10.04296875 11.06103516 C-11.65385439 8.43408802 -11.43753316 6.3987028 -11.0625 3.3984375 C-8.53513407 -0.72305723 -4.32407846 -0.03443501 0 0 Z " fill="green" transform="translate(74.0625,88.6015625)"/>
<path d="M0 0 C1.2219104 0.00607269 1.2219104 0.00607269 2.46850586 0.01226807 C3.30438232 0.01035461 4.14025879 0.00844116 5.00146484 0.00646973 C6.77010397 0.00510771 8.53875309 0.0088053 10.30737305 0.01715088 C13.02016579 0.02785031 15.7322963 0.01725631 18.44506836 0.00445557 C20.16121566 0.00577716 21.87736255 0.00833955 23.59350586 0.01226807 C24.40811279 0.0082196 25.22271973 0.00417114 26.06201172 0 C31.80108658 0.04797379 31.80108658 0.04797379 34.03100586 2.27789307 C34.57444152 7.3861883 34.57444152 7.3861883 33.01538086 9.94439697 C29.8971746 12.03982544 26.59946557 11.7052459 22.96850586 11.67633057 C21.78695923 11.68063583 21.78695923 11.68063583 20.58154297 11.68502808 C18.91722901 11.68706828 17.25289105 11.68154139 15.58862305 11.66900635 C13.04022639 11.65295116 10.49341565 11.66885551 7.94506836 11.68804932 C6.32787736 11.68606688 4.71068734 11.68222318 3.09350586 11.67633057 C1.94966431 11.68543961 1.94966431 11.68543961 0.78271484 11.69473267 C-4.45233159 11.62508928 -4.45233159 11.62508928 -6.95336914 9.94439697 C-8.53172221 7.35453206 -8.28316045 5.23105635 -7.96899414 2.27789307 C-5.36593522 -0.32516585 -3.54620875 0.02964329 0 0 Z " fill="green" transform="translate(70.968994140625,123.72210693359375)"/>
<path d="M0 0 C1.45116211 -0.01836914 1.45116211 -0.01836914 2.93164062 -0.03710938 C4.32479492 -0.04000977 4.32479492 -0.04000977 5.74609375 -0.04296875 C7.02311157 -0.04913208 7.02311157 -0.04913208 8.32592773 -0.05541992 C10.5625 0.1875 10.5625 0.1875 13.5625 2.1875 C14.54118153 5.04826138 14.78385111 6.57452769 13.75 9.4375 C12.5625 11.1875 12.5625 11.1875 10.5625 12.1875 C7.08868342 12.42697641 3.60616186 12.37269001 0.125 12.375 C-0.84244141 12.38724609 -1.80988281 12.39949219 -2.80664062 12.41210938 C-4.19979492 12.41500977 -4.19979492 12.41500977 -5.62109375 12.41796875 C-6.47243896 12.42207764 -7.32378418 12.42618652 -8.20092773 12.43041992 C-10.4375 12.1875 -10.4375 12.1875 -13.4375 10.1875 C-14.41618153 7.32673862 -14.65885111 5.80047231 -13.625 2.9375 C-10.68438762 -1.39603404 -4.68344295 0.00310779 0 0 Z " fill="green" transform="translate(425.4375,253.8125)"/>
<path d="M0 0 C4.31543285 3.69894245 8.42656291 7.26958755 12.4375 11.25 C13.30246094 12.10078125 14.16742188 12.9515625 15.05859375 13.828125 C17 16 17 16 17 18 C13.75505307 19.0373997 10.50340596 20.05197239 7.25 21.0625 C6.32960938 21.35705078 5.40921875 21.65160156 4.4609375 21.95507812 C3.57148438 22.22900391 2.68203125 22.50292969 1.765625 22.78515625 C0.94868164 23.04176025 0.13173828 23.29836426 -0.70996094 23.56274414 C-3 24 -3 24 -7 23 C-4.69 15.41 -2.38 7.82 0 0 Z " fill="green" transform="translate(255,198)"/>
<path d="M0 0 C1.9375 1.625 1.9375 1.625 3 4 C2.77962372 7.67293796 2.63033454 9.36966546 0 12 C-3.5 12.25 -3.5 12.25 -7 12 C-9.40820361 9.59179639 -9.68097423 8.34977063 -10 5 C-8.12316668 -0.19738459 -5.27817636 -0.53858942 0 0 Z " fill="green" transform="translate(61,236)"/>
<path d="M0 0 C3.5625 0.3125 3.5625 0.3125 5.5625 1.375 C7.19628851 4.54046524 6.41517564 6.96270286 5.5625 10.3125 C2.5625 12.3125 2.5625 12.3125 -0.5 12.0625 C-3.4375 11.3125 -3.4375 11.3125 -5.4375 9.3125 C-5.6875 5.8125 -5.6875 5.8125 -5.4375 2.3125 C-3.4375 0.3125 -3.4375 0.3125 0 0 Z " fill="green" transform="translate(57.4375,274.6875)"/>
</svg>
