<?xml version="1.0" encoding="UTF-8"?>
<svg version="1.1" xmlns="http://www.w3.org/2000/svg" width="512" height="512">
<path d="M0 0 C3 1 3 1 4.71875 3.95703125 C5.32670851 5.23552728 5.91962946 6.52124647 6.5 7.8125 C6.80824707 8.48667969 7.11649414 9.16085938 7.43408203 9.85546875 C15.64140372 28.37544958 16.42930051 48.91301412 10 68 C2.92995008 86.16119072 -10.84897091 98.66688034 -26.28930664 109.8203125 C-41.86750978 120.35950332 -41.86750978 120.35950332 -50.4921875 136.27734375 C-50.86618793 140.65314879 -50.03018169 143.56180009 -47.5625 147.1875 C-41.23410945 154.44847536 -32.32861394 158.56328897 -23.875 162.875 C-22.86598633 163.39819824 -21.85697266 163.92139648 -20.81738281 164.46044922 C-16.41365986 166.74383509 -12.00263274 169.00706835 -7.5546875 171.203125 C3.2245828 176.59544423 13.8712514 183.59724825 19 195 C20.98627845 201.37156854 20.88862629 208.73571868 18.21875 214.87890625 C6.02250724 236.10505951 -18.64737616 247.95553247 -40 258 C-40.82822266 258.39477539 -41.65644531 258.78955078 -42.50976562 259.19628906 C-55.29668588 265.27448067 -68.26448735 270.85199273 -81.375 276.1875 C-82.09075195 276.479664 -82.80650391 276.771828 -83.54394531 277.07284546 C-85.57695839 277.90080548 -87.61213932 278.72312599 -89.6484375 279.54296875 C-90.82583496 280.01758545 -92.00323242 280.49220215 -93.21630859 280.98120117 C-96 282 -96 282 -98 282 C-98 282.66 -98 283.32 -98 284 C-96.93144775 284.19299683 -96.93144775 284.19299683 -95.84130859 284.38989258 C-92.98374283 285.00349086 -90.31240814 285.84187916 -87.5390625 286.76171875 C-81.67176674 288.59287617 -75.77675704 290.01951536 -69.7734375 291.33203125 C-68.39312347 291.63498611 -68.39312347 291.63498611 -66.98492432 291.94406128 C-63.16460739 292.77848575 -59.34315676 293.60690527 -55.51806641 294.41918945 C-6.79241906 304.81137141 -6.79241906 304.81137141 6 324 C6.30078125 326.15625 6.30078125 326.15625 6.3125 328.5 C6.32925781 329.2734375 6.34601563 330.046875 6.36328125 330.84375 C5.90431584 333.56793176 5.10522281 334.25417662 3 336 C1.07177734 336.72021484 1.07177734 336.72021484 -1.1640625 337.2109375 C-2.02290039 337.40139648 -2.88173828 337.59185547 -3.76660156 337.78808594 C-4.70987305 337.98176758 -5.65314453 338.17544922 -6.625 338.375 C-7.61467773 338.58415039 -8.60435547 338.79330078 -9.62402344 339.00878906 C-18.78650636 340.87805815 -28.00668989 342.34860245 -37.25 343.75 C-38.30275116 343.91009552 -38.30275116 343.91009552 -39.37677002 344.07342529 C-51.05665988 345.83529946 -62.60182158 347.13798001 -74.421875 347.23828125 C-75.3887323 347.24793915 -76.3555896 347.25759705 -77.35174561 347.26754761 C-80.4845367 347.29232078 -83.61712146 347.30495125 -86.75 347.3125 C-87.82548096 347.31545074 -88.90096191 347.31840149 -90.0090332 347.32144165 C-104.92642871 347.33069116 -119.66611964 346.78722856 -134.5 345.1875 C-135.27436401 345.10472809 -136.04872803 345.02195618 -136.84655762 344.93667603 C-145.01192827 344.04068229 -153.12046305 342.87890382 -161.21484375 341.48046875 C-161.90755371 341.36164841 -162.60026367 341.24282806 -163.31396484 341.1204071 C-172.77363231 339.41923622 -184.1576928 336.4032445 -190 328.1875 C-190.33 327.465625 -190.66 326.74375 -191 326 C-189.68 325.34 -188.36 324.68 -187 324 C-199.25194185 295.99061136 -199.25194185 295.99061136 -211.6875 268.0625 C-212.18878418 266.93875977 -212.69006836 265.81501953 -213.20654297 264.65722656 C-215.7795483 258.89598537 -218.38631257 253.15599702 -221.06468201 247.44313049 C-222.48560533 244.40091623 -223.8849792 241.34903698 -225.28164673 238.29562378 C-225.95641207 236.83388856 -226.64046885 235.37639806 -227.33480835 233.92385864 C-231.44082163 225.32471494 -233.77629823 218.67111088 -233.06420898 208.90673828 C-232.94733587 203.61589674 -235.2725179 200.8466188 -238.8125 197.0625 C-242.08298657 195.47397795 -244.42790048 195.48042189 -248 196 C-250.33720582 198.26416814 -250.95270336 199.88133169 -251.08984375 203.125 C-250.74338072 208.38413112 -249.50309019 211.92884113 -246 216 C-244.55246338 216.86334961 -244.55246338 216.86334961 -243.07568359 217.74414062 C-239.54523277 220.33354891 -238.14041736 222.86911658 -236.4765625 226.78125 C-236.02234924 227.7899968 -236.02234924 227.7899968 -235.55895996 228.81912231 C-234.56423869 231.03904674 -233.5947474 233.26906658 -232.625 235.5 C-231.92328031 237.07931094 -231.21996225 238.65791255 -230.51513672 240.23583984 C-229.05113915 243.52118286 -227.59749065 246.81081442 -226.15234375 250.10449219 C-224.1324027 254.70650202 -222.08609909 259.29630367 -220.03125 263.8828125 C-215.99199004 272.90917798 -211.99191408 281.95261345 -208 291 C-207.6030896 291.89906067 -207.2061792 292.79812134 -206.79724121 293.72442627 C-204.27140133 299.4461891 -201.74853156 305.16924862 -199.22943115 310.89398193 C-198.41243399 312.75036595 -197.59493232 314.60652801 -196.7769165 316.46246338 C-195.6410555 319.04055631 -194.50765269 321.61971499 -193.375 324.19921875 C-193.0320993 324.97652847 -192.68919861 325.7538382 -192.33590698 326.55470276 C-190 331.885451 -190 331.885451 -190 333 C-194.50797502 332.82704551 -196.49585342 332.47159865 -199.84375 329.33984375 C-200.74740969 328.22021089 -201.63226064 327.08519638 -202.5 325.9375 C-203.4593369 324.73934426 -204.41897128 323.54142664 -205.37890625 322.34375 C-206.05977295 321.47363281 -206.05977295 321.47363281 -206.75439453 320.5859375 C-216.59179488 308.06070178 -228.17338286 297.36876628 -241 288 C-241.87930176 287.35417969 -241.87930176 287.35417969 -242.77636719 286.6953125 C-255.1700527 277.71142185 -269.04172251 270.36561881 -283.7734375 266.046875 C-288.09156331 264.01659831 -290.55680054 260.96953028 -292.51863098 256.67788696 C-292.95836106 255.40188447 -293.38203282 254.12027123 -293.79223633 252.83447266 C-294.03090392 252.12809725 -294.26957151 251.42172184 -294.51547146 250.69394112 C-295.30182655 248.35511842 -296.06683776 246.00988523 -296.83203125 243.6640625 C-297.38585031 242.00356166 -297.94103462 240.34351562 -298.49749756 238.68389893 C-299.97999392 234.25094324 -301.44462416 229.81227453 -302.90605545 225.37233734 C-304.41525395 220.79811668 -305.94130956 216.22953504 -307.46655273 211.66064453 C-309.58431918 205.31305618 -311.69778837 198.9640763 -313.80487919 192.61293602 C-318.31904449 179.00892066 -322.92358126 165.43699468 -327.5625 151.875 C-328.51164031 149.09454107 -329.46019493 146.31388315 -330.4085083 143.53314209 C-330.94639387 141.95622206 -331.48464275 140.37942588 -332.02337646 138.80279541 C-332.68382749 136.869068 -333.34200473 134.93456441 -334 133 C-334.56835571 131.38569092 -334.56835571 131.38569092 -335.14819336 129.73876953 C-336.77938839 124.49407311 -336.70662187 119.97954492 -334.5 115 C-327.14293054 101.88075026 -312.67350942 95.41224726 -298.9453125 91.0234375 C-287.18858033 87.88635435 -274.68466279 87.25530132 -263.19921875 91.63671875 C-257.64855672 95.07753767 -255.45737048 100.90760033 -252.875 106.625 C-249.51677413 113.87771475 -245.9795967 120.98928156 -242.21533203 128.03881836 C-239.52661582 133.08281759 -236.89175547 138.15122698 -234.30078125 143.24609375 C-226.5214361 158.52363179 -218.47627899 173.53711491 -209.64941406 188.24511719 C-207.99914214 191.00143281 -206.36866252 193.76864976 -204.7421875 196.5390625 C-200.01131064 204.56209717 -195.19807389 212.29612185 -189.625 219.76171875 C-183.23282644 228.56632319 -183.35957511 235.14036774 -184.72583008 245.74804688 C-187.70461028 269.53584815 -185.53969048 292.23032644 -181.76222229 315.74757385 C-181.2643719 318.90324841 -181 321.78928531 -181 325 C-179.24042969 325.14695312 -179.24042969 325.14695312 -177.4453125 325.296875 C-167.50754451 326.1396367 -157.57596518 327.03290597 -147.6484375 327.98828125 C-146.73619415 328.07594757 -145.82395081 328.16361389 -144.88406372 328.25393677 C-140.28583594 328.69636704 -135.68791496 329.14173997 -131.09033203 329.59082031 C-95.00430121 333.09410606 -58.37761154 334.1807672 -23 325 C-36.39216539 313.95390738 -58.41244048 311.44935114 -74.8203125 307.80126953 C-115.23308754 298.76691246 -115.23308754 298.76691246 -127 287 C-127.40625 285.01171875 -127.40625 285.01171875 -127.5 282.6875 C-127.5515625 281.92824219 -127.603125 281.16898437 -127.65625 280.38671875 C-126.35835808 275.66640946 -121.74312972 273.44050581 -117.7578125 271.078125 C-116.55323513 270.45627222 -115.34179913 269.84758463 -114.125 269.25 C-113.44284424 268.91347412 -112.76068848 268.57694824 -112.05786133 268.23022461 C-97.62568602 261.31834847 -82.30934048 256.39267066 -67.125 251.4375 C-46.56335642 244.68598071 -19.49721141 235.72410837 -9 215 C-7.1995039 209.59851171 -7.14491853 204.18715296 -9.5 198.9375 C-15.92783563 187.68322723 -28.03358279 181.206255 -38.6015625 174.375 C-39.60243896 173.72668213 -40.60331543 173.07836426 -41.63452148 172.41040039 C-43.61973243 171.12751438 -45.60864613 169.85033397 -47.60180664 168.57983398 C-71.83900906 152.97101744 -71.83900906 152.97101744 -75.62109375 139.24609375 C-76.79207495 132.30471037 -75.10640785 126.73313993 -71.3203125 120.87109375 C-63.78732492 111.54997276 -54.14719032 103.74877892 -44.828125 96.28515625 C-13.06544845 71.01580572 -13.06544845 71.01580572 3 35 C3.59171645 24.89071534 3.67630327 14.96010824 0.65625 5.21484375 C0 3 0 3 0 0 Z " fill="green" transform="translate(483,165)"/>
<path d="M0 0 C10.61358678 7.97822526 14.38806371 21.92212991 18.6875 34.0625 C18.94890778 34.79223022 19.21031555 35.52196045 19.47964478 36.27380371 C25.34364002 52.66507382 30.76566073 69.20848141 36.1875 85.75 C36.40566753 86.41552383 36.62383507 87.08104767 36.84861374 87.76673889 C41.76052124 102.75892873 46.5903034 117.77030299 51.16143799 132.87045288 C54.4973453 143.87777083 58.20930492 154.04924903 64 164 C65.00142545 165.79087032 66.00163682 167.58242074 67 169.375 C67.391875 170.04273438 67.78375 170.71046875 68.1875 171.3984375 C69 173 69 173 69 175 C68.01326294 175.05945801 68.01326294 175.05945801 67.0065918 175.12011719 C32.21585871 177.31061121 2.1298588 185.03970047 -23 211 C-25.38780112 213.87897312 -27.64499992 216.84899361 -29.82836914 219.88549805 C-30.84444467 221.28774558 -31.91745465 222.64840717 -33 224 C-33.66 224 -34.32 224 -35 224 C-35.28045166 223.07888428 -35.56090332 222.15776855 -35.84985352 221.20874023 C-38.73316379 212.00844771 -42.39897641 203.59348393 -46.9375 195.0625 C-47.60112092 193.79999615 -48.2645281 192.53737992 -48.92773438 191.2746582 C-59.13495884 171.9461136 -70.53260129 153.36210002 -82.18603516 134.87988281 C-91.08612873 120.74993614 -99.73880478 106.51291052 -108 92 C-108.56879883 91.00452148 -109.13759766 90.00904297 -109.72363281 88.98339844 C-111.52781926 85.82437376 -113.32731222 82.66272677 -115.125 79.5 C-115.97868164 78.00267334 -115.97868164 78.00267334 -116.84960938 76.47509766 C-117.37619141 75.54487793 -117.90277344 74.6146582 -118.4453125 73.65625 C-118.91469238 72.82931641 -119.38407227 72.00238281 -119.86767578 71.15039062 C-122.94044854 65.31490497 -122.92757171 59.29851436 -121.1640625 53.02734375 C-111.99712337 29.18714971 -87.33380334 17.37901807 -65.4375 7.33203125 C-47.62590261 -0.52507738 -18.34472134 -12.07982594 0 0 Z " fill="green" transform="translate(131,4)"/>
<path d="M0 0 C2.10771059 2.88600692 3.52731191 5.74806389 5.01953125 8.9921875 C6.48832243 11.19404625 7.97488622 13.34668679 9.51953125 15.4921875 C10.26203125 16.57113281 11.00453125 17.65007812 11.76953125 18.76171875 C14.60982624 22.83971173 17.53762804 26.84905279 20.48828125 30.84765625 C22.87104711 34.18474415 23.21733056 36.36616747 23.51953125 40.4296875 C23.75259767 43.55527468 24.02428068 46.00643579 25.01953125 48.9921875 C25.92102588 57.23116371 25.48198052 62.84037212 20.33203125 69.48046875 C19.89890625 69.97933594 19.46578125 70.47820312 19.01953125 70.9921875 C17.03953125 70.0021875 17.03953125 70.0021875 15.01953125 68.9921875 C15.01953125 68.3321875 15.01953125 67.6721875 15.01953125 66.9921875 C1.38848705 60.0406572 -11.2510991 60.80387447 -25.5534668 65.30126953 C-38.70224648 69.74013403 -54.06271736 76.47460255 -60.60546875 89.4921875 C-62.93152502 95.73868603 -62.35599821 101.59541637 -60.98046875 107.9921875 C-71.5395988 106.69170641 -77.93042558 103.89893118 -84.55078125 95.54296875 C-86.03925058 93.73645744 -86.03925058 93.73645744 -88.98046875 92.5546875 C-94.33066695 89.76812594 -97.08970821 85.35415 -99.19775391 79.7644043 C-100.32259037 76.04696932 -101.32910393 72.3169922 -102.29296875 68.5546875 C-102.63908203 67.28302734 -102.98519531 66.01136719 -103.34179688 64.70117188 C-104.28793248 61.14348069 -105.16065854 57.58091066 -105.98046875 53.9921875 C-106.18720215 53.10724609 -106.39393555 52.22230469 -106.60693359 51.31054688 C-107.15710143 48.25334223 -107.48468163 46.05461022 -106.13012695 43.20043945 C-104.86053127 41.43579095 -103.50029796 39.92065089 -101.98046875 38.3671875 C-101.46863037 37.80870117 -100.95679199 37.25021484 -100.42944336 36.67480469 C-98.96777085 35.0919991 -97.47728553 33.54164544 -95.98046875 31.9921875 C-95.36300781 31.30898437 -94.74554688 30.62578125 -94.109375 29.921875 C-77.30929776 11.90682958 -24.73988582 -16.66618782 0 0 Z " fill="green" transform="translate(207.98046875,189.0078125)"/>
</svg>
