<?xml version="1.0" encoding="UTF-8"?>
<svg version="1.1" xmlns="http://www.w3.org/2000/svg" width="512" height="512">
<path d="M0 0 C0.69116335 -0.00170885 1.38232669 -0.0034177 2.09443438 -0.00517833 C4.39758711 -0.00845807 6.70044491 0.00250517 9.00357056 0.01345825 C10.65960686 0.01402269 12.31564367 0.01370516 13.97167969 0.01257324 C18.4588286 0.01200002 22.94587033 0.02374944 27.43299437 0.03772116 C32.12551039 0.05023355 36.81802895 0.05139942 41.51055908 0.05377197 C50.39270753 0.05998524 59.27480668 0.076394 68.15693343 0.09647095 C78.27053707 0.1188347 88.38414308 0.12982458 98.4977653 0.13986182 C119.29871878 0.16076035 140.09962789 0.19593337 160.90054321 0.24050903 C160.90863007 1.21388718 160.91671692 2.18726532 160.92504883 3.19013977 C161.00290801 12.41322308 161.0907436 21.63616606 161.1880703 30.85906506 C161.2377804 35.5993838 161.28411029 40.33968295 161.32241821 45.08010864 C161.35959342 49.66436272 161.40603555 54.24844188 161.45860672 58.83254433 C161.47698104 60.57177947 161.49214983 62.31105187 161.50388718 64.05034447 C161.6381229 83.27385703 162.80860645 99.74634568 176.77944946 114.18191528 C188.23248325 124.89455093 202.13610096 127.32416091 217.26602173 127.4458313 C218.04762161 127.4557309 218.8292215 127.46563049 219.63450623 127.47583008 C222.18279128 127.50707211 224.73109489 127.53205266 227.27944946 127.55691528 C229.06021064 127.57751715 230.84096728 127.5985144 232.62171936 127.61988831 C237.28227031 127.67477543 241.94286293 127.72433017 246.60348511 127.7727356 C251.36985938 127.82319603 256.13617402 127.87875329 260.90249634 127.93386841 C270.23512755 128.04104121 279.5678108 128.14257493 288.90054321 128.24050903 C288.99213142 165.77891784 289.06259853 203.31730978 289.10480453 240.85580774 C289.10980726 245.28921747 289.11498456 249.72262698 289.12026978 254.15603638 C289.12131902 255.03863525 289.12236826 255.92123411 289.1234493 256.8305784 C289.14084675 271.11488046 289.17238081 285.39911802 289.2091544 299.68338184 C289.24658217 314.34420699 289.26878295 329.00499839 289.27689719 343.66586936 C289.28238116 352.70985734 289.29969155 361.753663 289.33220908 370.79759486 C289.35337964 377.00233458 289.35973751 383.20698026 289.35454872 389.41175346 C289.35199088 392.98973811 289.35586641 396.56740451 289.37736511 400.14533234 C289.40053891 404.03055783 289.39246985 407.91537225 289.38156128 411.80065918 C289.39321265 412.92325146 289.40486401 414.04584374 289.41686845 415.20245397 C289.34552782 424.61692631 287.14524398 432.7051476 280.60366821 439.70925903 C272.54131291 446.95798215 264.4857054 448.53958106 253.9201355 448.50793457 C252.81133837 448.51246568 251.70254123 448.5169968 250.56014419 448.52166522 C246.84316457 448.5343297 243.12633109 448.53268749 239.40933228 448.53103638 C236.74489802 448.53702037 234.08047522 448.54376903 231.41604614 448.5513916 C224.92840261 448.56798932 218.44079542 448.57350061 211.95313242 448.57461636 C206.67780274 448.57556749 201.40248502 448.57968106 196.12715912 448.58601761 C181.16145084 448.6036273 166.19577122 448.612857 151.2300525 448.61135666 C150.02038779 448.61123679 150.02038779 448.61123679 148.7862854 448.6111145 C147.9788543 448.61103274 147.17142319 448.61095098 146.33952448 448.61086674 C133.25836252 448.6100541 120.17731578 448.62918695 107.09618714 448.65739124 C93.65557321 448.68614126 80.21501542 448.69993034 66.77436996 448.69820368 C59.23211154 448.69754047 51.68997389 448.70300233 44.14774323 448.72455978 C37.72520676 448.74279959 31.30284579 448.74709612 24.88029459 448.73354094 C21.60604186 448.727025 18.33219425 448.72903102 15.05796051 448.74424744 C11.50130311 448.75970364 7.94552425 448.75038789 4.3888855 448.73498535 C3.36376869 448.74527248 2.33865189 448.7555596 1.28247094 448.76615846 C-7.83582667 448.67913251 -15.80598384 446.25929509 -22.56820679 439.94363403 C-28.54176977 433.29956909 -31.34627629 426.23850494 -31.35672569 417.28320694 C-31.36023177 416.60393036 -31.36373784 415.92465379 -31.36735016 415.22479308 C-31.37664951 412.95002206 -31.3717447 410.67550788 -31.36688232 408.40072632 C-31.37061933 406.75275265 -31.37522105 405.10478075 -31.38061297 403.45681167 C-31.39285225 398.92902405 -31.39258141 394.40131027 -31.39022422 389.87350988 C-31.38981629 384.98993127 -31.40085298 380.1063764 -31.41033936 375.22280884 C-31.42695558 365.65504322 -31.43244919 356.08730225 -31.43356411 346.51952341 C-31.43451432 338.74228806 -31.43862326 330.96506084 -31.44496536 323.18782806 C-31.46257971 301.1389181 -31.47180397 279.0900276 -31.47030441 257.04111055 C-31.4702245 255.85233197 -31.47014459 254.66355339 -31.47006226 253.43875122 C-31.46998049 252.24852143 -31.46989873 251.05829163 -31.46981449 249.83199427 C-31.46900161 230.54298286 -31.48813944 211.25404955 -31.51633899 191.96506074 C-31.54506426 172.1602196 -31.55887947 152.35541654 -31.55715144 132.55055404 C-31.5564874 121.43126488 -31.56198579 110.31205757 -31.58350754 99.19278717 C-31.60171464 89.72533081 -31.60607053 80.25799342 -31.59248869 70.79052714 C-31.58595661 65.9609278 -31.58585057 61.13155672 -31.60319519 56.30197906 C-31.61892029 51.87781103 -31.61606802 47.45405234 -31.59862693 43.02989432 C-31.59555579 41.4323271 -31.59919373 39.83472938 -31.61034708 38.23719814 C-31.68357278 27.00164155 -30.77544187 17.3083567 -22.80258179 8.77175903 C-16.10318284 2.74844622 -9.02609321 -0.01349192 0 0 Z M135.90054321 211.24050903 C131.96433892 215.44744296 129.78636826 219.28806219 128.01773071 224.79129028 C127.6392675 225.91221573 127.6392675 225.91221573 127.25315857 227.05578613 C126.41437279 229.55074757 125.59491717 232.05161172 124.77554321 234.55300903 C124.18399673 236.32723579 123.59127267 238.1010703 122.99746704 239.87454224 C121.68760776 243.79398055 120.38617067 247.71610002 119.08950806 251.6399231 C116.90021432 258.25588063 114.6782654 264.86072436 112.45346069 271.46479988 C110.70970318 276.64373201 108.97199364 281.82469753 107.23358917 287.00542831 C106.58907873 288.92492502 105.94347869 290.84405255 105.29769897 292.76312256 C104.08122258 296.38294971 102.87090589 300.00477904 101.66226196 303.62722778 C101.11321953 305.25596329 101.11321953 305.25596329 100.55308533 306.91760254 C100.21746078 307.92739166 99.88183624 308.93718079 99.53604126 309.97756958 C99.24295578 310.85318039 98.9498703 311.7287912 98.64790344 312.63093567 C97.04558174 318.22579591 96.59144101 321.98830372 98.80679321 327.34207153 C100.93058987 331.02837573 104.11072365 333.34559925 107.90054321 335.24050903 C112.82575471 335.78086497 116.76996039 335.78486372 121.27554321 333.61550903 C126.86489727 328.55847441 128.98720176 322.8455243 131.27627563 315.84207153 C131.58736771 314.91449036 131.89845978 313.98690918 132.21897888 313.03121948 C133.24012922 309.97883948 134.24829743 306.92234846 135.25601196 303.86550903 C135.96469016 301.73589571 136.67403548 299.60650429 137.38401794 297.47732544 C138.86801106 293.02066049 140.34594754 288.56204927 141.81924438 284.10183716 C143.70649156 278.38909997 145.60557977 272.68038944 147.50881481 266.97296143 C148.97339967 262.57839053 150.43328541 258.18227061 151.89159584 253.78561401 C152.59023929 251.68014853 153.28996749 249.57504267 153.99080467 247.4703064 C154.96940252 244.52799734 155.94204379 241.5837866 156.91299438 238.63894653 C157.20233856 237.77227356 157.49168274 236.90560059 157.78979492 236.01266479 C160.91565705 226.58118545 160.91565705 226.58118545 158.97085571 217.13504028 C156.47147471 212.71095347 152.75172555 210.2818573 148.02554321 208.74050903 C143.52480903 207.84552556 139.7080887 208.68694559 135.90054321 211.24050903 Z M49.58235168 232.8639679 C48.84559708 233.61084366 48.10884247 234.35771942 47.34976196 235.12722778 C46.56913895 235.90306717 45.78851593 236.67890656 44.98423767 237.47825623 C43.34366242 239.11544196 41.70933244 240.75890721 40.08096313 242.40823364 C37.59575374 244.92021544 35.08500149 247.40440792 32.57046509 249.88699341 C30.9744585 251.48630425 29.38000376 253.08716554 27.78726196 254.68972778 C26.66694832 255.7948597 26.66694832 255.7948597 25.52400208 256.9223175 C21.09443575 261.45237848 18.53187317 265.07838182 16.90054321 271.24050903 C16.96184622 276.20850015 18.79768475 279.40759516 22.06680298 283.03811646 C22.69410309 283.73528778 23.3214032 284.43245911 23.9677124 285.15075684 C28.80140665 290.37688585 33.79570608 295.44089453 38.80654907 300.49661255 C40.16448021 301.8711894 41.51701123 303.25112135 42.86416626 304.63626099 C44.83160173 306.65863274 46.81514631 308.66389594 48.80288696 310.66629028 C49.39585068 311.28192337 49.98881439 311.89755646 50.5997467 312.53184509 C54.73859653 316.65026649 58.24721001 318.6725712 63.90054321 320.24050903 C69.80512152 319.85162239 73.83180809 317.5931094 77.90054321 313.24050903 C80.25524558 309.3548341 81.32484065 305.76098007 80.52554321 301.24050903 C77.73361145 293.01752186 69.489944 286.69572664 63.46304321 280.74050903 C62.73150024 280.01347778 61.99995728 279.28644653 61.24624634 278.53738403 C59.46664497 276.76941405 57.68473403 275.00384526 55.90054321 273.24050903 C57.41572835 269.62623064 59.53591265 267.43754954 62.36538696 264.75613403 C63.24775024 263.90277466 64.13011353 263.04941528 65.03921509 262.17019653 C66.89526772 260.39315243 68.75720494 258.62223293 70.62515259 256.85769653 C75.69929496 251.92789519 79.28101896 248.21576235 80.90054321 241.24050903 C80.4714287 235.3243346 78.27609542 231.33069914 73.90054321 227.24050903 C63.89821315 222.15295152 57.10319189 225.50996963 49.58235168 232.8639679 Z M182.29898071 228.70535278 C179.08842217 232.5448804 177.73009261 235.05616159 177.58804321 239.99050903 C177.5506604 240.83097778 177.51327759 241.67144653 177.47476196 242.53738403 C178.36877704 248.2131495 182.70813098 252.29415336 186.66616821 256.20144653 C187.55562134 257.08445435 188.44507446 257.96746216 189.36148071 258.87722778 C190.74206665 260.232677 190.74206665 260.232677 192.15054321 261.61550903 C193.55433228 263.00576294 193.55433228 263.00576294 194.98648071 264.42410278 C197.2866946 266.7008451 199.59145766 268.97277074 201.90054321 271.24050903 C200.38177584 274.42992052 198.81113564 276.57297739 196.27554321 279.05300903 C195.56398071 279.75039185 194.85241821 280.44777466 194.11929321 281.16629028 C192.05534363 283.09579245 189.93805825 284.92316466 187.77554321 286.74050903 C182.81454436 291.04591238 178.77160423 295.37113156 176.83804321 301.74050903 C176.92783298 306.76873623 177.88533255 311.01663896 181.33413696 314.82254028 C185.6157906 318.52761214 189.01361877 319.33863747 194.57241821 319.66629028 C201.78620345 318.34699063 206.94872132 312.65964786 211.91616821 307.69363403 C212.65381409 306.96360168 213.39145996 306.23356934 214.15145874 305.48141479 C215.70154838 303.94208482 217.24773201 302.39881257 218.79019165 300.85183716 C221.14336743 298.49768779 223.51707008 296.16568933 225.89273071 293.83425903 C227.40184281 292.33035367 228.90969858 290.82518636 230.41616821 289.31863403 C231.12243347 288.62876404 231.82869873 287.93889404 232.55636597 287.2281189 C236.90242619 282.82058606 239.28159851 279.25082166 240.90054321 273.24050903 C240.84324736 268.27379923 239.00179116 265.07163435 235.73428345 261.44290161 C235.10698334 260.74573029 234.47968323 260.04855896 233.83337402 259.33026123 C228.99967978 254.10413222 224.00538034 249.04012354 218.99453735 243.98440552 C217.63660622 242.60982867 216.2840752 241.22989672 214.93692017 239.84475708 C212.9694847 237.82238533 210.98594012 235.81712213 208.99819946 233.81472778 C208.10875389 232.89127815 208.10875389 232.89127815 207.20133972 231.94917297 C200.19415312 224.97657226 190.61207347 221.10191429 182.29898071 228.70535278 Z " fill="green" transform="translate(127.09945678710938,31.759490966796875)"/>
<path d="M0 0 C5.61522665 4.67561025 10.80595184 9.66361844 15.96459961 14.83520508 C16.83368958 15.70254272 17.70277954 16.56988037 18.59820557 17.46350098 C20.96116998 19.82283935 23.32188962 22.18437823 25.68144679 24.54712129 C28.15563986 27.02385938 30.63228678 29.49814184 33.10853577 31.9728241 C37.25848187 36.12095678 41.4063276 40.27118091 45.55297852 44.42260742 C50.35171122 49.22680271 55.15406481 54.02735595 59.95827287 58.82607538 C64.08760696 62.95088034 68.21500039 67.07761957 72.34075934 71.20600051 C74.80331125 73.67011354 77.26653901 76.13354076 79.7315197 78.59522438 C82.47092627 81.3312215 85.2062576 84.07126982 87.94116211 86.81176758 C88.76238052 87.63096176 89.58359894 88.45015594 90.42970276 89.29417419 C91.16844635 90.03573761 91.90718994 90.77730103 92.6683197 91.54133606 C93.63915701 92.51273891 93.63915701 92.51273891 94.6296072 93.50376606 C96 95 96 95 96 96 C84.89068878 96.09273443 73.78146985 96.16378263 62.6718502 96.20724869 C57.51302786 96.22811166 52.35447058 96.25640597 47.19580078 96.30175781 C42.21614608 96.34526124 37.23674614 96.36914681 32.25691605 96.37950897 C30.35831314 96.38689224 28.45972398 96.40131014 26.56122971 96.42292023 C23.89907597 96.45201408 21.23797107 96.45595352 18.57568359 96.45410156 C17.79309174 96.46848267 17.01049988 96.48286377 16.20419312 96.49768066 C11.0243621 96.45876351 8.04882412 95.50072843 4 92 C-0.17311686 87.17351416 -0.56599386 83.51327876 -0.45410156 77.42431641 C-0.45497772 76.16479156 -0.45497772 76.16479156 -0.45587158 74.87982178 C-0.45309739 72.1199732 -0.4220375 69.36122107 -0.390625 66.6015625 C-0.38316023 64.68200266 -0.37746841 62.76243518 -0.37347412 60.84286499 C-0.35823638 55.80225408 -0.31897054 50.76210768 -0.2746582 45.72167969 C-0.23366539 40.57363162 -0.21545454 35.42550815 -0.1953125 30.27734375 C-0.15247454 20.18469228 -0.08424569 10.09238484 0 0 Z " fill="green" transform="translate(320,32)"/>
</svg>
